<svg width="81" height="105" viewBox="0 0 81 105" fill="none" xmlns="http://www.w3.org/2000/svg">
<path d="M44.544 24.6324L44.5213 24.5643C44.4986 24.4961 44.4532 24.4053 44.4305 24.3372L40.0473 15.2983L35.6642 24.3145C35.3689 24.9049 35.21 25.5635 35.21 26.2449C35.21 28.7885 37.3675 30.8324 40.0473 30.8324C42.7272 30.8324 44.8847 28.7657 44.8847 26.2449C44.8393 25.6771 44.7257 25.132 44.544 24.6324Z" stroke="#333F48" stroke-miterlimit="10"/>
<path d="M41.5005 21.5894C41.5005 21.5894 44.7254 28.1527 40.2969 29.4018" stroke="#333F48" stroke-miterlimit="10"/>
<path d="M38.8438 21.339L40.0247 18.8862" stroke="#333F48" stroke-miterlimit="10"/>
<path d="M33.2793 30.8325C33.2793 30.8325 39.3885 40.371 47.6778 30.8325" stroke="#333F48" stroke-miterlimit="10"/>
<path d="M42.5674 39.8033C46.1784 39.3037 48.5176 36.4194 51.9923 34.9887C56.6253 33.081 60.3952 37.3279 64.4831 38.8495C66.9813 39.7806 68.5029 39.7352 70.7513 38.1909" stroke="#333F48" stroke-miterlimit="10"/>
<path d="M52.5146 39.0988C59.2824 37.1457 64.0062 47.1383 70.7286 42.46" stroke="#333F48" stroke-miterlimit="10"/>
<path d="M47.2686 42.0743C48.4495 41.3021 49.585 40.4618 50.8341 39.8032" stroke="#333F48" stroke-miterlimit="10"/>
<path d="M61.0537 45.5947C64.2559 47.1845 67.39 49.3193 70.7284 46.753" stroke="#333F48" stroke-miterlimit="10"/>
<path d="M56.8076 43.9136C57.6706 44.1407 58.5109 44.4359 59.3285 44.7993" stroke="#333F48" stroke-miterlimit="10"/>
<path d="M49.4268 45.1626C50.9484 43.959 52.8561 43.4366 54.7865 43.5729" stroke="#333F48" stroke-miterlimit="10"/>
<path d="M61.3037 49.7734C64.5968 51.613 67.2312 53.4753 70.7513 51.0225" stroke="#333F48" stroke-miterlimit="10"/>
<path d="M53.6953 47.207C56.0345 47.0026 58.2374 48.0927 60.236 49.2055" stroke="#333F48" stroke-miterlimit="10"/>
<path d="M48.5859 49.7504C49.3127 49.0464 50.1303 48.4332 51.016 47.979" stroke="#333F48" stroke-miterlimit="10"/>
<path d="M38.8204 39.7804C35.2094 39.2807 32.8929 36.3965 29.4182 34.9657C24.7852 33.058 21.0152 37.3049 16.9273 38.8265C14.4291 39.7577 12.9075 39.7122 10.6592 38.1679" stroke="#333F48" stroke-miterlimit="10"/>
<path d="M38.8197 39.7803C39.3421 41.0066 40.5684 44.8902 38.4791 49.614C38.3428 50.159 38.252 50.7495 38.252 51.3627C38.252 53.6565 39.3421 54.7239 40.7047 54.7239C42.0673 54.7239 43.1575 53.6565 43.1575 51.3627C43.1575 50.8404 43.0893 50.3407 42.9985 49.8865L42.9758 49.8184" stroke="#333F48" stroke-miterlimit="10"/>
<path d="M42.9761 49.8641L42.9307 49.6597" stroke="#333F48" stroke-miterlimit="10"/>
<path d="M42.5677 39.8032C42.0908 41.0296 40.9779 44.8223 42.9765 49.864" stroke="#333F48" stroke-miterlimit="10"/>
<path d="M12.6575 43.1189C11.8853 42.8918 11.1586 42.5284 10.5 42.0742" stroke="#333F48" stroke-miterlimit="10"/>
<path d="M28.7138 38.7358C22.8999 37.0552 18.6303 43.5731 12.998 43.346" stroke="#333F48" stroke-miterlimit="10"/>
<path d="M33.9826 41.7105C32.8016 40.9384 31.6661 40.0981 30.417 39.4395" stroke="#333F48" stroke-miterlimit="10"/>
<path d="M14.7469 47.3887C12.8846 47.7748 12.0443 47.5477 10.5 46.3667" stroke="#333F48" stroke-miterlimit="10"/>
<path d="M20.1749 45.231C19.0394 45.7987 17.9039 46.3665 16.7002 46.8207" stroke="#333F48" stroke-miterlimit="10"/>
<path d="M24.4213 43.5508C23.5583 43.7779 22.718 44.0731 21.9004 44.4365" stroke="#333F48" stroke-miterlimit="10"/>
<path d="M31.8021 44.7998C30.2805 43.5962 28.3728 43.0738 26.4424 43.2101" stroke="#333F48" stroke-miterlimit="10"/>
<path d="M12.5667 51.6582C11.8172 51.4538 11.1132 51.1131 10.5 50.6816" stroke="#333F48" stroke-miterlimit="10"/>
<path d="M19.9251 49.4097C17.7676 50.636 15.3602 51.9306 12.7939 51.8397" stroke="#333F48" stroke-miterlimit="10"/>
<path d="M27.5335 46.8437C26.4661 46.7529 25.4214 46.9345 24.3994 47.2525" stroke="#333F48" stroke-miterlimit="10"/>
<path d="M15.4359 100.154H16.2459L17.0759 98.3038H20.8859L21.7059 100.154H22.5559L19.3659 93.1038H18.6259L15.4359 100.154ZM17.3859 97.5938L18.9859 94.0238L20.5759 97.5938H17.3859ZM23.9363 100.154H24.7063V94.4138L29.2263 100.154H29.8563V93.1538H29.0863V98.7638L24.6763 93.1538H23.9363V100.154ZM33.6867 100.154H34.4867V93.8838H36.8367V93.1538H31.3367V93.8838H33.6867V100.154ZM38.3911 100.154H39.1811V93.1538H38.3911V100.154ZM40.8912 97.5538H43.6712V96.7438H40.8912V97.5538ZM44.3129 100.154H45.1229L45.9529 98.3038H49.7629L50.5829 100.154H51.4329L48.2429 93.1038H47.5029L44.3129 100.154ZM46.2629 97.5938L47.8629 94.0238L49.4529 97.5938H46.2629ZM55.6531 100.274C56.8331 100.274 57.8131 99.7838 58.4631 99.2038V96.4138H55.5731V97.1238H57.7031V98.8638C57.2231 99.2538 56.4831 99.5638 55.6831 99.5638C53.9831 99.5638 52.9131 98.3238 52.9131 96.6538C52.9131 95.0738 54.0231 93.7638 55.5731 93.7638C56.5631 93.7638 57.1631 94.0938 57.7031 94.5638L58.2131 93.9638C57.5131 93.3738 56.7831 93.0338 55.6031 93.0338C53.5031 93.0338 52.0931 94.7338 52.0931 96.6538C52.0931 98.6738 53.4531 100.274 55.6531 100.274ZM60.2449 100.154H65.3549V99.4338H61.0349V96.9838H64.8549V96.2638H61.0349V93.8738H65.3049V93.1538H60.2449V100.154Z" fill="#333F48"/>
</svg>
