<svg width="81" height="105" viewBox="0 0 81 105" fill="none" xmlns="http://www.w3.org/2000/svg">
<path d="M55.8299 42.5181C53.0906 48.9819 46.9631 53.4754 39.8505 53.4754C32.7379 53.4754 26.6104 48.9819 23.8711 42.5181" stroke="#333F48" stroke-miterlimit="10"/>
<path d="M40.1632 46.2422C45.8166 46.2422 50.3996 41.7453 50.3996 36.198C50.3996 30.6508 45.8166 26.1538 40.1632 26.1538C34.5098 26.1538 29.9268 30.6508 29.9268 36.198C29.9268 41.7453 34.5098 46.2422 40.1632 46.2422Z" stroke="#333F48" stroke-miterlimit="10"/>
<path d="M43.6468 31.0078C46.5783 32.9061 47.3713 36.7748 45.449 39.6343C43.5266 42.5178 39.5859 43.3108 36.6543 41.4124" stroke="#333F48" stroke-miterlimit="10"/>
<path d="M69.8627 30.7437H53.9074C54.5562 32.3776 54.9166 34.1558 54.9166 36.0301C54.9166 44.2 48.1644 50.832 39.8503 50.832C31.5362 50.832 24.784 44.2 24.784 36.0301C24.784 34.1798 25.1445 32.4017 25.7932 30.7437H10.751V31.008" stroke="#333F48" stroke-miterlimit="10"/>
<path d="M11.7152 100.154H12.5252L13.3552 98.3038H17.1652L17.9852 100.154H18.8352L15.6452 93.1038H14.9052L11.7152 100.154ZM13.6652 97.5938L15.2652 94.0238L16.8552 97.5938H13.6652ZM20.2156 100.154H20.9856V94.4138L25.5056 100.154H26.1356V93.1538H25.3656V98.7638L20.9556 93.1538H20.2156V100.154ZM29.966 100.154H30.766V93.8838H33.116V93.1538H27.616V93.8838H29.966V100.154ZM34.6704 100.154H35.4604V93.1538H34.6704V100.154ZM37.1705 97.5538H39.9505V96.7438H37.1705V97.5538ZM40.5921 100.154H41.4021L42.2321 98.3038H46.0421L46.8621 100.154H47.7121L44.5221 93.1038H43.7821L40.5921 100.154ZM42.5421 97.5938L44.1421 94.0238L45.7321 97.5938H42.5421ZM51.8824 100.274C53.1524 100.274 53.9524 99.8238 54.6824 99.0838L54.1624 98.5338C53.4924 99.1738 52.8624 99.5438 51.9024 99.5438C50.3624 99.5438 49.1924 98.2738 49.1924 96.6538C49.1924 95.0238 50.3524 93.7638 51.9024 93.7638C52.8524 93.7638 53.5124 94.1638 54.1024 94.7238L54.6224 94.1638C53.9224 93.5038 53.1824 93.0338 51.9124 93.0338C49.8524 93.0338 48.3724 94.6738 48.3724 96.6538C48.3724 98.6838 49.8624 100.274 51.8824 100.274ZM56.0652 100.154H56.8352V94.4138L61.3552 100.154H61.9852V93.1538H61.2152V98.7638L56.8052 93.1538H56.0652V100.154ZM63.9656 100.154H69.0756V99.4338H64.7556V96.9838H68.5756V96.2638H64.7556V93.8738H69.0256V93.1538H63.9656V100.154Z" fill="#333F48"/>
</svg>
