<svg width="183" height="184" viewBox="0 0 183 184" fill="none" xmlns="http://www.w3.org/2000/svg">
<path d="M32.1758 148.355C32.1758 148.355 32.1757 145.523 32.2252 145.092C32.8841 137.838 38.1724 131.86 45.2564 130.253L60.94 126.693C63.6253 125.832 66.0965 124.937 68.1558 124.142C72.3897 122.52 75.4045 118.711 76.047 114.206C77.2167 105.959 75.5034 101.835 75.5034 101.835" stroke="#333F48" stroke-width="1.01619" stroke-miterlimit="10" stroke-linecap="round" stroke-linejoin="round"/>
<path d="M105.832 104.998C105.947 101.421 106.343 99.1023 106.343 99.1023" stroke="#333F48" stroke-width="1.01619" stroke-miterlimit="10" stroke-linecap="round" stroke-linejoin="round"/>
<path d="M150.165 145.739C150.165 145.739 150.165 145.507 150.115 145.093C149.456 137.839 144.168 131.861 137.084 130.254L121.4 126.694C119.687 126.147 118.073 125.584 116.59 125.054" stroke="#333F48" stroke-width="0.985338" stroke-miterlimit="10" stroke-linecap="round" stroke-linejoin="round"/>
<path d="M92.3068 109.767C90.3299 110.065 88.1717 109.867 86.4254 108.956C82.5869 106.952 77.6281 103.59 74.2838 100.907C71.7138 98.8538 69.7204 96.1543 68.4684 93.1071C67.0186 89.5797 65.7337 83.8827 64.6299 78.8151" stroke="#333F48" stroke-width="1.01619" stroke-miterlimit="10" stroke-linecap="round" stroke-linejoin="round"/>
<path d="M92.4717 109.751C94.4486 109.47 96.4749 108.658 97.8752 107.284C100.989 104.27 104.778 99.6159 107.216 96.0884C109.094 93.3725 110.248 90.2259 110.577 86.9468C110.956 83.1378 110.577 77.3249 110.198 72.1414" stroke="#333F48" stroke-width="1.01619" stroke-miterlimit="10" stroke-linecap="round" stroke-linejoin="round"/>
<path d="M60.627 77.7056C60.627 77.7056 57.6616 80.4381 60.2316 86.1351C62.8016 91.8486 65.0422 90.9874 65.0422 90.9874" stroke="#333F48" stroke-width="1.01619" stroke-miterlimit="10" stroke-linecap="round" stroke-linejoin="round"/>
<path d="M113.262 69.9895C113.262 69.9895 116.87 71.745 116.03 77.9553C115.19 84.1657 112.801 83.9835 112.801 83.9835" stroke="#333F48" stroke-width="1.01619" stroke-miterlimit="10" stroke-linecap="round" stroke-linejoin="round"/>
<path d="M91.8133 69.2772C91.9945 69.5422 92.3405 69.625 92.6205 69.476C94.7952 68.3333 97.7441 66.8097 99.5068 67.025C100.495 67.1409 102.324 67.704 103.362 68.0352C103.658 68.1345 103.889 67.7868 103.724 67.5383C102.456 65.7498 100.396 65.137 99.1609 65.2198C99.1609 65.2198 96.2943 65.3026 91.7968 68.0683C91.4838 68.267 91.4014 68.6645 91.5991 68.9791L91.8133 69.2772Z" fill="#333F48"/>
<path d="M80.2651 71.0652C80.1663 71.3799 79.8532 71.5621 79.5238 71.4958C77.0526 70.999 73.6918 70.3862 72.0114 71.1149C71.0724 71.5289 69.4415 72.6054 68.5024 73.2513C68.2388 73.4335 67.9093 73.1685 68.0082 72.8704C68.7331 70.734 70.5782 69.5251 71.8302 69.2435C71.8302 69.2435 74.6803 68.4817 79.9191 69.8894C80.2816 69.9888 80.4958 70.3697 80.364 70.7175L80.2651 71.0652Z" fill="#333F48"/>
<path d="M70.6592 78.799L71.0381 78.6996C71.417 78.6002 71.8124 78.6499 72.1584 78.8486C72.2078 78.8818 72.2737 78.9149 72.3396 78.948C72.8173 79.1633 73.2951 79.3289 73.8717 79.478C75.1237 79.7926 77.9409 80.8359 80.4285 77.1097" stroke="#333F48" stroke-width="1.01619" stroke-miterlimit="10" stroke-linecap="round" stroke-linejoin="round"/>
<path d="M103.641 71.2139L103.262 71.2967C102.883 71.3795 102.537 71.6113 102.339 71.926C102.306 71.9757 102.273 72.0254 102.207 72.0916C101.878 72.4891 101.532 72.87 101.071 73.2509C100.082 74.0955 98.0228 76.2815 94.1514 74.0624" stroke="#333F48" stroke-width="1.01619" stroke-miterlimit="10" stroke-linecap="round" stroke-linejoin="round"/>
<path d="M64.4326 129.161L79.8032 131.215C79.8032 131.215 82.3897 131.728 82.8839 134.179" stroke="#333F48" stroke-width="1.0003" stroke-miterlimit="10" stroke-linecap="round" stroke-linejoin="round"/>
<path d="M93.4443 116.343L95.1577 112.351C95.1906 112.318 98.8809 111.672 96.0802 120.549C95.5695 122.189 94.6964 124.623 95.3554 126.279C96.1626 128.333 99.4904 124.358 101.072 122.321L105.981 113.444C106.113 112.6 107.184 105.893 107.349 105.181C107.975 102.316 110.759 100.908 110.759 102.614L110.775 111.358C111.616 108.89 112.044 107.416 112.456 106.555C112.818 105.777 113.625 103.607 115.882 104.005C116.212 104.071 115.882 105.545 115.767 106.141L115.059 109.884C115.355 109.404 115.569 109.304 115.767 109.271C115.998 109.238 116.228 109.337 116.36 109.553C116.591 109.884 117.085 110.613 115.289 116.69C115.322 116.69 115.355 116.69 115.372 116.707C115.619 116.757 116.261 116.856 116.212 119.704C116.228 122.487 111.517 132.158 109.968 134.179L99.7705 144.181" stroke="#333F48" stroke-width="0.985338" stroke-miterlimit="10" stroke-linecap="round" stroke-linejoin="round"/>
<path d="M87.8438 140.108C87.9096 139.81 89.7218 137.789 89.4912 135.802C89.0299 131.811 88.9146 129.327 89.2935 128.035" stroke="#333F48" stroke-width="0.985338" stroke-miterlimit="10" stroke-linecap="round" stroke-linejoin="round"/>
<path d="M110.774 111.341C110.774 111.341 109.901 118.876 104.926 124.374" stroke="#333F48" stroke-width="0.985338" stroke-miterlimit="10" stroke-linecap="round" stroke-linejoin="round"/>
<path d="M115.058 109.851L112.439 118.578L109.968 124.325" stroke="#333F48" stroke-width="0.985338" stroke-miterlimit="10" stroke-linecap="round" stroke-linejoin="round"/>
<path d="M115.37 116.674C115.37 116.674 113.426 124.11 112.355 125.683" stroke="#333F48" stroke-width="0.985338" stroke-miterlimit="10" stroke-linecap="round" stroke-linejoin="round"/>
<path d="M86.6731 141.333L78.4854 148.355" stroke="#333F48" stroke-width="0.985338" stroke-miterlimit="10" stroke-linecap="round" stroke-linejoin="round"/>
<path d="M92.3233 117.651C92.3233 117.651 89.6874 124.855 89.8521 125.699" stroke="#333F48" stroke-width="0.985338" stroke-miterlimit="10" stroke-linecap="round" stroke-linejoin="round"/>
<path d="M98.8973 145.738L95.0752 151.253" stroke="#333F48" stroke-width="0.985338" stroke-miterlimit="10" stroke-linecap="round" stroke-linejoin="round"/>
<path d="M81.9105 47.6146C81.9105 47.6146 63.278 61.1118 64.1017 71.8432" stroke="#333F48" stroke-width="1.01619" stroke-miterlimit="10" stroke-linecap="round" stroke-linejoin="round"/>
<path d="M84.3496 47.2671C84.3496 47.2671 107.974 53.759 109.605 65.3185" stroke="#333F48" stroke-width="1.01619" stroke-miterlimit="10" stroke-linecap="round" stroke-linejoin="round"/>
<path d="M82.1426 38.7881L83.2958 45.9589" stroke="#333F48" stroke-width="1.01619" stroke-miterlimit="10" stroke-linecap="round" stroke-linejoin="round"/>
<path d="M81.3516 33.8197C81.3516 33.8197 68.6663 32.4783 62.3237 44.0378C58.0568 51.8048 56.1787 67.6867 58.3863 73.1518" stroke="#333F48" stroke-width="1.06564" stroke-miterlimit="10" stroke-linecap="round" stroke-linejoin="round"/>
<path d="M83.1309 33.5712C83.1309 33.5712 92.9661 28.9507 104.136 39.914C110.379 46.0415 115.997 59.1909 115.47 65.0535" stroke="#333F48" stroke-width="1.0425" stroke-miterlimit="10" stroke-linecap="round" stroke-linejoin="round"/>
<path d="M62.3721 68.9777C62.3721 68.9777 62.3391 55.5634 71.9272 48.525" stroke="#333F48" stroke-width="1.01619" stroke-miterlimit="10" stroke-linecap="round" stroke-linejoin="round"/>
<path d="M64.0875 95.5596C64.0875 95.5596 71.3692 119.606 57.4648 127.489" stroke="#333F48" stroke-width="1.01619" stroke-miterlimit="10" stroke-linecap="round" stroke-linejoin="round"/>
<path d="M83.9541 94.6978C83.9541 94.6978 86.4418 92.9589 87.9409 93.0086C89.4401 93.0583 89.5389 93.1245 89.5389 93.1245C89.5389 93.1245 90.099 92.5283 91.1699 92.4621C92.2572 92.4124 94.5636 93.1245 94.5636 93.1245C94.5636 93.1245 96.5076 98.0762 90.1979 98.8877C84.7284 99.5998 83.9541 94.6978 83.9541 94.6978Z" fill="#F2ACB9"/>
<path d="M87.1348 95.3594C88.6998 95.2269 89.1282 95.3925 89.6718 95.3097C90.6274 95.1607 91.8794 94.7135 92.9667 94.1339" stroke="#333F48" stroke-width="1.0003" stroke-miterlimit="10" stroke-linecap="round" stroke-linejoin="round"/>
<path d="M81.499 94.5974C81.499 94.5974 82.7675 95.6407 83.8713 95.5248C85.041 95.4089 85.6835 95.2433 86.639 95.3427" stroke="#333F48" stroke-width="1.0003" stroke-miterlimit="10" stroke-linecap="round" stroke-linejoin="round"/>
<path d="M97.6111 91.7333C97.6111 91.7333 96.8367 93.0913 95.7824 93.4059C94.6457 93.7371 94.0032 93.8365 93.1465 94.2837" stroke="#333F48" stroke-width="1.0003" stroke-miterlimit="10" stroke-linecap="round" stroke-linejoin="round"/>
<path d="M83.8402 95.111C83.4942 94.9454 85.257 93.7695 86.2784 93.2893C87.168 92.8587 88.0247 92.1963 89.4909 92.7924C89.4909 92.7924 90.1828 91.8319 92.6045 92.13C94.3344 92.3453 94.8286 93.074 95.9653 93.1568" stroke="#333F48" stroke-width="1.0003" stroke-miterlimit="10" stroke-linecap="round" stroke-linejoin="round"/>
<path d="M86.2441 98.5393C86.2441 98.5393 87.7433 100.195 91.1205 99.417C92.4055 99.1189 93.1963 98.4731 93.8553 97.8438" stroke="#333F48" stroke-width="1.0003" stroke-miterlimit="10" stroke-linecap="round" stroke-linejoin="round"/>
<path d="M84.2676 87.527C84.2676 87.527 85.8985 86.7652 86.5575 88.2888" stroke="#333F48" stroke-width="1.0003" stroke-miterlimit="10" stroke-linecap="round" stroke-linejoin="round"/>
<path d="M89.9346 87.4941C89.9346 87.4941 89.951 86.4838 91.4996 85.9208" stroke="#333F48" stroke-width="1.0003" stroke-miterlimit="10" stroke-linecap="round" stroke-linejoin="round"/>
</svg>
