<svg width="183" height="184" viewBox="0 0 183 184" fill="none" xmlns="http://www.w3.org/2000/svg">
<path d="M133.137 147.219L120.467 121.801C119.617 120.325 117.328 117.406 115.791 116.701C114.647 116.176 113.044 114.766 110.87 110.994L108.156 106.058C107.371 105.124 101.617 98.0393 102.826 95.0875L102.99 94.6939C102.892 94.5791 102.81 94.4807 102.745 94.4151C100.914 92.2997 100.554 90.4466 101.764 89.3315L102.042 89.0691L102.303 89.3479C102.32 89.3643 102.532 89.5939 102.892 89.9875C102.009 88.5608 101.862 87.8556 101.911 87.4292C101.96 87.0521 102.156 86.8553 102.32 86.7405L102.581 86.5601L114.696 98.6296C112.456 94.4643 108.189 85.3794 109.333 83.4115C109.513 83.1 109.824 82.9196 110.2 82.936H110.412L116.314 93.4804L120.679 100.384C121.333 97.3341 120.941 94.4151 121.922 92.7425C123.115 90.709 124.129 91.4142 124.129 91.4142L124.423 97.8261L125.208 103.156C125.322 103.582 126.696 108.895 127.448 111.306L151.137 144.432" stroke="#333F48" stroke-width="1.00844" stroke-miterlimit="10" stroke-linecap="round" stroke-linejoin="round"/>
<path d="M103.202 90.283L112.325 100.647" stroke="#333F48" stroke-width="1.00844" stroke-miterlimit="10" stroke-linecap="round" stroke-linejoin="round"/>
<path d="M103.008 94.7433L109.858 102.533" stroke="#333F48" stroke-width="1.00844" stroke-miterlimit="10" stroke-linecap="round" stroke-linejoin="round"/>
<path d="M58.227 151.253L67.3333 121.342C67.8401 119.718 69.0499 117.718 70.3905 116.668C71.3877 115.897 72.6303 114.159 73.9055 109.994L75.4422 104.582C75.9981 103.5 80.0362 95.3004 78.1888 92.693L77.9436 92.3486C78.009 92.2174 78.0744 92.1026 78.1071 92.0206C79.415 89.5444 79.3496 87.6585 77.9273 86.8386L77.5839 86.6418L77.3878 86.9862C77.3714 87.0026 77.2243 87.2814 76.9627 87.7405C77.5022 86.1499 77.4858 85.4283 77.3387 85.0183C77.2079 84.6576 76.979 84.51 76.7992 84.4444L76.5049 84.3296L67.3986 98.8261C68.6411 94.2673 70.7665 84.4608 69.2297 82.7881C68.9845 82.5257 68.6412 82.4273 68.2815 82.5257L68.0689 82.5749L64.6848 94.1689L61.9708 101.876C60.6466 99.0557 60.385 96.1203 59.0608 94.71C57.4422 93.0046 56.6084 93.9229 56.6084 93.9229L57.7529 100.236L58.1779 105.599C58.1616 106.042 57.9 114.11 57.7038 116.619L38.6738 148.662" stroke="#333F48" stroke-width="1.00844" stroke-miterlimit="10" stroke-linecap="round" stroke-linejoin="round"/>
<path d="M76.7509 88.0853L70.1787 100.237" stroke="#333F48" stroke-width="1.00844" stroke-miterlimit="10" stroke-linecap="round" stroke-linejoin="round"/>
<path d="M77.9432 92.3818L73.0059 101.532" stroke="#333F48" stroke-width="1.00844" stroke-miterlimit="10" stroke-linecap="round" stroke-linejoin="round"/>
<path d="M84.1242 96.3177C84.1242 96.3177 86.0533 94.5303 87.8026 94.809C89.552 95.0878 89.6664 95.1534 89.6664 95.1534C89.6664 95.1534 90.4348 94.6614 91.71 94.7598C92.9852 94.8582 94.849 96.1701 94.849 96.1701C94.849 96.1701 97.0397 101.352 89.5029 101.205C82.947 101.09 84.1242 96.3177 84.1242 96.3177Z" fill="#F2ACB9"/>
<path d="M93.377 97.0721C96.3851 96.8097 97.3497 95.219 97.3497 95.219" stroke="#333F48" stroke-width="1.00844" stroke-miterlimit="10" stroke-linecap="round" stroke-linejoin="round"/>
<path d="M87.1816 97.6287C87.9664 97.7599 88.7185 97.8419 89.3724 97.8419C90.5332 97.8419 92.0046 97.4975 93.3779 97.0712" stroke="#333F48" stroke-width="1.00844" stroke-miterlimit="10" stroke-linecap="round" stroke-linejoin="round"/>
<path d="M81.1973 96.0552C81.1973 96.0552 82.5542 97.3343 85.7422 97.3343" stroke="#333F48" stroke-width="1.00844" stroke-miterlimit="10" stroke-linecap="round" stroke-linejoin="round"/>
<path d="M83.3389 96.6953C83.3389 96.6953 84.9738 95.8425 86.0855 95.203C87.0991 94.629 87.9329 94.2354 89.5514 95.1046C89.5514 95.1046 91.1373 93.8911 93.377 95.203C93.8512 95.4818 94.6195 96.0065 96.0909 96.0229" stroke="#333F48" stroke-width="1.00844" stroke-miterlimit="10" stroke-linecap="round" stroke-linejoin="round"/>
<path d="M84.6641 99.5972C84.6641 99.5972 86.7404 102.221 90.5987 101.663C92.1518 101.434 93.2798 100.811 94.0809 100.122" stroke="#333F48" stroke-width="1.00844" stroke-miterlimit="10" stroke-linecap="round" stroke-linejoin="round"/>
<path d="M66.876 127.295C71.0776 125.688 74.0694 121.916 74.707 117.456C75.1648 114.274 75.2465 111.306 75.1975 108.863" stroke="#333F48" stroke-width="1.00844" stroke-miterlimit="10" stroke-linecap="round" stroke-linejoin="round"/>
<path d="M31.1699 148.663C31.1699 148.663 31.1699 148.433 31.2189 148.023C31.8729 140.84 37.1209 134.92 44.1508 133.33" stroke="#333F48" stroke-width="1.00844" stroke-miterlimit="10" stroke-linecap="round" stroke-linejoin="round"/>
<path d="M124.113 130.804L119.732 129.804C117.067 128.951 114.615 128.065 112.571 127.278C108.369 125.671 105.378 121.899 104.74 117.439C103.579 109.272 104.773 102.45 104.773 102.45" stroke="#333F48" stroke-width="1.00844" stroke-miterlimit="10" stroke-linecap="round" stroke-linejoin="round"/>
<path d="M67.1548 81.1321C67.024 79.5906 66.9096 78.0491 66.8115 76.5404" stroke="#333F48" stroke-width="1.00844" stroke-miterlimit="10" stroke-linecap="round" stroke-linejoin="round"/>
<path d="M89.569 110.847C87.5744 110.847 85.4818 110.355 83.9123 109.207C81.8687 107.731 79.5308 105.763 77.3564 103.746" stroke="#333F48" stroke-width="1.00844" stroke-miterlimit="10" stroke-linecap="round" stroke-linejoin="round"/>
<path d="M111.981 82.953C112.178 80.8376 112.341 78.6401 112.505 76.5575" stroke="#333F48" stroke-width="1.00844" stroke-miterlimit="10" stroke-linecap="round" stroke-linejoin="round"/>
<path d="M89.7314 110.847C91.726 110.847 93.8186 110.355 95.3881 109.207C97.9712 107.338 101.061 104.648 103.661 102.123" stroke="#333F48" stroke-width="1.00844" stroke-miterlimit="10" stroke-linecap="round" stroke-linejoin="round"/>
<path d="M78.6961 80.165C79.888 80.165 80.8541 78.9976 80.8541 77.5576C80.8541 76.1176 79.888 74.9502 78.6961 74.9502C77.5043 74.9502 76.5381 76.1176 76.5381 77.5576C76.5381 78.9976 77.5043 80.165 78.6961 80.165Z" fill="#333F48"/>
<path d="M100.554 80.034C101.683 80.034 102.598 78.9253 102.598 77.5578C102.598 76.1902 101.683 75.0815 100.554 75.0815C99.4257 75.0815 98.5107 76.1902 98.5107 77.5578C98.5107 78.9253 99.4257 80.034 100.554 80.034Z" fill="#333F48"/>
<path d="M63.0004 74.8845C63.0004 74.8845 59.698 77.1312 61.4146 83.1003C63.1312 89.0695 65.4527 88.5447 65.4527 88.5447" stroke="#333F48" stroke-width="1.00844" stroke-miterlimit="10" stroke-linecap="round" stroke-linejoin="round"/>
<path d="M115.791 74.8845C115.791 74.8845 119.094 77.1312 117.377 83.1003C115.66 89.0695 113.339 88.5447 113.339 88.5447" stroke="#333F48" stroke-width="1.00844" stroke-miterlimit="10" stroke-linecap="round" stroke-linejoin="round"/>
<path d="M94.8334 71.1128C94.9805 71.3916 95.3075 71.5228 95.6018 71.4244C97.8906 70.6045 101.013 69.5549 102.714 70.0141C103.662 70.2765 105.378 71.08 106.359 71.5556C106.637 71.6868 106.915 71.3916 106.784 71.1128C105.803 69.1778 103.858 68.2922 102.632 68.1938C102.632 68.1938 99.8034 67.8659 94.9969 69.9321C94.6699 70.0797 94.5228 70.4733 94.6863 70.7849L94.8334 71.1128Z" fill="#333F48"/>
<path d="M83.2418 71.1947C83.0946 71.4898 82.7676 71.621 82.457 71.5062C80.1028 70.6699 76.8984 69.5876 75.1327 70.0467C74.1518 70.3091 72.3861 71.1455 71.3725 71.6374C71.0946 71.785 70.8003 71.4734 70.9474 71.1783C71.9611 69.1776 73.9556 68.2757 75.2309 68.1773C75.2309 68.1773 78.1409 67.8329 83.0946 69.9647C83.4379 70.1123 83.5851 70.5223 83.4216 70.8503L83.2418 71.1947Z" fill="#333F48"/>
<path d="M105.982 76.2944L105.606 76.3764C105.23 76.4584 104.838 76.3928 104.511 76.196C104.462 76.1632 104.397 76.1304 104.331 76.0976C103.873 75.868 103.399 75.6876 102.827 75.5237C101.585 75.1793 98.8216 74.0642 96.2549 77.6719" stroke="#333F48" stroke-width="1.00844" stroke-miterlimit="10" stroke-linecap="round" stroke-linejoin="round"/>
<path d="M73.0889 76.2944L73.4649 76.3764C73.8409 76.4584 74.2333 76.3928 74.5603 76.196C74.6093 76.1632 74.6747 76.1304 74.7401 76.0976C75.1979 75.868 75.672 75.6876 76.2442 75.5237C77.4867 75.1793 80.2496 74.0642 82.8164 77.6719" stroke="#333F48" stroke-width="1.00844" stroke-miterlimit="10" stroke-linecap="round" stroke-linejoin="round"/>
<path d="M86.4297 136.2C86.4297 136.2 89.1926 138.889 91.5632 136.2" stroke="#333F48" stroke-width="0.992672" stroke-miterlimit="10" stroke-linecap="round" stroke-linejoin="round"/>
<path d="M65.4541 132.542L78.435 134.28C78.435 134.28 81.0018 134.789 81.4922 137.216" stroke="#333F48" stroke-width="0.992672" stroke-miterlimit="10" stroke-linecap="round" stroke-linejoin="round"/>
<path d="M115.874 130.772L99.7209 134.101C99.7209 134.101 97.1215 134.412 96.4512 136.806" stroke="#333F48" stroke-width="0.992672" stroke-miterlimit="10" stroke-linecap="round" stroke-linejoin="round"/>
<path d="M87.6401 46.6289C87.6401 46.6289 67.4493 57.2553 66.7627 67.8654" stroke="#333F48" stroke-width="1.00844" stroke-miterlimit="10" stroke-linecap="round" stroke-linejoin="round"/>
<path d="M90.0752 46.6289C90.0752 46.6289 112.375 56.3042 112.375 67.8654" stroke="#333F48" stroke-width="1.00844" stroke-miterlimit="10" stroke-linecap="round" stroke-linejoin="round"/>
<path d="M89.0771 38.0035L89.2243 45.2026" stroke="#333F48" stroke-width="1.00844" stroke-miterlimit="10" stroke-linecap="round" stroke-linejoin="round"/>
<path d="M89.0122 33.0346C89.0122 33.0346 76.7343 29.9352 68.9032 40.3813C63.6389 47.4 59.5681 62.7001 60.9904 68.374" stroke="#333F48" stroke-width="1.05751" stroke-miterlimit="10" stroke-linecap="round" stroke-linejoin="round"/>
<path d="M90.7783 33.0343C90.7783 33.0343 101.078 29.8858 110.544 42.2013C115.825 49.0888 119.519 62.7654 118.179 68.4394" stroke="#333F48" stroke-width="1.03456" stroke-miterlimit="10" stroke-linecap="round" stroke-linejoin="round"/>
<path d="M65.4541 64.8314C65.4541 64.8314 67.3015 51.6632 77.683 46.1204" stroke="#333F48" stroke-width="1.00844" stroke-miterlimit="10" stroke-linecap="round" stroke-linejoin="round"/>
<path d="M92.1673 89.2823C92.1673 89.2823 91.121 89.2823 90.9248 89.9055" stroke="#333F48" stroke-width="1.01778" stroke-miterlimit="10" stroke-linecap="round" stroke-linejoin="round"/>
<path d="M86.2656 89.2823C86.2656 89.2823 87.3119 89.2823 87.5081 89.9055" stroke="#333F48" stroke-width="1.01778" stroke-miterlimit="10" stroke-linecap="round" stroke-linejoin="round"/>
</svg>
