<svg width="169" height="62" viewBox="0 0 169 62" fill="none" xmlns="http://www.w3.org/2000/svg">
<rect width="169" height="62" rx="30" fill="#F2ACB9"/>
<path d="M41.584 36H42.848V25.952H48.736V24.8H41.584V36ZM49.5819 38.064H50.5899L50.8139 36H57.5019V38.064H58.5259L58.7179 34.912H57.4699V27.728H51.5819V29.168C51.5819 31.952 51.1499 33.68 50.4779 34.912H49.5819V38.064ZM51.7899 34.912C52.3659 33.84 52.7659 32.016 52.7659 29.968V28.816H56.2379V34.912H51.7899ZM64.0233 36.192C65.5913 36.192 66.5993 35.568 67.4313 34.64L66.6633 33.952C65.9913 34.656 65.1913 35.12 64.0553 35.12C62.5993 35.12 61.3193 34.112 61.1432 32.368H67.7033C67.7193 32.176 67.7193 32.048 67.7193 31.936C67.7193 29.504 66.3113 27.552 63.8633 27.552C61.5753 27.552 59.8953 29.472 59.8953 31.872C59.8953 34.448 61.7513 36.192 64.0233 36.192ZM61.1432 31.376C61.3193 29.776 62.4073 28.592 63.8313 28.592C65.4633 28.592 66.3273 29.872 66.4713 31.376H61.1432ZM74.6729 36H75.9049V34L77.6489 32.208L80.5929 36H82.0489L78.4969 31.312L81.9529 27.728H80.4329L75.9049 32.496V27.728H74.6729V36ZM85.031 38.608C86.279 38.608 87.079 37.984 87.783 36.272L91.255 27.728H89.943L87.287 34.624L84.279 27.728H82.919L86.679 35.968C86.183 37.136 85.719 37.52 84.983 37.52C84.455 37.52 84.087 37.424 83.687 37.216L83.271 38.192C83.831 38.464 84.343 38.608 85.031 38.608ZM93.2041 36H94.4361V28.816H99.1401V36H100.372V27.728H93.2041V36ZM103.126 36H104.31L109.238 29.456V36H110.47V27.728H109.27L104.358 34.272V27.728H103.126V36ZM115.22 36H116.468V28.816H119.428V27.728H112.26V28.816H115.22V36ZM121.22 36H124.804C126.692 36 127.924 34.96 127.924 33.312C127.924 31.568 126.452 30.832 124.66 30.832H122.452V27.728H121.22V36ZM122.452 34.912V31.888H124.644C125.908 31.888 126.676 32.384 126.676 33.344C126.676 34.384 125.924 34.912 124.692 34.912H122.452Z" fill="#333F48"/>
</svg>
