<svg width="201" height="181" viewBox="0 0 201 181" fill="none" xmlns="http://www.w3.org/2000/svg">
<path d="M171.267 63.3241C171.743 62.2436 171.593 61.8205 170.341 60.6657C169.748 60.1356 169.109 59.3307 168.888 58.8833C168.553 58.1569 168.559 58.0901 169.059 58.1622C171.746 58.5662 175.126 57.9671 175.782 56.9958C176.5 55.9196 175.346 53.8444 173.798 53.4404C173.162 53.2445 172.543 52.9963 171.947 52.6982L170.89 52.151L172.115 49.7684C173.092 47.8841 173.298 47.2235 173.129 46.5396C172.831 45.3446 172.351 45.1802 170.534 45.6309C169.358 45.9235 168.46 46.3657 167.216 47.2659C166.287 47.935 165.183 48.6031 164.759 48.7504C164.078 49.0071 164.001 48.9625 163.867 48.25C162.994 43.7848 162.69 43.1814 161.318 43.0404C160.085 42.9344 159.193 43.8526 157.863 46.5915C157.243 47.8831 156.561 49.0155 156.366 49.1088C156.153 49.2064 155.158 48.8395 154.168 48.2977C151.131 46.6679 149.764 46.4601 148.857 47.5618C148.538 47.9477 148.538 48.2309 148.97 49.3283C149.501 50.7503 149.926 51.2137 152.262 53.0396L153.789 54.2357L152.972 55.3576L152.177 56.4741L145.985 58.0138C142.579 58.8621 138.709 59.6913 137.394 59.8652C133.653 60.336 126.492 59.7528 123.723 58.756C121.505 57.9512 117.319 55.4032 116.046 54.0788C114.056 51.9909 111.401 50.8351 108.96 50.9814C107.408 51.0875 106.676 50.3452 106.121 48.1185C105.714 46.4908 105.71 46.0317 106.165 44.0806C106.455 42.8707 107.077 40.9663 107.593 39.8741C108.797 37.1458 108.901 36.2445 108.259 33.6689C107.596 31.0106 107.06 30.3563 103.193 27.3354C98.8116 23.9167 96.325 22.9158 92.7762 23.0939L91.1511 23.1692L88.9459 25.1404C87.2464 26.6779 86.4731 27.6153 85.4906 29.3903C83.4246 33.056 82.9169 34.6253 83.3025 36.0844C83.653 37.3971 84.5028 38.5232 86.6526 40.4595C88.6889 42.2939 90.4447 45.3806 91.1744 48.3942C92.0486 51.8934 91.6694 54.7701 89.8871 58.1675C88.7133 60.407 87.7892 61.0082 83.4544 62.2616C77.8194 63.9253 65.4926 66.3557 63.2132 66.2655C62.1966 66.2337 61.025 66.2846 60.5917 66.3917C59.539 66.6536 56.0678 65.8318 54.8207 65.0482C53.4643 64.1819 52.8876 63.1873 52.2864 60.776C51.6129 58.0774 50.4434 56.3766 48.9011 55.8188C47.4257 55.2664 46.7034 55.2706 45.5372 55.7807C44.6874 56.1454 44.3687 56.5515 43.3161 58.7391C41.709 62.0495 41.368 62.3528 39.4922 62.2075C38.687 62.1449 36.5775 61.7717 34.7877 61.3592C29.8665 60.2628 27.6476 60.8587 28.218 63.1449C28.5271 64.3823 28.986 64.8149 30.7599 65.4236C32.4105 65.9771 34.9683 67.4383 34.7962 67.7246C34.7346 67.8306 33.8626 67.9367 32.8205 67.9748C30.369 68.0809 26.3549 68.7722 25.2301 69.2716C24.699 69.5123 24.2592 69.9503 24.1042 70.3829C23.6963 71.5567 24.4642 72.1749 26.8011 72.5789C28.5855 72.8801 29.0604 72.8493 31.274 72.3202C34.2248 71.5864 35.8042 71.4136 35.7777 71.8345C35.7575 72.1028 34.3118 72.9002 29.0529 75.4546C26.7872 76.5648 26.0639 77.5329 26.7384 78.5689C27.5266 79.7947 28.6673 79.7958 33.6204 78.5689C36.5722 77.8351 38.0996 77.5425 38.1453 77.728C38.2229 78.0366 36.2408 79.6685 33.6905 81.3958C31.7031 82.7436 31.0212 83.788 31.4843 84.683C31.7141 85.048 32.0613 85.3243 32.4689 85.4666C33.3304 85.668 37.2488 84.6056 39.4253 83.5579C41.2416 82.6683 44.5089 80.4776 45.5626 79.4225C45.9089 79.0524 47.4831 77.9825 49.0424 77.0261L51.9018 75.3083L55.0077 74.8428C56.721 74.5915 58.7997 74.4027 59.6357 74.4187C61.6326 74.4261 66.0737 74.8322 67.3685 75.1005C67.9251 75.2245 69.1169 75.3443 70.024 75.3815C70.9235 75.4212 71.8195 75.52 72.706 75.6773C73.2679 75.8215 74.8782 75.9466 76.2909 75.989C79.5306 76.059 80.4548 76.3326 81.8664 77.6008C84.2383 79.7215 84.6547 80.6059 86.7429 87.9202C88.5487 94.1902 89.3814 96.4774 91.8585 101.835C92.3375 102.877 93.558 107.08 95.3457 113.967L98.0808 124.491L98.0054 127.617C97.9194 131.664 97.8206 132.236 96.7042 134.877C95.6027 137.492 95.2724 138.012 93.3881 139.947C92.0603 141.305 88.6177 143.671 87.5853 143.928C86.966 144.082 83.8272 146.7 83.311 147.533C82.7799 148.32 83.0306 149.747 83.7518 150.093C84.0768 150.253 85.1093 150.083 87.307 149.493C89.9805 148.784 92.261 148.524 92.3588 148.916C92.3736 148.977 92.1049 149.658 91.7693 150.419C90.7655 152.724 91.2382 154.728 92.8686 155.178C93.6217 155.39 93.7609 155.329 95.1545 154.151C96.4047 153.097 97.3745 152.505 97.4212 152.777C97.4212 152.798 97.384 153.334 97.3224 153.962C97.093 156.12 98.1722 158.675 99.433 158.995C100.389 159.218 102.162 158.951 103.127 158.427C104.278 157.768 105.704 155.401 106.175 153.337C106.356 152.483 106.6 151.788 106.723 151.756C107.013 151.685 109.429 154.608 110.485 156.292C110.928 157.014 111.573 157.75 111.923 157.926C112.903 158.426 113.522 158.097 114.422 156.604C115.243 155.241 115.342 154.581 115.132 151.727C115.006 149.81 115.568 149.78 118.027 151.554C119.1 152.337 120.171 153.038 120.429 153.101C121.11 153.282 122.029 152.66 122.175 151.923C122.366 150.934 120.455 147.667 118.718 145.977C117.94 145.235 116.527 143.787 115.569 142.755L113.828 140.89L111.397 130.532C110.06 124.824 108.889 119.251 108.787 118.138C108.296 112.745 109.234 109.033 111.143 108.866C111.612 108.814 111.87 109.056 112.417 110.123C112.778 110.865 113.849 112.962 114.766 114.789C115.683 116.616 117.145 119.143 117.991 120.42C118.851 121.673 120.026 123.389 120.587 124.238C121.494 125.589 121.736 126.207 122.553 129.482C123.57 133.563 123.581 134.129 122.72 139.989C122.439 141.765 122.464 142.746 122.813 144.495C123.219 146.56 123.291 146.762 124.039 147.297C124.812 147.849 124.92 147.845 127.263 147.219L129.673 146.598L131.033 147.484C132.106 148.181 132.581 148.325 133.22 148.166C134.047 147.961 134.702 147.163 135.054 145.939C135.189 145.425 135.266 145.383 135.767 145.632C136.085 145.77 136.756 146.436 137.277 147.116C137.879 147.858 138.488 148.368 138.947 148.451C139.591 148.575 139.747 148.493 140.18 147.772C140.553 147.154 140.62 146.548 140.461 145.207C140.333 144.253 140.298 143.323 140.339 143.138C140.505 142.659 141.144 142.587 142.031 142.98C142.924 143.392 143.765 143.249 144.323 142.585C144.747 142.086 144.612 141.2 143.882 139.501C143.227 137.933 143.409 137.517 144.807 137.584C145.647 137.616 146.246 137.903 147.144 138.689C148.582 139.885 149.34 140.025 150.079 139.207C150.44 138.81 150.56 138.408 150.421 137.853C150.143 136.739 147.463 133.554 145.777 132.332C143.88 130.967 139.994 126.811 139.777 125.946C139.732 125.761 139.047 124.859 138.273 123.957C136.063 121.334 131.492 114.702 129.025 110.523C128.077 108.921 127.943 108.472 125.738 99.0201C124.058 91.7566 123.431 88.6286 123.34 87.038C123.285 85.8483 123.11 83.7509 122.978 82.3364C122.738 79.7915 122.396 75.8682 122.212 73.3795C122.156 72.6266 122.193 71.6331 122.297 71.1697L122.473 70.2938L125.826 69.5049C128.665 68.8422 129.517 68.7404 131.327 68.8804C134.122 69.1041 136.31 68.9111 139.324 68.1614C141.021 67.7881 142.739 67.5144 144.468 67.3418C146.14 67.1891 150.174 66.4055 155.324 65.2561C164.106 63.2912 163.745 63.3379 167.64 64.0981C169.955 64.5689 170.771 64.4109 171.267 63.3241Z" fill="#333F48"/>
</svg>
