<svg width="160" height="170" viewBox="0 0 160 170" fill="none" xmlns="http://www.w3.org/2000/svg">
<path fill-rule="evenodd" clip-rule="evenodd" d="M148.273 76.1813C152.088 78.2003 155.913 80.2247 158.942 83.344C159.031 83.456 159.093 83.5877 159.121 83.7282C159.15 83.8688 159.144 84.0141 159.105 84.152C159.066 84.29 158.994 84.4166 158.896 84.5213C158.799 84.626 158.677 84.7058 158.542 84.754L156.092 85.514C155.909 85.5849 155.705 85.5849 155.522 85.514H155.442C151.855 86.6026 148.363 87.9839 145.002 89.644C142.01 91.0922 139.392 93.2103 137.352 95.834C136.356 97.1352 135.724 98.678 135.522 100.304C135.407 101.967 135.727 103.632 136.452 105.134C137.555 107.563 139.316 109.647 141.073 111.727C143.649 114.774 146.216 117.812 146.692 121.914C146.72 122.048 146.713 122.187 146.671 122.318C146.63 122.448 146.555 122.566 146.454 122.659C146.353 122.752 146.23 122.817 146.096 122.847C145.962 122.878 145.823 122.873 145.692 122.834L140.442 121.404L129.722 118.484L124.242 116.994C122.766 116.434 121.187 116.199 119.612 116.304C116.792 116.784 116.542 120.144 116.542 122.444C116.552 126.134 116.732 129.824 117.002 133.504C117.132 135.304 117.292 137.164 117.482 138.914C117.563 139.661 117.661 140.406 117.758 141.152C117.889 142.153 118.02 143.155 118.112 144.164C118.295 145.426 118.15 146.714 117.692 147.904C117.398 148.559 116.927 149.117 116.331 149.517C115.735 149.917 115.039 150.141 114.322 150.164C112.823 150.117 111.366 149.657 110.112 148.834C109.468 148.467 108.833 148.086 108.198 147.704C107.342 147.191 106.485 146.676 105.602 146.194C104.062 145.354 102.482 144.554 100.872 143.844C99.5625 143.2 98.1517 142.788 96.7019 142.624C95.9983 142.532 95.2831 142.596 94.6072 142.812C93.9313 143.028 93.3114 143.391 92.7919 143.874C91.8641 144.928 91.1812 146.175 90.7919 147.524C89.5519 150.774 88.2519 153.974 86.7919 157.124C85.3319 160.274 83.7519 163.424 82.0519 166.424C81.9663 166.58 81.8784 166.752 81.7862 166.932C81.2104 168.056 80.4655 169.511 79.0519 169.554C77.6154 169.598 77.0919 168.222 76.6549 167.074C76.5929 166.911 76.5327 166.753 76.4719 166.604C73.9696 160.499 70.5428 154.816 66.3119 149.754C64.2819 147.334 61.9719 145.084 58.9719 144.004C56.0291 143.134 52.9475 142.832 49.8918 143.114C46.7429 143.385 43.5809 143.472 40.4219 143.374C39.7256 143.394 39.0362 143.232 38.4219 142.904C38.1429 142.693 37.9299 142.407 37.8077 142.079C37.6855 141.752 37.6592 141.396 37.7319 141.054C38.0231 139.437 38.4823 137.855 39.1019 136.334C39.2742 135.848 39.454 135.352 39.6367 134.849C41.4369 129.89 43.5051 124.193 41.1719 119.254L41.0118 118.944C40.915 118.91 40.827 118.854 40.7544 118.782C40.6817 118.709 40.6262 118.621 40.5919 118.524C40.2569 117.749 39.7538 117.058 39.1191 116.501C38.4844 115.944 37.7339 115.535 36.9219 115.304C35.0969 114.801 33.1807 114.726 31.3219 115.084C30.0003 115.249 28.7111 115.479 27.4336 115.707C26.7004 115.837 25.9712 115.967 25.2419 116.084C21.1419 116.724 17.0218 117.194 12.8818 117.534C12.4018 117.614 12.1219 117.014 12.2319 116.614C12.9163 114.147 14.6144 112.182 16.2819 110.253C16.4661 110.04 16.6499 109.827 16.8319 109.614C17.7386 108.611 18.5364 107.515 19.2119 106.344C19.8719 105.124 20.4819 103.494 20.0019 102.124C19.5938 100.959 18.1732 100.315 17.0193 99.7913C16.8163 99.6992 16.6215 99.6108 16.4419 99.524C14.9874 98.8372 13.4911 98.2427 11.9619 97.744C10.4056 97.2412 8.8191 96.8371 7.2119 96.534C6.32483 96.3643 5.43176 96.2455 4.53927 96.1268C3.80185 96.0287 3.06483 95.9307 2.3319 95.804C1.58983 95.7694 0.873887 95.5192 0.271837 95.084C0.0823548 94.8274 -0.0131155 94.5135 0.00145088 94.1948C0.0160173 93.8762 0.139812 93.5722 0.351915 93.334C1.12256 92.2068 2.02563 91.1761 3.04186 90.264C5.13366 88.4244 7.3673 86.7525 9.72191 85.264C9.94074 85.1169 10.162 84.9692 10.3847 84.8205C12.5231 83.3931 14.7978 81.8746 16.3918 79.864C17.3518 78.8174 17.8929 77.4541 17.9119 76.034C17.8192 74.7365 16.8463 73.865 15.9082 73.0246C15.7329 72.8675 15.5588 72.7115 15.3918 72.554L7.31188 65.224C6.91828 64.8673 6.51335 64.5163 6.10725 64.1643C5.19266 63.3715 4.27213 62.5735 3.4619 61.694C2.97476 61.2032 2.58758 60.6225 2.32189 59.984C2.06789 59.3979 2.01169 58.7449 2.16185 58.124C2.17138 58.07 2.19284 58.0188 2.2246 57.9741C2.25635 57.9293 2.29759 57.8922 2.34544 57.8654C2.3933 57.8386 2.44648 57.8228 2.50121 57.8191C2.55593 57.8154 2.61082 57.8239 2.66185 57.844C2.9983 57.5108 3.37845 57.2249 3.79186 56.994C4.56058 56.5396 5.37514 56.1676 6.22191 55.884C7.18318 55.5426 8.16098 55.2536 9.13795 54.9648C10.0209 54.7039 10.9031 54.4431 11.7718 54.144C15.6516 52.8105 19.4062 51.1373 22.9919 49.144C24.7777 48.3019 26.4289 47.1999 27.8918 45.874C29.1048 44.4365 29.9371 42.7172 30.3119 40.874C31.4078 36.756 31.7466 32.4731 31.3119 28.234C31.1714 26.8868 30.8964 25.5844 30.6248 24.2983C30.4711 23.5701 30.3184 22.847 30.1919 22.124C29.9619 20.744 29.8419 17.734 31.8419 17.624C33.5219 17.534 35.2319 18.734 36.4619 19.734C36.9141 20.1026 37.3558 20.4837 37.7964 20.8639C38.7784 21.711 39.7551 22.5538 40.8319 23.244C44.0119 25.364 48.0319 27.194 51.9319 26.674C55.2368 26.1062 58.2282 24.371 60.3619 21.784C63.4489 18.3413 65.18 14.0879 66.9118 9.8327C68.0523 7.03028 69.1932 4.22705 70.7219 1.65402C70.7847 1.54918 70.8712 1.46056 70.9745 1.39529C71.0778 1.33002 71.1949 1.28994 71.3165 1.27826C71.4381 1.26659 71.5608 1.28364 71.6747 1.32807C71.7885 1.37249 71.8903 1.44304 71.9719 1.53401C72.2489 1.14871 72.5866 0.810979 72.9719 0.534015C73.4569 0.190548 74.0483 0.0310946 74.6402 0.0842388C75.2322 0.137383 75.7858 0.39965 76.2019 0.824015C76.6751 1.33702 77.0543 1.92941 77.3219 2.57402C77.6419 3.25402 77.9819 3.91402 78.3219 4.57402C79.7607 7.34167 81.4335 9.98128 83.3219 12.464C85.2159 14.9378 87.3204 17.2431 89.6119 19.354C90.7019 20.364 91.9818 21.454 93.5318 21.534C95.1462 21.4553 96.6924 20.8593 97.9419 19.834C100.756 17.9029 103.299 15.6248 105.843 13.3457C107.91 11.4939 109.977 9.64155 112.192 7.97402C113.41 7.00974 114.7 6.14051 116.052 5.37402C116.374 5.15395 116.751 5.02723 117.141 5.00782C117.531 4.98841 117.919 5.07706 118.262 5.26402C118.5 5.44482 118.7 5.67159 118.85 5.93094C118.999 6.19029 119.095 6.47697 119.132 6.77402C119.373 8.4526 119.44 10.1516 119.332 11.844C119.272 13.604 119.112 15.364 118.952 17.114C118.422 22.824 118.012 28.854 121.012 34.004C122.405 36.3156 124.591 38.0426 127.162 38.864C128.724 39.3575 130.313 39.7615 131.922 40.074C133.672 40.464 135.432 40.824 137.192 41.174C140.705 41.8674 144.232 42.474 147.772 42.994C148.018 43.0348 148.267 43.0676 148.517 43.1005C149.614 43.2453 150.719 43.3911 151.632 44.214C152.752 45.224 152.442 46.624 151.632 47.744C149.764 50.0654 147.637 52.1657 145.292 54.004C142.995 55.8591 141.042 58.1032 139.522 60.634C138.766 61.9643 138.166 63.3768 137.732 64.844C137.312 66.254 136.862 67.854 137.862 69.144C138.781 70.2233 139.852 71.1631 141.042 71.934C142.195 72.7569 143.394 73.5147 144.632 74.204C145.827 74.8865 147.05 75.5337 148.273 76.1813ZM125.932 76.074C126.581 73.4527 126.963 70.7723 127.072 68.074H127.022C127.387 63.5367 126.692 58.9765 124.992 54.754C123.214 50.9753 120.231 47.894 116.512 45.994C112.433 43.9414 107.938 42.8534 103.372 42.814C100.849 42.7456 98.3242 42.8324 95.8119 43.074C94.6084 43.1343 93.4115 43.2881 92.2319 43.534C91.3245 43.73 90.4712 44.1226 89.7319 44.684C89.6818 44.7295 89.6216 44.7624 89.5564 44.7803C89.4911 44.7981 89.4226 44.8003 89.3563 44.7866C89.2901 44.773 89.2279 44.7439 89.175 44.7017C89.1221 44.6596 89.08 44.6056 89.0519 44.544C88.4228 44.8219 87.8087 45.1323 87.2119 45.474C85.9779 46.2454 84.7984 47.1008 83.6819 48.034C82.6938 48.9161 81.4954 49.529 80.2019 49.814C78.7768 49.9388 77.355 49.5407 76.2019 48.694C75.3217 48.1589 74.461 47.5892 73.6 47.0193C72.2407 46.1195 70.8806 45.2193 69.4419 44.454C67.0096 43.1978 64.3361 42.4783 61.6019 42.344C58.7683 42.1008 55.9205 42.0674 53.0819 42.244C50.2766 42.4866 47.5673 43.384 45.1719 44.864C42.9595 46.2678 40.8778 47.8675 38.9519 49.644C37.1218 51.2491 35.423 52.998 33.8719 54.874C32.2894 56.763 30.896 58.8028 29.7119 60.964C28.9455 62.3764 28.2772 63.8398 27.7119 65.344L27.7116 65.3468C27.6217 66.2559 27.5318 67.1649 27.4519 68.084C27.1619 71.084 26.9319 74.084 26.8719 77.084C26.7555 81.0299 27.1181 84.9754 27.9519 88.834C28.277 90.5333 28.8926 92.1639 29.7718 93.654C30.6531 94.9892 31.9343 96.0113 33.4319 96.574C36.0301 97.629 38.9095 97.6045 41.6858 97.5809C42.0938 97.5775 42.4995 97.574 42.9018 97.574L55.0819 97.504C55.197 97.5071 55.3091 97.5407 55.407 97.6014C55.5048 97.6621 55.5847 97.7477 55.6387 97.8494C55.6926 97.9511 55.7184 98.0653 55.7137 98.1803C55.709 98.2953 55.6739 98.4071 55.6119 98.504C55.5275 98.6226 55.4428 98.7409 55.3581 98.8591C54.9213 99.4689 54.4856 100.077 54.0919 100.714C53.0843 102.195 52.5063 103.925 52.4219 105.714C52.4477 107.501 52.6962 109.278 53.1618 111.004C53.9134 114.199 55.0238 117.299 56.4719 120.244C57.9177 123.185 59.7068 125.944 61.8019 128.464C62.8487 129.724 63.9707 130.919 65.1618 132.044C66.372 133.348 67.8875 134.331 69.5719 134.904C71.3358 135.289 73.1365 135.48 74.9419 135.474C76.8919 135.604 78.7919 135.604 80.7919 135.604C84.3133 135.635 87.8031 134.937 91.0419 133.554C94.0361 132.211 96.4987 129.91 98.0419 127.014C98.8295 125.453 99.4981 123.835 100.042 122.174C100.672 120.344 101.292 118.504 101.802 116.644C102.891 113.209 103.232 109.581 102.802 106.004C102.364 102.915 100.907 100.061 98.6618 97.894C98.5755 97.7967 98.5124 97.681 98.4773 97.5557C98.4421 97.4304 98.436 97.2988 98.4591 97.1708C98.4822 97.0427 98.534 96.9216 98.6107 96.8165C98.6874 96.7114 98.7869 96.6251 98.9018 96.564C101.109 95.6881 103.428 95.1292 105.792 94.904C106.614 94.8111 107.449 94.7398 108.288 94.6682C111.605 94.385 114.991 94.096 117.912 92.444C119.373 91.5984 120.633 90.4447 121.603 89.0632C122.574 87.6817 123.232 86.1055 123.532 84.444C123.449 84.3496 123.391 84.2367 123.361 84.1148C123.332 83.993 123.332 83.8658 123.362 83.744C123.74 82.4319 124.211 81.1487 124.772 79.904C125.223 78.6479 125.611 77.3696 125.932 76.074ZM110.452 51.064C105.202 48.7545 99.3286 48.2721 93.7719 49.694C90.8972 50.376 88.1094 51.3825 85.462 52.694C85.1092 52.8655 84.7553 53.0442 84.3996 53.2238L84.3994 53.2239C82.204 54.3323 79.9404 55.4752 77.462 55.174C76.0241 54.9202 74.6188 54.5076 73.2719 53.944C71.9038 53.4526 70.4996 53.0681 69.072 52.794C66.1002 52.2887 63.084 52.0943 60.072 52.214C58.7298 52.214 57.3877 52.3075 56.0456 52.401C55.6877 52.4259 55.3298 52.4509 54.972 52.474C53.2057 52.5065 51.4497 52.7516 49.742 53.204C47.2513 53.952 45.1298 55.5279 43.0429 57.0781C42.3396 57.6006 41.6402 58.1201 40.9319 58.604C40.8155 58.6821 40.7139 58.7803 40.6319 58.894C40.5592 58.8914 40.4869 58.9042 40.4196 58.9318C40.3523 58.9594 40.2918 59.0011 40.242 59.054C39.4805 59.8845 38.8952 60.8609 38.5219 61.924C38.3415 62.4575 38.2109 63.0065 38.1319 63.564C38.0842 63.8687 38.0542 64.1759 38.0419 64.484C38.0173 64.6364 38.0173 64.7917 38.0419 64.944C38.1312 65.2706 38.3376 65.5529 38.6215 65.7373C38.9055 65.9217 39.2473 65.9953 39.582 65.944C39.8715 65.932 40.1578 65.8781 40.4319 65.784C41.0062 65.5752 41.5737 65.3394 42.1419 65.1032L42.1421 65.1031L42.1422 65.1031C42.7712 64.8417 43.401 64.5799 44.0419 64.354C45.2619 63.924 46.652 63.514 47.972 63.164C50.5627 62.4981 53.2003 62.0301 55.862 61.764C58.5208 61.5036 61.1966 61.4634 63.862 61.644C66.332 61.814 68.962 62.054 70.742 63.974C72.2833 65.8887 73.3429 68.1451 73.832 70.554C74.4892 73.0902 74.8845 75.6871 75.0119 78.304C75.1953 81.4701 75.1321 84.6362 75.0689 87.8001C75.0287 89.8125 74.9886 91.824 75.0119 93.834V94.394C75.0119 94.5645 75.0108 94.74 75.0097 94.9194C74.9977 96.8438 74.983 99.2173 76.2819 100.754C77.8219 102.584 80.512 101.884 81.842 100.204C82.5776 99.1675 83.0792 97.9835 83.3119 96.734C83.6319 95.354 83.932 93.974 84.222 92.594C84.822 89.7674 85.3453 86.9207 85.7919 84.054C86.2419 81.224 86.6019 78.384 86.9019 75.534C86.9791 74.7841 87.0381 74.0274 87.0973 73.2691C87.2299 71.5704 87.3632 69.8633 87.702 68.204C87.8418 67.1376 88.201 66.1117 88.7569 65.1909C89.3128 64.2701 90.0534 63.4745 90.9319 62.854C93.073 61.7011 95.4359 61.0192 97.862 60.854C104.45 60.0584 111.132 61.0281 117.222 63.664C117.427 63.7127 117.643 63.6834 117.828 63.5818C118.013 63.4802 118.153 63.3134 118.222 63.114C119.942 57.794 114.822 53.104 110.452 51.064ZM52.9614 71.4716C53.5153 71.259 54.1127 71.1844 54.702 71.254C56.0437 71.3071 57.317 71.8599 58.2719 72.804C59.0191 73.5559 59.5081 74.5259 59.668 75.5738C59.828 76.6217 59.6507 77.6934 59.1619 78.634C58.6524 79.491 57.9317 80.2029 57.0685 80.7019C56.2054 81.2008 55.2289 81.4701 54.232 81.484C53.1955 81.5016 52.1768 81.2131 51.3034 80.6545C50.43 80.096 49.7408 79.2923 49.322 78.344C48.522 76.174 49.9119 73.894 51.5219 72.474C51.9134 72.0281 52.4074 71.6841 52.9614 71.4716ZM105.332 72.134C104.684 71.8959 104.014 71.7218 103.332 71.614C102.582 71.4577 101.813 71.4206 101.052 71.504C100.337 71.5951 99.6674 71.9021 99.1319 72.384C98.6413 72.8766 98.2419 73.4521 97.9519 74.084C97.8878 74.1898 97.8626 74.3147 97.8809 74.4371C97.8991 74.5594 97.9597 74.6716 98.0519 74.754C97.9212 75.1211 97.8241 75.4993 97.7619 75.884C97.5326 76.9376 97.4619 78.0195 97.5519 79.094C97.5922 79.6336 97.7808 80.1516 98.0966 80.5909C98.4124 81.0302 98.8433 81.3739 99.3419 81.584C100.565 82.0257 101.884 82.1327 103.162 81.894C104.287 81.729 105.343 81.2476 106.205 80.5057C107.067 79.7639 107.701 78.7922 108.032 77.704C108.302 76.6595 108.232 75.556 107.832 74.554C107.61 73.9967 107.273 73.4929 106.842 73.0758C106.411 72.6586 105.896 72.3376 105.332 72.134ZM87.472 108.964C85.8866 107.72 83.9779 106.956 81.972 106.764C79.7863 106.35 77.5494 106.279 75.3419 106.554C72.9954 106.907 70.7801 107.861 68.9119 109.324C67.2919 110.604 65.602 113.254 67.242 115.164C67.2869 115.212 67.3411 115.25 67.4013 115.276C67.4615 115.302 67.5264 115.316 67.5919 115.316C67.6575 115.316 67.7224 115.302 67.7826 115.276C67.8428 115.25 67.897 115.212 67.9419 115.164C68.0999 115.517 68.2942 115.852 68.5219 116.164C69.8059 117.659 71.6124 118.607 73.5719 118.814C77.8668 119.55 82.2826 119.047 86.3019 117.364C87.1348 117.096 87.8706 116.589 88.4181 115.906C88.9656 115.224 89.3007 114.395 89.3819 113.524C89.4337 112.668 89.2886 111.812 88.9574 111.022C88.6263 110.231 88.1181 109.527 87.472 108.964Z" fill="#333F48"/>
</svg>
