<svg width="181" height="181" viewBox="0 0 181 181" fill="none" xmlns="http://www.w3.org/2000/svg">
<path d="M118.42 80.68C111.7 80.68 103.67 80.5201 101.42 81.3401C99.1701 82.1601 96.6601 90.1901 95.8401 95.6001C95.0201 101.01 91.7501 116.74 90.2701 122.6C88.7901 128.46 86.1701 129.65 85.1901 129.98C84.2101 130.31 84.7001 126.53 84.8601 120.8C85.0201 115.07 86.9901 100.47 85.8601 94.74C84.7301 89.01 83.4001 84.2501 78.8101 81.4601C74.2201 78.6701 66.0201 77.86 62.9101 76.54C59.8001 75.22 46.6801 74.9 45.7001 74.74C44.7201 74.58 45.2101 83.26 45.2101 83.26C44.2101 98.51 45.2101 113.59 49.3001 124.08C53.3901 134.57 71.1001 161.45 74.2201 165.71C77.3401 169.97 80.2801 171.44 81.5901 171.94C82.9001 172.44 94.7101 164.56 98.6401 160.79C102.57 157.02 120.77 130.47 124.37 123.26C127.97 116.05 131.75 103.26 132.73 97.2001C133.71 91.1401 134.04 83.92 133.55 82.28C133.06 80.64 125.14 80.68 118.42 80.68ZM65.6501 99.2001C64.1701 100.35 58.7601 102.48 55.9701 99.2001C55.3048 98.43 54.8534 97.4986 54.6612 96.4993C54.4689 95.4999 54.5426 94.4676 54.8747 93.5056C55.2068 92.5436 55.7858 91.6858 56.5537 91.0179C57.3216 90.3501 58.2514 89.8956 59.2501 89.7001C59.2501 89.7001 64.1701 89.04 65.6501 91.01C67.1301 92.98 67.1201 98.0501 65.6501 99.2001ZM83.8401 152.14C81.7101 152.31 80.5601 152.64 79.5801 148.54C78.6001 144.44 79.5801 142.15 83.8401 141.65C83.8401 141.65 87.9401 140.65 88.1001 143.78C88.2601 146.91 85.9701 151.98 83.8401 152.14ZM120.55 103.46C118.55 105.6 114.32 106.91 112.03 104.28C111.481 103.581 111.096 102.768 110.905 101.9C110.714 101.031 110.721 100.131 110.925 99.2665C111.13 98.4015 111.527 97.5939 112.087 96.9037C112.647 96.2135 113.356 95.6585 114.16 95.28C114.16 95.28 118.75 94.13 120.55 95.28C122.35 96.43 122.52 101.33 120.55 103.46Z" fill="#333F48"/>
<path d="M56.3002 64.6199C61.0602 70.1899 64.0102 70.0299 61.5502 64.6199C59.0902 59.2099 56.3002 45.4401 55.8102 40.3601C55.3202 35.2801 55.2901 30.6899 54.5701 27.2499C53.7809 23.5178 52.3132 19.9622 50.2402 16.76C47.6202 12.33 47.6202 19.05 47.6202 19.05C45.4802 28.89 43.8002 39.7099 44.8002 47.7399C45.8002 55.7699 51.5502 59.0499 56.3002 64.6199Z" fill="#333F48"/>
<path d="M77.2805 66.59C78.9205 71.83 80.4005 68.2199 81.0505 60.5199C81.7005 52.8199 81.3805 44.7899 80.2305 40.0299C79.0805 35.2699 78.9205 26.59 78.9205 21.35C78.9205 16.11 79.2505 11.68 78.4305 9.05996C77.6105 6.43996 75.3204 13.97 75.3204 13.97C71.3804 23.81 68.9205 30.69 70.2305 41.18C71.5405 51.67 75.6405 61.34 77.2805 66.59Z" fill="#333F48"/>
<path d="M91.7396 63.8C94.6796 58.88 97.7396 46.25 97.7396 41.99C97.7396 37.73 98.3996 30.53 97.7396 25.99C97.0796 21.45 97.0796 14.68 96.5896 11.07C96.0996 7.46004 94.1296 15.3 94.1296 15.3C90.8596 21.07 91.1796 34.3 91.1796 40.3C91.1796 46.3 89.7496 57.18 89.2396 62.3C88.7296 67.42 88.7396 68.72 91.7396 63.8Z" fill="#333F48"/>
<path d="M100.56 67.57C103.83 65.57 109.08 60.1899 111.7 52.4899C114.008 46.2379 115.281 39.6516 115.47 32.9899C115.8 25.7699 116.75 16.2699 116.36 12.9899C115.97 9.70994 111.7 17.25 111.7 17.25C108.42 22 106.95 27.74 106.29 35.25C105.63 42.76 104.16 55.57 101.54 60.66C98.9201 65.75 97.2801 69.54 100.56 67.57Z" fill="#333F48"/>
<path d="M135.3 17.91C134.48 15.91 131.53 23.9701 131.53 23.9701C127.77 29.8701 127.6 40.0301 125.31 45.9701C123.02 51.9101 119.9 62.8601 117.93 65.9701C115.96 69.0801 114.32 73.1 119.93 68.14C125.54 63.18 130.75 55.97 133.04 48.43C135.33 40.89 135.17 36.6301 135.33 31.7101C135.49 26.7901 136.12 19.87 135.3 17.91Z" fill="#333F48"/>
</svg>
