<svg width="1200" height="13" viewBox="0 0 1200 13" fill="none" xmlns="http://www.w3.org/2000/svg">
<path d="M1193.6 0.153808C1185.07 0.153808 1185.01 12.257 1193.6 12.257C1202.13 12.257 1202.13 0.153809 1193.6 0.153808Z" fill="#F2F2F2"/>
<path d="M1176.45 0.186711C1170.72 0.832995 1164.82 0.480476 1159.04 0.480476C1150.5 0.480475 1150.45 12.5836 1159.04 12.5836C1164.76 12.5836 1170.72 12.9949 1176.45 12.2899C1180.02 11.8786 1183.11 9.82222 1183.11 6.23828C1183.05 3.30062 1180.02 -0.224561 1176.45 0.186711Z" fill="#F2F2F2"/>
<path d="M1142.15 0.153808C1133.62 0.153808 1133.56 12.257 1142.15 12.257C1150.68 12.257 1150.68 0.153809 1142.15 0.153808Z" fill="#F2F2F2"/>
<path d="M1125.24 0.17056C1118.05 0.640585 1110.81 0.170559 1103.62 0.170559C1095.09 0.170559 1095.03 12.2737 1103.62 12.2737C1110.81 12.2737 1118.05 12.7437 1125.24 12.2737C1133.77 11.8037 1133.83 -0.358218 1125.24 0.17056Z" fill="#F2F2F2"/>
<path d="M1086.69 0.153808C1078.16 0.153808 1078.1 12.257 1086.69 12.257C1095.28 12.3157 1095.28 0.153809 1086.69 0.153808Z" fill="#F2F2F2"/>
<path d="M1069.54 0.186711C1063.81 0.832995 1057.91 0.480476 1052.12 0.480476C1043.59 0.480475 1043.53 12.5836 1052.12 12.5836C1057.85 12.5836 1063.81 12.9949 1069.54 12.2899C1073.1 11.8786 1076.2 9.82222 1076.2 6.23828C1076.14 3.30062 1073.1 -0.224561 1069.54 0.186711Z" fill="#F2F2F2"/>
<path d="M1035.24 0.153808C1026.71 0.153808 1026.65 12.257 1035.24 12.257C1043.77 12.257 1043.77 0.153809 1035.24 0.153808Z" fill="#F2F2F2"/>
<path d="M1018.33 0.17056C1011.14 0.640585 1003.9 0.170559 996.707 0.170559C988.175 0.170559 988.116 12.2737 996.707 12.2737C1003.9 12.2737 1011.14 12.7437 1018.33 12.2737C1026.86 11.8037 1026.92 -0.358218 1018.33 0.17056Z" fill="#F2F2F2"/>
<path d="M979.777 0.153808C971.244 0.153808 971.186 12.257 979.777 12.257C988.367 12.3157 988.367 0.153809 979.777 0.153808Z" fill="#F2F2F2"/>
<path d="M962.89 0.154654C956.871 0.213407 950.267 1.50597 944.248 0.389662C935.891 -1.19667 932.326 10.4952 940.741 12.0815C948.046 13.4916 955.468 12.3753 962.89 12.3165C971.422 12.199 971.422 0.0371485 962.89 0.154654Z" fill="#F2F2F2"/>
<path d="M925.468 0.153808C916.936 0.153808 916.877 12.257 925.468 12.257C934 12.257 934 0.153809 925.468 0.153808Z" fill="#F2F2F2"/>
<path d="M908.582 0.284371C901.569 0.284371 894.557 -0.00939543 887.544 0.28437C879.012 0.636888 878.953 12.7988 887.544 12.3875C894.557 12.0938 901.569 12.3875 908.582 12.3875C917.115 12.4463 917.115 0.284371 908.582 0.284371Z" fill="#F2F2F2"/>
<path d="M870.636 0.153808C862.103 0.153808 862.045 12.257 870.636 12.257C879.168 12.257 879.226 0.153809 870.636 0.153808Z" fill="#F2F2F2"/>
<path d="M853.486 0.186711C847.759 0.832995 841.857 0.480476 836.071 0.480476C827.539 0.480475 827.48 12.5836 836.071 12.5836C841.798 12.5836 847.759 12.9949 853.486 12.2899C857.051 11.8786 860.148 9.82222 860.148 6.23828C860.09 3.30062 857.051 -0.224561 853.486 0.186711Z" fill="#F2F2F2"/>
<path d="M819.185 0.153808C810.653 0.153808 810.594 12.257 819.185 12.257C827.717 12.257 827.717 0.153809 819.185 0.153808Z" fill="#F2F2F2"/>
<path d="M802.276 0.17056C795.088 0.640585 787.841 0.170559 780.653 0.170559C772.121 0.170559 772.063 12.2737 780.653 12.2737C787.841 12.2737 795.088 12.7437 802.276 12.2737C810.808 11.8037 810.867 -0.358218 802.276 0.17056Z" fill="#F2F2F2"/>
<path d="M763.723 0.153808C755.191 0.153808 755.132 12.257 763.723 12.257C772.314 12.3157 772.314 0.153809 763.723 0.153808Z" fill="#F2F2F2"/>
<path d="M746.837 0.154654C740.818 0.213407 734.214 1.50597 728.195 0.389662C719.838 -1.19667 716.273 10.4952 724.688 12.0815C731.993 13.4916 739.415 12.3753 746.837 12.3165C755.369 12.199 755.369 0.0371485 746.837 0.154654Z" fill="#F2F2F2"/>
<path d="M709.414 0.153808C700.882 0.153808 700.824 12.257 709.414 12.257C717.947 12.257 717.947 0.153809 709.414 0.153808Z" fill="#F2F2F2"/>
<path d="M692.529 0.284371C685.516 0.284371 678.503 -0.00939543 671.49 0.28437C662.958 0.636888 662.899 12.7988 671.49 12.3875C678.503 12.0938 685.516 12.3875 692.529 12.3875C701.061 12.4463 701.061 0.284371 692.529 0.284371Z" fill="#F2F2F2"/>
<path d="M654.582 0.153808C646.05 0.153808 645.991 12.257 654.582 12.257C663.114 12.257 663.172 0.153809 654.582 0.153808Z" fill="#F2F2F2"/>
<path d="M637.433 0.186711C631.705 0.832995 625.803 0.480476 620.017 0.480476C611.485 0.480475 611.427 12.5836 620.017 12.5836C625.745 12.5836 631.705 12.9949 637.433 12.2899C640.997 11.8786 644.095 9.82222 644.095 6.23828C644.036 3.30062 640.997 -0.224561 637.433 0.186711Z" fill="#F2F2F2"/>
<path d="M603.131 0.153808C594.599 0.153808 594.54 12.257 603.131 12.257C611.663 12.257 611.663 0.153809 603.131 0.153808Z" fill="#F2F2F2"/>
<path d="M586.222 0.17056C579.034 0.640585 571.788 0.170559 564.6 0.170559C556.067 0.170559 556.009 12.2737 564.6 12.2737C571.788 12.2737 579.034 12.7437 586.222 12.2737C594.755 11.8037 594.813 -0.358218 586.222 0.17056Z" fill="#F2F2F2"/>
<path d="M547.669 0.153808C539.137 0.153808 539.079 12.257 547.669 12.257C556.26 12.3157 556.26 0.153809 547.669 0.153808Z" fill="#F2F2F2"/>
<path d="M530.783 0.154654C524.764 0.213407 518.16 1.50597 512.141 0.389662C503.784 -1.19667 500.219 10.4952 508.635 12.0815C515.94 13.4916 523.362 12.3753 530.783 12.3165C539.316 12.199 539.316 0.0371485 530.783 0.154654Z" fill="#F2F2F2"/>
<path d="M493.362 0.153808C484.829 0.153808 484.771 12.257 493.362 12.257C501.894 12.257 501.894 0.153809 493.362 0.153808Z" fill="#F2F2F2"/>
<path d="M476.475 0.284371C469.462 0.284371 462.449 -0.00939543 455.436 0.28437C446.904 0.636888 446.846 12.7988 455.436 12.3875C462.449 12.0938 469.462 12.3875 476.475 12.3875C485.007 12.4463 485.007 0.284371 476.475 0.284371Z" fill="#F2F2F2"/>
<path d="M438.528 0.153808C429.996 0.153808 429.937 12.257 438.528 12.257C447.06 12.257 447.119 0.153809 438.528 0.153808Z" fill="#F2F2F2"/>
<path d="M421.379 0.186711C415.652 0.832995 409.749 0.480476 403.964 0.480476C395.431 0.480475 395.373 12.5836 403.964 12.5836C409.691 12.5836 415.652 12.9949 421.379 12.2899C424.944 11.8786 428.041 9.82222 428.041 6.23828C427.983 3.30062 424.944 -0.224561 421.379 0.186711Z" fill="#F2F2F2"/>
<path d="M387.077 0.153808C378.545 0.153808 378.487 12.257 387.077 12.257C395.61 12.257 395.61 0.153809 387.077 0.153808Z" fill="#F2F2F2"/>
<path d="M370.169 0.17056C362.981 0.640585 355.734 0.170559 348.546 0.170559C340.014 0.170559 339.955 12.2737 348.546 12.2737C355.734 12.2737 362.981 12.7437 370.169 12.2737C378.701 11.8037 378.759 -0.358218 370.169 0.17056Z" fill="#F2F2F2"/>
<path d="M331.616 0.153808C323.083 0.153808 323.025 12.257 331.616 12.257C340.206 12.3157 340.206 0.153809 331.616 0.153808Z" fill="#F2F2F2"/>
<path d="M314.73 0.154654C308.71 0.213407 302.107 1.50597 296.087 0.389662C287.73 -1.19667 284.166 10.4952 292.581 12.0815C299.886 13.4916 307.308 12.3753 314.73 12.3165C323.262 12.199 323.262 0.0371485 314.73 0.154654Z" fill="#F2F2F2"/>
<path d="M277.308 0.153808C268.776 0.153808 268.717 12.257 277.308 12.257C285.84 12.257 285.84 0.153809 277.308 0.153808Z" fill="#F2F2F2"/>
<path d="M260.421 0.284371C253.408 0.284371 246.396 -0.00939543 239.383 0.28437C230.85 0.636888 230.792 12.7988 239.383 12.3875C246.396 12.0938 253.408 12.3875 260.421 12.3875C268.953 12.4463 268.953 0.284371 260.421 0.284371Z" fill="#F2F2F2"/>
<path d="M222.474 0.153808C213.942 0.153808 213.884 12.257 222.474 12.257C231.007 12.257 231.065 0.153809 222.474 0.153808Z" fill="#F2F2F2"/>
<path d="M205.325 0.186711C199.598 0.832995 193.696 0.480476 187.91 0.480476C179.378 0.480475 179.319 12.5836 187.91 12.5836C193.637 12.5836 199.598 12.9949 205.325 12.2899C208.89 11.8786 211.987 9.82222 211.987 6.23828C211.929 3.30062 208.89 -0.224561 205.325 0.186711Z" fill="#F2F2F2"/>
<path d="M171.024 0.153808C162.491 0.153808 162.433 12.257 171.024 12.257C179.556 12.257 179.556 0.153809 171.024 0.153808Z" fill="#F2F2F2"/>
<path d="M154.116 0.17056C146.928 0.640585 139.681 0.170559 132.493 0.170559C123.961 0.170559 123.902 12.2737 132.493 12.2737C139.681 12.2737 146.928 12.7437 154.116 12.2737C162.648 11.8037 162.707 -0.358218 154.116 0.17056Z" fill="#F2F2F2"/>
<path d="M115.563 0.153808C107.031 0.153808 106.972 12.257 115.563 12.257C124.154 12.3157 124.154 0.153809 115.563 0.153808Z" fill="#F2F2F2"/>
<path d="M98.676 0.154654C92.6567 0.213407 86.053 1.50597 80.0336 0.389662C71.6767 -1.19667 68.1119 10.4952 76.5272 12.0815C83.8322 13.4916 91.2541 12.3753 98.676 12.3165C107.208 12.199 107.208 0.0371485 98.676 0.154654Z" fill="#F2F2F2"/>
<path d="M61.2541 0.153808C52.7219 0.153808 52.6634 12.257 61.2541 12.257C69.7864 12.257 69.7864 0.153809 61.2541 0.153808Z" fill="#F2F2F2"/>
<path d="M44.3684 0.284371C37.3556 0.284371 30.3428 -0.00939543 23.33 0.28437C14.7977 0.636888 14.7393 12.7988 23.33 12.3875C30.3428 12.0938 37.3556 12.3875 44.3684 12.3875C52.9006 12.4463 52.9006 0.284371 44.3684 0.284371Z" fill="#F2F2F2"/>
<path d="M6.42068 0.153808C-2.11157 0.153808 -2.17001 12.257 6.42068 12.257C14.9529 12.257 15.0114 0.153809 6.42068 0.153808Z" fill="#F2F2F2"/>
</svg>
