<svg width="56" height="67" viewBox="0 0 56 67" fill="none" xmlns="http://www.w3.org/2000/svg">
<path d="M0.232178 0H55.8138V38.9071C55.8138 54.2556 43.3714 66.6979 28.023 66.6979V66.6979C12.6745 66.6979 0.232178 54.2556 0.232178 38.9071V0Z" fill="#F2ACB9"/>
<path fill-rule="evenodd" clip-rule="evenodd" d="M40.0047 26.4004L40.0545 26.4645C40.2035 26.6475 40.3117 26.8603 40.3718 27.0885C40.4319 27.3168 40.4426 27.5552 40.4032 27.7879C40.342 28.0391 40.2303 28.2753 40.0749 28.482C39.9196 28.6887 39.7238 28.8617 39.4995 28.9904L39.2576 29.1327C38.4549 29.4719 37.5957 29.6577 36.7246 29.6806C34.9922 29.7715 33.297 30.2171 31.7439 30.9898C31.1631 31.2998 30.6087 31.6568 30.086 32.0571V32.0998C29.5025 34.2842 29.0472 36.3761 28.727 38.3043C28.7259 38.321 28.7301 38.3375 28.7391 38.3516C28.748 38.3657 28.7612 38.3766 28.7768 38.3826C28.7951 38.3897 28.8154 38.3897 28.8337 38.3826C29.7872 36.8843 30.9905 35.5607 32.3914 34.4692C32.6198 34.315 32.8575 34.1748 33.1029 34.0494C35.2446 32.9109 37.8203 32.8113 38.5318 33.8359C39.3643 35.0668 37.7919 36.1413 36.8455 36.7816C36.7658 36.8367 36.6826 36.8866 36.5965 36.9311C36.319 37.0734 35.9277 37.2441 35.4794 37.4362L35.4309 37.4574C34.7526 37.7542 33.8415 38.1527 32.8966 38.653C31.1202 39.4874 29.5669 40.7309 28.3641 42.2818C28.3571 42.2923 28.3533 42.3047 28.3533 42.3173C28.3533 42.33 28.3571 42.3424 28.3641 42.3529C28.4156 42.4608 28.4288 42.5829 28.4017 42.6993C28.3745 42.8157 28.3086 42.9193 28.2147 42.9933C28.2109 43.001 28.2089 43.0096 28.2089 43.0182C28.2089 43.0268 28.2109 43.0353 28.2147 43.0431V43.9325C28.215 44.0294 28.1887 44.1245 28.1384 44.2074C28.0882 44.2902 28.0161 44.3576 27.9301 44.4021C27.8566 44.4446 27.7731 44.4667 27.6882 44.4662C27.6069 44.4653 27.5268 44.4471 27.4531 44.4128C27.3795 44.3784 27.314 44.3287 27.2612 44.2669C27.2221 44.2256 27.1928 44.176 27.1755 44.1218C27.1583 44.0676 27.1535 44.0102 27.1616 43.9538C27.2153 43.5963 27.2739 43.2337 27.3333 42.8661L27.3333 42.8661L27.3334 42.866L27.368 42.6518C27.3713 42.6377 27.3713 42.6231 27.368 42.6091C26.3291 40.5599 24.2372 38.8166 22.7074 37.543C22.0273 37.0306 21.4067 36.4434 20.8575 35.7926C20.0107 34.5545 19.8044 33.6082 20.2384 32.8967C20.2434 32.8868 20.2461 32.8758 20.2461 32.8647C20.2461 32.8536 20.2434 32.8426 20.2384 32.8326C20.2337 32.8223 20.2268 32.8132 20.2182 32.8058C20.2096 32.7985 20.1995 32.793 20.1886 32.79C19.3608 32.5902 18.5853 32.2156 17.9142 31.6914C17.2431 31.1672 16.692 30.5055 16.2977 29.7506C15.9035 28.9958 15.6752 28.1654 15.6284 27.3151C15.5816 26.4648 15.7172 25.6144 16.0262 24.8208C16.0835 24.6629 16.15 24.5085 16.2254 24.3583C16.6539 23.4636 17.3027 22.6923 18.111 22.117C18.1186 22.1054 18.1227 22.0918 18.1227 22.0779C18.1227 22.064 18.1186 22.0504 18.111 22.0388C17.9294 21.2274 17.9186 20.3872 18.079 19.5714C18.2395 18.7556 18.5678 17.9821 19.0431 17.3C19.655 16.4154 20.4636 15.6848 21.4054 15.1654C21.5275 15.0988 21.6534 15.0394 21.7825 14.9875C22.5523 14.6013 23.4174 14.4462 24.2735 14.5409C25.1295 14.6356 25.9398 14.976 26.6066 15.5211C26.6166 15.5262 26.6275 15.5288 26.6386 15.5288C26.6498 15.5288 26.6607 15.5262 26.6707 15.5211C26.7062 15.514 26.7062 15.4785 26.7062 15.4785C26.7669 15.2631 26.8405 15.0516 26.9268 14.8452C27.4522 13.5446 28.4198 12.4712 29.6591 11.8141C29.8155 11.7282 29.9771 11.6521 30.1429 11.5864C31.5649 10.9879 33.1629 10.961 34.6042 11.5113C36.0455 12.0616 37.2189 13.1468 37.8801 14.5407C38.5413 15.9346 38.6393 17.5298 38.1536 18.9942C37.668 20.4585 36.6362 21.6791 35.2731 22.4016C35.1165 22.487 34.96 22.5582 34.7963 22.6293C33.9604 22.9814 33.055 23.1372 32.1495 23.0847C32.1444 23.0946 32.1418 23.1056 32.1418 23.1167C32.1418 23.1278 32.1444 23.1388 32.1495 23.1487C32.3345 24.3156 32.0285 25.9806 31.2458 27.98C31.2672 28.0689 31.2672 28.1616 31.2458 28.2504L31.2417 28.2623C31.2206 28.324 31.1264 28.5988 30.9968 29.0331C30.9868 29.0437 30.9812 29.0577 30.9812 29.0722C30.9812 29.0868 30.9868 29.1008 30.9968 29.1114C31.0073 29.1184 31.0197 29.1222 31.0323 29.1222C31.045 29.1222 31.0574 29.1184 31.0679 29.1114C31.916 28.3445 32.8551 27.685 33.8642 27.1475C35.3434 26.3157 37.0204 25.9001 38.7169 25.945C39.3999 25.9949 39.834 26.1443 40.0047 26.4004ZM29.9722 12.2339C28.8959 12.9001 28.0665 13.8994 27.6099 15.08L27.5743 15.0871C27.3361 15.6875 27.2185 16.3289 27.2283 16.9748C27.238 17.6206 27.375 18.2582 27.6312 18.8511C28.7128 21.4126 32.0712 22.8428 34.5473 21.8039L34.8888 21.6403C36.0204 21.0076 36.8854 19.9875 37.3247 18.7678C37.764 17.548 37.748 16.2106 37.2796 15.0017C36.2052 12.4402 32.8396 11.0029 30.3635 12.0489L29.9722 12.2339ZM21.3769 15.8627C20.7093 16.2284 20.1386 16.7479 19.7119 17.3782L19.6763 17.3854C19.1008 18.1284 18.7473 19.0192 18.6567 19.9547C18.566 20.8902 18.7419 21.8322 19.164 22.672C19.746 23.8669 20.7633 24.7937 22.0071 25.2621C23.2509 25.7305 24.6268 25.705 25.8524 25.1908L26.2437 25.0058C26.8637 24.6777 27.4066 24.2211 27.836 23.6665C28.2655 23.1119 28.5716 22.4721 28.7341 21.7897C28.7397 21.7787 28.7427 21.7665 28.7427 21.7542C28.7427 21.7418 28.7397 21.7296 28.7341 21.7186C27.9541 21.0946 27.3428 20.2852 26.9563 19.3641C26.5697 18.4431 26.4202 17.4399 26.5213 16.4461C26.5269 16.4364 26.5298 16.4254 26.5298 16.4141C26.5298 16.4029 26.5269 16.3918 26.5213 16.3821L26.4003 16.2967C25.212 15.4429 24.2728 14.774 21.8465 15.6492C21.6843 15.7071 21.5272 15.7785 21.3769 15.8627ZM17.2144 29.6165C17.8625 30.5111 18.7841 31.1705 19.84 31.495L19.7902 31.5021C20.5951 31.8112 21.4669 31.9044 22.319 31.7725C23.1712 31.6406 23.974 31.2882 24.6479 30.7503C25.3217 30.2123 25.8432 29.5075 26.1606 28.7058C26.478 27.9041 26.5803 27.0333 26.4572 26.1799C26.4514 26.1597 26.4388 26.1421 26.4216 26.1301C26.4117 26.125 26.4007 26.1224 26.3896 26.1224C26.3785 26.1224 26.3675 26.125 26.3576 26.1301L26.2651 26.1727C24.8034 26.7853 23.1584 26.7929 21.691 26.194C20.2237 25.595 19.0539 24.4384 18.4383 22.978V22.921C18.424 22.8855 18.3885 22.8855 18.3885 22.8855H18.3387C17.7984 23.3348 17.3615 23.8954 17.0579 24.5291C16.9787 24.7052 16.9098 24.8858 16.8516 25.0699C16.8352 25.123 16.8162 25.1752 16.7946 25.2264C16.5163 25.94 16.4093 26.7089 16.4822 27.4714C16.5551 28.2339 16.8059 28.9686 17.2144 29.6165ZM27.4429 41.1392C27.4541 41.1382 27.4649 41.1347 27.4747 41.1291L27.4391 41.1362L27.4429 41.1392ZM27.4356 41.1396L27.4387 41.1395L27.4429 41.1392C27.4514 41.1454 27.4613 41.1491 27.4718 41.1499C27.4839 41.1509 27.4959 41.148 27.5063 41.1417C27.5166 41.1353 27.5246 41.1259 27.5292 41.1146C27.5337 41.1034 27.5346 41.091 27.5316 41.0793C27.7593 37.3438 24.2017 33.9284 22.743 33.2169C22.2851 33.0403 21.7779 33.0403 21.32 33.2169C21.1706 33.3165 20.7223 33.6296 21.7469 35.1309C22.242 35.6947 22.7927 36.2072 23.3905 36.6607C24.8732 38.0112 26.2153 39.5083 27.3964 41.1291C27.4083 41.1359 27.4218 41.1396 27.4356 41.1396ZM28.0582 38.5178C28.0627 38.5015 28.0627 38.4843 28.0582 38.468L28.0226 38.4751C28.236 37.2655 28.4495 36.063 28.6914 34.9317C28.6947 34.9238 28.6964 34.9153 28.6964 34.9068C28.6964 34.8982 28.6947 34.8897 28.6914 34.8819C28.6059 34.7232 28.5436 34.553 28.5064 34.3767C28.4958 34.337 28.4823 34.2993 28.4695 34.2636C28.4478 34.2031 28.4281 34.1483 28.4281 34.0992L27.6383 32.1709L26.5924 30.4348C26.5879 30.4236 26.58 30.4141 26.5697 30.4077C26.5595 30.4013 26.5475 30.3984 26.5355 30.3992C25.9943 31.1472 25.2883 31.7607 24.472 32.1923C24.1039 32.391 23.7149 32.5484 23.3123 32.6619C23.302 32.6666 23.2928 32.6735 23.2854 32.6821C23.2781 32.6907 23.2727 32.7008 23.2696 32.7117C23.2693 32.7256 23.2724 32.7393 23.2786 32.7517C23.2847 32.7641 23.2939 32.7748 23.3051 32.7829C25.3898 34.1805 27.0178 36.1599 27.987 38.4751C27.9929 38.4888 28.0029 38.5002 28.0157 38.5079C28.0285 38.5155 28.0433 38.519 28.0582 38.5178ZM33.4089 34.4336C33.1954 34.5474 32.989 34.6684 32.7969 34.7965L32.7614 34.8036C31.2173 35.8567 28.9191 39.4143 28.4637 40.1258C28.4572 40.1442 28.4572 40.1643 28.4637 40.1828V40.2468C28.4657 40.2582 28.4707 40.2688 28.4782 40.2776C28.4857 40.2863 28.4955 40.2929 28.5064 40.2966H28.5776C30.1694 39.0827 31.8619 38.0068 33.6365 37.0805C34.1987 36.7745 34.5829 36.5753 35.0596 36.3689C35.5363 36.1626 35.8921 36.0061 36.1056 35.8922L36.255 35.8069C37.0732 35.259 37.9057 34.6257 37.678 34.3198C37.4503 34.0138 35.2802 33.4446 33.4089 34.4336ZM29.033 32.9963C29.0685 32.9821 29.0685 32.9465 29.0685 32.9465L29.033 32.9536C29.5097 30.4988 29.901 28.7485 30.1287 28.1935C30.132 28.1856 30.1338 28.1771 30.1338 28.1686C30.1338 28.16 30.132 28.1515 30.1287 28.1437L28.5491 24.7283C28.5444 24.718 28.5375 24.7089 28.5289 24.7015C28.5203 24.6941 28.5102 24.6887 28.4993 24.6856H28.4566C28.1697 25.0009 27.8501 25.2847 27.5031 25.5324C27.4949 25.5451 27.4905 25.5599 27.4905 25.5751C27.4905 25.5902 27.4949 25.605 27.5031 25.6177V25.7103C27.7363 26.8331 27.64 27.9993 27.2257 29.0687C27.1687 29.2039 27.1118 29.339 27.0478 29.4742C27.0407 29.495 27.0407 29.5175 27.0478 29.5383L28.3072 31.8081C28.3641 31.8792 28.7981 32.7046 28.7981 32.7473L28.9547 32.9963C28.9663 33.004 28.9799 33.008 28.9938 33.008C29.0077 33.008 29.0213 33.004 29.033 32.9963ZM30.7078 26.7401C30.7202 26.7463 30.7339 26.7494 30.7477 26.7491L30.7231 26.7343C30.7283 26.7367 30.7339 26.7383 30.7397 26.739C30.7497 26.7402 30.7598 26.7388 30.7691 26.7349C31.2245 25.6462 31.4664 24.088 31.0466 23.1772C31.0305 23.1389 31.0223 23.0978 31.0223 23.0562C31.0223 23.0147 31.0305 22.9736 31.0466 22.9353C31.05 22.9189 31.05 22.9019 31.0466 22.8855C31.0438 22.876 31.0383 22.8675 31.0307 22.8612C31.0231 22.8548 31.0137 22.8509 31.0039 22.8499C30.5882 22.7405 30.1852 22.5879 29.8014 22.3945C29.7927 22.3895 29.7829 22.3869 29.7729 22.3869C29.7629 22.3869 29.7531 22.3895 29.7445 22.3945C29.736 22.3989 29.7285 22.4049 29.7224 22.4122C29.7162 22.4196 29.7117 22.4281 29.7089 22.4372C29.5759 22.869 29.3945 23.2843 29.1681 23.6753C29.1571 23.6882 29.1511 23.7046 29.1511 23.7215C29.1511 23.7385 29.1571 23.7549 29.1681 23.7678C29.2637 23.8198 29.3389 23.9025 29.3816 24.0026L30.6766 26.7135C30.6847 26.7248 30.6954 26.7339 30.7078 26.7401ZM30.7122 26.7277C30.7155 26.7303 30.7192 26.7325 30.7231 26.7343L30.7122 26.7277ZM38.9303 28.3287L39.1011 28.2219L39.0655 28.229C39.3999 28.0085 39.5849 27.7879 39.6134 27.5887C39.615 27.4752 39.5938 27.3625 39.551 27.2574C39.5082 27.1523 39.4448 27.0569 39.3643 26.9768L39.3217 26.927C38.8734 26.7277 36.7388 26.5783 34.2129 27.9089C33.0897 28.5181 32.0594 29.2848 31.1533 30.1858C31.1423 30.1986 31.1362 30.215 31.1362 30.232C31.1362 30.249 31.1423 30.2654 31.1533 30.2783C31.1667 30.2881 31.1829 30.2934 31.1995 30.2934C31.2162 30.2934 31.2324 30.2881 31.2458 30.2783L31.3881 30.2C33.0426 29.3638 34.8523 28.8793 36.7032 28.7769C37.4662 28.7593 38.22 28.6076 38.9303 28.3287ZM21.3306 23.9951C21.2072 23.9504 21.1046 23.8619 21.0424 23.7464C21.0537 23.7419 21.0657 23.7395 21.0779 23.7393C21.0068 23.5757 21.0566 23.4689 21.2629 23.3622L21.4693 23.2697H21.5191C21.688 23.1895 21.8186 23.0459 21.8825 22.8702C21.9464 22.6944 21.9386 22.5005 21.8606 22.3305C21.7539 22.0672 21.761 21.5621 22.0029 21.434C22.1247 21.385 22.2601 21.3826 22.3835 21.4273C22.5069 21.4719 22.6095 21.5604 22.6718 21.6759V21.7186C22.7066 21.8102 22.7599 21.8936 22.8285 21.9637C22.897 22.0337 22.9793 22.0888 23.0702 22.1255C23.161 22.1623 23.2585 22.1799 23.3564 22.1772C23.4544 22.1745 23.5507 22.1516 23.6394 22.1099C23.7603 22.0604 23.8952 22.057 24.0185 22.1002C24.1418 22.1435 24.2449 22.2305 24.3083 22.3447V22.3874C24.36 22.5073 24.3654 22.6421 24.3233 22.7657C24.2812 22.8893 24.1947 22.9928 24.0806 23.0563H24.0308H23.9739C23.8187 23.1338 23.6973 23.2654 23.6323 23.4262C23.5942 23.515 23.5745 23.6107 23.5745 23.7073C23.5745 23.804 23.5942 23.8996 23.6323 23.9884C23.6829 24.1099 23.6862 24.246 23.6414 24.3698C23.5966 24.4936 23.507 24.5961 23.3904 24.6572H23.3548C23.2331 24.7087 23.0965 24.7133 22.9717 24.6699C22.8468 24.6265 22.7424 24.5383 22.6789 24.4224C22.682 24.4083 22.682 24.3938 22.6789 24.3797C22.6441 24.2881 22.5907 24.2047 22.5222 24.1346C22.4536 24.0646 22.3713 24.0095 22.2805 23.9728C22.1896 23.936 22.0922 23.9184 21.9942 23.9211C21.8963 23.9238 21.7999 23.9467 21.7112 23.9884C21.5895 24.0373 21.454 24.0397 21.3306 23.9951ZM32.6689 18.851C32.7311 18.9665 32.8337 19.055 32.9571 19.0997C33.0805 19.1443 33.216 19.1419 33.3377 19.0929C33.426 19.0524 33.5218 19.0305 33.6189 19.0284C33.7161 19.0263 33.8126 19.0442 33.9026 19.0808C33.9926 19.1175 34.0742 19.1722 34.1422 19.2416C34.2103 19.311 34.2634 19.3936 34.2983 19.4843V19.527C34.3605 19.6424 34.4636 19.7304 34.5873 19.7738C34.711 19.8172 34.8464 19.8129 34.9671 19.7618H35.0098C35.1252 19.6995 35.2132 19.5965 35.2566 19.4728C35.3 19.3491 35.2957 19.2137 35.2446 19.0929C35.1688 18.9237 35.1622 18.7316 35.226 18.5575C35.2897 18.3834 35.419 18.2411 35.5861 18.1608H35.643H35.6857C35.8023 18.0998 35.8914 17.9969 35.935 17.8727C35.9786 17.7486 35.9734 17.6125 35.9205 17.492V17.4493C35.8571 17.3351 35.754 17.2481 35.6308 17.2048C35.5075 17.1616 35.3726 17.165 35.2517 17.2145C35.1629 17.2527 35.0673 17.2724 34.9707 17.2724C34.874 17.2724 34.7784 17.2527 34.6896 17.2145C34.6002 17.1795 34.5188 17.1268 34.4504 17.0596C34.3819 16.9923 34.3277 16.9119 34.2911 16.8232V16.7805C34.2301 16.6638 34.1276 16.5743 34.0038 16.5295C33.8799 16.4847 33.7438 16.488 33.6223 16.5386H33.5725C33.4594 16.6031 33.3734 16.7063 33.3302 16.8291C33.2871 16.952 33.2897 17.0863 33.3377 17.2074C33.4156 17.3774 33.4235 17.5713 33.3596 17.7471C33.2957 17.9228 33.1651 18.0664 32.9962 18.1466H32.9464H32.8966C32.7805 18.2062 32.692 18.3083 32.6496 18.4317C32.6071 18.555 32.614 18.69 32.6689 18.8083V18.851ZM21.9462 30.7691C21.9023 30.8689 21.824 30.9497 21.7256 30.9968C21.6525 31.0298 21.5729 31.0456 21.4927 31.0432C21.4126 31.0407 21.334 31.02 21.2631 30.9825C21.1679 30.932 21.0889 30.8556 21.0354 30.762C20.9967 30.6872 20.9765 30.6042 20.9765 30.52C20.9765 30.4358 20.9967 30.3529 21.0354 30.2781C21.0804 30.1923 21.1075 30.0981 21.1148 30.0015C21.1221 29.9048 21.1097 29.8077 21.0781 29.716C21.0497 29.624 21.0028 29.5387 20.9405 29.4653C20.8781 29.3919 20.8015 29.332 20.7152 29.2891C20.6201 29.2376 20.5431 29.1581 20.4947 29.0614C20.4542 28.9872 20.433 28.904 20.433 28.8195C20.433 28.7349 20.4542 28.6518 20.4947 28.5776C20.5453 28.4842 20.6219 28.4076 20.7152 28.357C20.7907 28.3165 20.8751 28.2953 20.9607 28.2953C21.0464 28.2953 21.1307 28.3165 21.2062 28.357C21.31 28.413 21.4262 28.4424 21.5442 28.4424C21.6622 28.4424 21.7783 28.413 21.8821 28.357C22.0171 28.2886 22.1268 28.1789 22.1952 28.0439C22.2458 27.9506 22.3224 27.8739 22.4158 27.8233C22.4906 27.7847 22.5735 27.7645 22.6577 27.7645C22.7419 27.7645 22.8249 27.7847 22.8996 27.8233C22.9983 27.8724 23.0783 27.9523 23.1273 28.051C23.166 28.1258 23.1862 28.2088 23.1862 28.2929C23.1862 28.3771 23.166 28.4601 23.1273 28.5349C23.0801 28.6201 23.0509 28.7142 23.0415 28.8112C23.0321 28.9082 23.0427 29.0061 23.0727 29.0989C23.1028 29.1916 23.1515 29.2772 23.216 29.3503C23.2805 29.4234 23.3593 29.4825 23.4475 29.5239C23.5443 29.5723 23.6238 29.6493 23.6752 29.7445C23.7139 29.8205 23.7341 29.9046 23.7341 29.9899C23.7341 30.0753 23.7139 30.1594 23.6752 30.2354C23.6246 30.3288 23.548 30.4054 23.4546 30.456C23.3799 30.4947 23.2969 30.5148 23.2127 30.5148C23.1285 30.5148 23.0455 30.4947 22.9708 30.456C22.8626 30.3935 22.7399 30.3607 22.615 30.3607C22.4901 30.3607 22.3674 30.3935 22.2592 30.456C22.1242 30.5244 22.0146 30.6341 21.9462 30.7691Z" fill="#323E48"/>
</svg>
