<svg width="1200" height="184" viewBox="0 0 1200 184" fill="none" xmlns="http://www.w3.org/2000/svg">
<path d="M133.137 147.219L120.467 121.801C119.617 120.325 117.328 117.406 115.791 116.701C114.647 116.176 113.044 114.766 110.87 110.994L108.156 106.058C107.371 105.124 101.617 98.0393 102.826 95.0875L102.99 94.6939C102.892 94.5791 102.81 94.4807 102.745 94.4151C100.914 92.2997 100.554 90.4466 101.764 89.3315L102.042 89.0691L102.303 89.3479C102.32 89.3643 102.532 89.5939 102.892 89.9875C102.009 88.5608 101.862 87.8556 101.911 87.4292C101.96 87.0521 102.156 86.8553 102.32 86.7405L102.581 86.5601L114.696 98.6296C112.456 94.4643 108.189 85.3794 109.333 83.4115C109.513 83.1 109.824 82.9196 110.2 82.936H110.412L116.314 93.4804L120.679 100.384C121.333 97.3341 120.941 94.4151 121.922 92.7425C123.115 90.709 124.129 91.4142 124.129 91.4142L124.423 97.8261L125.208 103.156C125.322 103.582 126.696 108.895 127.448 111.306L151.137 144.432" stroke="#333F48" stroke-width="1.00844" stroke-miterlimit="10" stroke-linecap="round" stroke-linejoin="round"/>
<path d="M103.202 90.283L112.325 100.647" stroke="#333F48" stroke-width="1.00844" stroke-miterlimit="10" stroke-linecap="round" stroke-linejoin="round"/>
<path d="M103.008 94.7433L109.858 102.533" stroke="#333F48" stroke-width="1.00844" stroke-miterlimit="10" stroke-linecap="round" stroke-linejoin="round"/>
<path d="M58.227 151.253L67.3333 121.342C67.8401 119.718 69.0499 117.718 70.3905 116.668C71.3877 115.897 72.6303 114.159 73.9055 109.994L75.4422 104.582C75.9981 103.5 80.0362 95.3004 78.1888 92.693L77.9436 92.3486C78.009 92.2174 78.0744 92.1026 78.1071 92.0206C79.415 89.5444 79.3496 87.6585 77.9273 86.8386L77.5839 86.6418L77.3878 86.9862C77.3714 87.0026 77.2243 87.2814 76.9627 87.7405C77.5022 86.1499 77.4858 85.4283 77.3387 85.0183C77.2079 84.6576 76.979 84.51 76.7992 84.4444L76.5049 84.3296L67.3986 98.8261C68.6411 94.2673 70.7665 84.4608 69.2297 82.7881C68.9845 82.5257 68.6412 82.4273 68.2815 82.5257L68.0689 82.5749L64.6848 94.1689L61.9708 101.876C60.6466 99.0557 60.385 96.1203 59.0608 94.71C57.4422 93.0046 56.6084 93.9229 56.6084 93.9229L57.7529 100.236L58.1779 105.599C58.1616 106.042 57.9 114.11 57.7038 116.619L38.6738 148.662" stroke="#333F48" stroke-width="1.00844" stroke-miterlimit="10" stroke-linecap="round" stroke-linejoin="round"/>
<path d="M76.7509 88.0853L70.1787 100.237" stroke="#333F48" stroke-width="1.00844" stroke-miterlimit="10" stroke-linecap="round" stroke-linejoin="round"/>
<path d="M77.9432 92.3818L73.0059 101.532" stroke="#333F48" stroke-width="1.00844" stroke-miterlimit="10" stroke-linecap="round" stroke-linejoin="round"/>
<path d="M84.1242 96.3177C84.1242 96.3177 86.0533 94.5303 87.8026 94.809C89.552 95.0878 89.6664 95.1534 89.6664 95.1534C89.6664 95.1534 90.4348 94.6614 91.71 94.7598C92.9852 94.8582 94.849 96.1701 94.849 96.1701C94.849 96.1701 97.0397 101.352 89.5029 101.205C82.947 101.09 84.1242 96.3177 84.1242 96.3177Z" fill="#F2ACB9"/>
<path d="M93.377 97.0721C96.3851 96.8097 97.3497 95.219 97.3497 95.219" stroke="#333F48" stroke-width="1.00844" stroke-miterlimit="10" stroke-linecap="round" stroke-linejoin="round"/>
<path d="M87.1816 97.6287C87.9664 97.7599 88.7185 97.8419 89.3724 97.8419C90.5332 97.8419 92.0046 97.4975 93.3779 97.0712" stroke="#333F48" stroke-width="1.00844" stroke-miterlimit="10" stroke-linecap="round" stroke-linejoin="round"/>
<path d="M81.1973 96.0552C81.1973 96.0552 82.5542 97.3343 85.7422 97.3343" stroke="#333F48" stroke-width="1.00844" stroke-miterlimit="10" stroke-linecap="round" stroke-linejoin="round"/>
<path d="M83.3389 96.6953C83.3389 96.6953 84.9738 95.8425 86.0855 95.203C87.0991 94.629 87.9329 94.2354 89.5514 95.1046C89.5514 95.1046 91.1373 93.8911 93.377 95.203C93.8512 95.4818 94.6195 96.0065 96.0909 96.0229" stroke="#333F48" stroke-width="1.00844" stroke-miterlimit="10" stroke-linecap="round" stroke-linejoin="round"/>
<path d="M84.6641 99.5972C84.6641 99.5972 86.7404 102.221 90.5987 101.663C92.1518 101.434 93.2798 100.811 94.0809 100.122" stroke="#333F48" stroke-width="1.00844" stroke-miterlimit="10" stroke-linecap="round" stroke-linejoin="round"/>
<path d="M66.876 127.295C71.0776 125.688 74.0694 121.916 74.707 117.456C75.1648 114.274 75.2465 111.306 75.1975 108.863" stroke="#333F48" stroke-width="1.00844" stroke-miterlimit="10" stroke-linecap="round" stroke-linejoin="round"/>
<path d="M31.1699 148.663C31.1699 148.663 31.1699 148.433 31.2189 148.023C31.8729 140.84 37.1209 134.92 44.1508 133.33" stroke="#333F48" stroke-width="1.00844" stroke-miterlimit="10" stroke-linecap="round" stroke-linejoin="round"/>
<path d="M124.113 130.804L119.732 129.804C117.067 128.951 114.615 128.065 112.571 127.278C108.369 125.671 105.378 121.899 104.74 117.439C103.579 109.272 104.773 102.45 104.773 102.45" stroke="#333F48" stroke-width="1.00844" stroke-miterlimit="10" stroke-linecap="round" stroke-linejoin="round"/>
<path d="M67.1548 81.1321C67.024 79.5906 66.9096 78.0491 66.8115 76.5404" stroke="#333F48" stroke-width="1.00844" stroke-miterlimit="10" stroke-linecap="round" stroke-linejoin="round"/>
<path d="M89.569 110.847C87.5744 110.847 85.4818 110.355 83.9123 109.207C81.8687 107.731 79.5308 105.763 77.3564 103.746" stroke="#333F48" stroke-width="1.00844" stroke-miterlimit="10" stroke-linecap="round" stroke-linejoin="round"/>
<path d="M111.981 82.953C112.178 80.8376 112.341 78.6401 112.505 76.5575" stroke="#333F48" stroke-width="1.00844" stroke-miterlimit="10" stroke-linecap="round" stroke-linejoin="round"/>
<path d="M89.7314 110.847C91.726 110.847 93.8186 110.355 95.3881 109.207C97.9712 107.338 101.061 104.648 103.661 102.123" stroke="#333F48" stroke-width="1.00844" stroke-miterlimit="10" stroke-linecap="round" stroke-linejoin="round"/>
<path d="M78.6961 80.165C79.888 80.165 80.8541 78.9976 80.8541 77.5576C80.8541 76.1176 79.888 74.9502 78.6961 74.9502C77.5043 74.9502 76.5381 76.1176 76.5381 77.5576C76.5381 78.9976 77.5043 80.165 78.6961 80.165Z" fill="#333F48"/>
<path d="M100.554 80.034C101.683 80.034 102.598 78.9253 102.598 77.5578C102.598 76.1902 101.683 75.0815 100.554 75.0815C99.4257 75.0815 98.5107 76.1902 98.5107 77.5578C98.5107 78.9253 99.4257 80.034 100.554 80.034Z" fill="#333F48"/>
<path d="M63.0004 74.8845C63.0004 74.8845 59.698 77.1312 61.4146 83.1003C63.1312 89.0695 65.4527 88.5447 65.4527 88.5447" stroke="#333F48" stroke-width="1.00844" stroke-miterlimit="10" stroke-linecap="round" stroke-linejoin="round"/>
<path d="M115.791 74.8845C115.791 74.8845 119.094 77.1312 117.377 83.1003C115.66 89.0695 113.339 88.5447 113.339 88.5447" stroke="#333F48" stroke-width="1.00844" stroke-miterlimit="10" stroke-linecap="round" stroke-linejoin="round"/>
<path d="M94.8334 71.1128C94.9805 71.3916 95.3075 71.5228 95.6018 71.4244C97.8906 70.6045 101.013 69.5549 102.714 70.0141C103.662 70.2765 105.378 71.08 106.359 71.5556C106.637 71.6868 106.915 71.3916 106.784 71.1128C105.803 69.1778 103.858 68.2922 102.632 68.1938C102.632 68.1938 99.8034 67.8659 94.9969 69.9321C94.6699 70.0797 94.5228 70.4733 94.6863 70.7849L94.8334 71.1128Z" fill="#333F48"/>
<path d="M83.2418 71.1947C83.0946 71.4898 82.7676 71.621 82.457 71.5062C80.1028 70.6699 76.8984 69.5876 75.1327 70.0467C74.1518 70.3091 72.3861 71.1455 71.3725 71.6374C71.0946 71.785 70.8003 71.4734 70.9474 71.1783C71.9611 69.1776 73.9556 68.2757 75.2309 68.1773C75.2309 68.1773 78.1409 67.8329 83.0946 69.9647C83.4379 70.1123 83.5851 70.5223 83.4216 70.8503L83.2418 71.1947Z" fill="#333F48"/>
<path d="M105.982 76.2944L105.606 76.3764C105.23 76.4584 104.838 76.3928 104.511 76.196C104.462 76.1632 104.397 76.1304 104.331 76.0976C103.873 75.868 103.399 75.6876 102.827 75.5237C101.585 75.1793 98.8216 74.0642 96.2549 77.6719" stroke="#333F48" stroke-width="1.00844" stroke-miterlimit="10" stroke-linecap="round" stroke-linejoin="round"/>
<path d="M73.0889 76.2944L73.4649 76.3764C73.8409 76.4584 74.2333 76.3928 74.5603 76.196C74.6093 76.1632 74.6747 76.1304 74.7401 76.0976C75.1979 75.868 75.672 75.6876 76.2442 75.5237C77.4867 75.1793 80.2496 74.0642 82.8164 77.6719" stroke="#333F48" stroke-width="1.00844" stroke-miterlimit="10" stroke-linecap="round" stroke-linejoin="round"/>
<path d="M86.4297 136.2C86.4297 136.2 89.1926 138.889 91.5632 136.2" stroke="#333F48" stroke-width="0.992672" stroke-miterlimit="10" stroke-linecap="round" stroke-linejoin="round"/>
<path d="M65.4541 132.542L78.435 134.28C78.435 134.28 81.0018 134.789 81.4922 137.216" stroke="#333F48" stroke-width="0.992672" stroke-miterlimit="10" stroke-linecap="round" stroke-linejoin="round"/>
<path d="M115.874 130.772L99.7209 134.101C99.7209 134.101 97.1215 134.412 96.4512 136.806" stroke="#333F48" stroke-width="0.992672" stroke-miterlimit="10" stroke-linecap="round" stroke-linejoin="round"/>
<path d="M87.6401 46.6289C87.6401 46.6289 67.4493 57.2553 66.7627 67.8654" stroke="#333F48" stroke-width="1.00844" stroke-miterlimit="10" stroke-linecap="round" stroke-linejoin="round"/>
<path d="M90.0752 46.6289C90.0752 46.6289 112.375 56.3042 112.375 67.8654" stroke="#333F48" stroke-width="1.00844" stroke-miterlimit="10" stroke-linecap="round" stroke-linejoin="round"/>
<path d="M89.0771 38.0035L89.2243 45.2026" stroke="#333F48" stroke-width="1.00844" stroke-miterlimit="10" stroke-linecap="round" stroke-linejoin="round"/>
<path d="M89.0122 33.0346C89.0122 33.0346 76.7343 29.9352 68.9032 40.3813C63.6389 47.4 59.5681 62.7001 60.9904 68.374" stroke="#333F48" stroke-width="1.05751" stroke-miterlimit="10" stroke-linecap="round" stroke-linejoin="round"/>
<path d="M90.7783 33.0343C90.7783 33.0343 101.078 29.8858 110.544 42.2013C115.825 49.0888 119.519 62.7654 118.179 68.4394" stroke="#333F48" stroke-width="1.03456" stroke-miterlimit="10" stroke-linecap="round" stroke-linejoin="round"/>
<path d="M65.4541 64.8314C65.4541 64.8314 67.3015 51.6632 77.683 46.1204" stroke="#333F48" stroke-width="1.00844" stroke-miterlimit="10" stroke-linecap="round" stroke-linejoin="round"/>
<path d="M92.1673 89.2823C92.1673 89.2823 91.121 89.2823 90.9248 89.9055" stroke="#333F48" stroke-width="1.01778" stroke-miterlimit="10" stroke-linecap="round" stroke-linejoin="round"/>
<path d="M86.2656 89.2823C86.2656 89.2823 87.3119 89.2823 87.5081 89.9055" stroke="#333F48" stroke-width="1.01778" stroke-miterlimit="10" stroke-linecap="round" stroke-linejoin="round"/>
<path d="M184.584 96.929H185.848V91.889H192.312V96.929H193.576V85.729H192.312V90.705H185.848V85.729H184.584V96.929ZM198.996 97.105C200.452 97.105 201.396 96.433 201.972 95.697V96.929H203.188V91.873C203.188 90.817 202.9 90.017 202.324 89.441C201.732 88.849 200.82 88.529 199.652 88.529C198.436 88.529 197.556 88.817 196.644 89.233L197.012 90.241C197.78 89.889 198.548 89.649 199.524 89.649C201.076 89.649 201.972 90.417 201.972 91.889V92.145C201.236 91.937 200.5 91.793 199.444 91.793C197.348 91.793 195.908 92.721 195.908 94.497C195.908 96.225 197.444 97.105 198.996 97.105ZM199.236 96.113C198.116 96.113 197.156 95.505 197.156 94.465C197.156 93.441 198.036 92.769 199.572 92.769C200.58 92.769 201.38 92.945 201.988 93.121V93.889C201.988 95.201 200.756 96.113 199.236 96.113ZM205.798 96.929H207.03V93.313H211.798V96.929H213.03V88.657H211.798V92.225H207.03V88.657H205.798V96.929ZM219.398 97.121C220.966 97.121 221.974 96.497 222.806 95.569L222.038 94.881C221.366 95.585 220.566 96.049 219.43 96.049C217.974 96.049 216.694 95.041 216.518 93.297H223.078C223.094 93.105 223.094 92.977 223.094 92.865C223.094 90.433 221.686 88.481 219.238 88.481C216.95 88.481 215.27 90.401 215.27 92.801C215.27 95.377 217.126 97.121 219.398 97.121ZM216.518 92.305C216.694 90.705 217.782 89.521 219.206 89.521C220.838 89.521 221.702 90.801 221.846 92.305H216.518ZM228.979 97.121C230.531 97.121 231.523 96.449 232.355 95.521L231.539 94.769C230.883 95.473 230.099 96.017 229.043 96.017C227.315 96.017 226.003 94.593 226.003 92.801C226.003 90.993 227.283 89.569 228.963 89.569C230.083 89.569 230.851 90.097 231.507 90.785L232.291 89.953C231.523 89.137 230.547 88.481 228.979 88.481C226.563 88.481 224.739 90.465 224.739 92.801C224.739 95.153 226.563 97.121 228.979 97.121ZM236.392 96.929H237.64V89.745H240.6V88.657H233.432V89.745H236.392V96.929ZM242.392 96.929H243.576L248.504 90.385V96.929H249.736V88.657H248.536L243.624 95.201V88.657H242.392V96.929ZM257.282 96.929H258.514V93.313H263.282V96.929H264.514V88.657H263.282V92.225H258.514V88.657H257.282V96.929ZM269.731 97.105C271.187 97.105 272.131 96.433 272.707 95.697V96.929H273.923V91.873C273.923 90.817 273.635 90.017 273.059 89.441C272.467 88.849 271.555 88.529 270.387 88.529C269.171 88.529 268.291 88.817 267.379 89.233L267.747 90.241C268.515 89.889 269.283 89.649 270.259 89.649C271.811 89.649 272.707 90.417 272.707 91.889V92.145C271.971 91.937 271.235 91.793 270.179 91.793C268.083 91.793 266.643 92.721 266.643 94.497C266.643 96.225 268.179 97.105 269.731 97.105ZM269.971 96.113C268.851 96.113 267.891 95.505 267.891 94.465C267.891 93.441 268.771 92.769 270.307 92.769C271.315 92.769 272.115 92.945 272.723 93.121V93.889C272.723 95.201 271.491 96.113 269.971 96.113ZM281.329 96.929H282.561V94.929L284.305 93.137L287.249 96.929H288.705L285.153 92.241L288.609 88.657H287.089L282.561 93.425V88.657H281.329V96.929ZM294.183 97.121C296.679 97.121 298.519 95.137 298.519 92.801C298.519 90.433 296.695 88.481 294.215 88.481C291.719 88.481 289.895 90.465 289.895 92.801C289.895 95.169 291.703 97.121 294.183 97.121ZM294.215 96.017C292.471 96.017 291.159 94.577 291.159 92.801C291.159 91.025 292.391 89.569 294.183 89.569C295.927 89.569 297.255 91.025 297.255 92.801C297.255 94.577 296.007 96.017 294.215 96.017ZM299.695 96.929H301.135L303.887 93.073L305.567 94.913V96.929H306.799V94.913L308.479 93.073L311.231 96.929H312.671L309.279 92.193L312.495 88.657H311.007L306.799 93.457V88.657H305.567V93.457L301.359 88.657H299.871L303.087 92.193L299.695 96.929ZM315.64 99.537C316.888 99.537 317.688 98.913 318.392 97.201L321.864 88.657H320.552L317.896 95.553L314.888 88.657H313.528L317.288 96.897C316.792 98.065 316.328 98.449 315.592 98.449C315.064 98.449 314.696 98.353 314.296 98.145L313.88 99.121C314.44 99.393 314.952 99.537 315.64 99.537ZM328.21 97.057C329.778 97.057 330.946 96.385 330.946 89.937V89.745H334.402V96.929H335.634V88.657H329.778V89.345C329.778 95.553 328.946 95.985 327.954 95.985C327.81 95.985 327.522 95.921 327.362 95.873L327.218 96.929C327.474 96.993 327.938 97.057 328.21 97.057ZM338.392 96.929H339.576L344.504 90.385V96.929H345.736V88.657H344.536L339.624 95.201V88.657H338.392V96.929ZM355.621 98.993H356.645L356.837 95.841H355.589V88.657H354.357V95.841H349.717V88.657H348.485V96.929H355.621V98.993ZM360.996 97.105C362.452 97.105 363.396 96.433 363.972 95.697V96.929H365.188V91.873C365.188 90.817 364.9 90.017 364.324 89.441C363.732 88.849 362.82 88.529 361.652 88.529C360.436 88.529 359.556 88.817 358.644 89.233L359.012 90.241C359.78 89.889 360.548 89.649 361.524 89.649C363.076 89.649 363.972 90.417 363.972 91.889V92.145C363.236 91.937 362.5 91.793 361.444 91.793C359.348 91.793 357.908 92.721 357.908 94.497C357.908 96.225 359.444 97.105 360.996 97.105ZM361.236 96.113C360.116 96.113 359.156 95.505 359.156 94.465C359.156 93.441 360.036 92.769 361.572 92.769C362.58 92.769 363.38 92.945 363.988 93.121V93.889C363.988 95.201 362.756 96.113 361.236 96.113ZM372.595 96.929H373.827V94.929L375.571 93.137L378.515 96.929H379.971L376.419 92.241L379.875 88.657H378.355L373.827 93.425V88.657H372.595V96.929ZM381.673 99.489H382.905V95.345C383.545 96.273 384.537 97.105 386.073 97.105C388.073 97.105 390.025 95.505 390.025 92.801C390.025 90.049 388.057 88.481 386.073 88.481C384.553 88.481 383.577 89.329 382.905 90.321V88.657H381.673V99.489ZM385.849 96.001C384.313 96.001 382.857 94.721 382.857 92.801C382.857 90.881 384.313 89.585 385.849 89.585C387.417 89.585 388.761 90.833 388.761 92.785C388.761 94.817 387.449 96.001 385.849 96.001ZM393.578 99.537C394.826 99.537 395.626 98.913 396.33 97.201L399.802 88.657H398.49L395.834 95.553L392.826 88.657H391.466L395.226 96.897C394.73 98.065 394.266 98.449 393.53 98.449C393.002 98.449 392.634 98.353 392.234 98.145L391.818 99.121C392.378 99.393 392.89 99.537 393.578 99.537ZM401.751 96.929H402.983V89.745H407.367V88.657H401.751V96.929ZM412.933 97.121C415.429 97.121 417.269 95.137 417.269 92.801C417.269 90.433 415.445 88.481 412.965 88.481C410.469 88.481 408.645 90.465 408.645 92.801C408.645 95.169 410.453 97.121 412.933 97.121ZM412.965 96.017C411.221 96.017 409.909 94.577 409.909 92.801C409.909 91.025 411.141 89.569 412.933 89.569C414.677 89.569 416.005 91.025 416.005 92.801C416.005 94.577 414.757 96.017 412.965 96.017ZM419.501 96.929H423.645C425.469 96.929 426.653 96.065 426.653 94.673C426.653 93.505 425.821 92.897 424.829 92.625C425.517 92.337 426.205 91.809 426.205 90.721C426.205 89.473 425.149 88.657 423.501 88.657H419.501V96.929ZM420.733 95.873V93.201H423.325C424.669 93.201 425.389 93.681 425.389 94.481C425.389 95.345 424.669 95.873 423.485 95.873H420.733ZM420.733 92.209V89.713H423.309C424.381 89.713 424.957 90.193 424.957 90.881C424.957 91.745 424.269 92.209 423.277 92.209H420.733ZM428.876 96.929H432.46C434.348 96.929 435.58 95.889 435.58 94.241C435.58 92.497 434.108 91.761 432.316 91.761H430.108V88.657H428.876V96.929ZM430.108 95.841V92.817H432.3C433.564 92.817 434.332 93.313 434.332 94.273C434.332 95.313 433.58 95.841 432.348 95.841H430.108ZM437.068 96.929H438.3V88.657H437.068V96.929ZM441.048 96.929H442.248V90.625L445.272 94.817L448.328 90.625V96.929H449.576V88.657H448.392L445.304 93.009L442.216 88.657H441.048V96.929ZM452.329 96.929H453.513L458.441 90.385V96.929H459.673V88.657H458.473L453.561 95.201V88.657H452.329V96.929ZM466.004 98.993H467.012L467.236 96.929H473.924V98.993H474.948L475.14 95.841H473.892V88.657H468.004V90.097C468.004 92.881 467.572 94.609 466.9 95.841H466.004V98.993ZM468.212 95.841C468.788 94.769 469.188 92.945 469.188 90.897V89.745H472.66V95.841H468.212ZM476.829 96.929H480.973C482.797 96.929 483.981 96.065 483.981 94.673C483.981 93.505 483.149 92.897 482.157 92.625C482.845 92.337 483.533 91.809 483.533 90.721C483.533 89.473 482.477 88.657 480.829 88.657H476.829V96.929ZM478.061 95.873V93.201H480.653C481.997 93.201 482.717 93.681 482.717 94.481C482.717 95.345 481.997 95.873 480.813 95.873H478.061ZM478.061 92.209V89.713H480.637C481.709 89.713 482.285 90.193 482.285 90.881C482.285 91.745 481.597 92.209 480.605 92.209H478.061ZM486.204 96.929H487.388L492.316 90.385V96.929H493.548V88.657H492.348L487.436 95.201V88.657H486.204V96.929ZM495.242 96.929H496.682L499.434 93.073L501.114 94.913V96.929H502.346V94.913L504.026 93.073L506.778 96.929H508.218L504.826 92.193L508.042 88.657H506.554L502.346 93.457V88.657H501.114V93.457L496.906 88.657H495.418L498.634 92.193L495.242 96.929ZM513.523 97.121C515.091 97.121 516.099 96.497 516.931 95.569L516.163 94.881C515.491 95.585 514.691 96.049 513.555 96.049C512.099 96.049 510.819 95.041 510.643 93.297H517.203C517.219 93.105 517.219 92.977 517.219 92.865C517.219 90.433 515.811 88.481 513.363 88.481C511.075 88.481 509.395 90.401 509.395 92.801C509.395 95.377 511.251 97.121 513.523 97.121ZM510.643 92.305C510.819 90.705 511.907 89.521 513.331 89.521C514.963 89.521 515.827 90.801 515.971 92.305H510.643ZM519.376 96.929H520.608V93.313H525.376V96.929H526.608V88.657H525.376V92.225H520.608V88.657H519.376V96.929ZM529.36 96.929H530.544L535.472 90.385V96.929H536.704V88.657H535.504L530.592 95.201V88.657H529.36V96.929ZM538.718 96.929H540.238C541.006 95.937 541.758 94.929 542.526 93.921H544.814V96.929H546.046V88.657H542.158C540.19 88.657 539.038 89.713 539.038 91.233C539.038 92.577 540.014 93.441 541.246 93.729L538.718 96.929ZM542.254 92.881C541.102 92.881 540.27 92.289 540.27 91.281C540.27 90.337 540.99 89.745 542.222 89.745H544.814V92.881H542.254ZM548.798 96.929H549.998V90.625L553.022 94.817L556.078 90.625V96.929H557.326V88.657H556.142L553.054 93.009L549.966 88.657H548.798V96.929ZM560.079 96.929H561.263L566.191 90.385V96.929H567.423V88.657H566.223L561.311 95.201V88.657H560.079V96.929Z" fill="#333F48"/>
<path d="M642.176 148.355C642.176 148.355 642.176 145.523 642.225 145.092C642.884 137.838 648.172 131.86 655.256 130.253L670.94 126.693C673.625 125.832 676.096 124.937 678.156 124.142C682.39 122.52 685.404 118.711 686.047 114.206C687.217 105.959 685.503 101.835 685.503 101.835" stroke="#333F48" stroke-width="1.01619" stroke-miterlimit="10" stroke-linecap="round" stroke-linejoin="round"/>
<path d="M715.832 104.998C715.947 101.421 716.343 99.1023 716.343 99.1023" stroke="#333F48" stroke-width="1.01619" stroke-miterlimit="10" stroke-linecap="round" stroke-linejoin="round"/>
<path d="M760.165 145.739C760.165 145.739 760.165 145.507 760.115 145.093C759.456 137.839 754.168 131.861 747.084 130.254L731.4 126.694C729.687 126.147 728.073 125.584 726.59 125.054" stroke="#333F48" stroke-width="0.985338" stroke-miterlimit="10" stroke-linecap="round" stroke-linejoin="round"/>
<path d="M702.307 109.767C700.33 110.065 698.172 109.867 696.425 108.956C692.587 106.952 687.628 103.59 684.284 100.907C681.714 98.8538 679.72 96.1543 678.468 93.1071C677.019 89.5797 675.734 83.8827 674.63 78.8151" stroke="#333F48" stroke-width="1.01619" stroke-miterlimit="10" stroke-linecap="round" stroke-linejoin="round"/>
<path d="M702.472 109.751C704.449 109.47 706.475 108.658 707.875 107.284C710.989 104.27 714.778 99.6159 717.216 96.0884C719.094 93.3725 720.248 90.2259 720.577 86.9468C720.956 83.1378 720.577 77.3249 720.198 72.1414" stroke="#333F48" stroke-width="1.01619" stroke-miterlimit="10" stroke-linecap="round" stroke-linejoin="round"/>
<path d="M670.627 77.7056C670.627 77.7056 667.662 80.4381 670.232 86.1351C672.802 91.8486 675.042 90.9874 675.042 90.9874" stroke="#333F48" stroke-width="1.01619" stroke-miterlimit="10" stroke-linecap="round" stroke-linejoin="round"/>
<path d="M723.262 69.9895C723.262 69.9895 726.87 71.745 726.03 77.9553C725.19 84.1657 722.801 83.9835 722.801 83.9835" stroke="#333F48" stroke-width="1.01619" stroke-miterlimit="10" stroke-linecap="round" stroke-linejoin="round"/>
<path d="M701.813 69.2772C701.995 69.5422 702.34 69.625 702.621 69.476C704.795 68.3333 707.744 66.8097 709.507 67.025C710.495 67.1409 712.324 67.704 713.362 68.0352C713.658 68.1345 713.889 67.7868 713.724 67.5383C712.456 65.7498 710.396 65.137 709.161 65.2198C709.161 65.2198 706.294 65.3026 701.797 68.0683C701.484 68.267 701.401 68.6645 701.599 68.9791L701.813 69.2772Z" fill="#333F48"/>
<path d="M690.265 71.0652C690.166 71.3799 689.853 71.5621 689.524 71.4958C687.053 70.999 683.692 70.3862 682.011 71.1149C681.072 71.5289 679.441 72.6054 678.502 73.2513C678.239 73.4335 677.909 73.1685 678.008 72.8704C678.733 70.734 680.578 69.5251 681.83 69.2435C681.83 69.2435 684.68 68.4817 689.919 69.8894C690.282 69.9888 690.496 70.3697 690.364 70.7175L690.265 71.0652Z" fill="#333F48"/>
<path d="M680.659 78.799L681.038 78.6996C681.417 78.6002 681.812 78.6499 682.158 78.8486C682.208 78.8818 682.274 78.9149 682.34 78.948C682.817 79.1633 683.295 79.3289 683.872 79.478C685.124 79.7926 687.941 80.8359 690.428 77.1097" stroke="#333F48" stroke-width="1.01619" stroke-miterlimit="10" stroke-linecap="round" stroke-linejoin="round"/>
<path d="M713.641 71.2139L713.262 71.2967C712.883 71.3795 712.537 71.6113 712.339 71.926C712.306 71.9757 712.273 72.0254 712.207 72.0916C711.878 72.4891 711.532 72.87 711.071 73.2509C710.082 74.0955 708.023 76.2815 704.151 74.0624" stroke="#333F48" stroke-width="1.01619" stroke-miterlimit="10" stroke-linecap="round" stroke-linejoin="round"/>
<path d="M674.433 129.161L689.803 131.215C689.803 131.215 692.39 131.728 692.884 134.179" stroke="#333F48" stroke-width="1.0003" stroke-miterlimit="10" stroke-linecap="round" stroke-linejoin="round"/>
<path d="M703.444 116.343L705.158 112.351C705.191 112.318 708.881 111.672 706.08 120.549C705.57 122.189 704.696 124.623 705.355 126.279C706.163 128.333 709.49 124.358 711.072 122.321L715.981 113.444C716.113 112.6 717.184 105.893 717.349 105.181C717.975 102.316 720.759 100.908 720.759 102.614L720.775 111.358C721.616 108.89 722.044 107.416 722.456 106.555C722.818 105.777 723.625 103.607 725.882 104.005C726.212 104.071 725.882 105.545 725.767 106.141L725.059 109.884C725.355 109.404 725.569 109.304 725.767 109.271C725.998 109.238 726.228 109.337 726.36 109.553C726.591 109.884 727.085 110.613 725.289 116.69C725.322 116.69 725.355 116.69 725.372 116.707C725.619 116.757 726.261 116.856 726.212 119.704C726.228 122.487 721.517 132.158 719.968 134.179L709.77 144.181" stroke="#333F48" stroke-width="0.985338" stroke-miterlimit="10" stroke-linecap="round" stroke-linejoin="round"/>
<path d="M697.844 140.108C697.91 139.81 699.722 137.789 699.491 135.802C699.03 131.811 698.915 129.327 699.294 128.035" stroke="#333F48" stroke-width="0.985338" stroke-miterlimit="10" stroke-linecap="round" stroke-linejoin="round"/>
<path d="M720.774 111.341C720.774 111.341 719.901 118.876 714.926 124.374" stroke="#333F48" stroke-width="0.985338" stroke-miterlimit="10" stroke-linecap="round" stroke-linejoin="round"/>
<path d="M725.058 109.851L722.439 118.578L719.968 124.325" stroke="#333F48" stroke-width="0.985338" stroke-miterlimit="10" stroke-linecap="round" stroke-linejoin="round"/>
<path d="M725.37 116.674C725.37 116.674 723.426 124.11 722.355 125.683" stroke="#333F48" stroke-width="0.985338" stroke-miterlimit="10" stroke-linecap="round" stroke-linejoin="round"/>
<path d="M696.673 141.333L688.485 148.355" stroke="#333F48" stroke-width="0.985338" stroke-miterlimit="10" stroke-linecap="round" stroke-linejoin="round"/>
<path d="M702.323 117.651C702.323 117.651 699.687 124.855 699.852 125.699" stroke="#333F48" stroke-width="0.985338" stroke-miterlimit="10" stroke-linecap="round" stroke-linejoin="round"/>
<path d="M708.897 145.738L705.075 151.253" stroke="#333F48" stroke-width="0.985338" stroke-miterlimit="10" stroke-linecap="round" stroke-linejoin="round"/>
<path d="M691.911 47.6146C691.911 47.6146 673.278 61.1118 674.102 71.8432" stroke="#333F48" stroke-width="1.01619" stroke-miterlimit="10" stroke-linecap="round" stroke-linejoin="round"/>
<path d="M694.35 47.2671C694.35 47.2671 717.974 53.759 719.605 65.3185" stroke="#333F48" stroke-width="1.01619" stroke-miterlimit="10" stroke-linecap="round" stroke-linejoin="round"/>
<path d="M692.143 38.7881L693.296 45.9589" stroke="#333F48" stroke-width="1.01619" stroke-miterlimit="10" stroke-linecap="round" stroke-linejoin="round"/>
<path d="M691.352 33.8197C691.352 33.8197 678.666 32.4783 672.324 44.0378C668.057 51.8048 666.179 67.6867 668.386 73.1518" stroke="#333F48" stroke-width="1.06564" stroke-miterlimit="10" stroke-linecap="round" stroke-linejoin="round"/>
<path d="M693.131 33.5712C693.131 33.5712 702.966 28.9507 714.136 39.914C720.379 46.0415 725.997 59.1909 725.47 65.0535" stroke="#333F48" stroke-width="1.0425" stroke-miterlimit="10" stroke-linecap="round" stroke-linejoin="round"/>
<path d="M672.372 68.9777C672.372 68.9777 672.339 55.5634 681.927 48.525" stroke="#333F48" stroke-width="1.01619" stroke-miterlimit="10" stroke-linecap="round" stroke-linejoin="round"/>
<path d="M674.088 95.5596C674.088 95.5596 681.369 119.606 667.465 127.489" stroke="#333F48" stroke-width="1.01619" stroke-miterlimit="10" stroke-linecap="round" stroke-linejoin="round"/>
<path d="M693.954 94.6978C693.954 94.6978 696.442 92.9589 697.941 93.0086C699.44 93.0583 699.539 93.1245 699.539 93.1245C699.539 93.1245 700.099 92.5283 701.17 92.4621C702.257 92.4124 704.564 93.1245 704.564 93.1245C704.564 93.1245 706.508 98.0762 700.198 98.8877C694.728 99.5998 693.954 94.6978 693.954 94.6978Z" fill="#F2ACB9"/>
<path d="M697.135 95.3594C698.7 95.2269 699.128 95.3925 699.672 95.3097C700.627 95.1607 701.879 94.7135 702.967 94.1339" stroke="#333F48" stroke-width="1.0003" stroke-miterlimit="10" stroke-linecap="round" stroke-linejoin="round"/>
<path d="M691.499 94.5974C691.499 94.5974 692.768 95.6407 693.871 95.5248C695.041 95.4089 695.684 95.2433 696.639 95.3427" stroke="#333F48" stroke-width="1.0003" stroke-miterlimit="10" stroke-linecap="round" stroke-linejoin="round"/>
<path d="M707.611 91.7333C707.611 91.7333 706.837 93.0913 705.782 93.4059C704.646 93.7371 704.003 93.8365 703.146 94.2837" stroke="#333F48" stroke-width="1.0003" stroke-miterlimit="10" stroke-linecap="round" stroke-linejoin="round"/>
<path d="M693.84 95.111C693.494 94.9454 695.257 93.7695 696.278 93.2893C697.168 92.8587 698.025 92.1963 699.491 92.7924C699.491 92.7924 700.183 91.8319 702.605 92.13C704.334 92.3453 704.829 93.074 705.965 93.1568" stroke="#333F48" stroke-width="1.0003" stroke-miterlimit="10" stroke-linecap="round" stroke-linejoin="round"/>
<path d="M696.244 98.5393C696.244 98.5393 697.743 100.195 701.121 99.417C702.406 99.1189 703.196 98.4731 703.855 97.8438" stroke="#333F48" stroke-width="1.0003" stroke-miterlimit="10" stroke-linecap="round" stroke-linejoin="round"/>
<path d="M694.268 87.527C694.268 87.527 695.899 86.7652 696.557 88.2888" stroke="#333F48" stroke-width="1.0003" stroke-miterlimit="10" stroke-linecap="round" stroke-linejoin="round"/>
<path d="M699.935 87.4941C699.935 87.4941 699.951 86.4838 701.5 85.9208" stroke="#333F48" stroke-width="1.0003" stroke-miterlimit="10" stroke-linecap="round" stroke-linejoin="round"/>
<path d="M794.584 96.929H795.848V91.889H802.312V96.929H803.576V85.729H802.312V90.705H795.848V85.729H794.584V96.929ZM808.996 97.105C810.452 97.105 811.396 96.433 811.972 95.697V96.929H813.188V91.873C813.188 90.817 812.9 90.017 812.324 89.441C811.732 88.849 810.82 88.529 809.652 88.529C808.436 88.529 807.556 88.817 806.644 89.233L807.012 90.241C807.78 89.889 808.548 89.649 809.524 89.649C811.076 89.649 811.972 90.417 811.972 91.889V92.145C811.236 91.937 810.5 91.793 809.444 91.793C807.348 91.793 805.908 92.721 805.908 94.497C805.908 96.225 807.444 97.105 808.996 97.105ZM809.236 96.113C808.116 96.113 807.156 95.505 807.156 94.465C807.156 93.441 808.036 92.769 809.572 92.769C810.58 92.769 811.38 92.945 811.988 93.121V93.889C811.988 95.201 810.756 96.113 809.236 96.113ZM815.798 96.929H817.03V93.313H821.798V96.929H823.03V88.657H821.798V92.225H817.03V88.657H815.798V96.929ZM829.398 97.121C830.966 97.121 831.974 96.497 832.806 95.569L832.038 94.881C831.366 95.585 830.566 96.049 829.43 96.049C827.974 96.049 826.694 95.041 826.518 93.297H833.078C833.094 93.105 833.094 92.977 833.094 92.865C833.094 90.433 831.686 88.481 829.238 88.481C826.95 88.481 825.27 90.401 825.27 92.801C825.27 95.377 827.126 97.121 829.398 97.121ZM826.518 92.305C826.694 90.705 827.782 89.521 829.206 89.521C830.838 89.521 831.702 90.801 831.846 92.305H826.518ZM838.979 97.121C840.531 97.121 841.523 96.449 842.355 95.521L841.539 94.769C840.883 95.473 840.099 96.017 839.043 96.017C837.315 96.017 836.003 94.593 836.003 92.801C836.003 90.993 837.283 89.569 838.963 89.569C840.083 89.569 840.851 90.097 841.507 90.785L842.291 89.953C841.523 89.137 840.547 88.481 838.979 88.481C836.563 88.481 834.739 90.465 834.739 92.801C834.739 95.153 836.563 97.121 838.979 97.121ZM846.392 96.929H847.64V89.745H850.6V88.657H843.432V89.745H846.392V96.929ZM852.392 96.929H853.576L858.504 90.385V96.929H859.736V88.657H858.536L853.624 95.201V88.657H852.392V96.929ZM871.01 97.121C872.562 97.121 873.554 96.449 874.386 95.521L873.57 94.769C872.914 95.473 872.13 96.017 871.074 96.017C869.346 96.017 868.034 94.593 868.034 92.801C868.034 90.993 869.314 89.569 870.994 89.569C872.114 89.569 872.882 90.097 873.538 90.785L874.322 89.953C873.554 89.137 872.578 88.481 871.01 88.481C868.594 88.481 866.77 90.465 866.77 92.801C866.77 95.153 868.594 97.121 871.01 97.121ZM876.423 99.489H877.655V95.345C878.295 96.273 879.287 97.105 880.823 97.105C882.823 97.105 884.775 95.505 884.775 92.801C884.775 90.049 882.807 88.481 880.823 88.481C879.303 88.481 878.327 89.329 877.655 90.321V88.657H876.423V99.489ZM880.599 96.001C879.063 96.001 877.607 94.721 877.607 92.801C877.607 90.881 879.063 89.585 880.599 89.585C882.167 89.585 883.511 90.833 883.511 92.785C883.511 94.817 882.199 96.001 880.599 96.001ZM890.664 97.121C892.232 97.121 893.24 96.497 894.072 95.569L893.304 94.881C892.632 95.585 891.832 96.049 890.696 96.049C889.24 96.049 887.96 95.041 887.784 93.297H894.344C894.36 93.105 894.36 92.977 894.36 92.865C894.36 90.433 892.952 88.481 890.504 88.481C888.216 88.481 886.536 90.401 886.536 92.801C886.536 95.377 888.392 97.121 890.664 97.121ZM887.784 92.305C887.96 90.705 889.048 89.521 890.472 89.521C892.104 89.521 892.968 90.801 893.112 92.305H887.784ZM895.301 98.993H896.309L896.533 96.929H903.221V98.993H904.245L904.437 95.841H903.189V88.657H897.301V90.097C897.301 92.881 896.869 94.609 896.197 95.841H895.301V98.993ZM897.509 95.841C898.085 94.769 898.485 92.945 898.485 90.897V89.745H901.957V95.841H897.509ZM909.854 97.121C911.406 97.121 912.398 96.449 913.23 95.521L912.414 94.769C911.758 95.473 910.974 96.017 909.918 96.017C908.19 96.017 906.878 94.593 906.878 92.801C906.878 90.993 908.158 89.569 909.838 89.569C910.958 89.569 911.726 90.097 912.382 90.785L913.166 89.953C912.398 89.137 911.422 88.481 909.854 88.481C907.438 88.481 905.614 90.465 905.614 92.801C905.614 95.153 907.438 97.121 909.854 97.121ZM917.267 96.929H918.515V89.745H921.475V88.657H914.307V89.745H917.267V96.929ZM923.267 96.929H927.411C929.235 96.929 930.419 96.065 930.419 94.673C930.419 93.505 929.587 92.897 928.595 92.625C929.283 92.337 929.971 91.809 929.971 90.721C929.971 89.473 928.915 88.657 927.267 88.657H923.267V96.929ZM924.499 95.873V93.201H927.091C928.435 93.201 929.155 93.681 929.155 94.481C929.155 95.345 928.435 95.873 927.251 95.873H924.499ZM924.499 92.209V89.713H927.075C928.147 89.713 928.723 90.193 928.723 90.881C928.723 91.745 928.035 92.209 927.043 92.209H924.499ZM936.418 97.121C938.914 97.121 940.754 95.137 940.754 92.801C940.754 90.433 938.93 88.481 936.45 88.481C933.954 88.481 932.13 90.465 932.13 92.801C932.13 95.169 933.938 97.121 936.418 97.121ZM936.45 96.017C934.706 96.017 933.394 94.577 933.394 92.801C933.394 91.025 934.626 89.569 936.418 89.569C938.162 89.569 939.49 91.025 939.49 92.801C939.49 94.577 938.242 96.017 936.45 96.017ZM947.782 96.929H949.014V93.313H953.782V96.929H955.014V88.657H953.782V92.225H949.014V88.657H947.782V96.929ZM960.231 97.105C961.687 97.105 962.631 96.433 963.207 95.697V96.929H964.423V91.873C964.423 90.817 964.135 90.017 963.559 89.441C962.967 88.849 962.055 88.529 960.887 88.529C959.671 88.529 958.791 88.817 957.879 89.233L958.247 90.241C959.015 89.889 959.783 89.649 960.759 89.649C962.311 89.649 963.207 90.417 963.207 91.889V92.145C962.471 91.937 961.735 91.793 960.679 91.793C958.583 91.793 957.143 92.721 957.143 94.497C957.143 96.225 958.679 97.105 960.231 97.105ZM960.471 96.113C959.351 96.113 958.391 95.505 958.391 94.465C958.391 93.441 959.271 92.769 960.807 92.769C961.815 92.769 962.615 92.945 963.223 93.121V93.889C963.223 95.201 961.991 96.113 960.471 96.113ZM971.829 96.929H973.061V94.929L974.805 93.137L977.749 96.929H979.205L975.653 92.241L979.109 88.657H977.589L973.061 93.425V88.657H971.829V96.929ZM984.683 97.121C987.179 97.121 989.019 95.137 989.019 92.801C989.019 90.433 987.195 88.481 984.715 88.481C982.219 88.481 980.395 90.465 980.395 92.801C980.395 95.169 982.203 97.121 984.683 97.121ZM984.715 96.017C982.971 96.017 981.659 94.577 981.659 92.801C981.659 91.025 982.891 89.569 984.683 89.569C986.427 89.569 987.755 91.025 987.755 92.801C987.755 94.577 986.507 96.017 984.715 96.017ZM990.195 96.929H991.635L994.387 93.073L996.067 94.913V96.929H997.299V94.913L998.979 93.073L1001.73 96.929H1003.17L999.779 92.193L1003 88.657H1001.51L997.299 93.457V88.657H996.067V93.457L991.859 88.657H990.371L993.587 92.193L990.195 96.929ZM1006.14 99.537C1007.39 99.537 1008.19 98.913 1008.89 97.201L1012.36 88.657H1011.05L1008.4 95.553L1005.39 88.657H1004.03L1007.79 96.897C1007.29 98.065 1006.83 98.449 1006.09 98.449C1005.56 98.449 1005.2 98.353 1004.8 98.145L1004.38 99.121C1004.94 99.393 1005.45 99.537 1006.14 99.537ZM1019.11 96.929H1030.89V88.657H1029.64V95.841H1025.61V88.657H1024.37V95.841H1020.34V88.657H1019.11V96.929ZM1037.26 97.121C1038.83 97.121 1039.83 96.497 1040.67 95.569L1039.9 94.881C1039.23 95.585 1038.43 96.049 1037.29 96.049C1035.83 96.049 1034.55 95.041 1034.38 93.297H1040.94C1040.95 93.105 1040.95 92.977 1040.95 92.865C1040.95 90.433 1039.55 88.481 1037.1 88.481C1034.81 88.481 1033.13 90.401 1033.13 92.801C1033.13 95.377 1034.99 97.121 1037.26 97.121ZM1034.38 92.305C1034.55 90.705 1035.64 89.521 1037.07 89.521C1038.7 89.521 1039.56 90.801 1039.71 92.305H1034.38ZM1043.11 96.929H1044.29L1049.22 90.385V96.929H1050.45V88.657H1049.25L1044.34 95.201V88.657H1043.11V96.929Z" fill="#333F48"/>
</svg>
