<svg width="213" height="13" viewBox="0 0 213 13" fill="none" xmlns="http://www.w3.org/2000/svg">
<path d="M205.838 0.0329021C200.111 0.679186 194.208 0.326667 188.423 0.326667C179.89 0.326667 179.832 12.4298 188.423 12.4298C194.15 12.4298 200.111 12.8411 205.838 12.136C209.403 11.7248 212.5 9.66841 212.5 6.08447C212.442 3.14682 209.403 -0.37837 205.838 0.0329021Z" fill="#C7EDB3"/>
<path d="M171.603 -2.79717e-07C163.071 -6.52674e-07 163.012 12.1031 171.603 12.1031C180.135 12.1031 180.135 9.32391e-08 171.603 -2.79717e-07Z" fill="#C7EDB3"/>
<path d="M154.761 0.0167514C147.572 0.486776 140.326 0.0167508 133.138 0.0167505C124.605 0.0167501 124.547 12.1199 133.138 12.1199C140.326 12.1199 147.572 12.5899 154.761 12.1199C163.293 11.6499 163.351 -0.512026 154.761 0.0167514Z" fill="#C7EDB3"/>
<path d="M116.273 -2.81633e-07C107.741 -6.54589e-07 107.682 12.1031 116.273 12.1031C124.863 12.1619 124.863 9.38777e-08 116.273 -2.81633e-07Z" fill="#C7EDB3"/>
<path d="M99.4534 0.00084575C93.434 0.0595986 86.8303 1.35216 80.811 0.235854C72.4541 -1.35048 68.8892 10.3414 77.3046 11.9277C84.6096 13.3378 92.0315 12.2215 99.4534 12.1627C107.986 12.0452 107.986 -0.11666 99.4534 0.00084575Z" fill="#C7EDB3"/>
<path d="M62.0969 -2.79717e-07C53.5647 -6.52674e-07 53.5062 12.1031 62.0969 12.1031C70.6292 12.1031 70.6292 9.32391e-08 62.0969 -2.79717e-07Z" fill="#C7EDB3"/>
<path d="M45.2766 0.130562C38.2638 0.130562 31.251 -0.163204 24.2382 0.130561C15.7059 0.48308 15.6475 12.645 24.2382 12.2337C31.251 11.9399 38.2638 12.2337 45.2766 12.2337C53.8088 12.2925 53.8088 0.130563 45.2766 0.130562Z" fill="#C7EDB3"/>
<path d="M7.39626 -2.80676e-07C-1.13598 -6.53632e-07 -1.19442 12.1031 7.39626 12.1031C15.9285 12.1031 15.987 9.48348e-08 7.39626 -2.80676e-07Z" fill="#C7EDB3"/>
</svg>
