<svg width="61" height="61" viewBox="0 0 61 61" fill="none" xmlns="http://www.w3.org/2000/svg">
<path fill-rule="evenodd" clip-rule="evenodd" d="M7.1175 0H53.0349C54.8395 0 56.711 0.467863 58.0478 1.7712C59.5516 3.10795 60.1866 5.1465 60.1531 7.08479V20.9536C59.6853 19.5166 59.4513 18.0127 58.8498 16.6426C58.0143 15.1387 55.4745 16.0076 55.675 17.6785C56.1429 19.6503 56.6442 21.6554 57.3125 23.5937C54.4051 22.3238 51.4977 21.0538 48.6237 19.7839C47.6879 19.3829 46.7522 18.8148 45.7162 18.8816C46.3846 22.3238 47.5208 25.6656 48.3229 29.1078C48.6237 30.0769 48.6905 31.3134 49.5928 31.9818C50.6288 32.8841 52.4668 31.7479 52.1995 30.4111C51.8653 28.406 51.2303 26.5011 50.6956 24.5294C53.837 25.933 57.0118 27.2697 60.1531 28.7068V46.7863C55.1069 41.2722 49.9604 35.825 44.8807 30.3443C45.3152 29.0744 45.5157 27.7042 45.0813 26.4009C44.3795 23.861 41.8396 22.3238 39.4335 21.7891C35.4566 20.9536 31.1122 22.1232 28.1045 24.8302C26.5338 26.2672 25.1971 28.2389 25.3642 30.4445C25.1971 32.4831 26.5338 34.3211 28.1713 35.3571C27.269 43.6115 26.3667 51.8994 25.4644 60.1538H7.1175C5.21263 60.1538 3.27434 59.6191 1.93759 58.2156C0.533998 56.8788 -0.000703036 54.9405 -0.000703036 53.0356V44.6475C1.46972 45.1488 3.07383 45.6835 4.64451 45.2491C7.61878 44.7478 10.1252 42.1077 10.426 39.1C10.9272 36.0255 9.22289 32.7504 6.44913 31.3468C4.444 30.244 2.03784 30.3109 -0.000703036 31.2466V7.11821C-0.0341218 5.1465 0.600835 3.10795 2.10468 1.7712C3.44143 0.467863 5.31289 0 7.1175 0ZM12.0969 28.0718C11.3283 28.3057 11.0275 29.0744 10.7602 29.7427C10.9941 30.7787 11.8964 31.8481 13.066 31.4805C14.6033 31.0461 16.1072 30.6785 17.6444 30.2106C16.1072 33.8867 14.6702 37.5627 13.2331 41.2722C13.0326 41.6732 13.0326 42.5087 13.6676 42.3082C17.4773 41.3056 21.3205 40.3031 25.0968 39.2337C26.1996 38.8995 26.2999 37.4959 25.8989 36.5936C25.431 35.9252 24.5621 35.6913 23.7601 35.9252C22.0223 36.4599 20.2511 36.8609 18.4799 37.3622C19.6161 34.555 20.7524 31.7479 21.8552 28.9407C22.2896 27.771 22.8912 26.6682 23.0917 25.4317C22.5236 25.4317 21.9554 25.4317 21.4207 25.5654C18.3128 26.4343 15.2049 27.2363 12.0969 28.0718ZM1.87075 34.3211C1.10212 34.6219 0.500579 35.19 -0.000703036 35.8584V40.0023C1.00186 41.4393 2.94015 42.3416 4.61109 41.6064C6.5828 40.938 7.61878 38.4316 6.74989 36.5602C6.11494 34.6887 3.7422 33.4856 1.87075 34.3211Z" fill="#005BFF"/>
<path fill-rule="evenodd" clip-rule="evenodd" d="M55.675 17.712C55.5079 16.0411 58.0143 15.1722 58.8498 16.676C59.4513 18.0462 59.6852 19.5501 60.1531 20.9871V28.7402C57.0117 27.3032 53.8369 25.9665 50.6956 24.5629C51.2303 26.5012 51.8652 28.4395 52.1994 30.4446C52.4668 31.7813 50.6287 32.9176 49.5927 32.0153C48.6904 31.3469 48.6236 30.1438 48.3228 29.1413C47.4874 25.7325 46.3845 22.3907 45.7162 18.9151C46.7856 18.8483 47.6879 19.4164 48.6236 19.8174C51.531 21.0873 54.4051 22.3572 57.3125 23.6271C56.6441 21.6889 56.1428 19.6837 55.675 17.712ZM28.1045 24.7968C31.1456 22.0899 35.4566 20.9202 39.4334 21.7557C41.873 22.3238 44.4128 23.8277 45.0812 26.3675C45.5157 27.6708 45.2817 29.041 44.8807 30.3109C43.945 32.4163 42.2072 34.0538 40.2021 35.1566C36.5594 37.0949 31.8474 37.5294 28.2047 35.3237C26.5672 34.2543 25.2304 32.4497 25.3975 30.4112C25.197 28.2055 26.5338 26.2338 28.1045 24.7968ZM28.6392 30.4112C28.9065 31.2132 29.3075 32.0153 30.1096 32.4163C32.616 33.8199 35.7574 33.4189 38.2638 32.2158C39.9013 31.4137 41.5388 30.077 41.873 28.2055C42.0401 27.2364 41.3717 26.4009 40.5697 25.933C38.9656 24.8971 36.927 25.0307 35.1224 25.1978C32.3152 25.7325 29.3075 27.4369 28.6392 30.4112ZM12.0968 28.0719C11.3282 28.3058 11.0274 29.0744 10.7601 29.7428C10.994 30.7788 11.8963 31.8482 13.066 31.4806C14.6033 31.0461 16.1071 30.6785 17.6444 30.2107C16.1071 33.8867 14.6701 37.5628 13.2331 41.2723C13.0326 41.6733 13.0326 42.5088 13.6675 42.3083C17.4773 41.3057 21.3204 40.3031 25.0968 39.2337C26.1996 38.8995 26.2998 37.496 25.8988 36.5936C25.4309 35.9253 24.5621 35.6913 23.76 35.9253C22.0222 36.46 20.251 36.861 18.4798 37.3623C19.6161 34.5551 20.7523 31.7479 21.8551 28.9407C22.2896 27.7711 22.8911 26.6683 23.0916 25.4318C22.5235 25.4318 21.9554 25.4318 21.4207 25.5654C18.3127 26.4343 15.2048 27.2364 12.0968 28.0719ZM-0.000760883 31.2466C2.03779 30.3109 4.44394 30.2441 6.41565 31.3469C9.22283 32.7505 10.8938 35.9921 10.3925 39.1001C10.0917 42.1077 7.61873 44.7812 4.61103 45.2491C3.04035 45.6501 1.46967 45.1489 -0.0341797 44.6476V40.0358C0.968384 41.4728 2.90668 42.3751 4.57762 41.6399C6.54932 40.9715 7.58531 38.4651 6.71642 36.5936C6.04804 34.7222 3.70873 33.5191 1.83727 34.3546C1.06864 34.6554 0.467102 35.2235 -0.0341797 35.8919V31.2466H-0.000760883Z" fill="white"/>
<path fill-rule="evenodd" clip-rule="evenodd" d="M28.6384 30.4111C29.3068 27.4368 32.3145 25.7324 35.1217 25.1977C36.9597 25.0306 38.9648 24.897 40.569 25.933C41.3376 26.4008 42.0394 27.2363 41.8723 28.2054C41.5047 30.0769 39.8672 31.4136 38.2631 32.2157C35.7566 33.4188 32.6153 33.8198 30.1089 32.4162C29.3068 32.0152 28.9058 31.2131 28.6384 30.4111ZM40.2013 35.19C36.5587 37.1283 31.8466 37.5627 28.204 35.3571C27.3017 43.6115 26.3994 51.8994 25.4971 60.1538H52.7334C54.6383 60.1872 56.6768 59.7528 58.0804 58.3492C59.6845 56.9456 60.2526 54.7734 60.1858 52.7014V46.7863C55.1396 41.2722 49.9931 35.8249 44.9134 30.3442C43.9442 32.4162 42.2065 34.0871 40.2013 35.19Z" fill="#F91155"/>
</svg>
