<svg width="212" height="13" viewBox="0 0 212 13" fill="none" xmlns="http://www.w3.org/2000/svg">
<path d="M205.338 0.0329021C199.611 0.679186 193.708 0.326667 187.923 0.326667C179.39 0.326667 179.332 12.4298 187.923 12.4298C193.65 12.4298 199.611 12.8411 205.338 12.136C208.903 11.7248 212 9.66841 212 6.08447C211.942 3.14682 208.903 -0.37837 205.338 0.0329021Z" fill="#F2ACB9"/>
<path d="M171.102 -2.79717e-07C162.57 -6.52674e-07 162.512 12.1031 171.102 12.1031C179.635 12.1031 179.635 9.32391e-08 171.102 -2.79717e-07Z" fill="#F2ACB9"/>
<path d="M154.26 0.0167514C147.072 0.486776 139.825 0.0167508 132.637 0.0167505C124.105 0.0167501 124.047 12.1199 132.637 12.1199C139.825 12.1199 147.072 12.5899 154.26 12.1199C162.792 11.6499 162.851 -0.512026 154.26 0.0167514Z" fill="#F2ACB9"/>
<path d="M115.773 -2.81633e-07C107.241 -6.54589e-07 107.182 12.1031 115.773 12.1031C124.364 12.1619 124.364 9.38777e-08 115.773 -2.81633e-07Z" fill="#F2ACB9"/>
<path d="M98.9529 0.00084575C92.9335 0.0595986 86.3298 1.35216 80.3105 0.235854C71.9536 -1.35048 68.3887 10.3414 76.8041 11.9277C84.1091 13.3378 91.531 12.2215 98.9529 12.1627C107.485 12.0452 107.485 -0.11666 98.9529 0.00084575Z" fill="#F2ACB9"/>
<path d="M61.5969 -2.79717e-07C53.0647 -6.52674e-07 53.0062 12.1031 61.5969 12.1031C70.1292 12.1031 70.1292 9.32391e-08 61.5969 -2.79717e-07Z" fill="#F2ACB9"/>
<path d="M44.7766 0.130562C37.7638 0.130562 30.751 -0.163204 23.7382 0.130561C15.2059 0.48308 15.1475 12.645 23.7382 12.2337C30.751 11.9399 37.7638 12.2337 44.7766 12.2337C53.3088 12.2925 53.3088 0.130563 44.7766 0.130562Z" fill="#F2ACB9"/>
<path d="M6.89602 -2.80676e-07C-1.63623 -6.53632e-07 -1.69467 12.1031 6.89602 12.1031C15.4283 12.1031 15.4867 9.48348e-08 6.89602 -2.80676e-07Z" fill="#F2ACB9"/>
</svg>
