<svg width="26" height="11" viewBox="0 0 26 11" fill="none" xmlns="http://www.w3.org/2000/svg">
<path d="M4.91404 1.48023L4.91405 1.48028L4.92311 1.47964C8.4165 1.23245 11.897 1.31455 15.4156 1.39755C17.1942 1.4395 18.9825 1.48168 20.7871 1.48168C22.1415 1.48168 23.0962 1.98917 23.7218 2.70753C24.3616 3.44221 24.6988 4.44783 24.6965 5.48318C24.6942 6.51855 24.3524 7.52571 23.7102 8.26195C23.082 8.98204 22.129 9.48832 20.7871 9.48832C19.0658 9.48832 17.3193 9.44742 15.5602 9.40623C11.9941 9.32271 8.37585 9.23798 4.80923 9.49024C3.45609 9.57995 2.52155 9.13429 1.91543 8.47601C1.29129 7.79814 0.953548 6.82534 0.955863 5.78527C0.960507 3.69831 2.29994 1.63606 4.91404 1.48023Z" stroke="#F2ACB9" stroke-width="1.63729"/>
</svg>
