<svg width="81" height="105" viewBox="0 0 81 105" fill="none" xmlns="http://www.w3.org/2000/svg">
<path d="M39.7695 28.7544C39.7695 28.9947 39.7936 29.235 39.7936 29.4753" stroke="#333F48" stroke-miterlimit="10"/>
<path d="M39.7461 24.9819C39.7461 23.6362 39.7461 22.3146 39.7701 20.969" stroke="#333F48" stroke-miterlimit="10"/>
<path d="M39.7939 18.9507C39.7939 17.6771 39.818 16.4276 39.818 15.1541" stroke="#333F48" stroke-miterlimit="10"/>
<path d="M19.2005 40.5527C17.975 40.5768 16.7255 40.6008 15.5 40.6248" stroke="#333F48" stroke-miterlimit="10"/>
<path d="M22.9014 40.5046C24.2951 40.4806 25.6647 40.4806 27.0584 40.4565" stroke="#333F48" stroke-miterlimit="10"/>
<path d="M54.3554 40.3606C53.0338 40.3606 51.7122 40.3606 50.3906 40.3846" stroke="#333F48" stroke-miterlimit="10"/>
<path d="M28.9082 40.4326C29.0043 40.4326 29.1245 40.4326 29.2206 40.4326" stroke="#333F48" stroke-miterlimit="10"/>
<path d="M61.7568 40.2644C59.9066 40.2884 58.0563 40.3125 56.2061 40.3365" stroke="#333F48" stroke-miterlimit="10"/>
<path d="M64.0869 40.2405C64.5194 40.2405 64.9279 40.2405 65.3605 40.2405" stroke="#333F48" stroke-miterlimit="10"/>
<path d="M49.6698 30.6047C48.973 31.3496 48.2521 32.0945 47.5312 32.8394" stroke="#333F48" stroke-miterlimit="10"/>
<path d="M51.8086 28.4181C52.986 27.2166 54.1875 26.0152 55.3649 24.8137" stroke="#333F48" stroke-miterlimit="10"/>
<path d="M57.7432 22.4347C58.1997 21.9782 58.6563 21.4976 59.1128 21.041" stroke="#333F48" stroke-miterlimit="10"/>
<path d="M22.1084 22.8433C22.8533 23.5401 23.5982 24.2369 24.3431 24.9338" stroke="#333F48" stroke-miterlimit="10"/>
<path d="M25.6162 26.1592C25.9286 26.4716 26.241 26.7599 26.5534 27.0723" stroke="#333F48" stroke-miterlimit="10"/>
<path d="M29.0762 29.4753C30.1815 30.4846 31.2628 31.5178 32.3441 32.5511" stroke="#333F48" stroke-miterlimit="10"/>
<path d="M33.8105 25.5105C34.4353 27.0964 35.1081 28.6824 35.7569 30.2683" stroke="#333F48" stroke-miterlimit="10"/>
<path d="M33.0412 23.6843C32.7289 22.9394 32.3925 22.1945 32.0801 21.4255" stroke="#333F48" stroke-miterlimit="10"/>
<path d="M30.2305 17.1243C30.3987 17.5087 30.5669 17.9172 30.7351 18.3017" stroke="#333F48" stroke-miterlimit="10"/>
<path d="M29.5098 15.3462C29.6539 15.6826 29.7741 15.995 29.9183 16.3314" stroke="#333F48" stroke-miterlimit="10"/>
<path d="M57.6951 33.0076C55.0278 34.0889 52.3606 35.1942 49.6934 36.2996" stroke="#333F48" stroke-miterlimit="10"/>
<path d="M58.2959 32.7674C59.5935 32.2388 60.9151 31.6861 62.2127 31.1575" stroke="#333F48" stroke-miterlimit="10"/>
<path d="M65.1446 29.9077C64.4478 30.1961 63.775 30.4844 63.0781 30.7728" stroke="#333F48" stroke-miterlimit="10"/>
<path d="M45.9688 25.967C45.3681 27.4568 44.7433 28.9226 44.1426 30.4124" stroke="#333F48" stroke-miterlimit="10"/>
<path d="M46.9541 23.5401C47.4587 22.3146 47.9633 21.1132 48.4439 19.8877" stroke="#333F48" stroke-miterlimit="10"/>
<path d="M49.7178 16.7879C49.934 16.2833 50.1263 15.7546 50.3425 15.25" stroke="#333F48" stroke-miterlimit="10"/>
<path d="M16.2451 30.7249C16.5815 30.869 16.9179 30.9892 17.2543 31.1334" stroke="#333F48" stroke-miterlimit="10"/>
<path d="M19.4648 32.0464C21.0988 32.6711 22.7328 33.3199 24.3668 33.9687" stroke="#333F48" stroke-miterlimit="10"/>
<path d="M25.7852 34.5454C27.1788 35.0981 28.5485 35.6748 29.9422 36.2515" stroke="#333F48" stroke-miterlimit="10"/>
<path d="M41.3791 51.9425C41.3551 51.486 41.3551 51.0054 41.3311 50.5488" stroke="#333F48" stroke-miterlimit="10"/>
<path d="M41.3795 55.7151C41.3795 57.0607 41.3795 58.3823 41.3555 59.728" stroke="#333F48" stroke-miterlimit="10"/>
<path d="M41.3076 65.5432C41.3316 64.2697 41.3317 63.0201 41.3317 61.7466" stroke="#333F48" stroke-miterlimit="10"/>
<path d="M31.4795 50.0924C32.0322 49.4916 32.6089 48.9149 33.1615 48.3142" stroke="#333F48" stroke-miterlimit="10"/>
<path d="M29.3171 52.2791C28.1396 53.4805 26.9382 54.682 25.7607 55.8834" stroke="#333F48" stroke-miterlimit="10"/>
<path d="M23.3814 58.2622C22.9248 58.7188 22.4683 59.1994 22.0117 59.6559" stroke="#333F48" stroke-miterlimit="10"/>
<path d="M59.0169 57.8537C58.272 57.1569 57.5271 56.46 56.7822 55.7632" stroke="#333F48" stroke-miterlimit="10"/>
<path d="M55.5328 54.5379C55.2205 54.2255 54.9081 53.9371 54.5957 53.6248" stroke="#333F48" stroke-miterlimit="10"/>
<path d="M47.6992 47.1128C49.141 48.4825 50.5827 49.8761 52.0485 51.2218" stroke="#333F48" stroke-miterlimit="10"/>
<path d="M47.315 55.1865C46.5461 53.2401 45.7291 51.2938 44.9121 49.3474" stroke="#333F48" stroke-miterlimit="10"/>
<path d="M49.0686 59.2714C48.7562 58.5265 48.4198 57.7816 48.1074 57.0127" stroke="#333F48" stroke-miterlimit="10"/>
<path d="M50.8952 63.5969C50.727 63.2124 50.5588 62.8039 50.3906 62.4194" stroke="#333F48" stroke-miterlimit="10"/>
<path d="M51.6399 65.3509C51.4958 65.0145 51.3756 64.7021 51.2314 64.3657" stroke="#333F48" stroke-miterlimit="10"/>
<path d="M30.3501 44.854C28.0433 45.8152 25.7365 46.7523 23.4297 47.6895" stroke="#333F48" stroke-miterlimit="10"/>
<path d="M22.8289 47.9539C21.5313 48.4825 20.2097 49.0352 18.9121 49.5638" stroke="#333F48" stroke-miterlimit="10"/>
<path d="M18.047 49.9241C17.3501 50.2124 16.6773 50.5008 15.9805 50.7891" stroke="#333F48" stroke-miterlimit="10"/>
<path d="M35.1562 54.7301C35.757 53.2403 36.3817 51.7745 37.0065 50.2847" stroke="#333F48" stroke-miterlimit="10"/>
<path d="M34.1705 57.157C33.6658 58.3825 33.1612 59.5839 32.6807 60.8094" stroke="#333F48" stroke-miterlimit="10"/>
<path d="M31.407 63.9092C31.1907 64.4138 30.9985 64.9424 30.7822 65.4471" stroke="#333F48" stroke-miterlimit="10"/>
<path d="M64.9038 49.9722C64.5674 49.828 64.2309 49.7079 63.8945 49.5637" stroke="#333F48" stroke-miterlimit="10"/>
<path d="M61.6842 48.6506C60.0502 48.0258 58.4162 47.3771 56.7822 46.7283" stroke="#333F48" stroke-miterlimit="10"/>
<path d="M55.3402 46.1515C53.4419 45.3826 51.5676 44.6137 49.6934 43.8447" stroke="#333F48" stroke-miterlimit="10"/>
<path d="M29.2207 40.4326C29.2688 42.0185 29.6773 43.5083 30.3501 44.854" stroke="#333F48" stroke-miterlimit="10"/>
<path d="M49.6934 43.8448C50.1019 42.7635 50.3421 41.5861 50.3902 40.3606" stroke="#333F48" stroke-miterlimit="10"/>
<path d="M49.6939 36.2996C49.1893 35.002 48.4684 33.8246 47.5312 32.8394" stroke="#333F48" stroke-miterlimit="10"/>
<path d="M47.5307 32.8393C46.5695 31.8301 45.4161 30.9891 44.1426 30.4124" stroke="#333F48" stroke-miterlimit="10"/>
<path d="M29.2203 40.4326C29.2203 40.3125 29.1963 40.1924 29.1963 40.0722C29.1963 38.7266 29.4606 37.429 29.9172 36.2275" stroke="#333F48" stroke-miterlimit="10"/>
<path d="M44.1188 30.4125C42.7972 29.8118 41.3314 29.4753 39.7936 29.4753H39.7695" stroke="#333F48" stroke-miterlimit="10"/>
<path d="M49.6934 36.2996C50.1499 37.477 50.3902 38.7265 50.3902 40.0721C50.3902 40.1683 50.3902 40.2644 50.3662 40.3605" stroke="#333F48" stroke-miterlimit="10"/>
<path d="M49.694 43.8447C49.2375 45.0462 48.5647 46.1515 47.7236 47.1127" stroke="#333F48" stroke-miterlimit="10"/>
<path d="M37.0059 50.2847C37.8949 50.525 38.8321 50.6691 39.7932 50.6691C40.3219 50.6691 40.8265 50.6211 41.3071 50.549" stroke="#333F48" stroke-miterlimit="10"/>
<path d="M41.3311 50.5488C42.6046 50.3565 43.8061 49.9721 44.9114 49.3713" stroke="#333F48" stroke-miterlimit="10"/>
<path d="M39.7941 29.4753C38.3764 29.4753 37.0308 29.7637 35.7812 30.2683" stroke="#333F48" stroke-miterlimit="10"/>
<path d="M30.3506 44.854C31.0234 46.1996 31.9846 47.3771 33.162 48.3382" stroke="#333F48" stroke-miterlimit="10"/>
<path d="M32.3443 32.551C31.3111 33.5843 30.47 34.8338 29.9414 36.2275" stroke="#333F48" stroke-miterlimit="10"/>
<path d="M44.9121 49.3475C45.9694 48.7708 46.9065 48.0019 47.7235 47.1128" stroke="#333F48" stroke-miterlimit="10"/>
<path d="M35.7809 30.2683C34.4833 30.797 33.3299 31.5659 32.3447 32.5511" stroke="#333F48" stroke-miterlimit="10"/>
<path d="M33.1611 48.3142C34.2665 49.2033 35.5881 49.8761 37.0058 50.2846" stroke="#333F48" stroke-miterlimit="10"/>
<path d="M8.84605 100.254C10.2361 100.254 11.2361 99.4738 11.2361 98.2738C11.2361 97.1838 10.5161 96.6138 8.95605 96.2738C7.41605 95.9438 7.05605 95.5738 7.05605 94.9138C7.05605 94.2638 7.63605 93.7638 8.54605 93.7638C9.26605 93.7638 9.91605 93.9938 10.5661 94.5238L11.0261 93.9138C10.3161 93.3438 9.58605 93.0538 8.56605 93.0538C7.23605 93.0538 6.26605 93.8638 6.26605 94.9638C6.26605 96.1338 7.00605 96.6538 8.61605 97.0038C10.0861 97.3138 10.4361 97.6838 10.4361 98.3338C10.4361 99.0438 9.81605 99.5438 8.87605 99.5438C7.90605 99.5438 7.20605 99.2138 6.47605 98.5538L5.98605 99.1338C6.82605 99.8838 7.73605 100.254 8.84605 100.254ZM12.8425 100.154H13.6325V97.6838H15.3325C16.8225 97.6838 18.0825 96.9038 18.0825 95.3938C18.0825 93.9938 17.0425 93.1538 15.4625 93.1538H12.8425V100.154ZM13.6325 96.9638V93.8838H15.4025C16.5325 93.8838 17.2825 94.4038 17.2825 95.4038C17.2825 96.3438 16.5225 96.9638 15.3625 96.9638H13.6325ZM19.5222 100.154H20.3122V97.1038H24.1022V96.3838H20.3122V93.8838H24.5522V93.1538H19.5222V100.154ZM25.7447 97.5538H28.5247V96.7438H25.7447V97.5538ZM32.4868 100.274C33.9468 100.274 34.9368 99.3938 34.9368 98.2838C34.9368 97.3538 34.2968 96.8138 33.4668 96.5638C34.1068 96.3338 34.7468 95.8538 34.7468 94.9138C34.7468 93.8338 33.7768 93.0438 32.3868 93.0438C31.2768 93.0438 30.5468 93.3738 29.8468 93.9738L30.3068 94.5238C30.9168 93.9738 31.5768 93.7338 32.3668 93.7338C33.2868 93.7338 33.9468 94.2638 33.9468 94.9838C33.9468 95.8138 33.2368 96.3038 32.2368 96.3038H31.4668V96.9538H32.2368C33.3068 96.9538 34.1268 97.3338 34.1268 98.2438C34.1268 99.0738 33.3568 99.5938 32.4968 99.5938C31.4868 99.5938 30.7468 99.2638 30.0368 98.5938L29.5668 99.1438C30.3868 99.8938 31.2768 100.274 32.4868 100.274ZM35.7289 100.154H36.5389L37.3689 98.3038H41.1789L41.9989 100.154H42.8489L39.6589 93.1038H38.9189L35.7289 100.154ZM37.6789 97.5938L39.2789 94.0238L40.8689 97.5938H37.6789ZM53.4093 101.714H54.0693L54.1893 99.4338H53.2793V93.1538H52.4893V99.4338H49.1493V93.1538H48.3593V99.4338H45.0193V93.1538H44.2293V100.154H53.4093V101.714ZM55.3523 100.154H56.1223L60.2923 94.3438V100.154H61.0723V93.1538H60.3223L56.1423 98.9638V93.1538H55.3523V100.154ZM64.8976 100.154H65.6976V93.8738H68.0476V93.1538H62.5476V93.8738H64.8976V100.154ZM68.0336 100.154H68.8436L69.6736 98.3038H73.4836L74.3036 100.154H75.1536L71.9636 93.1038H71.2236L68.0336 100.154ZM69.9836 97.5938L71.5836 94.0238L73.1736 97.5938H69.9836Z" fill="#333F48"/>
</svg>
