<svg width="23" height="22" viewBox="0 0 23 22" fill="none" xmlns="http://www.w3.org/2000/svg">
<path d="M11.084 1.25312C11.2506 0.915626 11.7319 0.915626 11.8984 1.25312L14.7886 7.10928C14.8547 7.2433 14.9826 7.33619 15.1305 7.35769L21.5932 8.29676C21.9656 8.35088 22.1143 8.80859 21.8448 9.07129L17.1684 13.6297C17.0614 13.734 17.0125 13.8843 17.0378 14.0316L18.1418 20.4681C18.2054 20.8391 17.816 21.122 17.4829 20.9468L11.7025 17.9079C11.5702 17.8384 11.4122 17.8384 11.2799 17.9079L5.49954 20.9468C5.16641 21.122 4.77706 20.8391 4.84069 20.4681L5.94464 14.0316C5.9699 13.8843 5.92107 13.734 5.81405 13.6297L1.13762 9.0713C0.868117 8.80859 1.01683 8.35088 1.38928 8.29676L7.85194 7.35769C7.99984 7.33619 8.12769 7.2433 8.19384 7.10928L11.084 1.25312Z" fill="#333F48" stroke="#333F48" stroke-linejoin="round"/>
</svg>
