<svg width="23" height="22" viewBox="0 0 23 22" fill="none" xmlns="http://www.w3.org/2000/svg">
<path d="M11.0137 1.25312C11.1803 0.915626 11.6615 0.915626 11.8281 1.25312L14.7183 7.10928C14.7844 7.2433 14.9123 7.33619 15.0602 7.35769L21.5228 8.29676C21.8953 8.35088 22.044 8.80859 21.7745 9.07129L17.0981 13.6297C16.9911 13.734 16.9422 13.8843 16.9675 14.0316L18.0714 20.4681C18.1351 20.8391 17.7457 21.122 17.4126 20.9468L11.6322 17.9079C11.4999 17.8384 11.3419 17.8384 11.2096 17.9079L5.42923 20.9468C5.0961 21.122 4.70675 20.8391 4.77037 20.4681L5.87433 14.0316C5.89959 13.8843 5.85076 13.734 5.74373 13.6297L1.06731 9.0713C0.797805 8.80859 0.946522 8.35088 1.31897 8.29676L7.78163 7.35769C7.92953 7.33619 8.05738 7.2433 8.12352 7.10928L11.0137 1.25312Z" stroke="#333F48" stroke-linejoin="round"/>
</svg>
