<svg width="285" height="285" fill="none" xmlns="http://www.w3.org/2000/svg"><g clip-path="url(#a)" fill="#333F48"><path d="M195.278 64.191c-1.427-2.658-6.303 2.659-10.171 12.06-3.869 9.4-10.566 23.712-14.267 27.189-3.701 3.477-8.132-.202-6.714-7.974 1.418-7.772 9.148-40.068 8.946-46.81-.201-6.743-1.426-10.836-3.86-9.612-2.434 1.223-10.574 36.801-14.267 46.818-3.692 10.017-5.086 17.578-7.721 17.165-2.635-.414-1.225-25.958-1.829-33.114-.604-7.156-1.15-33.325-2.61-36.59-1.46-3.267-4.507-4.912-5.933 6.75-1.427 11.663-4.876 56.836-7.117 60.515-2.241 3.679-5.488-1.232-7.553-7.772-2.064-6.54-3.046-35.156-5.086-40.068-2.039-4.911-6.092-3.679-5.874 5.52.218 9.198 1.217 57.653.839 65.822-.378 8.169-3.256 16.76-5.287 17.376-2.031.616-5.875-5.908-8.745-13.292-2.87-7.383-2.232-17.375-6.302-18.565-4.07-1.19-1.628 14.101-1.628 14.101 0 15.95 8.341 34.549 11.186 42.524 2.845 7.974 6.907 18.565 10.365 21.459 3.457 2.895 21.551 6.954 28.869 6.954 7.318 0 16.264-1.84 24.598-13.502 8.333-11.663 15.047-27.392 16.465-34.751 1.418-7.359 9.852-49.713 10.238-56.464.386-6.751 4.876-23.08 3.458-25.739Zm-21.35 77.882c-2.845 2.456-12.202 8.388-18.295 11.249-6.092 2.861-12.806 1.84-18.706.844-5.9-.996-14.023-10.245-18.463-11.975-4.439-1.73 1.419-3.772 1.419-3.772 11.186-6.126 15.005-7.966 22.659-8.996a35.088 35.088 0 0 1 21.467 4.498c5.245 3.266 12.764 5.705 9.919 8.152Z"/><path d="M147.3 137.188a3.64 3.64 0 0 0-2.4-.905 3.64 3.64 0 0 0-2.4.905c-2.317 4.085-4.389 6.954 0 9.198 4.389 2.245 7.435-2.042 7.645-4.599.21-2.557-.21-2.574-2.845-4.599Z"/></g><path d="M114.352 249.5h3.696v-5.04h2.808c3.768 0 6.792-2.016 6.792-5.904 0-3.48-2.424-5.856-6.432-5.856h-6.864v16.8Zm3.696-8.328v-5.136h2.856c1.848 0 3 .888 3 2.544 0 1.488-1.08 2.592-2.928 2.592h-2.928Zm15.023 12.24c2.184 0 3.24-.984 4.224-3.6l4.944-13.176h-3.792l-2.808 8.76-2.928-8.76h-3.864l5.04 12.912c-.312.648-.648.84-1.272.84-.48 0-1.08-.216-1.56-.504l-1.224 2.64c.936.552 1.92.888 3.24.888Zm11.319-3.912h3.648v-3.096l1.656-1.8 3.432 4.896h4.32l-5.328-7.584 4.728-5.28h-4.2l-4.608 5.28v-5.28h-3.648V249.5Zm26.648-12.864h-3.432l-5.016 7.512v-7.512h-3.528V249.5h3.432l5.016-7.488v7.488h3.528v-12.864Z" fill="#333F48"/><defs><clipPath id="a"><path fill="#fff" transform="translate(52.5 30.5)" d="M0 0h180v180H0z"/></clipPath></defs></svg>