<svg width="285" height="285" fill="none" xmlns="http://www.w3.org/2000/svg"><path d="M170.42 110.68c-6.72 0-14.75-.16-17 .66-2.25.82-4.76 8.85-5.58 14.26-.82 5.41-4.09 21.14-5.57 27-1.48 5.86-4.1 7.05-5.08 7.38-.98.33-.49-3.45-.33-9.18.16-5.73 2.13-20.33 1-26.06s-2.46-10.49-7.05-13.28c-4.59-2.79-12.79-3.6-15.9-4.92-3.11-1.32-16.23-1.64-17.21-1.8-.98-.16-.49 8.52-.49 8.52-1 15.25 0 30.33 4.09 40.82 4.09 10.49 21.8 37.37 24.92 41.63 3.12 4.26 6.06 5.73 7.37 6.23 1.31.5 13.12-7.38 17.05-11.15 3.93-3.77 22.13-30.32 25.73-37.53 3.6-7.21 7.38-20 8.36-26.06.98-6.06 1.31-13.28.82-14.92-.49-1.64-8.41-1.6-15.13-1.6Zm-52.77 18.52c-1.48 1.15-6.89 3.28-9.68 0a5.808 5.808 0 0 1 3.28-9.5s4.92-.66 6.4 1.31c1.48 1.97 1.47 7.04 0 8.19Zm18.19 52.94c-2.13.17-3.28.5-4.26-3.6s0-6.39 4.26-6.89c0 0 4.1-1 4.26 2.13.16 3.13-2.13 8.2-4.26 8.36Zm36.71-48.68c-2 2.14-6.23 3.45-8.52.82a5.91 5.91 0 0 1 2.13-9s4.59-1.15 6.39 0c1.8 1.15 1.97 6.05 0 8.18ZM108.3 94.62c4.76 5.57 7.71 5.41 5.25 0s-5.25-19.18-5.74-24.26c-.49-5.08-.52-9.67-1.24-13.11a31.166 31.166 0 0 0-4.33-10.49c-2.62-4.43-2.62 2.29-2.62 2.29-2.14 9.84-3.82 20.66-2.82 28.69 1 8.03 6.75 11.31 11.5 16.88ZM129.28 96.59c1.64 5.24 3.12 1.63 3.77-6.07.65-7.7.33-15.73-.82-20.49-1.15-4.76-1.31-13.44-1.31-18.68s.33-9.67-.49-12.29c-.82-2.62-3.11 4.91-3.11 4.91-3.94 9.84-6.4 16.72-5.09 27.21 1.31 10.49 5.41 20.16 7.05 25.41ZM143.74 93.8c2.94-4.92 6-17.55 6-21.81 0-4.26.66-11.46 0-16-.66-4.54-.66-11.31-1.15-14.92-.49-3.61-2.46 4.23-2.46 4.23-3.27 5.77-2.95 19-2.95 25s-1.43 16.88-1.94 22c-.51 5.12-.5 6.42 2.5 1.5ZM152.56 97.57c3.27-2 8.52-7.38 11.14-15.08a61.328 61.328 0 0 0 3.77-19.5c.33-7.22 1.28-16.72.89-20-.39-3.28-4.66 4.26-4.66 4.26-3.28 4.75-4.75 10.49-5.41 18-.66 7.51-2.13 20.32-4.75 25.41s-4.26 8.88-.98 6.91ZM187.3 47.91c-.82-2-3.77 6.06-3.77 6.06-3.76 5.9-3.93 16.06-6.22 22-2.29 5.94-5.41 16.89-7.38 20-1.97 3.11-3.61 7.13 2 2.17 5.61-4.96 10.82-12.17 13.11-19.71 2.29-7.54 2.13-11.8 2.29-16.72.16-4.92.79-11.84-.03-13.8ZM95.473 249.5h7.992c3.792 0 6.288-1.536 6.288-4.608 0-2.304-1.2-3.432-3.144-4.176 1.2-.672 2.208-1.728 2.208-3.624 0-1.2-.384-2.136-1.152-2.904-.96-.96-2.472-1.488-4.392-1.488h-7.8v16.8Zm3.6-10.008v-3.552h3.648c1.56 0 2.424.624 2.424 1.728 0 1.296-1.032 1.824-2.664 1.824h-3.408Zm0 6.768v-3.696h4.272c1.896 0 2.736.696 2.736 1.824 0 1.296-.984 1.872-2.616 1.872h-4.392Zm19.648 3.528c4.008 0 6.984-3 6.984-6.696 0-3.744-2.952-6.696-6.936-6.696-4.008 0-6.984 3-6.984 6.696 0 3.744 2.952 6.696 6.936 6.696Zm.048-3.144c-2.016 0-3.384-1.656-3.384-3.552 0-1.944 1.248-3.552 3.336-3.552 2.016 0 3.384 1.656 3.384 3.552 0 1.944-1.248 3.552-3.336 3.552Zm11.114-10.008c0 9.12-.72 9.912-2.088 9.912a7.59 7.59 0 0 1-.768-.072l-.24 2.952c.48.12 1.368.216 1.848.216 3.216 0 4.68-1.368 4.68-9.888h3.264v9.744h3.648v-12.864h-10.344Zm19.916 13.152c4.008 0 6.984-3 6.984-6.696 0-3.744-2.952-6.696-6.936-6.696-4.008 0-6.984 3-6.984 6.696 0 3.744 2.952 6.696 6.936 6.696Zm.048-3.144c-2.016 0-3.384-1.656-3.384-3.552 0-1.944 1.248-3.552 3.336-3.552 2.016 0 3.384 1.656 3.384 3.552 0 1.944-1.248 3.552-3.336 3.552Zm15.65 3.144c2.568 0 4.008-.984 5.256-2.352l-2.136-2.16c-.888.84-1.728 1.368-2.952 1.368-1.992 0-3.264-1.584-3.264-3.552 0-1.944 1.296-3.552 3.12-3.552 1.44 0 2.208.528 3 1.272l2.136-2.16c-1.2-1.344-2.688-2.256-5.112-2.256-3.936 0-6.744 3.024-6.744 6.696 0 3.72 2.832 6.696 6.696 6.696Zm7.639-.288h6.48c3.096 0 4.944-1.656 4.944-4.368 0-2.88-2.16-4.248-5.136-4.248h-2.64v-4.248h-3.648V249.5Zm5.928-5.856c1.2 0 1.824.552 1.824 1.44 0 .984-.6 1.536-1.8 1.536h-2.304v-2.976h2.28Zm7.2 5.856h3.648v-12.864h-3.648V249.5Z" fill="#333F48"/></svg>