<svg width="285" height="285" fill="none" xmlns="http://www.w3.org/2000/svg"><path d="M213.267 93.324c.476-1.08.326-1.504-.926-2.658-.593-.53-1.232-1.335-1.453-1.783-.335-.726-.329-.793.171-.72 2.687.403 6.067-.196 6.723-1.167.718-1.076-.436-3.152-1.984-3.556a12.1 12.1 0 0 1-1.851-.742l-1.057-.547 1.225-2.383c.977-1.884 1.183-2.544 1.014-3.228-.298-1.195-.778-1.36-2.595-.91-1.176.294-2.074.736-3.318 1.636-.929.669-2.033 1.337-2.457 1.484-.681.257-.758.213-.892-.5-.873-4.465-1.177-5.069-2.549-5.21-1.232-.106-2.125.813-3.455 3.551-.62 1.292-1.302 2.425-1.497 2.518-.213.097-1.208-.27-2.198-.811-3.037-1.63-4.404-1.838-5.311-.736-.319.386-.319.669.113 1.766.531 1.422.956 1.886 3.292 3.712l1.527 1.196-.817 1.122-.795 1.116-6.192 1.54c-3.406.848-7.276 1.677-8.591 1.851-3.741.471-10.902-.112-13.671-1.109-2.218-.805-6.404-3.353-7.677-4.677-1.99-2.088-4.645-3.244-7.086-3.098-1.552.107-2.284-.636-2.839-2.862-.407-1.628-.411-2.087.044-4.038.29-1.21.912-3.115 1.428-4.207 1.204-2.728 1.308-3.63.666-6.205-.663-2.658-1.199-3.313-5.066-6.334-4.381-3.418-6.868-4.42-10.417-4.241l-1.625.075-2.205 1.971c-1.7 1.538-2.473 2.475-3.455 4.25-2.066 3.666-2.574 5.235-2.188 6.694.35 1.313 1.2 2.44 3.35 4.376 2.036 1.834 3.792 4.92 4.521 7.934.875 3.5.495 6.376-1.287 9.773-1.174 2.24-2.098 2.841-6.433 4.095-5.635 1.663-17.961 4.094-20.241 4.004-1.016-.032-2.188.019-2.621.126-1.053.262-4.524-.56-5.771-1.344-1.357-.866-1.933-1.86-2.535-4.272-.673-2.699-1.843-4.4-3.385-4.957-1.475-.553-2.198-.548-3.364-.038-.85.364-1.168.77-2.22 2.958-1.608 3.31-1.949 3.614-3.825 3.468-.805-.062-2.915-.435-4.704-.848-4.921-1.096-7.14-.5-6.57 1.786.31 1.237.768 1.67 2.542 2.279 1.65.553 4.208 2.014 4.036 2.3-.061.107-.933.213-1.976.25-2.451.107-6.465.798-7.59 1.298-.531.24-.97.678-1.126 1.111-.408 1.174.36 1.792 2.697 2.196 1.784.301 2.26.27 4.473-.259 2.95-.734 4.53-.906 4.504-.485-.02.268-1.466 1.065-6.725 3.62-2.266 1.11-2.99 2.078-2.315 3.114.789 1.226 1.93 1.227 6.882 0 2.952-.734 4.48-1.027 4.525-.841.078.309-1.904 1.941-4.454 3.668-1.988 1.348-2.67 2.392-2.207 3.287.23.365.577.641.985.784.861.201 4.78-.861 6.956-1.909 1.817-.89 5.084-3.08 6.138-4.136.346-.37 1.92-1.439 3.48-2.396l2.859-1.718 3.106-.465c1.713-.252 3.792-.44 4.628-.424 1.997.007 6.438.413 7.732.681.557.125 1.749.244 2.656.281.9.04 1.795.139 2.682.296.562.145 2.172.27 3.585.312 3.24.07 4.164.344 5.575 1.612 2.372 2.121 2.789 3.005 4.877 10.319 1.806 6.27 2.638 8.557 5.115 13.915.48 1.042 1.7 5.245 3.488 12.132l2.735 10.524-.076 3.126c-.086 4.047-.184 4.619-1.301 7.26-1.101 2.615-1.432 3.135-3.316 5.07-1.328 1.358-4.77 3.724-5.803 3.981-.619.154-3.758 2.772-4.274 3.605-.531.787-.28 2.214.441 2.56.325.16 1.357-.01 3.555-.6 2.674-.709 4.954-.969 5.052-.577.015.061-.254.742-.59 1.503-1.004 2.305-.531 4.309 1.1 4.759.753.212.892.151 2.285-1.027 1.251-1.054 2.22-1.646 2.267-1.374 0 .02-.037.557-.099 1.185-.229 2.158.85 4.713 2.111 5.033.956.223 2.729-.044 3.694-.568 1.151-.659 2.577-3.026 3.048-5.09.181-.854.425-1.549.548-1.581.29-.071 2.706 2.852 3.762 4.536.443.721 1.088 1.458 1.438 1.634.98.5 1.599.171 2.499-1.322.821-1.363.92-2.023.71-4.877-.126-1.917.436-1.947 2.895-.173 1.073.783 2.144 1.484 2.402 1.547.681.181 1.6-.441 1.746-1.178.191-.989-1.72-4.256-3.457-5.946a91.201 91.201 0 0 1-3.149-3.222l-1.741-1.865-2.431-10.358c-1.337-5.708-2.508-11.281-2.61-12.394-.491-5.393.447-9.105 2.356-9.272.469-.052.727.19 1.274 1.257.361.742 1.432 2.839 2.349 4.666.917 1.827 2.379 4.354 3.225 5.631.86 1.253 2.035 2.969 2.596 3.818.907 1.351 1.149 1.969 1.966 5.244 1.017 4.081 1.028 4.647.167 10.507-.281 1.776-.256 2.757.093 4.506.406 2.065.478 2.267 1.226 2.802.773.552.881.548 3.224-.078l2.41-.621 1.36.886c1.073.697 1.548.841 2.187.682.827-.205 1.482-1.003 1.834-2.227.135-.514.212-.556.713-.307.318.138.989.804 1.51 1.484.602.742 1.211 1.252 1.67 1.335.644.124.8.042 1.233-.679.373-.618.44-1.224.281-2.565-.128-.954-.163-1.884-.122-2.069.166-.479.805-.551 1.692-.158.893.412 1.734.269 2.292-.395.424-.499.289-1.385-.441-3.084-.655-1.568-.473-1.984.925-1.917.84.032 1.439.319 2.337 1.105 1.438 1.196 2.196 1.336 2.935.518.361-.397.481-.799.342-1.354-.278-1.114-2.958-4.299-4.644-5.521-1.897-1.365-5.783-5.521-6-6.386-.045-.185-.73-1.087-1.504-1.989-2.21-2.623-6.781-9.255-9.248-13.434-.948-1.602-1.082-2.051-3.287-11.503-1.68-7.263-2.307-10.391-2.398-11.982-.055-1.19-.23-3.287-.362-4.702-.24-2.544-.582-6.468-.766-8.957-.056-.752-.019-1.746.085-2.209l.176-.876 3.353-.79c2.839-.662 3.691-.764 5.501-.624 2.795.224 4.983.031 7.997-.719a44.54 44.54 0 0 1 5.144-.82c1.672-.152 5.706-.935 10.856-2.085 8.782-1.965 8.421-1.918 12.316-1.158 2.315.47 3.131.313 3.627-.774ZM117.748 249.5h3.696v-13.392h5.112V232.7h-13.92v3.408h5.112V249.5Zm17.363.288c2.328 0 4.056-.912 5.256-2.4l-2.088-1.848c-1.008.936-1.896 1.32-3.12 1.32-1.632 0-2.784-.864-3.144-2.52h8.952c.024-.336.048-.672.048-.96 0-3.648-1.968-6.984-6.264-6.984-3.744 0-6.36 3.024-6.36 6.696 0 3.984 2.856 6.696 6.72 6.696Zm-3.144-7.728c.288-1.656 1.272-2.736 2.784-2.736 1.536 0 2.496 1.104 2.712 2.736h-5.496Zm13.303-5.424c0 9.12-.72 9.912-2.088 9.912a7.59 7.59 0 0 1-.768-.072l-.24 2.952c.48.12 1.368.216 1.848.216 3.216 0 4.68-1.368 4.68-9.888h3.264v9.744h3.648v-12.864H145.27Zm19.916 13.152c4.008 0 6.984-3 6.984-6.696 0-3.744-2.952-6.696-6.936-6.696-4.008 0-6.984 3-6.984 6.696 0 3.744 2.952 6.696 6.936 6.696Zm.048-3.144c-2.016 0-3.384-1.656-3.384-3.552 0-1.944 1.248-3.552 3.336-3.552 2.016 0 3.384 1.656 3.384 3.552 0 1.944-1.248 3.552-3.336 3.552Z" fill="#333F48"/></svg>