<svg width="285" height="285" fill="none" xmlns="http://www.w3.org/2000/svg"><path fill-rule="evenodd" clip-rule="evenodd" d="M205.273 125.181c3.815 2.019 7.64 4.044 10.669 7.163a.904.904 0 0 1-.046 1.177.887.887 0 0 1-.354.233l-2.45.76a.79.79 0 0 1-.57 0h-.08a68.535 68.535 0 0 0-10.44 4.13 21.618 21.618 0 0 0-7.65 6.19 9.225 9.225 0 0 0-1.83 4.47 9.59 9.59 0 0 0 .93 4.83c1.103 2.429 2.864 4.513 4.621 6.593 2.576 3.047 5.143 6.085 5.619 10.187a.792.792 0 0 1-1 .92l-5.25-1.43-10.72-2.92-5.48-1.49a10.99 10.99 0 0 0-4.63-.69c-2.82.48-3.07 3.84-3.07 6.14.01 3.69.19 7.38.46 11.06.13 1.8.29 3.66.48 5.41.081.747.179 1.492.276 2.238.131 1.001.262 2.003.354 3.012a7.44 7.44 0 0 1-.42 3.74 3.83 3.83 0 0 1-3.37 2.26 8.137 8.137 0 0 1-4.21-1.33 94.145 94.145 0 0 1-1.914-1.13c-.856-.513-1.713-1.028-2.596-1.51-1.54-.84-3.12-1.64-4.73-2.35a12.679 12.679 0 0 0-4.17-1.22 4.827 4.827 0 0 0-3.91 1.25 9.513 9.513 0 0 0-2 3.65c-1.24 3.25-2.54 6.45-4 9.6-1.46 3.15-3.04 6.3-4.74 9.3-.086.156-.174.328-.266.508-.576 1.124-1.32 2.579-2.734 2.622-1.437.044-1.96-1.332-2.397-2.48-.062-.163-.122-.321-.183-.47a64.289 64.289 0 0 0-10.16-16.85c-2.03-2.42-4.34-4.67-7.34-5.75a24.187 24.187 0 0 0-9.08-.89 81.114 81.114 0 0 1-9.47.26 4.002 4.002 0 0 1-2-.47 1.84 1.84 0 0 1-.69-1.85c.291-1.617.75-3.199 1.37-4.72.172-.486.352-.982.535-1.485 1.8-4.959 3.868-10.656 1.535-15.595l-.16-.31a.693.693 0 0 1-.42-.42 5.702 5.702 0 0 0-3.67-3.22 12.312 12.312 0 0 0-5.6-.22c-1.322.165-2.61.395-3.888.623-.734.13-1.463.26-2.192.377-4.1.64-8.22 1.11-12.36 1.45-.48.08-.76-.52-.65-.92.684-2.467 2.382-4.432 4.05-6.361.184-.213.368-.426.55-.639a19.132 19.132 0 0 0 2.38-3.27c.66-1.22 1.27-2.85.79-4.22-.408-1.165-1.829-1.809-2.983-2.333-.203-.092-.398-.18-.577-.267a38.33 38.33 0 0 0-4.48-1.78 38.846 38.846 0 0 0-4.75-1.21c-.887-.17-1.78-.289-2.673-.407a56.537 56.537 0 0 1-2.207-.323 3.825 3.825 0 0 1-2.06-.72 1.392 1.392 0 0 1 .08-1.75 17.076 17.076 0 0 1 2.69-3.07 53.01 53.01 0 0 1 6.68-5l.663-.443c2.138-1.428 4.413-2.946 6.007-4.957a5.781 5.781 0 0 0 1.52-3.83c-.093-1.297-1.066-2.169-2.004-3.009-.175-.158-.35-.314-.516-.471l-8.08-7.33a71.07 71.07 0 0 0-1.205-1.06c-.914-.793-1.835-1.591-2.645-2.47a5.348 5.348 0 0 1-1.14-1.71 2.94 2.94 0 0 1-.16-1.86.37.37 0 0 1 .5-.28 5.236 5.236 0 0 1 1.13-.85 12.751 12.751 0 0 1 2.43-1.11c.961-.341 1.939-.63 2.916-.919a62.643 62.643 0 0 0 2.634-.821 69.833 69.833 0 0 0 11.22-5 19.996 19.996 0 0 0 4.9-3.27 11.22 11.22 0 0 0 2.42-5 35.191 35.191 0 0 0 1-12.64c-.14-1.347-.416-2.65-.687-3.936-.154-.728-.307-1.451-.433-2.174-.23-1.38-.35-4.39 1.65-4.5 1.68-.09 3.39 1.11 4.62 2.11.452.369.894.75 1.334 1.13.982.847 1.96 1.69 3.036 2.38 3.18 2.12 7.2 3.95 11.1 3.43a14 14 0 0 0 8.43-4.89c3.087-3.443 4.818-7.696 6.55-11.951 1.14-2.803 2.281-5.606 3.81-8.179a.784.784 0 0 1 .595-.376.78.78 0 0 1 .655.256 4.387 4.387 0 0 1 1-1 2.499 2.499 0 0 1 3.23.29 5.953 5.953 0 0 1 1.12 1.75c.32.68.66 1.34 1 2a54.702 54.702 0 0 0 5 7.89 53.966 53.966 0 0 0 6.29 6.89c1.09 1.01 2.37 2.1 3.92 2.18a7.532 7.532 0 0 0 4.41-1.7c2.814-1.931 5.357-4.21 7.901-6.488 2.067-1.852 4.134-3.704 6.349-5.372a30.264 30.264 0 0 1 3.86-2.6 2.117 2.117 0 0 1 2.21-.11 2.252 2.252 0 0 1 .87 1.51c.241 1.679.308 3.378.2 5.07-.06 1.76-.22 3.52-.38 5.27-.53 5.71-.94 11.74 2.06 16.89a11.138 11.138 0 0 0 6.15 4.86c1.562.493 3.151.897 4.76 1.21 1.75.39 3.51.75 5.27 1.1a218.97 218.97 0 0 0 11.325 1.926c1.097.145 2.202.291 3.115 1.114 1.12 1.01.81 2.41 0 3.53a39.091 39.091 0 0 1-6.34 6.26 25.195 25.195 0 0 0-5.77 6.63 20.001 20.001 0 0 0-1.79 4.21c-.42 1.41-.87 3.01.13 4.3a14.618 14.618 0 0 0 3.18 2.79 37.927 37.927 0 0 0 3.59 2.27c1.195.683 2.418 1.33 3.641 1.977Zm-22.341-.107a40.007 40.007 0 0 0 1.14-8h-.05a29.363 29.363 0 0 0-2.03-13.32 18.85 18.85 0 0 0-8.48-8.76 29.802 29.802 0 0 0-13.14-3.18 61.548 61.548 0 0 0-7.56.26c-1.204.06-2.4.214-3.58.46a6.352 6.352 0 0 0-2.5 1.15.427.427 0 0 1-.376.103.43.43 0 0 1-.304-.243c-.629.278-1.243.588-1.84.93a31.688 31.688 0 0 0-3.53 2.56 7.722 7.722 0 0 1-3.48 1.78 5.89 5.89 0 0 1-4-1.12 80.716 80.716 0 0 1-2.602-1.675c-1.359-.9-2.719-1.8-4.158-2.565a19.13 19.13 0 0 0-7.84-2.11 57.723 57.723 0 0 0-8.52-.1 18 18 0 0 0-7.91 2.62 43.718 43.718 0 0 0-6.22 4.78 45.63 45.63 0 0 0-5.08 5.23 37.676 37.676 0 0 0-4.16 6.09 34.987 34.987 0 0 0-2 4.38v.003c-.09.909-.18 1.818-.26 2.737-.29 3-.52 6-.58 9a48.817 48.817 0 0 0 1.08 11.75c.325 1.699.94 3.33 1.82 4.82a7.583 7.583 0 0 0 3.66 2.92c2.598 1.055 5.477 1.031 8.254 1.007.408-.004.813-.007 1.216-.007l12.18-.07a.656.656 0 0 1 .557.345.657.657 0 0 1-.027.655l-.254.355c-.437.61-.872 1.218-1.266 1.855a9.693 9.693 0 0 0-1.67 5c.026 1.787.274 3.564.74 5.29a43.504 43.504 0 0 0 3.31 9.24 41.5 41.5 0 0 0 5.33 8.22 40.746 40.746 0 0 0 3.36 3.58 10.734 10.734 0 0 0 4.41 2.86c1.764.385 3.564.576 5.37.57 1.95.13 3.85.13 5.85.13a25.53 25.53 0 0 0 10.25-2.05 14.792 14.792 0 0 0 7-6.54 34.84 34.84 0 0 0 2-4.84c.63-1.83 1.25-3.67 1.76-5.53a25.24 25.24 0 0 0 1-10.64 14.004 14.004 0 0 0-4.14-8.11.862.862 0 0 1-.051-1.078.851.851 0 0 1 .291-.252 25.127 25.127 0 0 1 6.89-1.66c.822-.093 1.657-.164 2.496-.236 3.317-.283 6.703-.572 9.624-2.224a11.626 11.626 0 0 0 5.62-8 .776.776 0 0 1-.17-.7 28.659 28.659 0 0 1 1.41-3.84 39.273 39.273 0 0 0 1.16-3.83Zm-15.48-25.01a25.64 25.64 0 0 0-16.68-1.37 38.96 38.96 0 0 0-8.31 3c-.353.172-.707.35-1.062.53h-.001c-2.195 1.108-4.459 2.251-6.937 1.95a19.735 19.735 0 0 1-4.19-1.23 28.117 28.117 0 0 0-4.2-1.15 43.408 43.408 0 0 0-9-.58c-1.342 0-2.684.094-4.026.187-.358.025-.716.05-1.074.073a22.003 22.003 0 0 0-5.23.73c-2.491.748-4.612 2.324-6.699 3.874a65.607 65.607 0 0 1-2.111 1.526 1.175 1.175 0 0 0-.3.29.499.499 0 0 0-.39.16 8.327 8.327 0 0 0-1.72 2.87 9.09 9.09 0 0 0-.39 1.64 8.025 8.025 0 0 0-.09.92 1.443 1.443 0 0 0 0 .46 1.377 1.377 0 0 0 1.54 1c.29-.012.576-.066.85-.16.574-.209 1.142-.445 1.71-.681.63-.261 1.259-.523 1.9-.749 1.22-.43 2.61-.84 3.93-1.19a52.763 52.763 0 0 1 7.89-1.4 48.464 48.464 0 0 1 8-.12c2.47.17 5.1.41 6.88 2.33a15.374 15.374 0 0 1 3.09 6.58 38.308 38.308 0 0 1 1.18 7.75c.183 3.166.12 6.332.057 9.496-.04 2.013-.08 4.024-.057 6.034v.56l-.002.525c-.012 1.925-.027 4.298 1.272 5.835 1.54 1.83 4.23 1.13 5.56-.55a8.763 8.763 0 0 0 1.47-3.47c.32-1.38.62-2.76.91-4.14.6-2.827 1.123-5.673 1.57-8.54.45-2.83.81-5.67 1.11-8.52.077-.75.136-1.507.195-2.265.133-1.699.266-3.406.605-5.065a7.794 7.794 0 0 1 3.23-5.35 17.057 17.057 0 0 1 6.93-2 37.435 37.435 0 0 1 19.36 2.81.852.852 0 0 0 1-.55c1.72-5.32-3.4-10.01-7.77-12.05Zm-57.491 20.408a3.652 3.652 0 0 1 1.741-.218 5.38 5.38 0 0 1 3.57 1.55 5.002 5.002 0 0 1 .89 5.83 5.834 5.834 0 0 1-4.93 2.85 5.272 5.272 0 0 1-4.91-3.14c-.8-2.17.59-4.45 2.2-5.87.391-.446.885-.79 1.439-1.002Zm52.371.662a10.619 10.619 0 0 0-2-.52 7.304 7.304 0 0 0-2.28-.11 3.535 3.535 0 0 0-1.92.88 5.887 5.887 0 0 0-1.18 1.7.533.533 0 0 0 .1.67 6.375 6.375 0 0 0-.29 1.13 10.852 10.852 0 0 0-.21 3.21 2.934 2.934 0 0 0 1.79 2.49 7.294 7.294 0 0 0 3.82.31 6 6 0 0 0 4.87-4.19c.27-1.045.2-2.148-.2-3.15a4.24 4.24 0 0 0-2.5-2.42Zm-17.86 36.83a10.535 10.535 0 0 0-5.5-2.2 21.407 21.407 0 0 0-6.63-.21 13.742 13.742 0 0 0-6.43 2.77c-1.62 1.28-3.31 3.93-1.67 5.84a.479.479 0 0 0 .7 0c.158.353.352.688.58 1a7.726 7.726 0 0 0 5.05 2.65c4.295.736 8.711.233 12.73-1.45a4.462 4.462 0 0 0 2.116-1.458 4.463 4.463 0 0 0 .964-2.382 5.594 5.594 0 0 0-1.91-4.56Z" fill="#333F48"/><path d="M114.322 232.7v3.48c0 9.048-1.128 10.32-3.12 10.32a3.7 3.7 0 0 1-.576-.048l-.24 3.048c.456.12 1.344.216 1.944.216 3.84 0 5.448-2.52 5.448-12.408v-1.272h4.848V249.5h3.696v-16.8h-12Zm27.618 3.936h-3.432l-5.016 7.512v-7.512h-3.528V249.5h3.432l5.016-7.488v7.488h3.528v-12.864Zm13.194 15.888h3.072l.432-6.144h-1.752v-9.744h-3.648v9.744h-4.392v-9.744h-3.648V249.5h9.936v3.024Zm11.798-2.736c4.008 0 6.984-3 6.984-6.696 0-3.744-2.952-6.696-6.936-6.696-4.008 0-6.984 3-6.984 6.696 0 3.744 2.952 6.696 6.936 6.696Zm.048-3.144c-2.016 0-3.384-1.656-3.384-3.552 0-1.944 1.248-3.552 3.336-3.552 2.016 0 3.384 1.656 3.384 3.552 0 1.944-1.248 3.552-3.336 3.552Z" fill="#333F48"/></svg>