<svg width="23" height="39" viewBox="0 0 23 39" fill="none" xmlns="http://www.w3.org/2000/svg">
<path d="M9.55797 27.4655C6.62418 27.1595 3.97892 26.437 1.71417 24.6657C1.43315 24.4453 1.14303 24.2328 0.886586 23.9867C-0.10469 23.0347 -0.204571 21.9443 0.579809 20.8206C1.25083 19.8591 2.37726 19.6019 3.54809 20.154C3.7748 20.261 3.99081 20.3946 4.19771 20.538C8.41846 23.4382 14.2167 23.5182 18.4533 20.6684C18.873 20.3466 19.3217 20.0842 19.8417 19.9503C20.8528 19.6906 21.7957 20.062 22.3383 20.9467C22.9582 21.957 22.9503 22.9431 22.1865 23.7275C21.0149 24.93 19.6059 25.8 18.0403 26.4072C16.5599 26.9811 14.9384 27.2701 13.3336 27.4619C13.5758 27.7255 13.6899 27.8551 13.8413 28.0073C16.0205 30.1967 18.2091 32.3771 20.3812 34.5733C21.1211 35.3216 21.2757 36.2494 20.8683 37.1198C20.4228 38.0711 19.4255 38.6969 18.4477 38.6299C17.8283 38.5871 17.3451 38.2788 16.9158 37.8463C15.2714 36.1916 13.596 34.5673 11.9848 32.8812C11.516 32.391 11.2904 32.4837 10.8766 32.9094C9.22226 34.6125 7.54094 36.2895 5.8497 37.9569C5.09029 38.7056 4.18661 38.8404 3.30592 38.4127C2.36973 37.9589 1.77402 37.0033 1.81999 36.0429C1.8517 35.3933 2.17116 34.8971 2.61706 34.452C4.77361 32.2986 6.92421 30.1397 9.07561 27.9827C9.2179 27.8392 9.35068 27.687 9.55797 27.4655Z" fill="black"/>
<path d="M11.3453 19.9659C6.11144 19.948 1.81974 15.6092 1.85026 10.367C1.88038 5.06701 6.17486 0.79592 11.4602 0.810585C16.7563 0.824853 21.0071 5.15738 20.9806 10.5125C20.9536 15.7439 16.6322 19.9841 11.3453 19.9659ZM16.1019 10.3797C16.0928 7.77687 14.0198 5.70474 11.4222 5.70236C8.80267 5.69959 6.71112 7.80937 6.73133 10.436C6.75075 13.0289 8.84151 15.0864 11.4463 15.0769C14.0432 15.0678 16.1106 12.9822 16.1019 10.3797Z" fill="black"/>
</svg>
