<svg width="36" height="20" viewBox="0 0 36 20" fill="none" xmlns="http://www.w3.org/2000/svg">
<path fill-rule="evenodd" clip-rule="evenodd" d="M34.2862 1.36243C34.5279 0.606353 34.2862 0.0507812 33.1359 0.0507812H29.332C28.3648 0.0507812 27.9189 0.530713 27.6771 1.05994C27.6771 1.05994 25.7427 5.48295 23.0024 8.35599C22.1158 9.18764 21.7128 9.45225 21.2292 9.45225C20.9874 9.45225 20.6374 9.18764 20.6374 8.43162V1.36244C20.6374 0.455139 20.3567 0.0507812 19.5506 0.0507812H13.5732C12.9687 0.0507812 12.6052 0.471879 12.6052 0.870967C12.6052 1.73106 13.9753 1.92941 14.1166 4.34886V9.60353C14.1166 10.7556 13.8948 10.9645 13.4112 10.9645C12.1216 10.9645 8.98486 6.5217 7.12446 1.43801C6.75987 0.449918 6.39418 0.0507812 5.42202 0.0507812H1.61816C0.53134 0.0507812 0.313965 0.530713 0.313965 1.05994C0.313965 2.00505 1.60356 6.69268 6.31853 12.8924C9.46182 17.1263 13.8905 19.4214 17.9204 19.4214C20.3383 19.4214 20.6375 18.9116 20.6375 18.0336V14.8336C20.6375 13.8141 20.8665 13.6107 21.6322 13.6107C22.1964 13.6107 23.1636 13.8753 25.4204 15.9166C27.9995 18.336 28.4247 19.4214 29.8754 19.4214H33.6793C34.7661 19.4214 35.3095 18.9117 34.996 17.9057C34.653 16.9031 33.4216 15.4484 31.7876 13.724C30.901 12.7412 29.5712 11.6827 29.1681 11.1534C28.604 10.473 28.7652 10.1705 29.1681 9.56571C29.1681 9.56571 33.8026 3.44157 34.2862 1.36243Z" fill="black"/>
</svg>
