<svg width="27" height="24" viewBox="0 0 27 24" fill="none" xmlns="http://www.w3.org/2000/svg">
<path d="M1.84592 10.5844C1.84592 10.5844 13.4821 5.68338 17.5178 3.95763C19.0648 3.26738 24.3112 1.05841 24.3112 1.05841C24.3112 1.05841 26.7326 0.0920663 26.5308 2.43899C26.4635 3.40543 25.9255 6.78778 25.3874 10.4463C24.5802 15.6235 23.7058 21.2838 23.7058 21.2838C23.7058 21.2838 23.5713 22.8715 22.4279 23.1476C21.2845 23.4237 19.4011 22.1812 19.0648 21.905C18.7957 21.698 14.0202 18.5917 12.2714 17.073C11.8006 16.6589 11.2625 15.8306 12.3386 14.8642C14.7601 12.5862 17.6523 9.75607 19.4011 7.96134C20.2083 7.13295 21.0154 5.20016 17.6523 7.54709C12.8768 10.9295 8.16849 14.1048 8.16849 14.1048C8.16849 14.1048 7.09228 14.7951 5.07447 14.1738C3.05656 13.5527 0.702408 12.7243 0.702408 12.7243C0.702408 12.7243 -0.91177 11.6888 1.84592 10.5844Z" fill="black"/>
</svg>
