<svg width="29" height="29" viewBox="0 0 29 29" fill="none" xmlns="http://www.w3.org/2000/svg">
<path d="M9.70799 14.6709C9.70799 12.0363 11.8425 9.90003 14.4764 9.90003C17.1102 9.90003 19.2459 12.0363 19.2459 14.6709C19.2459 17.3055 17.1102 19.4418 14.4764 19.4418C11.8425 19.4418 9.70799 17.3055 9.70799 14.6709ZM7.12968 14.6709C7.12968 18.7297 10.4188 22.0197 14.4764 22.0197C18.5339 22.0197 21.8231 18.7297 21.8231 14.6709C21.8231 10.6122 18.5339 7.32212 14.4764 7.32212C10.4188 7.32212 7.12968 10.6122 7.12968 14.6709ZM20.397 7.03073C20.3969 7.3704 20.4974 7.70248 20.686 7.98498C20.8745 8.26748 21.1426 8.48771 21.4562 8.61782C21.7699 8.74793 22.1151 8.78207 22.4482 8.71594C22.7812 8.64981 23.0872 8.48637 23.3274 8.24628C23.5676 8.0062 23.7313 7.70025 23.7977 7.36714C23.864 7.03403 23.8302 6.6887 23.7004 6.37484C23.5705 6.06098 23.3506 5.79267 23.0683 5.60385C22.7861 5.41503 22.4541 5.31417 22.1146 5.31403H22.1139C21.6587 5.31425 21.2223 5.49516 20.9003 5.81704C20.5784 6.13891 20.3974 6.57544 20.397 7.03073ZM8.69617 26.3202C7.30125 26.2566 6.54307 26.0242 6.03922 25.8279C5.37124 25.5677 4.89463 25.2579 4.39353 24.7574C3.89242 24.2568 3.58224 23.7805 3.32333 23.1123C3.12692 22.6086 2.89457 21.8499 2.83116 20.4546C2.76179 18.9461 2.74794 18.4929 2.74794 14.671C2.74794 10.8492 2.76294 10.3973 2.83116 8.88746C2.89468 7.49214 3.12875 6.735 3.32333 6.22974C3.58338 5.56157 3.89311 5.08482 4.39353 4.58357C4.89394 4.08232 5.37009 3.77205 6.03922 3.51307C6.54284 3.3166 7.30125 3.08418 8.69617 3.02075C10.2043 2.95137 10.6573 2.93752 14.4764 2.93752C18.2954 2.93752 18.7489 2.95251 20.2583 3.02075C21.6532 3.08429 22.4101 3.31843 22.9152 3.51307C23.5832 3.77205 24.0598 4.08301 24.5609 4.58357C25.062 5.08413 25.3711 5.56157 25.6311 6.22974C25.8275 6.73351 26.0599 7.49214 26.1233 8.88746C26.1927 10.3973 26.2065 10.8492 26.2065 14.671C26.2065 18.4929 26.1927 18.9448 26.1233 20.4546C26.0598 21.8499 25.8263 22.6083 25.6311 23.1123C25.3711 23.7805 25.0613 24.2573 24.5609 24.7574C24.0605 25.2575 23.5832 25.5677 22.9152 25.8279C22.4116 26.0243 21.6532 26.2568 20.2583 26.3202C18.7502 26.3896 18.2971 26.4034 14.4764 26.4034C10.6556 26.4034 10.2038 26.3896 8.69617 26.3202ZM8.5777 0.446046C7.05459 0.515428 6.01381 0.757007 5.10489 1.11079C4.16358 1.47613 3.36671 1.96628 2.57042 2.76154C1.77412 3.5568 1.28538 4.35516 0.920142 5.29675C0.566463 6.2065 0.324953 7.24701 0.255591 8.77056C0.185084 10.2965 0.168945 10.7844 0.168945 14.6709C0.168945 18.5575 0.185084 19.0453 0.255591 20.5713C0.324953 22.095 0.566463 23.1354 0.920142 24.0451C1.28538 24.9861 1.77424 25.7854 2.57042 26.5803C3.3666 27.3752 4.16358 27.8647 5.10489 28.2311C6.01553 28.5848 7.05459 28.8264 8.5777 28.8958C10.104 28.9652 10.5909 28.9825 14.4764 28.9825C18.3618 28.9825 18.8495 28.9663 20.375 28.8958C21.8983 28.8264 22.9383 28.5848 23.8478 28.2311C24.7886 27.8647 25.586 27.3756 26.3823 26.5803C27.1786 25.785 27.6663 24.9861 28.0326 24.0451C28.3863 23.1354 28.6289 22.0948 28.6971 20.5713C28.7665 19.0442 28.7826 18.5575 28.7826 14.6709C28.7826 10.7844 28.7665 10.2965 28.6971 8.77056C28.6278 7.2469 28.3863 6.20593 28.0326 5.29675C27.6663 4.35573 27.1773 3.55806 26.3823 2.76154C25.5873 1.96502 24.7886 1.47613 23.849 1.11079C22.9383 0.757007 21.8981 0.514283 20.3762 0.446046C18.8507 0.376663 18.3629 0.359375 14.4775 0.359375C10.5921 0.359375 10.104 0.375518 8.5777 0.446046Z" fill="black"/>
</svg>
