<svg width="147" height="201" viewBox="0 0 147 201" fill="none" xmlns="http://www.w3.org/2000/svg">
<path d="M98.5812 122.339C97.0164 119.224 94.1476 117.147 90.7572 115.849C89.4533 115.33 87.8885 115.07 86.5845 114.811C87.3669 114.551 87.8885 114.032 88.6709 113.513C89.9749 112.474 91.5396 111.176 92.5828 109.878C93.626 108.58 94.6692 107.282 95.4516 105.984C96.234 104.427 96.7556 102.609 97.0164 101.052C97.2772 99.4941 97.0164 97.6768 96.4948 96.1192C95.1908 93.0039 92.5828 90.6675 88.9317 89.3694C87.3669 88.8502 86.0629 88.331 84.4981 88.0714C81.3686 87.8118 77.9782 87.8118 74.8486 88.331C74.8486 91.9655 74.8486 95.6 75.1094 99.4941C75.631 112.994 76.4134 126.493 76.6742 139.993C77.1958 139.993 77.7174 139.993 78.239 139.993C80.5862 139.473 83.1941 139.473 85.8021 139.473C87.1061 139.214 88.6709 138.954 89.9749 138.695C93.626 137.916 96.234 135.32 97.7988 132.464C98.5812 130.906 99.1027 129.089 99.3635 127.532C99.6243 125.714 99.3635 124.157 98.5812 122.339ZM85.0197 110.398L84.7589 92.2251C85.8021 92.4847 85.8021 92.4847 86.5845 93.0039C89.1925 93.7827 91.018 95.6 91.8004 97.6768C92.322 98.7152 92.322 100.013 92.322 101.052C92.0612 102.09 91.8004 103.388 91.2788 104.427C90.7572 105.465 89.9749 106.244 89.4533 107.282C88.6709 108.061 87.6277 109.099 86.5845 109.878C85.8021 109.878 85.5413 110.138 85.0197 110.398ZM94.1476 126.753C93.8868 127.791 93.626 129.089 93.1044 130.128C92.5828 130.906 91.8004 131.945 91.018 132.724C90.2357 133.502 89.1925 134.541 88.1493 135.06C87.6277 135.32 87.1061 135.579 86.5845 135.839L86.0629 118.445C87.1061 118.705 87.1061 118.705 88.1493 118.965C90.7572 119.743 92.8436 121.301 93.8868 123.378C94.1476 124.416 94.4084 125.714 94.1476 126.753Z" fill="#A1D884"/>
<path d="M100.928 114.811C100.928 118.445 101.189 123.638 101.449 127.272C101.449 129.089 101.449 130.907 101.449 132.983C101.449 134.541 101.189 136.358 101.449 137.916V138.176C107.448 138.695 113.446 137.916 119.444 137.916C120.227 135.579 119.966 130.907 119.966 129.609C118.401 129.609 115.532 129.609 113.968 129.609C112.664 129.609 111.099 129.868 109.534 129.868C108.491 129.868 107.187 129.868 106.144 130.128C106.144 129.089 106.144 128.051 106.144 127.013C106.144 125.195 106.144 121.82 106.144 120.003C106.144 119.484 106.144 118.965 106.144 118.445C107.448 118.445 108.752 118.186 110.056 118.186C111.36 118.186 112.924 118.445 114.228 118.186C114.228 115.849 113.968 113.513 113.707 110.917C112.664 110.657 111.36 111.177 110.317 111.177C109.013 111.177 107.448 111.177 106.144 111.177C106.144 108.84 105.883 104.167 105.883 102.09C105.883 101.831 105.883 101.571 105.883 101.311C106.144 101.311 106.665 101.312 106.926 101.052C107.709 101.052 108.491 101.052 109.273 100.792C110.838 100.792 112.142 100.533 113.707 100.533C116.836 100.273 115.272 100.533 118.401 100.273C118.923 100.273 119.444 100.273 119.966 100.273C119.705 96.8982 119.184 93.5233 119.705 90.1484C116.836 90.1484 118.662 90.1484 115.793 90.1484C110.577 90.408 105.361 90.408 100.406 91.1869C100.406 94.8213 100.406 98.4558 100.667 102.09C100.667 105.725 100.928 111.436 100.928 114.811Z" fill="#A1D884"/>
<path d="M65.9817 96.3788C66.7641 96.3788 68.0681 96.3788 69.1113 96.3788C68.8505 93.5232 69.1113 90.6675 69.1113 87.8118C68.5897 87.5522 67.8073 87.5522 67.0249 87.5522C65.4602 87.5522 63.6346 87.8118 62.0698 87.8118C59.9834 88.0715 58.1578 88.0715 56.0715 88.3311C55.0283 88.3311 53.9851 88.3311 52.9419 88.5907C52.1595 88.5907 51.3771 88.5907 50.5947 88.8503C50.5947 91.4463 50.5947 94.302 50.5947 96.8981C51.8987 96.8981 53.2027 96.6385 54.5067 96.3788C55.0283 96.3788 55.8107 96.3788 56.3323 96.3788C56.3323 96.3788 56.3323 96.3789 56.3323 96.6385C56.3323 98.7153 56.3323 100.792 56.3323 102.609C56.3323 106.763 56.3323 110.917 56.0715 115.07C55.8107 121.561 56.3323 125.455 56.0715 131.685C55.8107 131.685 55.5499 131.685 55.2891 131.685C53.9851 131.685 52.9419 131.945 51.6379 131.945C51.6379 132.724 51.6379 133.503 51.8987 134.541V134.801C51.8987 135.32 51.8987 135.579 51.8987 136.099C51.8987 136.358 51.8987 136.618 51.8987 137.137C51.8987 138.435 51.8987 139.473 51.8987 140.771C52.9419 140.771 53.9851 140.512 54.7675 140.512C55.8107 140.512 56.5931 140.512 57.6362 140.512C58.6794 140.512 59.9834 140.252 61.0266 140.252C62.8522 140.252 64.6778 140.252 66.5033 140.252C67.0249 140.252 67.5465 140.252 68.0681 139.993C67.8073 137.137 67.5465 134.541 67.8073 131.685C67.0249 131.685 66.2425 131.685 65.4602 131.685C64.417 131.685 63.113 131.685 62.0698 131.685C62.0698 130.906 62.0698 129.868 62.0698 129.089C62.0698 126.753 62.0698 124.416 62.0698 122.08C62.0698 112.734 61.809 105.984 61.809 96.6385C63.6346 96.3789 64.6778 96.3788 65.9817 96.3788Z" fill="#A1D884"/>
<path d="M47.4647 118.446C47.4647 118.186 47.2039 117.926 46.9431 117.407C45.6391 114.292 44.0743 111.436 42.5095 108.58C41.7271 107.282 40.684 105.984 39.9016 104.686C39.1192 103.388 38.3368 102.09 37.8152 100.792C37.0328 99.2347 36.772 97.9366 36.772 96.379C36.772 96.1194 36.772 95.8598 37.0328 95.6002C37.0328 94.8214 37.5544 94.3022 38.5976 94.3022C40.1624 94.3022 40.9448 96.1194 41.2056 97.1578C41.4664 98.1963 41.4664 99.4943 41.7271 100.533C43.5527 100.273 45.1175 100.273 46.9431 100.013C46.9431 100.013 46.9431 99.7539 46.9431 99.4943C46.9431 96.379 46.6823 93.5233 44.3351 91.1869C42.2487 89.11 38.8584 87.812 35.7288 87.812C34.164 87.812 32.3385 88.5908 31.0345 89.11C29.7305 89.8889 28.4265 90.9273 27.9049 92.2253C26.6009 94.5618 25.8185 97.9367 27.1225 100.533C27.6441 101.831 28.1657 103.129 29.2089 104.427C30.2521 105.725 31.5561 107.282 32.5993 108.58C34.6856 111.177 36.2504 114.032 37.5544 116.888C38.3368 118.446 38.5976 120.003 39.1192 121.561C39.38 123.118 39.9016 124.936 39.38 126.493C39.1192 127.791 38.3368 129.089 36.772 129.609C35.2072 130.128 33.9032 129.609 32.8601 128.57C31.5561 127.532 31.0345 126.234 30.5129 124.676C30.5129 124.157 30.5129 123.378 30.2521 122.859C26.8617 123.118 23.4714 123.118 20.3418 123.118C20.3418 123.378 20.3418 123.897 20.3418 124.416C20.3418 125.195 20.3418 125.974 20.3418 126.753C20.6026 128.311 21.1242 129.609 21.6458 130.907C22.9498 133.503 24.7753 135.839 27.6441 137.656C28.6873 138.176 29.7305 138.695 30.7737 139.214C33.9032 139.733 37.2936 139.474 40.4232 138.435C41.9879 137.397 43.5527 136.358 45.1175 135.32C46.6823 132.464 47.7255 129.609 48.2471 126.493C48.2471 126.234 48.2471 125.974 48.2471 125.714C48.2471 125.455 48.2471 125.195 48.2471 124.936C48.2471 124.676 48.2471 124.676 48.2471 124.416C47.9863 122.859 47.7255 120.782 47.4647 118.446ZM42.2487 134.801C42.2487 134.541 42.2487 134.541 42.2487 134.801C42.5095 134.541 42.5095 134.281 42.7703 134.281C42.5095 134.281 42.2487 134.541 42.2487 134.801Z" fill="#A1D884"/>
<path d="M86.8449 188.799C88.1489 188.539 89.4528 188.279 90.7568 188.02C90.496 186.203 90.2352 184.645 89.9744 182.828C87.6273 169.328 84.7585 156.088 82.4113 142.589C79.8034 142.589 77.1954 142.589 74.5874 142.329C73.805 144.925 73.0226 147.781 72.2403 150.636C68.5891 163.098 65.9811 176.078 62.8516 189.058C65.7203 189.058 68.5891 189.577 71.4579 190.356C71.4579 190.097 71.4579 189.837 71.7187 189.577C72.2403 187.501 72.7618 185.683 73.2834 183.606C74.8482 177.376 76.413 171.145 77.717 164.915C79.2818 164.915 80.8466 164.655 82.6721 164.655C83.4545 172.443 85.0193 180.751 86.8449 188.799ZM79.5426 153.752C80.0642 156.607 80.5858 159.204 81.1073 162.059C79.8034 162.059 78.7602 162.059 77.4562 162.059C77.717 161.28 77.717 160.761 77.9778 159.982C78.4994 157.905 79.021 155.829 79.5426 153.752Z" fill="#A1D884"/>
<path d="M132.745 187.241C132.745 185.164 132.484 183.087 132.484 181.27C132.484 177.376 132.223 173.482 131.963 169.588C131.702 165.434 131.702 161.54 131.441 157.386C131.441 156.348 131.18 155.309 131.18 154.011C131.18 152.973 131.18 151.935 130.919 150.636C130.659 148.3 130.919 146.223 130.919 143.887C130.919 143.368 130.919 142.848 130.659 142.329C130.137 142.329 129.615 142.329 129.094 142.329C125.443 142.329 121.792 142.589 118.401 142.848C118.662 146.223 118.923 149.338 118.923 152.713C119.184 159.982 119.444 167.511 119.705 174.78C119.444 174.261 119.184 174.001 118.923 173.482C117.097 170.367 115.532 166.992 113.446 163.876C112.664 162.319 111.881 160.761 110.838 159.203C110.056 157.646 109.012 156.088 108.23 154.531C107.448 152.973 106.405 151.415 105.622 149.858C105.361 149.079 104.84 148.3 104.579 147.521C104.318 147.002 104.057 146.483 103.797 145.964C103.797 144.925 103.797 144.146 103.536 143.108C100.667 143.368 97.7982 143.368 94.6686 143.108C94.4078 146.483 94.6686 149.858 94.6686 152.973C95.1902 165.434 95.7118 177.895 96.4942 190.616C99.1022 190.356 101.449 190.097 104.057 189.837C104.057 189.058 104.057 188.02 104.057 187.241C104.057 185.424 103.797 183.347 103.797 181.53C103.536 177.636 103.797 174.001 103.536 170.107C103.275 166.472 103.536 162.578 103.536 158.944C103.536 157.646 103.536 156.348 103.536 155.309C104.057 156.348 104.84 157.646 105.361 158.684C106.926 161.54 108.491 164.396 110.056 167.251C111.62 170.107 113.185 172.963 114.75 175.818C116.315 178.414 117.88 181.01 119.444 183.606C119.444 185.943 119.444 188.02 119.705 190.356C122.052 190.097 124.139 189.837 126.486 189.577C128.311 189.318 129.876 189.318 131.702 189.318C131.963 189.318 132.223 189.318 132.484 189.318C133.006 188.539 132.745 187.76 132.745 187.241Z" fill="#A1D884"/>
<path d="M36.5111 192.173C36.5111 192.433 36.5111 192.433 36.5111 192.173C37.8151 191.914 40.6839 190.875 41.9879 190.356C41.7271 189.577 28.6872 168.809 28.4264 167.77C28.1656 167.251 28.1656 166.992 27.9048 166.472C27.9048 166.213 27.644 165.953 27.644 165.694C28.1656 165.694 28.4264 165.694 28.948 165.434C31.0344 164.915 32.5992 164.396 33.9032 163.097C35.2072 162.059 36.2503 160.761 37.0327 159.463C37.2935 158.684 37.8151 157.905 37.8151 157.127C38.0759 156.348 37.8151 155.309 37.8151 154.53C37.5543 151.675 36.5111 148.04 33.9032 145.704C32.5992 144.406 30.7736 143.627 28.948 143.108C28.4264 142.848 27.9048 142.848 27.3832 142.589C24.7753 142.069 16.9514 142.069 14.6042 142.589C14.6042 143.108 14.6042 143.367 14.6042 143.887C14.3434 145.964 14.6042 147.781 14.6042 149.858C14.6042 151.156 14.6042 152.194 14.6042 153.492C14.6042 153.752 14.6042 154.011 14.6042 154.271C14.6042 157.905 14.865 161.799 14.865 165.434C15.1258 169.068 15.1258 172.443 15.1258 176.078C15.3866 179.712 15.3866 183.347 15.3866 186.981C15.3866 188.02 15.3866 189.058 15.3866 190.097C15.3866 190.616 15.3866 191.135 15.3866 191.654C17.2122 191.914 23.7321 192.173 25.5577 192.173C25.5577 189.577 25.5577 186.981 25.8185 184.385C25.8185 180.491 25.8185 176.597 25.8185 172.703C25.8185 172.963 26.0793 173.482 26.0793 173.741C26.6009 175.559 34.9464 189.577 35.468 190.356C35.9895 190.875 35.9895 191.654 36.5111 192.173ZM25.8185 163.876C25.8185 157.386 25.5577 150.896 25.2969 144.406C26.0793 144.665 27.1224 144.665 27.9048 144.925C29.2088 145.444 30.7736 145.964 31.8168 146.742C33.9032 148.56 34.6856 151.415 34.9464 154.011C34.9464 155.309 35.2072 156.607 34.6856 157.905C34.164 159.203 33.6424 160.242 32.5992 161.021C31.556 162.059 30.5128 162.838 28.948 163.097C28.1656 163.357 27.3832 163.617 26.6009 163.617C26.3401 163.876 26.0793 163.876 25.8185 163.876Z" fill="#A1D884"/>
<path d="M47.7248 142.589C47.464 143.368 47.7248 144.406 47.7248 144.925C47.7248 145.964 47.464 147.002 47.464 148.04C47.464 149.079 47.464 150.117 47.464 151.156C47.464 153.233 47.2032 155.309 47.2032 157.386C47.2032 165.953 46.6816 174.261 46.6816 182.828C46.6816 183.866 46.6816 185.164 46.6816 186.203C46.6816 186.722 46.6816 186.981 46.6816 187.501C49.5504 187.501 52.4192 187.241 55.5487 186.981C55.5487 185.164 55.8095 183.606 55.8095 181.789C55.8095 179.972 55.8095 178.155 55.8095 176.597C55.8095 172.963 56.0703 169.328 56.0703 165.694C56.3311 158.944 56.5919 151.935 56.8527 145.185C56.8527 144.406 57.1135 143.368 57.1135 142.589C54.2448 142.329 51.1152 142.329 47.7248 142.589Z" fill="#A1D884"/>
<path d="M45.378 195.029C45.378 195.289 45.378 195.289 45.1172 195.289C45.1172 196.067 45.378 197.106 45.378 197.885C46.4212 199.183 47.986 199.962 49.8115 201C52.4195 201 54.7667 199.702 56.0707 197.885C56.3315 196.067 56.5923 194.25 55.8099 192.693C55.5491 192.433 55.2883 192.173 55.0275 191.914C53.4627 191.395 51.6371 191.395 50.0723 191.395C48.5076 191.395 47.2036 191.914 46.1604 192.433C45.8996 192.952 45.6388 193.991 45.378 195.029Z" fill="#A1D884"/>
<path d="M1.30382 61.0724C1.30382 64.7069 1.56462 68.0818 1.56462 71.7162C1.56462 73.5335 1.56462 75.3507 1.56462 77.4276C1.56462 78.9852 1.30382 80.8024 1.56462 82.3601V82.6197C7.56295 83.1389 13.5613 82.3601 19.5596 82.3601C21.3852 82.3601 22.95 82.3601 24.7755 82.3601C26.8619 82.1005 28.9483 82.1005 31.0347 82.1005C30.7739 79.5044 30.7739 76.6488 30.7739 74.0527C30.5131 74.0527 30.2523 74.0527 29.9915 74.0527C29.4699 74.0527 28.9483 74.0527 28.4267 73.7931C26.8619 73.7931 25.2971 73.7931 23.7324 73.7931C20.6028 73.7931 17.4732 73.5335 14.3437 73.7931C13.0397 73.7931 11.4749 74.0527 9.91012 74.0527C8.86693 74.0527 7.56295 74.0527 6.51976 74.3123C6.51976 73.2739 6.51976 72.2354 6.51976 71.197C6.51976 69.3798 6.78056 67.5625 6.78056 65.7453C6.78056 65.2261 6.78056 64.7069 6.78056 64.1877C8.08454 64.1877 9.38853 63.9281 10.6925 63.9281C11.9965 63.9281 13.5613 64.1877 14.8653 63.9281C14.8653 61.5916 14.6045 59.2551 14.3437 56.6591C13.0397 56.9187 11.7357 57.1783 10.6925 57.1783C9.38853 57.1783 7.82375 57.1783 6.51976 57.1783C6.51976 54.8418 6.51976 52.765 6.25896 50.4285C6.25896 50.1689 6.25896 49.9093 6.25896 49.6497C6.51976 49.6497 7.04135 49.6497 7.30215 49.3901C8.08454 49.3901 8.86693 49.3901 9.64932 49.1305C11.2141 49.1305 12.5181 48.8709 14.0829 48.8709C17.2124 48.6113 20.342 48.6113 23.2108 48.3517C23.7324 48.3517 24.254 48.3517 24.7755 48.3517C24.5148 44.9768 23.9932 41.6019 24.5147 38.2271C21.646 38.2271 19.038 38.4867 16.1692 38.4867C10.9533 38.7463 5.73737 38.7463 0.782227 39.5251C0.782227 43.1596 0.782227 46.7941 1.04302 50.4285C1.04302 54.3226 1.30382 57.6975 1.30382 61.0724Z" fill="#A1D884"/>
<path d="M73.8056 34.8521C73.5448 35.1117 73.2841 35.3713 73.2841 35.6309C73.0233 37.4481 73.0233 39.525 73.0233 41.3422C73.0233 42.6402 73.0233 43.9383 73.0233 44.9767C71.4585 44.9767 70.1545 45.2363 68.5897 45.2363C67.0249 45.2363 65.4601 45.4959 63.8954 45.7555C63.8954 42.121 63.8954 38.4865 63.6346 34.8521C63.3738 34.8521 63.113 34.5925 63.113 34.5925C60.505 34.5925 57.897 34.8521 55.2891 34.8521C55.5499 38.4865 55.8107 42.121 55.8107 45.4959C56.3322 59.255 55.5499 73.0142 55.2891 86.5137C58.1578 86.5137 60.7658 86.2541 63.3738 85.7349C63.3738 83.3984 63.3738 80.8023 63.3738 78.4659C63.6346 68.8605 63.8954 58.9954 63.8954 49.39C64.417 49.39 64.9385 49.1304 65.4601 49.1304C66.5033 49.1304 67.2857 48.8708 68.3289 48.8708C69.8937 48.6112 71.1977 48.6112 72.7625 48.3516C72.5017 52.2457 72.5017 56.1398 72.5017 60.0338C72.5017 64.1875 72.5017 68.6008 72.5017 72.7545C72.5017 74.8314 72.5017 76.9082 72.2409 78.9851C72.2409 80.0235 71.9801 81.0619 71.9801 81.8408C71.9801 82.8792 71.9801 83.9176 71.9801 84.956C71.9801 85.2156 71.9801 85.4752 71.9801 85.4752C72.5017 85.4752 73.0233 85.7349 73.2841 85.7349C75.3704 85.7349 77.196 85.7349 79.2824 85.7349C79.2824 84.4368 79.2824 83.3984 79.5432 82.1004C79.804 73.5334 80.3256 64.9664 80.3256 56.1398C80.3256 48.8708 80.3256 41.3422 80.8472 34.0732C78.2392 35.1117 75.892 35.1117 73.8056 34.8521Z" fill="#A1D884"/>
<path d="M121.531 81.3215C121.531 79.2447 121.27 77.1678 121.27 75.3506C121.27 71.4565 121.01 67.5624 120.749 63.6683C120.488 59.5146 120.488 55.6205 120.227 51.4668C120.227 50.4284 119.966 49.39 119.966 48.0919C119.966 47.0535 119.966 46.0151 119.706 44.7171C119.445 42.3806 119.706 40.3038 119.706 37.9673C119.706 37.4481 119.706 36.9289 119.445 36.4097C118.923 36.4097 118.402 36.4097 117.88 36.4097C114.229 36.4097 110.578 36.6693 107.187 36.9289C107.448 40.3038 107.709 43.419 107.709 46.7939C107.97 54.0629 108.23 61.5915 108.491 68.8604C108.23 68.3412 107.97 68.0816 107.709 67.5624C105.883 64.4471 104.319 61.0722 102.232 57.957C101.45 56.3993 100.667 54.8417 99.6242 53.2841C98.8418 51.7264 97.7986 50.1688 97.0162 48.6112C96.2338 47.0535 95.1906 45.4959 94.4083 43.9382C94.1475 43.1594 93.6259 42.3806 93.3651 41.6018C93.1043 41.0826 92.8435 40.5634 92.5827 40.0442C92.5827 39.0057 92.5827 38.2269 92.3219 37.1885C89.4531 37.4481 86.5843 37.4481 83.4548 37.1885C83.194 40.5634 83.4548 43.9382 83.4548 47.0535C83.9764 59.5146 84.498 71.9757 85.2804 84.6964C87.8883 84.4368 90.2355 84.1772 92.8435 83.9176C92.8435 83.1388 92.8435 82.1003 92.8435 81.3215C92.8435 79.5043 92.5827 77.4274 92.5827 75.6102C92.3219 71.7161 92.5827 68.0816 92.3219 64.1875C92.0611 60.553 92.3219 56.6589 92.3219 53.0245C92.3219 51.7264 92.3219 50.4284 92.3219 49.39C92.8435 50.4284 93.6259 51.7264 94.1474 52.7648C95.7122 55.6205 97.277 58.4762 98.8418 61.3319C100.407 64.1875 101.971 67.0432 103.536 69.8988C105.101 72.4949 106.666 75.091 108.23 77.687C108.23 80.0235 108.23 82.1003 108.491 84.4368C110.838 84.1772 112.925 83.9176 115.272 83.658C117.098 83.3984 118.662 83.3984 120.488 83.3984C120.749 83.3984 121.01 83.3984 121.27 83.3984C121.531 82.8792 121.531 81.8407 121.531 81.3215Z" fill="#A1D884"/>
<path d="M146.828 55.3607C146.567 53.2839 146.567 51.2071 146.046 48.8706C145.524 46.7937 145.003 44.7169 144.22 42.6401C143.96 42.1208 143.96 41.8612 143.699 41.342C142.395 39.7844 140.569 38.2268 138.744 36.9287C137.7 36.6691 136.918 36.4095 135.875 36.1499C134.049 36.1499 132.224 36.6691 130.398 37.4479C130.137 37.4479 130.137 37.4479 129.876 37.4479C129.355 37.9671 128.572 38.4864 128.051 39.0056C126.225 40.8228 125.182 42.8997 124.4 45.2361C124.4 45.4957 124.139 45.4957 124.139 45.4957C123.878 46.7938 123.617 47.8322 123.357 49.1302C123.096 51.2071 122.835 53.0243 122.835 55.1011V55.3607C123.096 62.1105 124.4 69.1199 126.225 75.61C127.529 78.4657 129.094 81.0618 131.441 83.6578C132.224 83.9174 133.267 84.4366 134.049 84.4366C135.092 84.6962 136.136 84.6962 137.179 84.4366C137.44 84.4366 137.961 84.177 138.222 84.177C139.526 83.6578 140.83 82.879 141.612 81.8406C142.656 80.2829 143.438 78.4657 144.481 76.9081C144.481 76.6484 144.481 76.6484 144.481 76.3888C145.785 70.9371 146.567 65.2258 146.567 59.7741C147.089 58.476 147.089 56.9184 146.828 55.3607ZM140.048 54.5819C139.787 57.9568 140.048 61.5913 139.787 64.9662C139.526 66.7834 139.526 68.6007 138.744 70.4179C138.483 71.7159 137.7 73.014 136.136 73.5332C132.484 74.8312 131.441 69.1199 131.18 67.3026C130.659 63.4085 131.18 59.7741 131.441 55.88C131.702 54.0627 131.702 52.2455 131.963 50.4282C132.224 48.8706 132.484 46.2745 134.31 45.2361C134.571 44.9765 134.832 44.9765 135.092 44.7169C137.44 43.6785 139.526 45.7553 140.048 47.313C140.569 49.909 140.308 52.2455 140.048 54.5819Z" fill="#A1D884"/>
<path d="M51.6379 37.7075C47.4651 37.7075 43.2924 37.9671 39.1196 37.9671C35.7293 38.2267 32.5997 37.9671 29.2093 37.9671C28.9485 40.8228 28.6878 45.2361 29.2093 49.1302C30.2525 49.1302 31.0349 49.1302 32.0781 48.8706C33.9037 48.8706 35.7293 48.611 37.5548 48.611C37.5548 48.611 37.5548 48.611 37.5548 48.8706C37.2941 60.2932 37.0333 71.9755 38.0764 83.3982C38.8588 83.3982 39.6412 83.3982 40.4236 83.3982C41.206 83.3982 41.9884 83.3982 42.7708 83.3982C42.7708 81.8405 42.7708 80.0233 42.7708 78.4657C42.7708 71.4563 43.0316 64.1873 43.0316 57.178C43.0316 54.3223 43.0316 51.4666 43.2924 48.8706C43.814 48.8706 44.3356 48.8706 44.8572 48.8706C46.1612 48.8706 50.3339 49.1302 52.1595 49.1302C52.1595 47.0533 51.8987 40.5632 51.6379 37.7075Z" fill="#A1D884"/>
<path d="M25.0365 36.4097C25.0365 36.4097 24.7757 36.4097 25.0365 36.4097C23.4717 36.4097 22.1677 36.4097 20.603 36.4097C17.7342 36.4097 14.6046 36.4097 11.7359 36.6693C7.30232 36.9289 4.43355 36.4097 0 36.6693C0 35.8905 0.260797 31.7368 0.260797 31.7368C0.782391 31.7368 1.56478 31.7368 2.08638 31.7368C3.65116 31.7368 5.47674 31.7368 7.04152 31.7368C13.5614 31.7368 24.7757 31.9964 24.7757 31.9964L25.0365 36.4097Z" fill="#A1D884"/>
<path d="M86.3238 2.14175C83.4551 -0.713917 78.7607 -0.713917 75.8919 2.14175L73.8056 4.2186L71.7192 2.14175C68.8504 -0.713917 64.1561 -0.713917 61.2873 2.14175C58.4186 4.99742 58.4186 9.67033 61.2873 12.526L68.5896 19.795C71.4584 22.6506 76.1527 22.6506 79.0215 19.795L86.3238 12.526C89.1926 9.67033 89.1926 4.99742 86.3238 2.14175Z" fill="#A1D884"/>
</svg>
