<svg width="320" height="439" fill="none" xmlns="http://www.w3.org/2000/svg"><path d="M214.598 267.199c-3.406-6.804-9.651-11.34-17.031-14.175-2.839-1.134-6.245-1.701-9.084-2.268 1.703-.567 2.839-1.701 4.542-2.835 2.838-2.268 6.245-5.103 8.516-7.938 2.27-2.835 4.541-5.67 6.245-8.505 1.703-3.402 2.838-7.371 3.406-10.773.568-3.402 0-7.371-1.136-10.773-2.838-6.804-8.515-11.907-16.464-14.742-3.406-1.134-6.244-2.268-9.651-2.835-6.812-.567-14.193-.567-21.005.567 0 7.938 0 15.876.567 24.381 1.136 29.484 2.839 58.968 3.407 88.452h3.406c5.109-1.134 10.787-1.134 16.464-1.134 2.838-.567 6.245-1.134 9.083-1.701 7.948-1.701 13.626-7.371 17.032-13.608 1.703-3.402 2.839-7.371 3.406-10.773.568-3.969 0-7.371-1.703-11.34Zm-29.521-26.082-.568-39.69c2.271.567 2.271.567 3.974 1.701 5.677 1.701 9.651 5.67 11.354 10.206 1.136 2.268 1.136 5.103 1.136 7.371-.568 2.268-1.136 5.103-2.271 7.371-1.135 2.268-2.839 3.969-3.974 6.237-1.703 1.701-3.974 3.969-6.245 5.67-1.703 0-2.271.567-3.406 1.134Zm19.87 35.721c-.568 2.268-1.136 5.103-2.271 7.371-1.135 1.701-2.839 3.969-4.542 5.67-1.703 1.701-3.974 3.969-6.245 5.103l-3.406 1.701-1.135-37.989 4.541 1.134c5.678 1.701 10.219 5.103 12.49 9.639.568 2.268 1.136 5.103.568 7.371ZM219.708 250.756c0 7.938.567 19.278 1.135 27.216v12.474c0 3.402-.568 7.371 0 10.773v.567c13.058 1.134 26.115-.567 39.173-.567 1.703-5.103 1.135-15.309 1.135-18.144h-13.057c-2.839 0-6.245.567-9.651.567-2.271 0-5.11 0-7.381.567v-25.515c2.839 0 5.677-.567 8.516-.567 2.839 0 6.245.567 9.084 0 0-5.103-.568-10.206-1.136-15.876-2.271-.567-5.109.567-7.38.567h-9.084c0-5.103-.568-15.309-.568-19.845v-1.701c.568 0 1.704 0 2.271-.567 1.703 0 3.407 0 5.11-.567 3.406 0 6.245-.567 9.651-.567 6.813-.567 3.406 0 10.219-.567h3.406c-.567-7.371-1.703-14.742-.567-22.113h-8.516c-11.355.567-22.709.567-33.496 2.268 0 7.938 0 15.876.568 23.814 0 7.938.568 20.412.568 27.783ZM143.633 210.499h6.813c-.568-6.237 0-12.474 0-18.711-1.136-.567-2.839-.567-4.542-.567-3.406 0-7.38.567-10.787.567-4.541.567-8.515.567-13.057 1.134-2.271 0-4.542 0-6.813.567-1.703 0-3.406 0-5.109.567v17.577c2.838 0 5.677-.567 8.516-1.134h3.974v13.608c0 9.072 0 18.144-.568 27.216-.568 14.175.568 22.68 0 36.288h-1.703c-2.839 0-5.11.567-7.948.567 0 1.701 0 3.402.567 5.67v13.608c2.271 0 4.542-.567 6.245-.567h6.245c2.271 0 5.11-.567 7.381-.567h11.922c1.135 0 2.271 0 3.406-.567-.568-6.237-1.135-11.907-.568-18.144h-12.49v-20.979c0-20.412-.567-35.154-.567-55.566 3.974-.567 6.245-.567 9.083-.567ZM103.325 258.694c0-.567-.567-1.134-1.135-2.268-2.839-6.804-6.245-13.041-9.651-19.278-1.704-2.835-3.975-5.67-5.678-8.505-1.703-2.835-3.406-5.67-4.541-8.505-1.704-3.402-2.271-6.237-2.271-9.639 0-.567 0-1.134.567-1.701 0-1.701 1.136-2.835 3.407-2.835 3.406 0 5.11 3.969 5.677 6.237.568 2.268.568 5.103 1.135 7.371 3.974-.567 7.38-.567 11.355-1.134v-1.134c0-6.804-.568-13.041-5.677-18.144-4.542-4.536-11.923-7.371-18.735-7.371-3.407 0-7.38 1.701-10.22 2.835-2.838 1.701-5.676 3.969-6.812 6.804-2.839 5.103-4.542 12.474-1.703 18.144 1.135 2.835 2.27 5.67 4.542 8.505 2.27 2.835 5.11 6.237 7.38 9.072 4.542 5.67 7.948 11.907 10.787 18.144 1.703 3.402 2.27 6.804 3.406 10.206.568 3.402 1.703 7.371.568 10.773-.568 2.835-2.271 5.67-5.677 6.804-3.407 1.134-6.245 0-8.516-2.268-2.839-2.268-3.974-5.103-5.11-8.505 0-1.134 0-2.835-.567-3.969-7.38.567-14.761.567-21.574.567v7.938c.568 3.402 1.703 6.237 2.839 9.072 2.838 5.67 6.813 10.773 13.057 14.742l6.813 3.402c6.813 1.134 14.193.567 21.006-1.701l10.219-6.804c3.406-6.237 5.677-12.474 6.812-19.278v-4.536c-.567-3.402-1.135-7.938-1.703-13.041Zm-11.354 35.721c0-.567 0-.567 0 0 .567-.567.567-1.134 1.135-1.134-.567 0-1.135.567-1.135 1.134ZM189.051 412.35l8.515-1.701c-.567-3.969-1.135-7.371-1.703-11.34-5.109-29.484-11.354-58.401-16.464-87.885-5.677 0-11.354 0-17.031-.567-1.703 5.67-3.407 11.907-5.11 18.144-7.948 27.216-13.625 55.566-20.438 83.917 6.245 0 12.49 1.134 18.735 2.835 0-.567 0-1.135.568-1.702 1.135-4.536 2.271-8.505 3.406-13.041 3.406-13.608 6.813-27.216 9.651-40.824 3.407 0 6.813-.567 10.787-.567 1.703 17.01 5.11 35.154 9.084 52.731Zm-15.897-76.545c1.136 6.237 2.271 11.907 3.407 18.144h-7.948c.567-1.701.567-2.835 1.135-4.536l3.406-13.608ZM288.97 408.948c0-4.536-.568-9.072-.568-13.041 0-8.505-.568-17.01-1.135-25.515-.568-9.072-.568-17.577-1.136-26.649 0-2.268-.568-4.536-.568-7.371 0-2.268 0-4.536-.567-7.371-.568-5.103 0-9.639 0-14.742 0-1.134 0-2.268-.568-3.402h-3.406c-7.948 0-15.897.567-23.277 1.134.568 7.371 1.135 14.175 1.135 21.546.568 15.876 1.136 32.319 1.704 48.195-.568-1.134-1.136-1.701-1.704-2.835-3.974-6.804-7.38-14.175-11.922-20.979-1.703-3.402-3.406-6.804-5.677-10.206-1.703-3.402-3.974-6.804-5.677-10.206-1.703-3.402-3.974-6.804-5.677-10.206-.568-1.701-1.703-3.402-2.271-5.103a5395.34 5395.34 0 0 1-1.703-3.402c0-2.268 0-3.969-.568-6.237-6.245.567-12.49.567-19.303 0-.567 7.371 0 14.742 0 21.546 1.136 27.216 2.271 54.432 3.974 82.215 5.678-.567 10.787-1.134 16.464-1.701v-5.67c0-3.969-.567-8.505-.567-12.474-.568-8.505 0-16.443-.568-24.948-.568-7.938 0-16.443 0-24.381v-7.938c1.135 2.268 2.839 5.103 3.974 7.371l10.219 18.711L249.797 384l10.219 17.01c0 5.103 0 9.639.568 14.742 5.109-.566 9.651-1.134 14.76-1.701 3.974-.567 7.381-.567 11.355-.567h1.703c1.135-1.701.568-3.402.568-4.536ZM79.481 419.722c0 .567 0 .567 0 0 2.839-.567 9.084-2.835 11.922-3.969-.568-1.701-28.954-47.061-29.521-49.329-.568-1.134-.568-1.701-1.136-2.835 0-.567-.568-1.134-.568-1.701 1.136 0 1.704 0 2.839-.567 4.542-1.134 7.948-2.268 10.787-5.103 2.838-2.268 5.11-5.103 6.812-7.938.568-1.701 1.704-3.402 1.704-5.103.567-1.701 0-3.969 0-5.67-.568-6.237-2.839-14.175-8.516-19.278-2.839-2.835-6.813-4.536-10.787-5.67-1.135-.567-2.27-.567-3.406-1.134-5.677-1.134-22.71-1.134-27.819 0v2.835c-.567 4.536 0 8.505 0 13.041v9.639c0 7.938.568 16.443.568 24.381.568 7.938.568 15.309.568 23.247.568 7.938.568 15.876.568 23.814v10.206c3.974.567 18.167 1.134 22.14 1.134 0-5.67 0-11.34.568-17.01v-25.515c0 .567.568 1.701.568 2.268 1.136 3.969 19.303 34.587 20.438 36.288 1.136 1.134 1.136 2.835 2.271 3.969Zm-23.277-61.803c0-14.175-.567-28.35-1.135-42.525 1.703.567 3.974.567 5.677 1.134 2.839 1.134 6.245 2.268 8.516 3.969 4.542 3.969 6.245 10.206 6.813 15.876 0 2.835.567 5.67-.568 8.505-1.136 2.835-2.271 5.103-4.542 6.804-2.27 2.268-4.542 3.969-7.948 4.536-1.703.567-3.406 1.134-5.11 1.134-.567.567-1.135.567-1.703.567ZM103.893 311.425c-.568 1.701 0 3.969 0 5.103 0 2.268-.568 4.536-.568 6.804v6.804c0 4.536-.567 9.072-.567 13.608 0 18.711-1.136 36.855-1.136 55.566v10.206c6.245 0 12.49-.567 19.303-1.134 0-3.969.567-7.371.567-11.34v-11.34c0-7.938.568-15.876.568-23.814.568-14.742 1.135-30.051 1.703-44.793 0-1.701.568-3.969.568-5.67-6.245-.567-13.058-.567-20.438 0ZM98.784 425.959c0 .567 0 .567-.568.567 0 1.701.568 3.969.568 5.67 2.27 2.835 5.677 4.537 9.651 6.805 5.677 0 10.787-2.836 13.625-6.805.568-3.969 1.136-7.938-.568-11.34l-1.703-1.7c-3.406-1.134-7.38-1.135-10.786-1.135-3.407 0-6.245 1.134-8.516 2.268-.568 1.134-1.136 3.402-1.703 5.67ZM2.839 133.386c0 7.938.567 15.309.567 23.247v12.474c0 3.402-.567 7.371 0 10.773v.567c13.058 1.134 26.116-.567 39.173-.567h11.355c4.541-.567 9.083-.567 13.625-.567-.568-5.67-.568-11.907-.568-17.577h-1.703c-1.135 0-2.271 0-3.406-.567h-10.22c-6.812 0-13.625-.567-20.437 0-2.839 0-6.245.567-9.652.567-2.27 0-5.11 0-7.38.567v-6.804c0-3.969.568-7.938.568-11.907v-3.402c2.838 0 5.677-.567 8.515-.567 2.84 0 6.245.567 9.084 0 0-5.103-.568-10.206-1.135-15.876-2.839.567-5.678 1.134-7.949 1.134h-9.083c0-5.103 0-9.639-.568-14.742v-1.701c.568 0 1.703 0 2.271-.567 1.703 0 3.406 0 5.11-.567 3.406 0 6.245-.567 9.65-.567 6.814-.567 13.626-.567 19.871-1.134h3.407c-.568-7.37-1.704-14.742-.568-22.113-6.245 0-11.922.567-18.167.567-11.355.567-22.71.567-33.496 2.268 0 7.938 0 15.876.568 23.814 0 8.505.568 15.876.568 23.247ZM160.665 76.119c-.568.567-1.136 1.134-1.136 1.701-.568 3.969-.568 8.505-.568 12.474v7.938c-3.406 0-6.244.567-9.651.567-3.406 0-6.812.567-10.219 1.134 0-7.938 0-15.876-.567-23.814-.568 0-1.136-.567-1.136-.567-5.677 0-11.354.567-17.032.567.568 7.938 1.136 15.876 1.136 23.247 1.135 30.051-.568 60.102-1.136 89.586 6.245 0 11.923-.567 17.6-1.701v-15.876c.568-20.979 1.135-42.525 1.135-63.504 1.136 0 2.271-.567 3.407-.567 2.27 0 3.974-.567 6.245-.567 3.406-.567 6.244-.567 9.651-1.134-.568 8.505-.568 17.01-.568 25.515v27.783c0 4.536 0 9.072-.568 13.608 0 2.268-.567 4.536-.567 6.237V186.684c1.135 0 2.27.567 2.838.567h13.058c0-2.835 0-5.103.568-7.938.567-18.711 1.703-37.422 1.703-56.7 0-15.876 0-32.319 1.135-48.195-5.677 2.268-10.787 2.268-15.328 1.701ZM264.559 177.613c0-4.536-.568-9.072-.568-13.041 0-8.505-.568-17.01-1.136-25.515-.567-9.072-.567-17.577-1.135-26.649 0-2.269-.568-4.536-.568-7.372 0-2.268 0-4.535-.567-7.37-.568-5.103 0-9.64 0-14.742 0-1.135 0-2.269-.568-3.403h-3.407c-7.948 0-15.896.567-23.276 1.135.568 7.37 1.135 14.174 1.135 21.545.568 15.877 1.136 32.32 1.703 48.196-.567-1.134-1.135-1.701-1.703-2.835-3.974-6.804-7.38-14.175-11.922-20.979-1.703-3.402-3.406-6.804-5.677-10.206-1.703-3.402-3.974-6.804-5.677-10.206-1.703-3.402-3.974-6.805-5.677-10.207-.568-1.7-1.704-3.401-2.271-5.102a5395.34 5395.34 0 0 1-1.703-3.402c0-2.268 0-3.97-.568-6.237-6.245.567-12.49.567-19.303 0-.567 7.37 0 14.742 0 21.546 1.136 27.216 2.271 54.432 3.974 82.215 5.678-.567 10.787-1.134 16.464-1.701v-5.67c0-3.969-.567-8.505-.567-12.474-.568-8.505 0-16.443-.568-24.948-.568-7.938 0-16.443 0-24.381v-7.938c1.135 2.268 2.838 5.102 3.974 7.371l10.219 18.711 10.219 18.711 10.219 17.01c0 5.103 0 9.639.567 14.742 5.11-.567 9.652-1.134 14.761-1.701 3.974-.567 7.381-.567 11.355-.567h1.703c.568-1.134.568-3.402.568-4.536ZM319.627 120.912c-.568-4.536-.568-9.072-1.703-14.175-1.136-4.536-2.271-9.072-3.974-13.608-.568-1.134-.568-1.7-1.136-2.835-2.838-3.402-6.812-6.804-10.787-9.639-2.27-.567-3.974-1.134-6.244-1.7-3.975 0-7.949 1.133-11.923 2.834h-1.135c-1.135 1.134-2.839 2.268-3.974 3.402-3.974 3.97-6.245 8.505-7.948 13.608 0 .567-.568.567-.568.567-.568 2.835-1.135 5.103-1.703 7.938-.568 4.536-1.136 8.505-1.136 13.041v.567c.568 14.742 3.407 30.051 7.381 44.226 2.838 6.237 6.245 11.907 11.354 17.577 1.703.567 3.974 1.701 5.678 1.701 2.27.567 4.541.567 6.812 0 .568 0 1.703-.567 2.271-.567 2.839-1.134 5.677-2.835 7.38-5.103 2.271-3.402 3.974-7.371 6.245-10.773v-1.134c2.839-11.907 4.542-24.381 4.542-36.288 1.136-2.835 1.136-6.237.568-9.639Zm-14.761-1.701c-.568 7.371 0 15.309-.568 22.68-.567 3.969-.567 7.938-2.271 11.907-.567 2.835-2.27 5.67-5.677 6.804-7.948 2.835-10.219-9.639-10.786-13.608-1.136-8.505 0-16.443.567-24.948.568-3.969.568-7.938 1.136-11.907.567-3.402 1.135-9.072 5.109-11.34.568-.567 1.136-.567 1.703-1.134 5.11-2.268 9.652 2.268 10.787 5.67 1.136 5.67.568 10.773 0 15.876ZM112.409 82.356c-9.083 0-18.167.567-27.25.567-7.38.567-14.193 0-21.574 0-.568 6.237-1.135 15.876 0 24.381 2.271 0 3.974 0 6.245-.567 3.974 0 7.948-.567 11.922-.567v.567c-.567 24.948-1.135 50.463 1.136 75.411H93.107v-10.773c0-15.309.567-31.185.567-46.494 0-6.237 0-12.474.568-18.144h3.406c2.839 0 11.923.567 15.897.567 0-4.536-.568-18.71-1.136-24.948ZM54.501 79.521s-.567 0 0 0H44.85c-6.245 0-13.058 0-19.303.567-9.65.567-15.896-.567-25.547 0 0-1.7.568-10.773.568-10.773H15.329c14.192 0 38.605.567 38.605.567l.567 9.64ZM187.915 4.678c-6.245-6.237-16.464-6.237-22.708 0l-4.542 4.536-4.542-4.536c-6.245-6.237-16.464-6.237-22.709 0-6.245 6.237-6.245 16.443 0 22.68l15.896 15.876c6.245 6.237 16.464 6.237 22.709 0l15.896-15.876c6.245-6.237 6.245-16.443 0-22.68Z" fill="#A1D884"/></svg>