<svg width="645" height="283" viewBox="0 0 645 283" fill="none" xmlns="http://www.w3.org/2000/svg">
<g clip-path="url(#clip0_479_1491)">
<path d="M644.611 0H0V283H644.611V0Z" fill="#005BFF"/>
<path d="M285.478 165.317H246.861L296.162 100.156C297.237 98.725 296.938 96.6384 295.506 95.5653C294.968 95.148 294.252 94.9095 293.536 94.9095H222.211C215.944 94.9095 210.811 100.037 210.811 106.296C210.811 112.556 215.944 117.683 222.211 117.683H254.262L204.783 182.904C203.649 184.334 203.947 186.361 205.379 187.494C205.976 187.971 206.693 188.21 207.409 188.15H285.419C291.686 187.852 296.52 182.486 296.222 176.167C295.923 170.325 291.268 165.674 285.419 165.376V165.317H285.478ZM534.728 94.9095C528.461 94.9095 523.328 100.037 523.328 106.296V144.511L461.732 95.6846C460.359 94.5518 458.27 94.7307 457.136 96.1615C456.658 96.7577 456.42 97.4731 456.42 98.2481V176.763C456.42 183.023 461.553 188.15 467.82 188.15C474.087 188.15 479.22 183.083 479.22 176.763V138.549L540.816 187.435C542.248 188.567 544.338 188.329 545.472 186.898C545.949 186.302 546.188 185.586 546.188 184.871V106.296C546.128 99.977 541.055 94.9095 534.728 94.9095ZM371.725 167.463C345.642 167.463 326.184 153.751 326.184 141.47C326.184 129.189 345.702 115.477 371.725 115.477C397.808 115.477 417.266 129.189 417.266 141.47C417.266 153.751 397.868 167.463 371.725 167.463ZM371.725 92.7037C334.003 92.7037 303.384 114.523 303.384 141.47C303.384 168.417 334.003 190.236 371.725 190.236C409.447 190.236 440.066 168.417 440.066 141.47C440.066 114.523 409.447 92.7037 371.725 92.7037ZM147.364 167.523C132.98 167.523 121.282 155.897 121.282 141.53C121.282 127.162 132.92 115.477 147.305 115.477C161.689 115.477 173.388 127.103 173.388 141.47V141.53C173.388 155.838 161.749 167.463 147.364 167.523ZM147.364 92.7037C120.386 92.7037 98.5411 114.523 98.4814 141.47C98.4814 168.417 120.327 190.237 147.305 190.296C174.283 190.296 196.128 168.476 196.188 141.53V141.47C196.128 114.523 174.283 92.7037 147.364 92.7037Z" fill="white"/>
</g>
<defs>
<clipPath id="clip0_479_1491">
<rect width="644.611" height="283" fill="white"/>
</clipPath>
</defs>
</svg>
