<svg width="214" height="15" viewBox="0 0 214 15" fill="none" xmlns="http://www.w3.org/2000/svg">
<path d="M207.338 1.2339C201.611 1.87674 195.708 1.5261 189.923 1.5261C181.39 1.5261 181.332 13.5647 189.923 13.5647C195.65 13.5647 201.611 13.9738 207.338 13.2725C210.903 12.8635 214 10.8181 214 7.25322C213.942 4.33122 210.903 0.824819 207.338 1.2339Z" fill="#333F48"/>
<path d="M171.163 1.23437C162.631 1.23437 162.573 13.273 171.163 13.273C179.696 13.273 179.696 1.23438 171.163 1.23437Z" fill="#333F48"/>
<path d="M154.509 0.942443C147.32 1.40996 140.074 0.942443 132.886 0.942442C124.354 0.942442 124.295 12.9811 132.886 12.9811C140.074 12.9811 147.32 13.4486 154.509 12.9811C163.041 12.5136 163.099 0.416483 154.509 0.942443Z" fill="#333F48"/>
<path d="M116.23 1.46875C107.698 1.46875 107.639 13.5074 116.23 13.5074C124.821 13.5658 124.821 1.46875 116.23 1.46875Z" fill="#333F48"/>
<path d="M98.9914 1.76061C92.9721 1.81905 86.3684 3.10472 80.3491 1.99436C71.9921 0.416481 68.4273 12.0461 76.8427 13.6239C84.1477 15.0265 91.5696 13.9161 98.9914 13.8577C107.524 13.7408 107.524 1.64373 98.9914 1.76061Z" fill="#333F48"/>
<path d="M61.3557 2.28711C52.8235 2.28711 52.765 14.3258 61.3557 14.3258C69.8879 14.3258 69.8879 2.28711 61.3557 2.28711Z" fill="#333F48"/>
<path d="M44.4075 2.28612C37.3947 2.28612 30.3818 1.99392 23.369 2.28612C14.8368 2.63676 14.7784 14.7338 23.369 14.3248C30.3818 14.0326 37.3947 14.3248 44.4075 14.3248C52.9397 14.3832 52.9397 2.28612 44.4075 2.28612Z" fill="#333F48"/>
<path d="M6.42166 2.8125C-2.11059 2.8125 -2.16903 14.8511 6.42165 14.8511C14.9539 14.8511 15.0123 2.8125 6.42166 2.8125Z" fill="#333F48"/>
</svg>
