<svg width="285" height="286" viewBox="0 0 285 286" fill="none" xmlns="http://www.w3.org/2000/svg">
<rect width="285" height="285" transform="translate(0 0.925781)" fill="#DDDDDD"/>
<path d="M51.2539 199.88C51.2539 199.88 51.4831 197.511 51.5595 196.977C53.0873 188.574 61.5664 181.546 72.4136 179.713L96.5524 175.512C100.677 174.518 104.497 173.449 107.705 172.532C114.274 170.623 119.087 166.192 120.386 160.998C122.754 151.373 120.462 146.637 120.462 146.637" stroke="#333F48" stroke-width="2" stroke-miterlimit="10"/>
<path d="M141.927 158.781C138.872 158.781 135.74 157.941 133.295 156.261C128.024 152.365 121.379 146.254 117.025 141.518C113.663 137.851 111.295 133.42 110.15 128.532C108.775 122.955 108.163 114.171 107.705 106.379" stroke="#333F48" stroke-width="2" stroke-miterlimit="10"/>
<path d="M233.746 199.88C233.746 199.88 233.517 197.511 233.441 196.977C231.913 188.574 223.434 181.546 212.587 179.713L188.448 175.512C184.323 174.518 180.503 173.449 177.295 172.532C170.726 170.623 165.913 166.192 164.615 160.998C162.247 151.373 164.538 146.637 164.538 146.637" stroke="#333F48" stroke-width="2" stroke-miterlimit="10"/>
<path d="M143.149 158.781C146.205 158.781 149.337 157.941 151.781 156.261C157.052 152.365 163.698 146.254 168.052 141.518C171.413 137.851 173.781 133.42 174.927 128.532C176.302 122.955 176.913 114.171 177.372 106.379" stroke="#333F48" stroke-width="2" stroke-miterlimit="10"/>
<path d="M101.9 103.781C101.9 103.781 96.8579 107.142 99.3787 116.233C101.9 125.323 105.49 124.559 105.49 124.559" stroke="#333F48" stroke-width="2" stroke-miterlimit="10"/>
<path d="M182.337 103.096C182.337 103.096 187.303 106.533 184.629 115.623C181.955 124.637 178.441 123.873 178.441 123.873" stroke="#333F48" stroke-width="2" stroke-miterlimit="10"/>
<path d="M151.017 98.0543C151.247 98.5127 151.705 98.6655 152.163 98.5127C155.677 97.2905 160.413 95.7627 163.01 96.4502C164.462 96.8321 167.059 98.1307 168.587 98.8182C168.969 99.0474 169.427 98.5891 169.198 98.1308C167.746 95.1516 164.767 93.7766 162.934 93.6238C162.934 93.6238 158.656 93.0891 151.247 96.1446C150.712 96.3738 150.483 96.9849 150.788 97.4433L151.017 98.0543Z" fill="#333F48"/>
<path d="M133.295 97.3652C133.065 97.8235 132.531 97.9763 132.072 97.8235C128.482 96.5249 123.593 94.8443 120.92 95.5318C119.392 95.9138 116.718 97.136 115.19 97.8999C114.732 98.129 114.35 97.6707 114.503 97.2123C116.107 94.1568 119.163 92.8582 121.072 92.7054C121.072 92.7054 125.503 92.2471 133.065 95.5318C133.6 95.761 133.829 96.3721 133.524 96.9068L133.295 97.3652Z" fill="#333F48"/>
<path d="M117.865 108.212L118.476 108.135C119.087 108.059 119.622 108.212 120.081 108.594C120.157 108.67 120.233 108.747 120.31 108.747C120.997 109.205 121.608 109.51 122.449 109.892C124.282 110.656 128.254 112.872 132.837 107.906" stroke="#333F48" stroke-width="2" stroke-miterlimit="10"/>
<path d="M167.517 106.379H166.906C166.295 106.379 165.76 106.684 165.378 107.143C165.302 107.219 165.225 107.296 165.149 107.372C164.538 107.907 163.927 108.365 163.163 108.823C161.482 109.816 157.892 112.643 152.621 108.441" stroke="#333F48" stroke-width="2" stroke-miterlimit="10"/>
<path d="M109.004 180.4L131.539 185.06C131.539 185.06 135.282 185.977 135.511 188.727" stroke="#333F48" stroke-width="2" stroke-miterlimit="10"/>
<path d="M181.114 181.012L158.351 185.137C158.351 185.137 154.531 185.977 154.226 188.651" stroke="#333F48" stroke-width="2" stroke-miterlimit="10"/>
<path d="M140.629 63.9082C140.629 63.9082 109.692 77.0471 104.039 102.026" stroke="#333F48" stroke-width="2" stroke-miterlimit="10"/>
<path d="M144.372 63.9844C144.372 63.9844 170.039 77.1233 180.504 100.804" stroke="#333F48" stroke-width="2" stroke-miterlimit="10"/>
<path d="M142.997 50.8457L143.073 61.7692" stroke="#333F48" stroke-width="2" stroke-miterlimit="10"/>
<path d="M141.24 43.1295C141.24 43.1295 125.733 40.5322 113.587 56.3447C105.414 66.8863 97.9277 87.4349 98.6152 103.095" stroke="#333F48" stroke-width="2" stroke-miterlimit="10"/>
<path d="M144.372 43.1291C144.372 43.1291 161.712 40.3791 174.316 57.7957C182.032 68.4901 187.532 90.7192 186.309 105.462" stroke="#333F48" stroke-width="2" stroke-miterlimit="10"/>
<path d="M103.428 96.9834C103.428 96.9834 109.539 71.2404 125.504 62.9141" stroke="#333F48" stroke-width="2" stroke-miterlimit="10"/>
<path d="M136.504 124.255C136.504 124.255 139.101 123.567 139.712 125.935" stroke="#333F48" stroke-width="2" stroke-miterlimit="10"/>
<path d="M144.982 125.552C144.982 125.552 145.288 124.025 147.732 123.566" stroke="#333F48" stroke-width="2" stroke-miterlimit="10"/>
<path d="M147.275 140.908C143.609 142.283 136.81 141.596 135.588 141.061" stroke="#333F48" stroke-width="2" stroke-miterlimit="10"/>
<path d="M131.309 138.539C134.441 136.934 137.649 134.566 141.621 138.08C141.621 138.08 142.767 136.629 145.364 136.629C146.968 136.629 148.649 138.309 151.781 138.615" stroke="#333F48" stroke-width="2" stroke-miterlimit="10"/>
<path d="M134.136 144.651C135.74 145.644 138.261 146.637 141.927 146.332C144.525 146.103 146.434 145.262 147.886 144.346" stroke="#333F48" stroke-width="2" stroke-miterlimit="10"/>
<path d="M80.8183 222.081H92.8183V238.881H89.1223V225.417H84.2743V226.689C84.2743 229.969 84.0743 232.513 83.6743 234.321C83.2903 236.129 82.7223 237.377 81.9703 238.065C81.2183 238.753 80.1703 239.097 78.8263 239.097C78.0743 239.097 77.4263 239.025 76.8823 238.881L77.1223 235.833C77.3463 235.865 77.5383 235.881 77.6983 235.881C78.2423 235.881 78.6823 235.769 79.0183 235.545C79.3703 235.305 79.6903 234.833 79.9783 234.129C80.2823 233.425 80.4983 232.377 80.6263 230.985C80.7543 229.577 80.8183 227.769 80.8183 225.561V222.081ZM108.436 226.017V238.881H104.908V231.393L99.8921 238.881H96.4601V226.017H99.9881V233.529L105.004 226.017H108.436ZM121.631 241.905V238.881H111.695V226.017H115.343V235.761H119.735V226.017H123.383V235.761H125.135L124.703 241.905H121.631ZM138.396 237.225C137.068 238.521 135.412 239.169 133.428 239.169C131.444 239.169 129.788 238.529 128.46 237.249C127.148 235.953 126.492 234.361 126.492 232.473C126.492 230.601 127.156 229.017 128.484 227.721C129.828 226.425 131.492 225.777 133.476 225.777C135.46 225.777 137.108 226.425 138.42 227.721C139.748 229.001 140.412 230.585 140.412 232.473C140.412 234.345 139.74 235.929 138.396 237.225ZM133.476 236.025C134.484 236.025 135.292 235.689 135.9 235.017C136.508 234.329 136.812 233.481 136.812 232.473C136.812 231.497 136.492 230.665 135.852 229.977C135.228 229.273 134.42 228.921 133.428 228.921C132.42 228.921 131.612 229.265 131.004 229.953C130.396 230.625 130.092 231.465 130.092 232.473C130.092 233.449 130.404 234.289 131.028 234.993C131.668 235.681 132.484 236.025 133.476 236.025ZM153.321 242.793C152.169 242.793 151.089 242.497 150.081 241.905L151.305 239.265C151.865 239.601 152.385 239.769 152.865 239.769C153.441 239.769 153.865 239.489 154.137 238.929L149.097 226.017H152.961L155.889 234.777L158.697 226.017H162.489L157.545 239.193C157.049 240.521 156.489 241.449 155.865 241.977C155.241 242.521 154.393 242.793 153.321 242.793ZM163.56 238.881L168.072 232.353L163.728 226.017H167.64L170.04 229.761L172.464 226.017H176.28L171.936 232.281L176.472 238.881H172.56L169.968 234.873L167.376 238.881H163.56ZM189.935 237.225C188.607 238.521 186.951 239.169 184.967 239.169C182.983 239.169 181.327 238.529 179.999 237.249C178.687 235.953 178.031 234.361 178.031 232.473C178.031 230.601 178.695 229.017 180.023 227.721C181.367 226.425 183.031 225.777 185.015 225.777C186.999 225.777 188.647 226.425 189.959 227.721C191.287 229.001 191.951 230.585 191.951 232.473C191.951 234.345 191.279 235.929 189.935 237.225ZM185.015 236.025C186.023 236.025 186.831 235.689 187.439 235.017C188.047 234.329 188.351 233.481 188.351 232.473C188.351 231.497 188.031 230.665 187.391 229.977C186.767 229.273 185.959 228.921 184.967 228.921C183.959 228.921 183.151 229.265 182.543 229.953C181.935 230.625 181.631 231.465 181.631 232.473C181.631 233.449 181.943 234.289 182.567 234.993C183.207 235.681 184.023 236.025 185.015 236.025ZM198.289 235.761H202.681V229.137H199.249V229.425C199.217 232.193 198.897 234.305 198.289 235.761ZM204.577 238.881H196.513L196.249 241.905H193.177V235.761H194.569C195.401 233.985 195.817 231.105 195.817 227.121V226.017H206.329V235.761H208.081L207.649 241.905H204.577V238.881Z" fill="#333F48"/>
</svg>
