<svg width="285" height="286" viewBox="0 0 285 286" fill="none" xmlns="http://www.w3.org/2000/svg">
<rect width="285" height="285" transform="translate(0 0.925781)" fill="#DDDDDD"/>
<path d="M74.8467 144.611C74.8467 144.611 75.6574 144.124 69.5772 149.556C66.0912 153.285 63.0105 158.798 59.1191 161.717" stroke="#333F48" stroke-width="2" stroke-miterlimit="10"/>
<path d="M73.4691 117.291C73.4691 117.291 57.0119 130.343 45.5 148.665" stroke="#333F48" stroke-width="2" stroke-miterlimit="10"/>
<path d="M76.4688 116.48L93.8177 109.994" stroke="#333F48" stroke-width="2" stroke-miterlimit="10"/>
<path d="M80.7656 122.074L97.7903 120.534C97.7903 120.534 97.7903 120.534 97.8713 120.534C100.06 120.371 101.601 122.641 100.79 124.668C100.06 126.371 98.7631 127.668 97.0606 128.397" stroke="#333F48" stroke-width="2" stroke-miterlimit="10"/>
<path d="M80.6846 129.856L96.3311 128.721C96.3311 128.721 96.8985 128.964 97.6282 129.288C99.2496 130.018 99.736 132.126 98.5199 133.423C96.8985 135.125 94.1422 135.936 92.1154 135.612L80.8467 135.855" stroke="#333F48" stroke-width="2" stroke-miterlimit="10"/>
<path d="M74.8477 144.611L90.9805 143.071C90.9805 143.071 90.9805 143.071 91.0616 143.071C93.9801 142.909 95.7636 139.585 94.0612 137.234C93.4937 136.423 92.683 135.855 91.548 135.693" stroke="#333F48" stroke-width="2" stroke-miterlimit="10"/>
<path d="M96.3311 110.156L110.113 116.318C110.113 116.318 107.843 123.29 99.0063 118.02" stroke="#333F48" stroke-width="2" stroke-miterlimit="10"/>
<path d="M74.6855 157.907L85.1435 149.557C87.0892 147.854 89.6834 146.962 92.0345 148.097L115.626 154.259L147.243 181.66C147.243 181.66 148.378 183.038 150.243 185.471L158.35 194.794" stroke="#333F48" stroke-width="2" stroke-miterlimit="10"/>
<path d="M102.654 157.988L85.143 155.475C84.008 155.313 82.792 155.475 81.7381 155.961L65.7673 160.582C63.9838 161.069 63.9838 163.663 65.7673 164.149C66.9834 164.555 68.7669 164.798 71.3611 164.717C75.4146 164.717 83.1973 163.339 83.1973 163.339L99.087 164.555" stroke="#333F48" stroke-width="2" stroke-miterlimit="10"/>
<path d="M65.4434 166.5C65.4434 166.5 65.8487 170.472 72.2532 170.472C78.5767 170.472 84.0084 170.148 84.0084 170.148L97.7091 174.283" stroke="#333F48" stroke-width="2" stroke-miterlimit="10"/>
<path d="M100.951 182.551C100.951 182.551 114.328 189.928 121.3 193.495L125.191 200.224" stroke="#333F48" stroke-width="2" stroke-miterlimit="10"/>
<path d="M73.1445 171.852C73.1445 171.852 73.8742 176.554 80.0355 176.635C86.1968 176.716 89.926 177.932 89.926 177.932L97.1412 180.607" stroke="#333F48" stroke-width="2" stroke-miterlimit="10"/>
<path d="M209.829 124.426C209.829 124.426 205.614 126.452 190.859 130.263C178.374 133.424 179.671 137.478 179.671 137.478" stroke="#333F48" stroke-width="2" stroke-miterlimit="10"/>
<path d="M174.319 134.558C174.319 134.558 172.05 130.424 168.158 130.991" stroke="#333F48" stroke-width="2" stroke-miterlimit="10"/>
<path d="M135.163 128.234C139.946 182.632 226.285 166.175 230.339 130.991" stroke="#333F48" stroke-width="2" stroke-miterlimit="10"/>
<path d="M158.269 67.0261C151.621 69.5392 150.891 65.4858 150.972 63.1348" stroke="#333F48" stroke-width="2" stroke-miterlimit="10"/>
<path d="M211.044 70.6758C208.774 79.2692 214.53 108.13 225.637 119.075C230.177 123.614 233.176 127.019 239.5 129.533" stroke="#333F48" stroke-width="2" stroke-miterlimit="10"/>
<path d="M167.104 98.3203C169.699 104.968 168.402 108.13 165.726 110.4C161.186 114.291 156.322 116.075 146.675 119.236" stroke="#333F48" stroke-width="2" stroke-miterlimit="10"/>
<path d="M193.939 79.1892C193.939 79.1892 202.452 71.7308 204.073 64.8398" stroke="#333F48" stroke-width="2" stroke-miterlimit="10"/>
<path d="M164.104 61.7578C164.104 61.7578 166.293 63.0549 165.807 65.0006" stroke="#333F48" stroke-width="2" stroke-miterlimit="10"/>
<path d="M191.912 81.3774C181.454 92.565 174.157 95.3214 170.104 96.5374C160.457 99.537 152.674 90.6194 147.323 84.7013C141.567 78.4589 135.73 71.8112 131.434 57.7051" stroke="#333F48" stroke-width="2" stroke-miterlimit="10"/>
<path d="M166.537 77.5664C162.889 80.3228 155.593 80.0796 154.215 79.35" stroke="#333F48" stroke-width="2" stroke-miterlimit="10"/>
<path d="M175.536 72.7012C173.347 76.1872 169.78 76.9979 167.186 77.2412" stroke="#333F48" stroke-width="2" stroke-miterlimit="10"/>
<path d="M152.674 75.0524C153.971 73.7553 156.403 72.215 158.997 74.4849C158.997 74.4849 160.132 72.9446 162.889 72.7013C164.591 72.5392 167.753 73.8363 171.563 74.7281" stroke="#333F48" stroke-width="2" stroke-miterlimit="10"/>
<path d="M156.079 84.7822C157.457 85.8361 159.727 86.9711 162.97 86.6469C165.24 86.4037 166.942 85.5929 168.159 84.7012" stroke="#333F48" stroke-width="2" stroke-miterlimit="10"/>
<path d="M154.215 79.3493C154.215 79.3493 150.648 78.8628 147.973 76.3496" stroke="#333F48" stroke-width="2" stroke-miterlimit="10"/>
<path d="M104.033 111.858L134.272 50.002" stroke="#333F48" stroke-width="2" stroke-miterlimit="10"/>
<path d="M119.273 56.1621C117.895 61.5938 79.7112 109.506 78.1709 115.019" stroke="#333F48" stroke-width="2" stroke-miterlimit="10"/>
<path d="M114.977 132.207L142.865 122.479" stroke="#333F48" stroke-width="2" stroke-miterlimit="10"/>
<path d="M152.674 123.775L164.105 128.234" stroke="#333F48" stroke-width="2" stroke-miterlimit="10"/>
<path d="M218.016 41.4902C218.178 42.6252 218.34 43.9224 218.503 45.3006C219.475 57.5421 209.504 61.1092 209.504 61.1092" stroke="#333F48" stroke-width="2" stroke-miterlimit="10"/>
<path d="M206.018 43.5977C204.477 49.84 213.557 46.9215 207.558 53.5692" stroke="#333F48" stroke-width="2" stroke-miterlimit="10"/>
<path d="M70.7129 171.852C71.5236 179.391 73.7125 187.579 78.7388 194.956" stroke="#333F48" stroke-width="2" stroke-miterlimit="10"/>
<path d="M72.9017 146.637C72.9017 146.637 71.6046 150.204 70.875 157.257" stroke="#333F48" stroke-width="2" stroke-miterlimit="10"/>
<path d="M224.988 41.4902C224.988 41.4902 241.445 98.0769 230.339 117.696" stroke="#333F48" stroke-width="2" stroke-miterlimit="10"/>
<path d="M137.433 78.0527C137.433 78.0527 131.028 115.507 131.515 120.939" stroke="#333F48" stroke-width="2" stroke-miterlimit="10"/>
<path d="M227.421 111.858C227.421 111.858 230.339 82.9158 222.07 57.8652" stroke="#333F48" stroke-width="2" stroke-miterlimit="10"/>
<path d="M78.2525 177.932C78.2525 177.932 77.3607 197.307 82.8735 201.361L84.8192 179.391" stroke="#333F48" stroke-width="2" stroke-miterlimit="10"/>
<path d="M90.9797 143.152C90.9797 143.152 90.4122 146.476 89.9258 147.692" stroke="#333F48" stroke-width="2" stroke-miterlimit="10"/>
<path d="M61.9691 240.361V223.561H69.7691C71.7051 223.561 73.1691 224.057 74.1611 225.049C74.9291 225.817 75.3131 226.785 75.3131 227.953C75.3131 229.537 74.5771 230.745 73.1051 231.577C74.1451 231.977 74.9291 232.505 75.4571 233.161C75.9851 233.801 76.2491 234.665 76.2491 235.753C76.2491 237.257 75.6891 238.401 74.5691 239.185C73.4491 239.969 71.9131 240.361 69.9611 240.361H61.9691ZM65.5691 230.353H68.9771C70.7531 230.353 71.6411 229.745 71.6411 228.529C71.6411 227.969 71.4331 227.545 71.0171 227.257C70.6011 226.953 70.0011 226.801 69.2171 226.801H65.5691V230.353ZM65.5691 237.121H69.9611C71.7051 237.121 72.5771 236.497 72.5771 235.249C72.5771 234.033 71.6651 233.425 69.8411 233.425H65.5691V237.121ZM90.1854 238.705C88.8574 240.001 87.2014 240.649 85.2174 240.649C83.2334 240.649 81.5774 240.009 80.2494 238.729C78.9374 237.433 78.2814 235.841 78.2814 233.953C78.2814 232.081 78.9454 230.497 80.2734 229.201C81.6174 227.905 83.2814 227.257 85.2654 227.257C87.2494 227.257 88.8974 227.905 90.2094 229.201C91.5374 230.481 92.2014 232.065 92.2014 233.953C92.2014 235.825 91.5294 237.409 90.1854 238.705ZM85.2654 237.505C86.2734 237.505 87.0814 237.169 87.6894 236.497C88.2974 235.809 88.6014 234.961 88.6014 233.953C88.6014 232.977 88.2814 232.145 87.6414 231.457C87.0174 230.753 86.2094 230.401 85.2174 230.401C84.2094 230.401 83.4014 230.745 82.7934 231.433C82.1854 232.105 81.8814 232.945 81.8814 233.953C81.8814 234.929 82.1934 235.769 82.8174 236.473C83.4574 237.161 84.2734 237.505 85.2654 237.505ZM96.3789 227.497H106.723V240.361H103.075V230.617H99.8109C99.8109 232.313 99.7469 233.745 99.6189 234.913C99.4909 236.081 99.3149 237.033 99.0909 237.769C98.8669 238.505 98.5549 239.073 98.1549 239.473C97.7549 239.873 97.3229 240.145 96.8589 240.289C96.3949 240.433 95.8189 240.505 95.1309 240.505C94.4749 240.505 93.8589 240.433 93.2829 240.289L93.5229 237.337C93.8109 237.385 94.0669 237.409 94.2909 237.409C94.6749 237.409 94.9789 237.321 95.2029 237.145C95.4269 236.953 95.6349 236.537 95.8269 235.897C96.0349 235.241 96.1789 234.241 96.2589 232.897C96.3389 231.537 96.3789 229.737 96.3789 227.497ZM121.264 238.705C119.936 240.001 118.28 240.649 116.296 240.649C114.312 240.649 112.656 240.009 111.328 238.729C110.016 237.433 109.36 235.841 109.36 233.953C109.36 232.081 110.024 230.497 111.352 229.201C112.696 227.905 114.36 227.257 116.344 227.257C118.328 227.257 119.976 227.905 121.288 229.201C122.616 230.481 123.28 232.065 123.28 233.953C123.28 235.825 122.608 237.409 121.264 238.705ZM116.344 237.505C117.352 237.505 118.16 237.169 118.768 236.497C119.376 235.809 119.68 234.961 119.68 233.953C119.68 232.977 119.36 232.145 118.72 231.457C118.096 230.753 117.288 230.401 116.296 230.401C115.288 230.401 114.48 230.745 113.872 231.433C113.264 232.105 112.96 232.945 112.96 233.953C112.96 234.929 113.272 235.769 113.896 236.473C114.536 237.161 115.352 237.505 116.344 237.505ZM131.993 240.649C130.073 240.649 128.473 240.001 127.193 238.705C125.929 237.409 125.297 235.825 125.297 233.953C125.297 232.097 125.937 230.521 127.217 229.225C128.497 227.913 130.105 227.257 132.041 227.257C134.105 227.257 135.809 228.009 137.153 229.513L135.017 231.673C134.121 230.825 133.121 230.401 132.017 230.401C131.121 230.401 130.377 230.745 129.785 231.433C129.193 232.121 128.897 232.961 128.897 233.953C128.897 234.961 129.193 235.809 129.785 236.497C130.393 237.169 131.185 237.505 132.161 237.505C133.169 237.505 134.153 237.049 135.113 236.137L137.249 238.297C136.545 239.065 135.793 239.649 134.993 240.049C134.193 240.449 133.193 240.649 131.993 240.649ZM139.632 240.361V227.497H143.28V231.745H145.92C147.472 231.745 148.712 232.105 149.64 232.825C150.584 233.545 151.056 234.601 151.056 235.993C151.056 237.353 150.616 238.425 149.736 239.209C148.872 239.977 147.664 240.361 146.112 240.361H139.632ZM145.56 234.505H143.28V237.481H145.584C146.784 237.481 147.384 236.969 147.384 235.945C147.384 235.497 147.224 235.145 146.904 234.889C146.6 234.633 146.152 234.505 145.56 234.505ZM152.76 240.361V227.497H156.408V240.361H152.76ZM169.938 244.273C168.786 244.273 167.706 243.977 166.698 243.385L167.922 240.745C168.482 241.081 169.002 241.249 169.482 241.249C170.058 241.249 170.482 240.969 170.754 240.409L165.714 227.497H169.578L172.506 236.257L175.314 227.497H179.106L174.162 240.673C173.666 242.001 173.106 242.929 172.482 243.457C171.858 244.001 171.01 244.273 169.938 244.273ZM180.177 240.361L184.689 233.833L180.345 227.497H184.257L186.657 231.241L189.081 227.497H192.897L188.553 233.761L193.089 240.361H189.177L186.585 236.353L183.993 240.361H180.177ZM206.553 238.705C205.225 240.001 203.569 240.649 201.585 240.649C199.601 240.649 197.945 240.009 196.617 238.729C195.305 237.433 194.649 235.841 194.649 233.953C194.649 232.081 195.313 230.497 196.641 229.201C197.985 227.905 199.649 227.257 201.633 227.257C203.617 227.257 205.265 227.905 206.577 229.201C207.905 230.481 208.569 232.065 208.569 233.953C208.569 235.825 207.897 237.409 206.553 238.705ZM201.633 237.505C202.641 237.505 203.449 237.169 204.057 236.497C204.665 235.809 204.969 234.961 204.969 233.953C204.969 232.977 204.649 232.145 204.009 231.457C203.385 230.753 202.577 230.401 201.585 230.401C200.577 230.401 199.769 230.745 199.161 231.433C198.553 232.105 198.249 232.945 198.249 233.953C198.249 234.929 198.561 235.769 199.185 236.473C199.825 237.161 200.641 237.505 201.633 237.505ZM214.906 237.241H219.298V230.617H215.866V230.905C215.834 233.673 215.514 235.785 214.906 237.241ZM221.194 240.361H213.13L212.866 243.385H209.794V237.241H211.186C212.018 235.465 212.434 232.585 212.434 228.601V227.497H222.946V237.241H224.698L224.266 243.385H221.194V240.361Z" fill="#333F48"/>
</svg>
