<svg width="285" height="286" viewBox="0 0 285 286" fill="none" xmlns="http://www.w3.org/2000/svg">
<rect width="285" height="285" transform="translate(0 0.925781)" fill="#DDDDDD"/>
<path d="M165.588 68.6465C165.588 68.6465 162.928 76.3825 168.005 76.2214" stroke="#353847" stroke-width="2" stroke-miterlimit="10"/>
<path d="M133.435 82.4258C133.435 82.4258 133.515 90.5647 138.27 88.7919" stroke="#353847" stroke-width="2" stroke-miterlimit="10"/>
<path d="M148.746 78.4766C148.746 78.4766 147.94 86.8573 152.695 85.0845" stroke="#353847" stroke-width="2" stroke-miterlimit="10"/>
<path d="M116.754 126.908C116.754 126.908 121.589 133.597 116.593 134.805" stroke="#353847" stroke-width="2" stroke-miterlimit="10"/>
<path d="M143.265 35.9297C143.265 35.9297 144.151 43.3434 139.639 42.4569" stroke="#353847" stroke-width="2" stroke-miterlimit="10"/>
<path d="M126.504 29.5625C126.504 29.5625 127.391 36.9762 122.878 36.0898" stroke="#353847" stroke-width="2" stroke-miterlimit="10"/>
<path d="M112.564 41.8125C112.564 41.8125 113.45 49.2263 108.938 48.3399" stroke="#353847" stroke-width="2" stroke-miterlimit="10"/>
<path d="M96.6887 60.668C96.6887 60.668 97.978 68.0817 93.3848 67.3564" stroke="#353847" stroke-width="2" stroke-miterlimit="10"/>
<path d="M157.288 88.3893L158.013 84.4406C158.013 84.4406 158.255 72.6755 163.735 67.357C165.749 65.4229 169.134 66.7123 169.295 69.4521L170.262 88.8727L168.247 101.202" stroke="#353847" stroke-width="2" stroke-miterlimit="10"/>
<path d="M95.6409 96.0449C95.6409 96.0449 101.04 118.044 101.04 119.253C101.04 120.462 104.424 139.479 107.406 144.395L90 186.218" stroke="#353847" stroke-width="2" stroke-miterlimit="10"/>
<path d="M145.28 75.7378L144.555 64.9396C144.555 64.9396 147.939 45.1159 144.474 37.3799C143.99 36.3323 142.943 35.5265 141.734 35.6071C140.445 35.6877 138.914 36.5741 138.591 40.4421C137.947 47.5335 134.24 63.5696 134.24 63.5696C134.24 63.5696 133.676 80.7339 134.079 80.7339" stroke="#353847" stroke-width="2" stroke-miterlimit="10"/>
<path d="M131.42 81.136L129.808 67.598L129.888 53.1736C129.888 53.1736 130.775 43.1005 130.372 36.0898C130.211 32.7858 129.083 30.6101 127.954 29.2402C126.826 27.7897 124.409 28.1926 123.764 29.8849C123.039 31.8189 122.152 35.1228 121.669 40.5219C120.541 52.3677 119.896 58.1697 119.896 58.1697L119.493 93.6265" stroke="#353847" stroke-width="2" stroke-miterlimit="10"/>
<path d="M118.849 86.2119L114.417 65.2602L114.981 52.3668C115.464 47.3706 114.336 43.9055 113.127 41.7297C112.402 40.4404 110.468 40.6016 109.985 41.9715C109.259 43.9861 108.292 47.29 107.325 52.5279C105.311 63.2455 105.472 70.8204 105.472 70.8204L108.051 100.475" stroke="#353847" stroke-width="2" stroke-miterlimit="10"/>
<path d="M106.197 94.6739C106.197 94.6739 101.201 81.8611 100.959 81.5387C100.718 81.1358 100.879 75.8979 100.154 69.1289C99.7507 65.2608 98.2196 62.521 96.9303 60.9094C96.2856 60.1035 94.9157 60.3453 94.6739 61.3928C93.9487 64.6968 92.6593 70.7406 92.6593 72.594C92.6593 75.1727 92.0146 78.396 92.0146 78.396L95.1574 94.4321" stroke="#353847" stroke-width="2" stroke-miterlimit="10"/>
<path d="M117.48 138.27L114.981 127.069C114.981 126.908 122.315 119.897 130.131 143.186C131.582 147.456 133.516 153.984 137.625 156.562C142.702 159.705 143.911 146.167 144.233 139.318L141.171 112.725C140.124 110.71 131.904 94.6742 131.098 92.9014C127.955 85.81 131.985 78.5575 134.724 82.1838L148.665 100.96C146.651 94.3519 145.281 90.5644 144.797 88.0663C144.394 85.8906 142.702 79.9275 148.504 77.3488C149.391 76.9459 150.922 80.6526 151.647 82.1031L155.999 91.2091C155.918 89.678 156.24 89.1945 156.643 88.7916C157.127 88.3887 157.771 88.2275 158.416 88.4693C159.464 88.8722 161.72 89.678 167.361 105.392C167.441 105.311 167.522 105.311 167.603 105.311C168.247 105.07 169.859 104.264 174.291 110.469C178.804 116.432 183.558 144.394 183.236 151.083L180.254 186.378" stroke="#353847" stroke-width="2" stroke-miterlimit="10"/>
<path d="M147.94 199.191C147.617 198.466 143.266 190.004 139.559 186.056C132.145 178.239 127.955 173.082 126.746 169.697" stroke="#353847" stroke-width="2" stroke-miterlimit="10"/>
<path d="M148.747 101.039C148.747 101.039 158.739 118.526 156.322 137.946" stroke="#353847" stroke-width="2" stroke-miterlimit="10"/>
<path d="M156.079 91.3711L164.057 114.015L167.603 130.132" stroke="#353847" stroke-width="2" stroke-miterlimit="10"/>
<path d="M167.603 105.473C167.603 105.473 175.016 124.41 175.097 129.406" stroke="#353847" stroke-width="2" stroke-miterlimit="10"/>
<path d="M149.793 202.898L154.628 214.502" stroke="#353847" stroke-width="2" stroke-miterlimit="10"/>
<path d="M116.995 142.783C116.995 142.783 122.555 162.284 124.248 163.816" stroke="#353847" stroke-width="2" stroke-miterlimit="10"/>
<path d="M181.543 188.553L195 207.49" stroke="#353847" stroke-width="2" stroke-miterlimit="10"/>
<path d="M137.141 185.893L129.405 213.694" stroke="#353847" stroke-width="2" stroke-miterlimit="10"/>
<path d="M80.848 253.5V236.7H87.712C89.696 236.7 91.264 237.236 92.416 238.308C93.568 239.38 94.144 240.796 94.144 242.556C94.144 244.428 93.504 245.884 92.224 246.924C90.944 247.948 89.32 248.46 87.352 248.46H84.544V253.5H80.848ZM84.544 245.172H87.472C88.384 245.172 89.096 244.932 89.608 244.452C90.136 243.972 90.4 243.348 90.4 242.58C90.4 241.764 90.136 241.14 89.608 240.708C89.08 240.26 88.344 240.036 87.4 240.036H84.544V245.172ZM99.5673 257.412C98.4153 257.412 97.3353 257.116 96.3273 256.524L97.5513 253.884C98.1113 254.22 98.6313 254.388 99.1113 254.388C99.6873 254.388 100.111 254.108 100.383 253.548L95.3433 240.636H99.2073L102.135 249.396L104.943 240.636H108.735L103.791 253.812C103.295 255.14 102.735 256.068 102.111 256.596C101.487 257.14 100.639 257.412 99.5673 257.412ZM110.886 253.5V240.636H114.534V245.916L119.142 240.636H123.342L118.614 245.916L123.942 253.5H119.622L116.19 248.604L114.534 250.404V253.5H110.886ZM137.534 240.636V253.5H134.006V246.012L128.99 253.5H125.558V240.636H129.086V248.148L134.102 240.636H137.534ZM151.059 257.412C149.907 257.412 148.827 257.116 147.819 256.524L149.043 253.884C149.603 254.22 150.123 254.388 150.603 254.388C151.179 254.388 151.603 254.108 151.875 253.548L146.835 240.636H150.699L153.627 249.396L156.435 240.636H160.227L155.283 253.812C154.787 255.14 154.227 256.068 153.603 256.596C152.979 257.14 152.131 257.412 151.059 257.412ZM161.298 253.5L165.81 246.972L161.466 240.636H165.378L167.778 244.38L170.202 240.636H174.018L169.674 246.9L174.21 253.5H170.298L167.706 249.492L165.114 253.5H161.298ZM187.674 251.844C186.346 253.14 184.69 253.788 182.706 253.788C180.722 253.788 179.066 253.148 177.738 251.868C176.426 250.572 175.77 248.98 175.77 247.092C175.77 245.22 176.434 243.636 177.762 242.34C179.106 241.044 180.77 240.396 182.754 240.396C184.738 240.396 186.386 241.044 187.698 242.34C189.026 243.62 189.69 245.204 189.69 247.092C189.69 248.964 189.018 250.548 187.674 251.844ZM182.754 250.644C183.762 250.644 184.57 250.308 185.178 249.636C185.786 248.948 186.09 248.1 186.09 247.092C186.09 246.116 185.77 245.284 185.13 244.596C184.506 243.892 183.698 243.54 182.706 243.54C181.698 243.54 180.89 243.884 180.282 244.572C179.674 245.244 179.37 246.084 179.37 247.092C179.37 248.068 179.682 248.908 180.306 249.612C180.946 250.3 181.762 250.644 182.754 250.644ZM196.027 250.38H200.419V243.756H196.987V244.044C196.955 246.812 196.635 248.924 196.027 250.38ZM202.315 253.5H194.251L193.987 256.524H190.915V250.38H192.307C193.139 248.604 193.555 245.724 193.555 241.74V240.636H204.067V250.38H205.819L205.387 256.524H202.315V253.5Z" fill="#333F48"/>
</svg>
