<svg width="285" height="286" viewBox="0 0 285 286" fill="none" xmlns="http://www.w3.org/2000/svg">
<rect width="285" height="285" transform="translate(0 0.925781)" fill="#DDDDDD"/>
<path d="M178.432 205.067C171.354 197.99 165.644 192.602 165.644 192.602C156.959 184.238 151.731 182.066 151.731 182.066L123.824 170.968L107.497 168.072L91.2518 168.877C91.2518 168.877 90.528 171.53 94.308 172.737C96.3186 173.38 103.155 173.219 107.176 173.943C110.875 174.587 112.966 175.873 112.966 175.873" stroke="#333F48" stroke-width="2" stroke-miterlimit="10"/>
<path d="M119.722 174.346L105.406 178.689L93.8252 190.511C93.8252 190.511 96.8813 192.2 99.857 189.546C102.913 186.892 107.256 184.238 107.256 184.238L118.274 181.101" stroke="#333F48" stroke-width="2" stroke-miterlimit="10"/>
<path d="M120.044 180.217L107.418 186.329L99.6162 197.508C99.6162 197.508 101.627 199.519 105.166 196.623C108.704 193.728 111.519 191.074 111.519 191.074L121.009 187.133" stroke="#333F48" stroke-width="2" stroke-miterlimit="10"/>
<path d="M121.893 186.73L112.644 192.28L105.245 200.966C105.245 200.966 107.98 203.057 111.197 200C114.414 196.944 116.987 195.738 116.987 195.738L122.054 193.567C122.054 193.567 141.758 197.427 148.031 196.06C148.031 196.06 150.926 199.116 155.35 204.746" stroke="#333F48" stroke-width="2" stroke-miterlimit="10"/>
<path d="M123.261 84.4292C123.502 84.8313 123.985 84.9922 124.467 84.7509C127.765 83.2229 129.614 81.936 133.314 81.2122C134.199 81.0514 137.094 80.9709 139.346 80.8905C139.909 80.8905 140.069 80.0862 139.507 79.8449C137.818 79.282 135.405 78.7995 133.153 78.8799C133.153 78.8799 130.338 78.7995 123.422 82.499C122.939 82.7403 122.778 83.3836 123.1 83.7858L123.261 84.4292Z" fill="#333F48"/>
<path d="M108.221 87.7266C104.361 87.4049 100.581 87.5657 98.3291 89.0133C97.0423 89.8176 96.3988 88.2091 98.6507 86.1985C98.6507 86.1985 100.259 84.027 108.462 85.3138C110.151 85.6355 109.669 87.8874 108.221 87.7266Z" fill="#333F48"/>
<path d="M154.948 88.5309C154.948 88.5309 166.288 69.4702 168.781 90.7023C169.907 100.353 162.186 103.49 162.186 103.49" stroke="#333F48" stroke-width="2" stroke-miterlimit="10"/>
<path d="M104.441 94.5645C106.13 95.8512 107.9 97.701 111.358 95.047" stroke="#333F48" stroke-width="2" stroke-miterlimit="10"/>
<path d="M126.397 91.3458C130.74 90.7024 133.716 94.3215 138.461 88.6113" stroke="#333F48" stroke-width="2" stroke-miterlimit="10"/>
<path d="M122.055 106.708C117.068 109.281 116.103 106.145 115.942 104.295" stroke="#333F48" stroke-width="2" stroke-miterlimit="10"/>
<path d="M121.411 133.248C121.732 138.234 119.561 138.878 116.827 141.451C110.393 147.483 101.385 151.585 90.367 153.595C74.6842 156.491 64.0681 174.104 68.4915 186.73" stroke="#333F48" stroke-width="2" stroke-miterlimit="10"/>
<path d="M157.039 107.994C157.039 107.994 148.514 146.518 184.142 151.986C211.566 156.168 214.059 165.337 217.518 186.006" stroke="#333F48" stroke-width="2" stroke-miterlimit="10"/>
<path d="M91.5732 160.432C91.5732 160.432 101.787 159.628 107.899 167.349" stroke="#333F48" stroke-width="2" stroke-miterlimit="10"/>
<path d="M68.5713 186.811C68.5713 186.811 71.2252 195.899 75.2465 206.675" stroke="#333F48" stroke-width="2" stroke-miterlimit="10"/>
<path d="M150.766 116.279C150.766 116.279 157.28 110.166 158.325 104.697C159.693 97.2984 159.049 86.0391 159.049 86.0391" stroke="#333F48" stroke-width="2" stroke-miterlimit="10"/>
<path d="M110.714 157.537C132.107 159.869 142.884 157.778 147.548 163.408" stroke="#333F48" stroke-width="2" stroke-miterlimit="10"/>
<path d="M156.878 162.683C156.878 162.683 163.955 159.707 166.288 156.57" stroke="#333F48" stroke-width="2" stroke-miterlimit="10"/>
<path d="M156.396 122.713C156.396 122.713 160.015 145.151 158.647 149.012" stroke="#333F48" stroke-width="2" stroke-miterlimit="10"/>
<path d="M124.548 103.088C124.548 103.088 126.317 104.053 125.996 105.581" stroke="#333F48" stroke-width="2" stroke-miterlimit="10"/>
<path d="M146.503 120.621C138.702 128.02 134.279 132.765 131.142 133.891C123.663 136.545 117.229 130.272 112.806 125.849C106.693 119.737 98.651 115.233 96.4795 93.8398" stroke="#333F48" stroke-width="2" stroke-miterlimit="10"/>
<path d="M96.4793 84.751C96.4793 84.751 95.2729 80.0863 94.71 75.0195" stroke="#333F48" stroke-width="2" stroke-miterlimit="10"/>
<path d="M113.61 54.9955C113.61 54.9955 143.609 53.8695 156.879 79.6858" stroke="#333F48" stroke-width="2" stroke-miterlimit="10"/>
<path d="M164.518 76.8704C163.633 76.0662 166.931 34.4867 122.054 36.2561" stroke="#333F48" stroke-width="2" stroke-miterlimit="10"/>
<path d="M109.025 54.9961C109.025 54.9961 95.433 71.1613 91.5726 80.9731C91.5726 80.9731 82.4847 97.2993 97.1219 103.09" stroke="#333F48" stroke-width="2" stroke-miterlimit="10"/>
<path d="M117.872 36.1758C117.872 36.1758 90.6881 39.634 89.6426 64.1634" stroke="#333F48" stroke-width="2" stroke-miterlimit="10"/>
<path d="M116.023 42.2891L112.243 51.0553" stroke="#333F48" stroke-width="2" stroke-miterlimit="10"/>
<path d="M190.415 182.146L194.275 199.92" stroke="#333F48" stroke-width="2" stroke-miterlimit="10"/>
<path d="M114.736 96.4135C114.736 96.4135 115.942 93.277 113.208 89.7383" stroke="#333F48" stroke-width="2" stroke-miterlimit="10"/>
<path d="M166.288 107.674C166.288 107.674 196.447 129.871 184.142 151.988" stroke="#333F48" stroke-width="2" stroke-miterlimit="10"/>
<path d="M181.649 151.505C181.649 151.505 183.74 136.465 173.204 125.447" stroke="#333F48" stroke-width="2" stroke-miterlimit="10"/>
<path d="M88.7588 68.3457L89.7238 84.0285" stroke="#333F48" stroke-width="2" stroke-miterlimit="10"/>
<path d="M127.281 117.162C125.19 118.69 121.008 118.61 120.204 118.208" stroke="#333F48" stroke-width="2" stroke-miterlimit="10"/>
<path d="M132.429 114.348C131.142 116.358 129.132 116.841 127.604 117.002" stroke="#333F48" stroke-width="2" stroke-miterlimit="10"/>
<path d="M119.319 115.715C120.043 114.991 121.491 114.107 122.938 115.394C122.938 115.394 123.582 114.509 125.19 114.348C126.155 114.268 128.005 114.991 130.177 115.554" stroke="#333F48" stroke-width="2" stroke-miterlimit="10"/>
<path d="M121.25 121.344C122.054 121.907 123.341 122.631 125.191 122.39C126.478 122.229 127.443 121.827 128.166 121.264" stroke="#333F48" stroke-width="2" stroke-miterlimit="10"/>
<path d="M120.204 118.208C120.204 118.208 118.113 117.887 116.585 116.52" stroke="#333F48" stroke-width="2" stroke-miterlimit="10"/>
<path d="M84.2444 245.676V232.284H79.1324V228.876H93.0524V232.284H87.9404V245.676H84.2444ZM101.607 245.964C99.6549 245.964 98.0469 245.348 96.7829 244.116C95.5189 242.868 94.8869 241.252 94.8869 239.268C94.8869 237.396 95.4869 235.812 96.6869 234.516C97.8869 233.22 99.4069 232.572 101.247 232.572C103.279 232.572 104.831 233.244 105.903 234.588C106.975 235.932 107.511 237.588 107.511 239.556C107.511 239.748 107.495 240.068 107.463 240.516H98.5109C98.6869 241.332 99.0469 241.956 99.5909 242.388C100.135 242.82 100.823 243.036 101.655 243.036C102.791 243.036 103.831 242.596 104.775 241.716L106.863 243.564C105.567 245.164 103.815 245.964 101.607 245.964ZM98.4629 238.236H103.959C103.847 237.404 103.551 236.74 103.071 236.244C102.607 235.748 101.999 235.5 101.247 235.5C100.511 235.5 99.8949 235.748 99.3989 236.244C98.9189 236.724 98.6069 237.388 98.4629 238.236ZM111.766 232.812H122.11V245.676H118.462V235.932H115.198C115.198 237.628 115.134 239.06 115.006 240.228C114.878 241.396 114.702 242.348 114.478 243.084C114.254 243.82 113.942 244.388 113.542 244.788C113.142 245.188 112.71 245.46 112.246 245.604C111.782 245.748 111.206 245.82 110.518 245.82C109.862 245.82 109.246 245.748 108.67 245.604L108.91 242.652C109.198 242.7 109.454 242.724 109.678 242.724C110.062 242.724 110.366 242.636 110.59 242.46C110.814 242.268 111.022 241.852 111.214 241.212C111.422 240.556 111.566 239.556 111.646 238.212C111.726 236.852 111.766 235.052 111.766 232.812ZM136.65 244.02C135.322 245.316 133.666 245.964 131.682 245.964C129.698 245.964 128.042 245.324 126.714 244.044C125.402 242.748 124.746 241.156 124.746 239.268C124.746 237.396 125.41 235.812 126.738 234.516C128.082 233.22 129.746 232.572 131.73 232.572C133.714 232.572 135.362 233.22 136.674 234.516C138.002 235.796 138.666 237.38 138.666 239.268C138.666 241.14 137.994 242.724 136.65 244.02ZM131.73 242.82C132.738 242.82 133.546 242.484 134.154 241.812C134.762 241.124 135.066 240.276 135.066 239.268C135.066 238.292 134.746 237.46 134.106 236.772C133.482 236.068 132.674 235.716 131.682 235.716C130.674 235.716 129.866 236.06 129.258 236.748C128.65 237.42 128.346 238.26 128.346 239.268C128.346 240.244 128.658 241.084 129.282 241.788C129.922 242.476 130.738 242.82 131.73 242.82ZM151.575 249.588C150.423 249.588 149.343 249.292 148.335 248.7L149.559 246.06C150.119 246.396 150.639 246.564 151.119 246.564C151.695 246.564 152.119 246.284 152.391 245.724L147.351 232.812H151.215L154.143 241.572L156.951 232.812H160.743L155.799 245.988C155.303 247.316 154.743 248.244 154.119 248.772C153.495 249.316 152.647 249.588 151.575 249.588ZM161.814 245.676L166.326 239.148L161.982 232.812H165.894L168.294 236.556L170.718 232.812H174.534L170.19 239.076L174.726 245.676H170.814L168.222 241.668L165.63 245.676H161.814ZM188.189 244.02C186.861 245.316 185.205 245.964 183.221 245.964C181.237 245.964 179.581 245.324 178.253 244.044C176.941 242.748 176.285 241.156 176.285 239.268C176.285 237.396 176.949 235.812 178.277 234.516C179.621 233.22 181.285 232.572 183.269 232.572C185.253 232.572 186.901 233.22 188.213 234.516C189.541 235.796 190.205 237.38 190.205 239.268C190.205 241.14 189.533 242.724 188.189 244.02ZM183.269 242.82C184.277 242.82 185.085 242.484 185.693 241.812C186.301 241.124 186.605 240.276 186.605 239.268C186.605 238.292 186.285 237.46 185.645 236.772C185.021 236.068 184.213 235.716 183.221 235.716C182.213 235.716 181.405 236.06 180.797 236.748C180.189 237.42 179.885 238.26 179.885 239.268C179.885 240.244 180.197 241.084 180.821 241.788C181.461 242.476 182.277 242.82 183.269 242.82ZM196.543 242.556H200.935V235.932H197.503V236.22C197.471 238.988 197.151 241.1 196.543 242.556ZM202.831 245.676H194.767L194.503 248.7H191.431V242.556H192.823C193.655 240.78 194.071 237.9 194.071 233.916V232.812H204.583V242.556H206.335L205.903 248.7H202.831V245.676Z" fill="#333F48"/>
</svg>
