<svg width="320" height="439" viewBox="0 0 320 439" fill="none" xmlns="http://www.w3.org/2000/svg">
<path d="M214.598 267.199C211.192 260.395 204.947 255.859 197.567 253.024C194.728 251.89 191.322 251.323 188.483 250.756C190.186 250.189 191.322 249.055 193.025 247.921C195.863 245.653 199.27 242.818 201.541 239.983C203.811 237.148 206.082 234.313 207.786 231.478C209.489 228.076 210.624 224.107 211.192 220.705C211.76 217.303 211.192 213.334 210.056 209.932C207.218 203.128 201.541 198.025 193.592 195.19C190.186 194.056 187.348 192.922 183.941 192.355C177.129 191.788 169.748 191.788 162.936 192.922C162.936 200.86 162.936 208.798 163.503 217.303C164.639 246.787 166.342 276.271 166.91 305.755C168.045 305.755 169.18 305.755 170.316 305.755C175.425 304.621 181.103 304.621 186.78 304.621C189.618 304.054 193.025 303.487 195.863 302.92C203.811 301.219 209.489 295.549 212.895 289.312C214.598 285.91 215.734 281.941 216.301 278.539C216.869 274.57 216.301 271.168 214.598 267.199ZM185.077 241.117L184.509 201.427C186.78 201.994 186.78 201.994 188.483 203.128C194.16 204.829 198.134 208.798 199.837 213.334C200.973 215.602 200.973 218.437 200.973 220.705C200.405 222.973 199.837 225.808 198.702 228.076C197.567 230.344 195.863 232.045 194.728 234.313C193.025 236.014 190.754 238.282 188.483 239.983C186.78 239.983 186.212 240.55 185.077 241.117ZM204.947 276.838C204.379 279.106 203.811 281.941 202.676 284.209C201.541 285.91 199.837 288.178 198.134 289.879C196.431 291.58 194.16 293.848 191.889 294.982C190.754 295.549 189.618 296.116 188.483 296.683L187.348 258.694C189.618 259.261 189.618 259.261 191.889 259.828C197.567 261.529 202.108 264.931 204.379 269.467C204.947 271.735 205.515 274.57 204.947 276.838Z" fill="#A1D884"/>
<path d="M219.708 250.756C219.708 258.694 220.275 270.034 220.843 277.972C220.843 281.941 220.843 285.91 220.843 290.446C220.843 293.848 220.275 297.817 220.843 301.219V301.786C233.901 302.92 246.958 301.219 260.016 301.219C261.719 296.116 261.151 285.91 261.151 283.075C257.745 283.075 251.5 283.075 248.094 283.075C245.255 283.075 241.849 283.642 238.443 283.642C236.172 283.642 233.333 283.642 231.062 284.209C231.062 281.941 231.062 279.673 231.062 277.405C231.062 273.436 231.062 266.065 231.062 262.096C231.062 260.962 231.062 259.828 231.062 258.694C233.901 258.694 236.739 258.127 239.578 258.127C242.417 258.127 245.823 258.694 248.662 258.127C248.662 253.024 248.094 247.921 247.526 242.251C245.255 241.684 242.417 242.818 240.146 242.818C237.307 242.818 233.901 242.818 231.062 242.818C231.062 237.715 230.494 227.509 230.494 222.973C230.494 222.406 230.494 221.839 230.494 221.272C231.062 221.272 232.198 221.272 232.765 220.705C234.468 220.705 236.172 220.705 237.875 220.138C241.281 220.138 244.12 219.571 247.526 219.571C254.339 219.004 250.932 219.571 257.745 219.004C258.881 219.004 260.016 219.004 261.151 219.004C260.584 211.633 259.448 204.262 260.584 196.891C254.339 196.891 258.313 196.891 252.068 196.891C240.713 197.458 229.359 197.458 218.572 199.159C218.572 207.097 218.572 215.035 219.14 222.973C219.14 230.911 219.708 243.385 219.708 250.756Z" fill="#A1D884"/>
<path d="M143.633 210.499C145.336 210.499 148.175 210.499 150.446 210.499C149.878 204.262 150.446 198.025 150.446 191.788C149.31 191.221 147.607 191.221 145.904 191.221C142.498 191.221 138.524 191.788 135.117 191.788C130.576 192.355 126.602 192.355 122.06 192.922C119.789 192.922 117.518 192.922 115.247 193.489C113.544 193.489 111.841 193.489 110.138 194.056C110.138 199.726 110.138 205.963 110.138 211.633C112.976 211.633 115.815 211.066 118.654 210.499C119.789 210.499 121.492 210.499 122.628 210.499C122.628 210.499 122.628 210.499 122.628 211.066C122.628 215.602 122.628 220.138 122.628 224.107C122.628 233.179 122.628 242.251 122.06 251.323C121.492 265.498 122.628 274.003 122.06 287.611C121.492 287.611 120.924 287.611 120.357 287.611C117.518 287.611 115.247 288.178 112.409 288.178C112.409 289.879 112.409 291.58 112.976 293.848V294.415C112.976 295.549 112.976 296.116 112.976 297.25C112.976 297.817 112.976 298.384 112.976 299.518C112.976 302.353 112.976 304.621 112.976 307.456C115.247 307.456 117.518 306.889 119.221 306.889C121.492 306.889 123.195 306.889 125.466 306.889C127.737 306.889 130.576 306.322 132.847 306.322C136.821 306.322 140.795 306.322 144.769 306.322C145.904 306.322 147.04 306.322 148.175 305.755C147.607 299.518 147.04 293.848 147.607 287.611C145.904 287.611 144.201 287.611 142.498 287.611C140.227 287.611 137.388 287.611 135.117 287.611C135.117 285.91 135.117 283.642 135.117 281.941C135.117 276.838 135.117 271.735 135.117 266.632C135.117 246.22 134.55 231.478 134.55 211.066C138.524 210.499 140.795 210.499 143.633 210.499Z" fill="#A1D884"/>
<path d="M103.325 258.694C103.325 258.127 102.758 257.56 102.19 256.426C99.3512 249.622 95.9449 243.385 92.5385 237.148C90.8354 234.313 88.5645 231.478 86.8613 228.643C85.1582 225.808 83.455 222.973 82.3196 220.138C80.6164 216.736 80.0487 213.901 80.0487 210.499C80.0487 209.932 80.0487 209.365 80.6164 208.798C80.6164 207.097 81.7518 205.963 84.0227 205.963C87.429 205.963 89.1322 209.932 89.6999 212.2C90.2677 214.468 90.2677 217.303 90.8354 219.571C94.8094 219.004 98.2158 219.004 102.19 218.437C102.19 218.437 102.19 217.87 102.19 217.303C102.19 210.499 101.622 204.262 96.5126 199.159C91.9708 194.623 84.5904 191.788 77.7778 191.788C74.3715 191.788 70.3974 193.489 67.5588 194.623C64.7202 196.324 61.8816 198.592 60.7461 201.427C57.9075 206.53 56.2044 213.901 59.043 219.571C60.1784 222.406 61.3139 225.241 63.5847 228.076C65.8556 230.911 68.6942 234.313 70.9651 237.148C75.5069 242.818 78.9132 249.055 81.7518 255.292C83.455 258.694 84.0227 262.096 85.1582 265.498C85.7259 268.9 86.8613 272.869 85.7259 276.271C85.1582 279.106 83.455 281.941 80.0487 283.075C76.6423 284.209 73.8037 283.075 71.5329 280.807C68.6942 278.539 67.5588 275.704 66.4234 272.302C66.4234 271.168 66.4234 269.467 65.8556 268.333C58.4753 268.9 51.0949 268.9 44.2822 268.9C44.2822 269.467 44.2822 270.601 44.2822 271.735C44.2822 273.436 44.2822 275.137 44.2822 276.838C44.8499 280.24 45.9854 283.075 47.1208 285.91C49.9594 291.58 53.9335 296.683 60.1784 300.652C62.4493 301.786 64.7202 302.92 66.9911 304.054C73.8037 305.188 81.1841 304.621 87.9968 302.353C91.4031 300.085 94.8094 297.817 98.2157 295.549C101.622 289.312 103.893 283.075 105.028 276.271C105.028 275.704 105.028 275.137 105.028 274.57C105.028 274.003 105.028 273.436 105.028 272.869C105.028 272.302 105.028 272.302 105.028 271.735C104.461 268.333 103.893 263.797 103.325 258.694ZM91.9708 294.415C91.9708 293.848 91.9708 293.848 91.9708 294.415C92.5385 293.848 92.5385 293.281 93.1063 293.281C92.5385 293.281 91.9708 293.848 91.9708 294.415Z" fill="#A1D884"/>
<path d="M189.051 412.35C191.889 411.783 194.728 411.216 197.566 410.649C196.999 406.68 196.431 403.278 195.863 399.309C190.754 369.825 184.509 340.908 179.399 311.424C173.722 311.424 168.045 311.424 162.368 310.857C160.665 316.527 158.961 322.764 157.258 329.001C149.31 356.217 143.633 384.567 136.82 412.918C143.065 412.918 149.31 414.052 155.555 415.753C155.555 415.186 155.555 414.618 156.123 414.051C157.258 409.515 158.394 405.546 159.529 401.01C162.935 387.402 166.342 373.794 169.18 360.186C172.587 360.186 175.993 359.619 179.967 359.619C181.67 376.629 185.077 394.773 189.051 412.35ZM173.154 335.805C174.29 342.042 175.425 347.712 176.561 353.949C173.722 353.949 171.451 353.949 168.613 353.949C169.18 352.248 169.18 351.114 169.748 349.413C170.884 344.877 172.019 340.341 173.154 335.805Z" fill="#A1D884"/>
<path d="M288.97 408.948C288.97 404.412 288.402 399.876 288.402 395.907C288.402 387.402 287.834 378.897 287.267 370.392C286.699 361.32 286.699 352.815 286.131 343.743C286.131 341.475 285.563 339.207 285.563 336.372C285.563 334.104 285.563 331.836 284.996 329.001C284.428 323.898 284.996 319.362 284.996 314.259C284.996 313.125 284.996 311.991 284.428 310.857C283.292 310.857 282.157 310.857 281.022 310.857C273.074 310.857 265.125 311.424 257.745 311.991C258.313 319.362 258.88 326.166 258.88 333.537C259.448 349.413 260.016 365.856 260.584 381.732C260.016 380.598 259.448 380.031 258.88 378.897C254.906 372.093 251.5 364.722 246.958 357.918C245.255 354.516 243.552 351.114 241.281 347.712C239.578 344.31 237.307 340.908 235.604 337.506C233.901 334.104 231.63 330.702 229.927 327.3C229.359 325.599 228.224 323.898 227.656 322.197C227.088 321.063 226.52 319.929 225.953 318.795C225.953 316.527 225.953 314.826 225.385 312.558C219.14 313.125 212.895 313.125 206.082 312.558C205.515 319.929 206.082 327.3 206.082 334.104C207.218 361.32 208.353 388.536 210.056 416.319C215.734 415.752 220.843 415.185 226.52 414.618C226.52 412.917 226.52 410.649 226.52 408.948C226.52 404.979 225.953 400.443 225.953 396.474C225.385 387.969 225.953 380.031 225.385 371.526C224.817 363.588 225.385 355.083 225.385 347.145C225.385 344.31 225.385 341.475 225.385 339.207C226.52 341.475 228.224 344.31 229.359 346.578C232.765 352.815 236.172 359.052 239.578 365.289C242.984 371.526 246.391 377.763 249.797 384C253.203 389.67 256.61 395.34 260.016 401.01C260.016 406.113 260.016 410.649 260.584 415.752C265.693 415.186 270.235 414.618 275.344 414.051C279.318 413.484 282.725 413.484 286.699 413.484C287.267 413.484 287.834 413.484 288.402 413.484C289.537 411.783 288.97 410.082 288.97 408.948Z" fill="#A1D884"/>
<path d="M79.481 419.722C79.481 420.289 79.481 420.289 79.481 419.722C82.3196 419.155 88.5645 416.887 91.4031 415.753C90.8354 414.052 62.4493 368.692 61.8816 366.424C61.3139 365.29 61.3139 364.723 60.7461 363.589C60.7461 363.022 60.1784 362.455 60.1784 361.888C61.3139 361.888 61.8816 361.888 63.017 361.321C67.5588 360.187 70.9651 359.053 73.8037 356.218C76.6423 353.95 78.9132 351.115 80.6164 348.28C81.1841 346.579 82.3196 344.878 82.3196 343.177C82.8873 341.476 82.3196 339.208 82.3196 337.507C81.7518 331.27 79.481 323.332 73.8037 318.229C70.9651 315.394 66.9911 313.693 63.017 312.559C61.8816 311.992 60.7461 311.992 59.6107 311.425C53.9335 310.291 36.9019 310.291 31.7924 311.425C31.7924 312.559 31.7924 313.126 31.7924 314.26C31.2246 318.796 31.7924 322.765 31.7924 327.301C31.7924 330.136 31.7924 332.404 31.7924 335.239C31.7924 335.806 31.7924 336.373 31.7924 336.94C31.7924 344.878 32.3601 353.383 32.3601 361.321C32.9278 369.259 32.9278 376.63 32.9278 384.568C33.4955 392.506 33.4955 400.444 33.4955 408.382C33.4955 410.65 33.4955 412.918 33.4955 415.186C33.4955 416.32 33.4955 417.454 33.4955 418.588C37.4696 419.155 51.6626 419.722 55.6367 419.722C55.6367 414.052 55.6367 408.382 56.2044 402.712C56.2044 394.207 56.2044 385.702 56.2044 377.197C56.2044 377.764 56.7721 378.898 56.7721 379.465C57.9075 383.434 76.0746 414.052 77.2101 415.753C78.3455 416.887 78.3455 418.588 79.481 419.722ZM56.2044 357.919C56.2044 343.744 55.6367 329.569 55.0689 315.394C56.7721 315.961 59.043 315.961 60.7461 316.528C63.5848 317.662 66.9911 318.796 69.262 320.497C73.8037 324.466 75.5069 330.703 76.0746 336.373C76.0746 339.208 76.6423 342.043 75.5069 344.878C74.3715 347.713 73.236 349.981 70.9651 351.682C68.6942 353.95 66.4234 355.651 63.017 356.218C61.3139 356.785 59.6107 357.352 57.9075 357.352C57.3398 357.919 56.7721 357.919 56.2044 357.919Z" fill="#A1D884"/>
<path d="M103.893 311.425C103.325 313.126 103.893 315.394 103.893 316.528C103.893 318.796 103.325 321.064 103.325 323.332C103.325 325.6 103.325 327.868 103.325 330.136C103.325 334.672 102.758 339.208 102.758 343.744C102.758 362.455 101.622 380.599 101.622 399.31C101.622 401.578 101.622 404.413 101.622 406.681C101.622 407.815 101.622 408.382 101.622 409.516C107.867 409.516 114.112 408.949 120.925 408.382C120.925 404.413 121.492 401.011 121.492 397.042C121.492 393.073 121.492 389.104 121.492 385.702C121.492 377.764 122.06 369.826 122.06 361.888C122.628 347.146 123.195 331.837 123.763 317.095C123.763 315.394 124.331 313.126 124.331 311.425C118.086 310.858 111.273 310.858 103.893 311.425Z" fill="#A1D884"/>
<path d="M98.7835 425.959C98.7835 426.526 98.7835 426.526 98.2158 426.526C98.2158 428.227 98.7835 430.495 98.7835 432.196C101.054 435.031 104.461 436.733 108.435 439.001C114.112 439.001 119.222 436.165 122.06 432.196C122.628 428.227 123.196 424.258 121.492 420.856C120.925 420.289 120.357 419.723 119.789 419.156C116.383 418.022 112.409 418.021 109.003 418.021C105.596 418.021 102.758 419.155 100.487 420.289C99.919 421.423 99.3513 423.691 98.7835 425.959Z" fill="#A1D884"/>
<path d="M2.83857 133.386C2.83857 141.324 3.40629 148.695 3.40629 156.633C3.40629 160.602 3.40629 164.571 3.40629 169.107C3.40629 172.509 2.83857 176.478 3.40629 179.88V180.447C16.4639 181.581 29.5215 179.88 42.5791 179.88C46.5531 179.88 49.9594 179.88 53.9335 179.88C58.4753 179.313 63.017 179.313 67.5588 179.313C66.9911 173.643 66.9911 167.406 66.9911 161.736C66.4234 161.736 65.8556 161.736 65.2879 161.736C64.1525 161.736 63.017 161.736 61.8816 161.169C58.4753 161.169 55.0689 161.169 51.6626 161.169C44.8499 161.169 38.0373 160.602 31.2246 161.169C28.386 161.169 24.9797 161.736 21.5734 161.736C19.3025 161.736 16.4639 161.736 14.193 162.303C14.193 160.035 14.193 157.767 14.193 155.499C14.193 151.53 14.7607 147.561 14.7607 143.592C14.7607 142.458 14.7607 141.324 14.7607 140.19C17.5993 140.19 20.4379 139.623 23.2765 139.623C26.1151 139.623 29.5215 140.19 32.3601 139.623C32.3601 134.52 31.7924 129.417 31.2246 123.747C28.386 124.314 25.5474 124.881 23.2765 124.881C20.4379 124.881 17.0316 124.881 14.193 124.881C14.193 119.778 14.193 115.242 13.6253 110.139C13.6253 109.572 13.6253 109.005 13.6253 108.438C14.193 108.438 15.3284 108.438 15.8962 107.871C17.5993 107.871 19.3025 107.871 21.0056 107.304C24.412 107.304 27.2506 106.737 30.6569 106.737C37.4696 106.17 44.2822 106.17 50.5272 105.603C51.6626 105.603 52.798 105.603 53.9335 105.603C53.3658 98.2322 52.2303 90.8612 53.3658 83.4902C47.1208 83.4902 41.4436 84.0572 35.1987 84.0572C23.8443 84.6242 12.4898 84.6242 1.70312 86.3252C1.70312 94.2632 1.70312 102.201 2.27085 110.139C2.27085 118.644 2.83857 126.015 2.83857 133.386Z" fill="#A1D884"/>
<path d="M160.665 76.119C160.097 76.686 159.529 77.253 159.529 77.82C158.961 81.789 158.961 86.325 158.961 90.294C158.961 93.129 158.961 95.964 158.961 98.232C155.555 98.232 152.717 98.799 149.31 98.799C145.904 98.799 142.498 99.366 139.091 99.933C139.091 91.995 139.091 84.057 138.524 76.119C137.956 76.119 137.388 75.552 137.388 75.552C131.711 75.552 126.034 76.119 120.356 76.119C120.924 84.057 121.492 91.995 121.492 99.366C122.627 129.417 120.924 159.468 120.356 188.952C126.601 188.952 132.279 188.385 137.956 187.251C137.956 182.148 137.956 176.478 137.956 171.375C138.524 150.396 139.091 128.85 139.091 107.871C140.227 107.871 141.362 107.304 142.498 107.304C144.768 107.304 146.472 106.737 148.743 106.737C152.149 106.17 154.987 106.17 158.394 105.603C157.826 114.108 157.826 122.613 157.826 131.118C157.826 140.19 157.826 149.829 157.826 158.901C157.826 163.437 157.826 167.973 157.258 172.509C157.258 174.777 156.691 177.045 156.691 178.746C156.691 181.014 156.691 183.282 156.691 185.55C156.691 186.117 156.691 186.684 156.691 186.684C157.826 186.684 158.961 187.251 159.529 187.251C164.071 187.251 168.045 187.251 172.587 187.251C172.587 184.416 172.587 182.148 173.155 179.313C173.722 160.602 174.858 141.891 174.858 122.613C174.858 106.737 174.858 90.294 175.993 74.418C170.316 76.686 165.206 76.686 160.665 76.119Z" fill="#A1D884"/>
<path d="M264.559 177.613C264.559 173.077 263.991 168.541 263.991 164.572C263.991 156.067 263.423 147.562 262.855 139.057C262.288 129.985 262.288 121.48 261.72 112.408C261.72 110.139 261.152 107.872 261.152 105.036C261.152 102.768 261.152 100.501 260.585 97.6655C260.017 92.5625 260.585 88.0265 260.585 82.9235C260.585 81.7895 260.585 80.6555 260.017 79.5215C258.881 79.5215 257.746 79.5215 256.61 79.5215C248.662 79.5215 240.714 80.0885 233.334 80.6555C233.902 88.0265 234.469 94.8305 234.469 102.201C235.037 118.078 235.605 134.521 236.172 150.397C235.605 149.263 235.037 148.696 234.469 147.562C230.495 140.758 227.089 133.387 222.547 126.583C220.844 123.181 219.141 119.779 216.87 116.377C215.167 112.975 212.896 109.573 211.193 106.171C209.49 102.769 207.219 99.3665 205.516 95.9645C204.948 94.2635 203.812 92.5625 203.245 90.8615C202.677 89.7275 202.109 88.5935 201.542 87.4595C201.542 85.1915 201.542 83.4905 200.974 81.2225C194.729 81.7895 188.484 81.7895 181.671 81.2225C181.104 88.5935 181.671 95.9645 181.671 102.769C182.807 129.985 183.942 157.201 185.645 184.984C191.323 184.417 196.432 183.85 202.109 183.283C202.109 181.582 202.109 179.314 202.109 177.613C202.109 173.644 201.542 169.108 201.542 165.139C200.974 156.634 201.542 148.696 200.974 140.191C200.406 132.253 200.974 123.748 200.974 115.81C200.974 112.975 200.974 110.14 200.974 107.872C202.109 110.14 203.812 112.974 204.948 115.243C208.354 121.48 211.761 127.717 215.167 133.954C218.573 140.191 221.979 146.428 225.386 152.665C228.792 158.335 232.198 164.005 235.605 169.675C235.605 174.778 235.605 179.314 236.172 184.417C241.282 183.85 245.824 183.283 250.933 182.716C254.907 182.149 258.314 182.149 262.288 182.149C262.855 182.149 263.423 182.149 263.991 182.149C264.559 181.015 264.559 178.747 264.559 177.613Z" fill="#A1D884"/>
<path d="M319.627 120.912C319.059 116.376 319.059 111.84 317.924 106.737C316.788 102.201 315.653 97.6651 313.95 93.1291C313.382 91.9951 313.382 91.4281 312.814 90.2941C309.976 86.8921 306.002 83.4901 302.027 80.6551C299.757 80.0881 298.053 79.5211 295.783 78.9541C291.808 78.9541 287.834 80.0881 283.86 81.7891C283.293 81.7891 283.293 81.7891 282.725 81.7891C281.59 82.9231 279.886 84.0571 278.751 85.1911C274.777 89.1601 272.506 93.6961 270.803 98.7991C270.803 99.3661 270.235 99.3661 270.235 99.3661C269.667 102.201 269.1 104.469 268.532 107.304C267.964 111.84 267.396 115.809 267.396 120.345V120.912C267.964 135.654 270.803 150.963 274.777 165.138C277.615 171.375 281.022 177.045 286.131 182.715C287.834 183.282 290.105 184.416 291.809 184.416C294.079 184.983 296.35 184.983 298.621 184.416C299.189 184.416 300.324 183.849 300.892 183.849C303.731 182.715 306.569 181.014 308.272 178.746C310.543 175.344 312.246 171.375 314.517 167.973C314.517 167.406 314.517 167.406 314.517 166.839C317.356 154.932 319.059 142.458 319.059 130.551C320.195 127.716 320.195 124.314 319.627 120.912ZM304.866 119.211C304.298 126.582 304.866 134.52 304.298 141.891C303.731 145.86 303.731 149.829 302.027 153.798C301.46 156.633 299.757 159.468 296.35 160.602C288.402 163.437 286.131 150.963 285.564 146.994C284.428 138.489 285.564 130.551 286.131 122.046C286.699 118.077 286.699 114.108 287.267 110.139C287.834 106.737 288.402 101.067 292.376 98.7991C292.944 98.2321 293.512 98.2321 294.079 97.6651C299.189 95.3971 303.731 99.9331 304.866 103.335C306.002 109.005 305.434 114.108 304.866 119.211Z" fill="#A1D884"/>
<path d="M112.409 82.3564C103.326 82.3564 94.2422 82.9234 85.1586 82.9234C77.7783 83.4904 70.9656 82.9234 63.5852 82.9234C63.0175 89.1605 62.4498 98.7995 63.5852 107.304C65.8561 107.304 67.5593 107.304 69.8302 106.737C73.8042 106.737 77.7783 106.17 81.7523 106.17C81.7523 106.17 81.7523 106.17 81.7523 106.737C81.1846 131.685 80.6169 157.2 82.8878 182.148C84.5909 182.148 86.2941 182.148 87.9973 182.148C89.7004 182.148 91.4036 182.148 93.1067 182.148C93.1067 178.746 93.1067 174.777 93.1067 171.375C93.1067 156.066 93.6745 140.19 93.6745 124.881C93.6745 118.644 93.6745 112.407 94.2422 106.737C95.3776 106.737 96.5131 106.737 97.6485 106.737C100.487 106.737 109.571 107.304 113.545 107.304C113.545 102.768 112.977 88.5934 112.409 82.3564Z" fill="#A1D884"/>
<path d="M54.5012 79.5214C54.5012 79.5214 53.9335 79.5214 54.5012 79.5214C51.0949 79.5214 48.2563 79.5214 44.85 79.5214C38.605 79.5214 31.7924 79.5214 25.5475 80.0884C15.8962 80.6554 9.65126 79.5214 0 80.0884C0 78.3874 0.567721 69.3154 0.567721 69.3154C1.70316 69.3154 3.40633 69.3154 4.54177 69.3154C7.9481 69.3154 11.9221 69.3154 15.3285 69.3154C29.5215 69.3154 53.9335 69.8824 53.9335 69.8824L54.5012 79.5214Z" fill="#A1D884"/>
<path d="M187.915 4.67775C181.67 -1.55925 171.451 -1.55925 165.207 4.67775L160.665 9.21375L156.123 4.67775C149.878 -1.55925 139.659 -1.55925 133.414 4.67775C127.169 10.9148 127.169 21.1208 133.414 27.3578L149.31 43.2338C155.555 49.4708 165.774 49.4708 172.019 43.2338L187.915 27.3578C194.16 21.1208 194.16 10.9148 187.915 4.67775Z" fill="#A1D884"/>
</svg>
