<svg width="59" height="81" viewBox="0 0 59 81" fill="none" xmlns="http://www.w3.org/2000/svg">
<path d="M39.5663 49.3011C38.9383 48.0457 37.7869 47.2087 36.4261 46.6856C35.9027 46.4764 35.2747 46.3718 34.7513 46.2672C35.0653 46.1625 35.2747 45.9533 35.5887 45.7441C36.1121 45.3256 36.7401 44.8025 37.1588 44.2794C37.5775 43.7563 37.9962 43.2333 38.3102 42.7102C38.6242 42.0825 38.8336 41.3501 38.9383 40.7224C39.0429 40.0947 38.9383 39.3624 38.7289 38.7347C38.2056 37.4793 37.1588 36.5377 35.6934 36.0147C35.0653 35.8054 34.542 35.5962 33.9139 35.4916C32.6579 35.387 31.2971 35.387 30.041 35.5962C30.041 37.0608 30.041 38.5255 30.1457 40.0947C30.355 45.5348 30.6691 50.9749 30.7737 56.415C30.9831 56.415 31.1924 56.415 31.4018 56.415C32.3438 56.2058 33.3906 56.2058 34.4373 56.2058C34.9607 56.1012 35.5887 55.9966 36.1121 55.892C37.5775 55.5781 38.6243 54.5319 39.2523 53.3811C39.5663 52.7534 39.7757 52.0211 39.8803 51.3934C39.985 50.6611 39.8803 50.0334 39.5663 49.3011ZM34.1233 44.4887L34.0186 37.1654C34.4373 37.2701 34.4373 37.2701 34.7513 37.4793C35.7981 37.7932 36.5308 38.5255 36.8448 39.3624C37.0541 39.7809 37.0541 40.304 37.0541 40.7224C36.9495 41.1409 36.8448 41.664 36.6355 42.0825C36.4261 42.5009 36.1121 42.8148 35.9027 43.2333C35.5887 43.5471 35.17 43.9656 34.7513 44.2794C34.4373 44.2794 34.3326 44.384 34.1233 44.4887ZM37.7869 51.0796C37.6822 51.498 37.5775 52.0211 37.3682 52.4396C37.1588 52.7534 36.8448 53.1719 36.5308 53.4858C36.2168 53.7996 35.7981 54.2181 35.3794 54.4273C35.17 54.5319 34.9607 54.6365 34.7513 54.7412L34.542 47.7318C34.9607 47.8364 34.9607 47.8364 35.3794 47.941C36.4261 48.2549 37.2635 48.8826 37.6822 49.7195C37.7869 50.138 37.8915 50.6611 37.7869 51.0796Z" fill="white"/>
<path d="M40.5082 46.2668C40.5082 47.7314 40.6129 49.8238 40.7175 51.2884C40.7175 52.0207 40.7175 52.7531 40.7175 53.59C40.7175 54.2177 40.6129 54.95 40.7175 55.5777V55.6823C43.125 55.8916 45.5325 55.5777 47.94 55.5777C48.254 54.6362 48.1493 52.7531 48.1493 52.23C47.5213 52.23 46.3699 52.23 45.7419 52.23C45.2185 52.23 44.5904 52.3346 43.9624 52.3346C43.5437 52.3346 43.0203 52.3346 42.6016 52.4392C42.6016 52.0207 42.6016 51.6023 42.6016 51.1838C42.6016 50.4515 42.6016 49.0914 42.6016 48.3591C42.6016 48.1499 42.6016 47.9406 42.6016 47.7314C43.125 47.7314 43.6484 47.6268 44.1718 47.6268C44.6951 47.6268 45.3232 47.7314 45.8465 47.6268C45.8465 46.6852 45.7419 45.7437 45.6372 44.6975C45.2185 44.5929 44.6951 44.8021 44.2764 44.8021C43.7531 44.8021 43.125 44.8021 42.6016 44.8021C42.6016 43.8606 42.497 41.9775 42.497 41.1405C42.497 41.0359 42.497 40.9313 42.497 40.8267C42.6016 40.8267 42.811 40.8267 42.9157 40.7221C43.2297 40.7221 43.5437 40.7221 43.8577 40.6174C44.4858 40.6174 45.0091 40.5128 45.6372 40.5128C46.8933 40.4082 46.2652 40.5128 47.5213 40.4082C47.7307 40.4082 47.94 40.4082 48.1493 40.4082C48.0447 39.0482 47.8353 37.6882 48.0447 36.3281C46.8933 36.3281 47.626 36.3281 46.4746 36.3281C44.3811 36.4327 42.2876 36.4327 40.2988 36.7466C40.2988 38.2112 40.2988 39.6759 40.4035 41.1405C40.4035 42.6052 40.5082 44.9067 40.5082 46.2668Z" fill="white"/>
<path d="M26.4824 38.8392C26.7964 38.8392 27.3198 38.8392 27.7385 38.8392C27.6338 37.6884 27.7385 36.5376 27.7385 35.3868C27.5291 35.2822 27.2151 35.2822 26.9011 35.2822C26.273 35.2822 25.5403 35.3868 24.9123 35.3868C24.0749 35.4915 23.3422 35.4915 22.5048 35.5961C22.0861 35.5961 21.6674 35.5961 21.2487 35.7007C20.9347 35.7007 20.6207 35.7007 20.3066 35.8053C20.3066 36.8515 20.3066 38.0023 20.3066 39.0485C20.83 39.0485 21.3534 38.9438 21.8767 38.8392C22.0861 38.8392 22.4001 38.8392 22.6095 38.8392C22.6095 38.8392 22.6095 38.8392 22.6095 38.9438C22.6095 39.7808 22.6095 40.6177 22.6095 41.35C22.6095 43.0239 22.6095 44.6978 22.5048 46.3717C22.4001 48.9871 22.6095 50.5564 22.5048 53.0672C22.4001 53.0672 22.2954 53.0672 22.1908 53.0672C21.6674 53.0672 21.2487 53.1718 20.7253 53.1718C20.7253 53.4856 20.7253 53.7995 20.83 54.218V54.3226C20.83 54.5318 20.83 54.6364 20.83 54.8457C20.83 54.9503 20.83 55.0549 20.83 55.2641C20.83 55.7872 20.83 56.2057 20.83 56.7288C21.2487 56.7288 21.6674 56.6242 21.9814 56.6242C22.4001 56.6242 22.7141 56.6242 23.1328 56.6242C23.5515 56.6242 24.0749 56.5196 24.4936 56.5196C25.2263 56.5196 25.959 56.5196 26.6917 56.5196C26.9011 56.5196 27.1104 56.5196 27.3198 56.4149C27.2151 55.2641 27.1104 54.218 27.2151 53.0672C26.9011 53.0672 26.5871 53.0672 26.273 53.0672C25.8543 53.0672 25.331 53.0672 24.9123 53.0672C24.9123 52.7533 24.9123 52.3349 24.9123 52.021C24.9123 51.0794 24.9123 50.1379 24.9123 49.1963C24.9123 45.4301 24.8076 42.7101 24.8076 38.9438C25.5403 38.8392 25.959 38.8392 26.4824 38.8392Z" fill="white"/>
<path d="M19.0501 47.7316C19.0501 47.627 18.9454 47.5223 18.8408 47.3131C18.3174 46.0577 17.6894 44.9069 17.0613 43.7561C16.7473 43.233 16.3286 42.7099 16.0146 42.1868C15.7006 41.6638 15.3865 41.1407 15.1772 40.6176C14.8632 39.9899 14.7585 39.4668 14.7585 38.8391C14.7585 38.7345 14.7585 38.6299 14.8632 38.5252C14.8632 38.2114 15.0725 38.0022 15.4912 38.0022C16.1193 38.0022 16.4333 38.7345 16.538 39.1529C16.6426 39.5714 16.6426 40.0945 16.7473 40.513C17.48 40.4084 18.1081 40.4084 18.8408 40.3037C18.8408 40.3037 18.8408 40.1991 18.8408 40.0945C18.8408 38.8391 18.7361 37.6883 17.794 36.7467C16.9566 35.9098 15.5959 35.3867 14.3398 35.3867C13.7118 35.3867 12.979 35.7006 12.4557 35.9098C11.9323 36.2237 11.4089 36.6421 11.1996 37.1652C10.6762 38.1068 10.3622 39.4668 10.8856 40.513C11.0949 41.0361 11.3043 41.5591 11.723 42.0822C12.1417 42.6053 12.665 43.233 13.0837 43.7561C13.9211 44.8023 14.5492 45.9531 15.0725 47.1039C15.3865 47.7316 15.4912 48.3593 15.7006 48.987C15.8052 49.6147 16.0146 50.347 15.8052 50.9747C15.7006 51.4978 15.3865 52.0209 14.7585 52.2301C14.1305 52.4394 13.6071 52.2301 13.1884 51.8116C12.665 51.3932 12.4557 50.8701 12.2463 50.2424C12.2463 50.0332 12.2463 49.7193 12.1417 49.5101C10.7809 49.6147 9.42015 49.6147 8.16406 49.6147C8.16406 49.7193 8.16406 49.9285 8.16406 50.1378C8.16406 50.4516 8.16406 50.7655 8.16406 51.0793C8.26874 51.707 8.47808 52.2301 8.68743 52.7532C9.2108 53.7994 9.94351 54.7409 11.0949 55.4733C11.5136 55.6825 11.9323 55.8917 12.351 56.101C13.6071 56.3102 14.9678 56.2056 16.2239 55.7871C16.852 55.3686 17.48 54.9502 18.1081 54.5317C18.7361 53.3809 19.1548 52.2301 19.3641 50.9747C19.3641 50.8701 19.3641 50.7655 19.3641 50.6609C19.3641 50.5562 19.3641 50.4516 19.3641 50.347C19.3641 50.2424 19.3641 50.2424 19.3641 50.1378C19.2595 49.5101 19.1548 48.6731 19.0501 47.7316ZM16.9566 54.3225C16.9566 54.2178 16.9566 54.2178 16.9566 54.3225C17.0613 54.2178 17.0613 54.1132 17.166 54.1132C17.0613 54.1132 16.9566 54.2178 16.9566 54.3225Z" fill="white"/>
<path d="M34.8565 76.083C35.3799 75.9783 35.9033 75.8737 36.4266 75.7691C36.322 75.0368 36.2173 74.4091 36.1126 73.6768C35.1706 68.2367 34.0191 62.9012 33.0771 57.4611C32.0303 57.4611 30.9836 57.4611 29.9369 57.3564C29.6229 58.4026 29.3088 59.5534 28.9948 60.7042C27.5294 65.7258 26.4826 70.9567 25.2266 76.1876C26.378 76.1876 27.5294 76.3968 28.6808 76.7107C28.6808 76.606 28.6808 76.5014 28.7855 76.3968C28.9948 75.5599 29.2042 74.8275 29.4135 73.9906C30.0415 71.4798 30.6696 68.969 31.193 66.4582C31.821 66.4582 32.449 66.3535 33.1818 66.3535C33.4958 69.4921 34.1238 72.8398 34.8565 76.083ZM31.9257 61.9596C32.135 63.1104 32.3444 64.1566 32.5537 65.3074C32.0303 65.3074 31.6117 65.3074 31.0883 65.3074C31.193 64.9935 31.193 64.7843 31.2976 64.4704C31.507 63.6335 31.7163 62.7966 31.9257 61.9596Z" fill="white"/>
<path d="M53.2791 75.4552C53.2791 74.6183 53.1744 73.7814 53.1744 73.0491C53.1744 71.4798 53.0697 69.9105 52.965 68.3413C52.8604 66.6674 52.8604 65.0981 52.7557 63.4243C52.7557 63.0058 52.651 62.5873 52.651 62.0642C52.651 61.6458 52.651 61.2273 52.5463 60.7042C52.4417 59.7626 52.5463 58.9257 52.5463 57.9842C52.5463 57.7749 52.5463 57.5657 52.4417 57.3564C52.2323 57.3564 52.023 57.3564 51.8136 57.3564C50.3482 57.3564 48.8828 57.4611 47.522 57.5657C47.6267 58.9257 47.7314 60.1811 47.7314 61.5411C47.836 64.4704 47.9407 67.5043 48.0454 70.4336C47.9407 70.2244 47.836 70.1198 47.7314 69.9105C46.9986 68.6551 46.3706 67.2951 45.5332 66.0397C45.2192 65.412 44.9052 64.7843 44.4865 64.1566C44.1725 63.5289 43.7538 62.9012 43.4397 62.2735C43.1257 61.6458 42.707 61.0181 42.393 60.3904C42.2883 60.0765 42.079 59.7626 41.9743 59.4488C41.8696 59.2396 41.765 59.0303 41.6603 58.8211C41.6603 58.4026 41.6603 58.0888 41.5556 57.6703C40.4042 57.7749 39.2528 57.7749 37.9967 57.6703C37.892 59.0303 37.9967 60.3904 37.9967 61.6458C38.2061 66.6674 38.4154 71.689 38.7294 76.8153C39.7762 76.7107 40.7182 76.606 41.765 76.5014C41.765 76.1876 41.765 75.7691 41.765 75.4552C41.765 74.7229 41.6603 73.886 41.6603 73.1537C41.5556 71.5844 41.6603 70.1198 41.5556 68.5505C41.4509 67.0859 41.5556 65.5166 41.5556 64.052C41.5556 63.5289 41.5556 63.0058 41.5556 62.5873C41.765 63.0058 42.079 63.5289 42.2883 63.9473C42.9164 65.0981 43.5444 66.2489 44.1725 67.3997C44.8005 68.5505 45.4285 69.7013 46.0566 70.8521C46.6846 71.8983 47.3127 72.9444 47.9407 73.9906C47.9407 74.9322 47.9407 75.7691 48.0454 76.7107C48.9874 76.606 49.8248 76.5014 50.7669 76.3968C51.4996 76.2922 52.1277 76.2922 52.8604 76.2922C52.965 76.2922 53.0697 76.2922 53.1744 76.2922C53.3837 75.9783 53.2791 75.6645 53.2791 75.4552Z" fill="white"/>
<path d="M14.6545 77.4425C14.6545 77.5472 14.6545 77.5472 14.6545 77.4425C15.1779 77.3379 16.3293 76.9195 16.8527 76.7102C16.748 76.3964 11.5143 68.027 11.4097 67.6085C11.305 67.3993 11.305 67.2947 11.2003 67.0854C11.2003 66.9808 11.0956 66.8762 11.0956 66.7716C11.305 66.7716 11.4097 66.7716 11.619 66.667C12.4564 66.4577 13.0844 66.2485 13.6078 65.7254C14.1312 65.3069 14.5499 64.7839 14.8639 64.2608C14.9686 63.9469 15.1779 63.6331 15.1779 63.3192C15.2826 63.0054 15.1779 62.5869 15.1779 62.273C15.0732 61.1222 14.6545 59.6576 13.6078 58.716C13.0844 58.193 12.3517 57.8791 11.619 57.6699C11.4097 57.5653 11.2003 57.5653 10.991 57.4606C9.94422 57.2514 6.80401 57.2514 5.86195 57.4606C5.86195 57.6699 5.86195 57.7745 5.86195 57.9837C5.75728 58.8207 5.86195 59.553 5.86195 60.3899C5.86195 60.913 5.86195 61.3315 5.86195 61.8546C5.86195 61.9592 5.86195 62.0638 5.86195 62.1684C5.86195 63.6331 5.96662 65.2023 5.96662 66.667C6.0713 68.1316 6.0713 69.4916 6.0713 70.9563C6.17597 72.4209 6.17597 73.8856 6.17597 75.3502C6.17597 75.7687 6.17597 76.1871 6.17597 76.6056C6.17597 76.8148 6.17597 77.0241 6.17597 77.2333C6.90869 77.3379 9.52553 77.4425 10.2582 77.4425C10.2582 76.3964 10.2582 75.3502 10.3629 74.304C10.3629 72.7348 10.3629 71.1655 10.3629 69.5962C10.3629 69.7009 10.4676 69.9101 10.4676 70.0147C10.6769 70.747 14.0265 76.3964 14.2358 76.7102C14.4452 76.9195 14.4452 77.2333 14.6545 77.4425ZM10.3629 66.0393C10.3629 63.4238 10.2582 60.8084 10.1536 58.193C10.4676 58.2976 10.8863 58.2976 11.2003 58.4022C11.7237 58.6114 12.3517 58.8207 12.7704 59.1345C13.6078 59.8668 13.9218 61.0176 14.0265 62.0638C14.0265 62.5869 14.1312 63.11 13.9218 63.6331C13.7125 64.1561 13.5031 64.5746 13.0844 64.8885C12.6657 65.3069 12.247 65.6208 11.619 65.7254C11.305 65.83 10.991 65.9346 10.6769 65.9346C10.5723 66.0393 10.4676 66.0393 10.3629 66.0393Z" fill="white"/>
<path d="M19.155 57.4603C19.0503 57.7742 19.155 58.1926 19.155 58.4019C19.155 58.8203 19.0504 59.2388 19.0504 59.6573C19.0504 60.0757 19.0504 60.4942 19.0504 60.9127C19.0504 61.7496 18.9457 62.5865 18.9457 63.4235C18.9457 66.8759 18.7363 70.2236 18.7363 73.676C18.7363 74.0945 18.7363 74.6175 18.7363 75.036C18.7363 75.2452 18.7363 75.3499 18.7363 75.5591C19.8877 75.5591 21.0391 75.4545 22.2952 75.3499C22.2952 74.6175 22.3999 73.9898 22.3999 73.2575C22.3999 72.5252 22.3999 71.7929 22.3999 71.1652C22.3999 69.7005 22.5046 68.2359 22.5046 66.7712C22.6093 64.0512 22.7139 61.2265 22.8186 58.5065C22.8186 58.1926 22.9233 57.7742 22.9233 57.4603C21.7719 57.3557 20.5158 57.3557 19.155 57.4603Z" fill="white"/>
<path d="M18.2131 78.5926C18.2131 78.6972 18.2131 78.6972 18.1084 78.6972C18.1084 79.011 18.2131 79.4295 18.2131 79.7434C18.6318 80.2665 19.2598 80.5803 19.9925 80.9988C21.0393 80.9988 21.9813 80.4757 22.5047 79.7434C22.6094 79.011 22.714 78.2787 22.4 77.651C22.2953 77.5464 22.1907 77.4418 22.086 77.3372C21.458 77.1279 20.7252 77.1279 20.0972 77.1279C19.4692 77.1279 18.9458 77.3372 18.5271 77.5464C18.4224 77.7556 18.3177 78.1741 18.2131 78.5926Z" fill="white"/>
<path d="M0.5238 24.6106C0.5238 26.0753 0.628474 27.4353 0.628474 28.8999C0.628474 29.6323 0.628474 30.3646 0.628474 31.2015C0.628474 31.8292 0.5238 32.5615 0.628474 33.1893V33.2939C3.03597 33.5031 5.44346 33.1893 7.85095 33.1893C8.58367 33.1893 9.21171 33.1893 9.94443 33.1893C10.7818 33.0846 11.6192 33.0846 12.4566 33.0846C12.3519 32.0385 12.3519 30.8877 12.3519 29.8415C12.2472 29.8415 12.1426 29.8415 12.0379 29.8415C11.8286 29.8415 11.6192 29.8415 11.4099 29.7369C10.7818 29.7369 10.1538 29.7369 9.52573 29.7369C8.26965 29.7369 7.01356 29.6323 5.75748 29.7369C5.23411 29.7369 4.60607 29.8415 3.97803 29.8415C3.55934 29.8415 3.03597 29.8415 2.61727 29.9461C2.61727 29.5276 2.61727 29.1092 2.61727 28.6907C2.61727 27.9584 2.72195 27.2261 2.72195 26.4937C2.72195 26.2845 2.72195 26.0753 2.72195 25.866C3.24531 25.866 3.76868 25.7614 4.29205 25.7614C4.81542 25.7614 5.44346 25.866 5.96683 25.7614C5.96683 24.8199 5.86215 23.8783 5.75748 22.8321C5.23411 22.9367 4.71074 23.0414 4.29205 23.0414C3.76868 23.0414 3.14064 23.0414 2.61727 23.0414C2.61727 22.0998 2.61727 21.2629 2.5126 20.3213C2.5126 20.2167 2.5126 20.1121 2.5126 20.0075C2.61727 20.0075 2.82662 20.0075 2.93129 19.9028C3.24531 19.9028 3.55934 19.9028 3.87336 19.7982C4.5014 19.7982 5.02477 19.6936 5.65281 19.6936C6.90889 19.589 8.16497 19.589 9.31638 19.4844C9.52573 19.4844 9.73508 19.4844 9.94443 19.4844C9.83975 18.1243 9.6304 16.7643 9.83975 15.4043C8.68834 15.4043 7.64161 15.5089 6.4902 15.5089C4.39672 15.6135 2.30325 15.6135 0.314453 15.9274C0.314453 17.392 0.314453 18.8567 0.419127 20.3213C0.419127 21.8906 0.5238 23.2506 0.5238 24.6106Z" fill="white"/>
<path d="M29.6223 14.0443C29.5176 14.1489 29.4129 14.2536 29.4129 14.3582C29.3082 15.0905 29.3082 15.9274 29.3082 16.6598C29.3082 17.1828 29.3082 17.7059 29.3082 18.1244C28.6802 18.1244 28.1568 18.229 27.5288 18.229C26.9007 18.229 26.2727 18.3336 25.6447 18.4382C25.6447 16.9736 25.6447 15.509 25.54 14.0443C25.4353 14.0443 25.3306 13.9397 25.3306 13.9397C24.2839 13.9397 23.2372 14.0443 22.1904 14.0443C22.2951 15.509 22.3998 16.9736 22.3998 18.3336C22.6091 23.8784 22.2951 29.4231 22.1904 34.8632C23.3418 34.8632 24.3886 34.7586 25.4353 34.5493C25.4353 33.6078 25.4353 32.5616 25.4353 31.62C25.54 27.7492 25.6447 23.7737 25.6447 19.9029C25.854 19.9029 26.0634 19.7983 26.2727 19.7983C26.6914 19.7983 27.0054 19.6937 27.4241 19.6937C28.0522 19.589 28.5755 19.589 29.2036 19.4844C29.0989 21.0537 29.0989 22.6229 29.0989 24.1922C29.0989 25.8661 29.0989 27.6446 29.0989 29.3185C29.0989 30.1554 29.0989 30.9923 28.9942 31.8293C28.9942 32.2477 28.8895 32.6662 28.8895 32.9801C28.8895 33.3985 28.8895 33.817 28.8895 34.2355C28.8895 34.3401 28.8895 34.4447 28.8895 34.4447C29.0989 34.4447 29.3082 34.5493 29.4129 34.5493C30.2503 34.5493 30.983 34.5493 31.8204 34.5493C31.8204 34.0262 31.8204 33.6078 31.9251 33.0847C32.0297 29.6323 32.2391 26.1799 32.2391 22.6229C32.2391 19.6937 32.2391 16.6598 32.4484 13.7305C31.4017 14.1489 30.4596 14.1489 29.6223 14.0443Z" fill="white"/>
<path d="M48.7781 32.7707C48.7781 31.9337 48.6734 31.0968 48.6734 30.3645C48.6734 28.7952 48.5687 27.226 48.4641 25.6567C48.3594 23.9828 48.3594 22.4136 48.2547 20.7397C48.2547 20.3212 48.15 19.9027 48.15 19.3797C48.15 18.9612 48.15 18.5427 48.0454 18.0196C47.9407 17.0781 48.0454 16.2411 48.0454 15.2996C48.0454 15.0903 48.0454 14.8811 47.9407 14.6719C47.7313 14.6719 47.522 14.6719 47.3127 14.6719C45.8472 14.6719 44.3818 14.7765 43.021 14.8811C43.1257 16.2411 43.2304 17.4965 43.2304 18.8566C43.3351 21.7859 43.4397 24.8198 43.5444 27.749C43.4397 27.5398 43.3351 27.4352 43.2304 27.226C42.4977 25.9706 41.8696 24.6105 41.0322 23.3551C40.7182 22.7274 40.4042 22.0997 39.9855 21.472C39.6715 20.8443 39.2528 20.2166 38.9388 19.5889C38.6247 18.9612 38.2061 18.3335 37.892 17.7058C37.7874 17.3919 37.578 17.0781 37.4733 16.7642C37.3687 16.555 37.264 16.3458 37.1593 16.1365C37.1593 15.718 37.1593 15.4042 37.0546 14.9857C35.9032 15.0903 34.7518 15.0903 33.4957 14.9857C33.3911 16.3458 33.4957 17.7058 33.4957 18.9612C33.7051 23.9828 33.9144 29.0045 34.2285 34.1307C35.2752 34.0261 36.2173 33.9215 37.264 33.8169C37.264 33.503 37.264 33.0845 37.264 32.7707C37.264 32.0384 37.1593 31.2014 37.1593 30.4691C37.0546 28.8998 37.1593 27.4352 37.0546 25.8659C36.95 24.4013 37.0546 22.832 37.0546 21.3674C37.0546 20.8443 37.0546 20.3212 37.0546 19.9027C37.264 20.3212 37.578 20.8443 37.7874 21.2628C38.4154 22.4136 39.0434 23.5644 39.6715 24.7151C40.2995 25.8659 40.9276 27.0167 41.5556 28.1675C42.1837 29.2137 42.8117 30.2599 43.4397 31.306C43.4397 32.2476 43.4397 33.0845 43.5444 34.0261C44.4865 33.9215 45.3239 33.8169 46.2659 33.7122C46.9986 33.6076 47.6267 33.6076 48.3594 33.6076C48.4641 33.6076 48.5687 33.6076 48.6734 33.6076C48.7781 33.3984 48.7781 32.9799 48.7781 32.7707Z" fill="white"/>
<path d="M58.9308 22.3091C58.8261 21.4721 58.8261 20.6352 58.6167 19.6936C58.4074 18.8567 58.198 18.0198 57.884 17.1828C57.7793 16.9736 57.7793 16.869 57.6747 16.6597C57.1513 16.032 56.4186 15.4043 55.6859 14.8812C55.2672 14.7766 54.9532 14.672 54.5345 14.5674C53.8017 14.5674 53.069 14.7766 52.3363 15.0905C52.2316 15.0905 52.2316 15.0905 52.127 15.0905C51.9176 15.2997 51.6036 15.5089 51.3943 15.7182C50.6615 16.4505 50.2428 17.2874 49.9288 18.229C49.9288 18.3336 49.8241 18.3336 49.8241 18.3336C49.7195 18.8567 49.6148 19.2752 49.5101 19.7983C49.4055 20.6352 49.3008 21.3675 49.3008 22.2045V22.3091C49.4055 25.0291 49.9288 27.8538 50.6615 30.4692C51.1849 31.62 51.813 32.6662 52.755 33.7124C53.069 33.817 53.4877 34.0262 53.8018 34.0262C54.2204 34.1308 54.6391 34.1308 55.0578 34.0262C55.1625 34.0262 55.3719 33.9216 55.4765 33.9216C55.9999 33.7124 56.5233 33.3985 56.8373 32.98C57.256 32.3523 57.57 31.62 57.9887 30.9923C57.9887 30.8877 57.9887 30.8877 57.9887 30.7831C58.5121 28.5861 58.8261 26.2845 58.8261 24.0876C59.0354 23.5645 59.0354 22.9368 58.9308 22.3091ZM56.2092 21.9952C56.1046 23.3552 56.2092 24.8199 56.1046 26.1799C55.9999 26.9122 55.9999 27.6446 55.6859 28.3769C55.5812 28.9 55.2672 29.4231 54.6391 29.6323C53.1737 30.1554 52.755 27.8538 52.6503 27.1215C52.441 25.5522 52.6503 24.0876 52.755 22.5183C52.8597 21.786 52.8597 21.0537 52.9644 20.3213C53.069 19.6936 53.1737 18.6475 53.9064 18.229C54.0111 18.1244 54.1158 18.1244 54.2204 18.0198C55.1625 17.6013 55.9999 18.4382 56.2092 19.0659C56.4186 20.1121 56.3139 21.0537 56.2092 21.9952Z" fill="white"/>
<path d="M20.7253 15.1953C19.0506 15.1953 17.3758 15.2999 15.701 15.2999C14.3402 15.4045 13.0842 15.2999 11.7234 15.2999C11.6187 16.4507 11.5141 18.2292 11.7234 19.7985C12.1421 19.7985 12.4561 19.7985 12.8748 19.6939C13.6075 19.6939 14.3402 19.5892 15.073 19.5892C15.073 19.5892 15.073 19.5892 15.073 19.6939C14.9683 24.297 14.8636 29.0048 15.2823 33.608C15.5963 33.608 15.9104 33.608 16.2244 33.608C16.5384 33.608 16.8524 33.608 17.1664 33.608C17.1664 32.9803 17.1664 32.2479 17.1664 31.6202C17.1664 28.7956 17.2711 25.8663 17.2711 23.0416C17.2711 21.8908 17.2711 20.74 17.3758 19.6939C17.5851 19.6939 17.7945 19.6939 18.0038 19.6939C18.5272 19.6939 20.202 19.7985 20.9347 19.7985C20.9347 18.9615 20.83 16.3461 20.7253 15.1953Z" fill="white"/>
<path d="M10.0487 14.6722C10.0487 14.6722 9.94399 14.6722 10.0487 14.6722C9.42063 14.6722 8.89726 14.6722 8.26922 14.6722C7.11781 14.6722 5.86172 14.6722 4.71031 14.7768C2.93086 14.8814 1.77945 14.6722 0 14.7768C0 14.4629 0.104674 12.7891 0.104674 12.7891C0.314021 12.7891 0.628042 12.7891 0.837389 12.7891C1.46543 12.7891 2.19815 12.7891 2.82619 12.7891C5.44303 12.7891 9.94399 12.8937 9.94399 12.8937L10.0487 14.6722Z" fill="white"/>
<path d="M34.6466 0.863093C33.4952 -0.287698 31.6111 -0.287698 30.4597 0.863093L29.6223 1.70003L28.7849 0.863093C27.6335 -0.287698 25.7493 -0.287698 24.5979 0.863093C23.4465 2.01388 23.4465 3.897 24.5979 5.04779L27.5288 7.97707C28.6802 9.12787 30.5643 9.12787 31.7157 7.97707L34.6466 5.04779C35.798 3.897 35.798 2.01388 34.6466 0.863093Z" fill="white"/>
</svg>
