<svg width="214" height="14" viewBox="0 0 214 14" fill="none" xmlns="http://www.w3.org/2000/svg">
<path d="M207.338 0.309094C201.611 0.951934 195.708 0.601294 189.923 0.601293C181.39 0.601293 181.332 12.6399 189.923 12.6399C195.65 12.6399 201.611 13.049 207.338 12.3477C210.903 11.9387 214 9.89326 214 6.32842C213.942 3.40641 210.903 -0.0999862 207.338 0.309094Z" fill="#A1D884"/>
<path d="M171.163 0.308593C162.631 0.308593 162.573 12.3472 171.163 12.3472C179.696 12.3472 179.696 0.308594 171.163 0.308593Z" fill="#A1D884"/>
<path d="M154.509 0.0166621C147.32 0.484182 140.074 0.0166615 132.886 0.0166612C124.354 0.0166608 124.295 12.0553 132.886 12.0553C140.074 12.0553 147.32 12.5228 154.509 12.0553C163.041 11.5878 163.099 -0.509298 154.509 0.0166621Z" fill="#A1D884"/>
<path d="M116.23 0.541992C107.698 0.541992 107.639 12.5806 116.23 12.5806C124.821 12.6391 124.821 0.541992 116.23 0.541992Z" fill="#A1D884"/>
<path d="M98.9914 0.833849C92.9721 0.892289 86.3684 2.17797 80.3491 1.0676C71.9921 -0.510277 68.4273 11.1193 76.8427 12.6972C84.1477 14.0997 91.5696 12.9894 98.9914 12.9309C107.524 12.8141 107.524 0.716969 98.9914 0.833849Z" fill="#A1D884"/>
<path d="M61.3557 1.36035C52.8235 1.36035 52.765 13.399 61.3557 13.399C69.8879 13.399 69.8879 1.36035 61.3557 1.36035Z" fill="#A1D884"/>
<path d="M44.4075 1.36034C37.3947 1.36033 30.3818 1.06813 23.369 1.36033C14.8368 1.71097 14.7784 13.8081 23.369 13.399C30.3818 13.1068 37.3947 13.399 44.4075 13.399C52.9397 13.4574 52.9397 1.36034 44.4075 1.36034Z" fill="#A1D884"/>
<path d="M6.42166 1.88672C-2.11059 1.88672 -2.16903 13.9254 6.42165 13.9254C14.9539 13.9254 15.0123 1.88672 6.42166 1.88672Z" fill="#A1D884"/>
</svg>
