<svg width="33" height="12" viewBox="0 0 33 12" fill="none" xmlns="http://www.w3.org/2000/svg">
<path d="M6.43289 1.20553L6.43289 1.20559L6.44308 1.20492C10.8788 0.916419 15.3029 1.0123 19.7688 1.10909C22.0231 1.15794 24.288 1.20703 26.5706 1.20703C28.3276 1.20703 29.557 1.81487 30.3496 2.65139C31.1548 3.50135 31.5697 4.65178 31.5669 5.82573C31.564 6.99981 31.1433 8.15234 30.3348 9.0043C29.5391 9.84276 28.3119 10.4493 26.5706 10.4493C24.3816 10.4493 22.1637 10.4015 19.9312 10.3534C15.4119 10.2561 10.8332 10.1575 6.31517 10.4513C4.5587 10.5584 3.35031 10.0228 2.57976 9.25358C1.79407 8.46923 1.379 7.35732 1.38185 6.17849C1.38751 3.84086 3.02712 1.39215 6.43289 1.20553Z" stroke="#333F48" stroke-width="2"/>
</svg>
