<svg width="7" height="14" viewBox="0 0 7 14" fill="none" xmlns="http://www.w3.org/2000/svg">
<path d="M6.76981 0.360352C5.56981 0.360352 4.35979 0.420358 3.15979 0.460358C2.20979 0.460358 1.25979 0.460358 0.309786 0.460358C0.206634 1.53789 0.206634 2.62281 0.309786 3.70035L1.14978 3.65036L2.68979 3.60034V3.66034C2.5548 6.96388 2.60488 10.2724 2.83978 13.5703H3.52979H4.2298C4.2298 13.0903 4.2298 12.5704 4.2298 12.1204C4.2298 10.1204 4.2298 8.05035 4.2898 6.01035C4.2898 5.21035 4.28978 4.40034 4.36978 3.60034H4.82981C5.21981 3.60034 6.41979 3.66034 6.93979 3.60034C6.94623 2.51795 6.88948 1.43612 6.76981 0.360352V0.360352Z" fill="#323E48"/>
</svg>
