<svg width="9" height="16" viewBox="0 0 9 16" fill="none" xmlns="http://www.w3.org/2000/svg">
<path d="M8.58995 9.65C8.58995 9.56 8.51996 9.47999 8.47996 9.38999C8.09414 8.51835 7.66356 7.66723 7.18995 6.84C6.95995 6.46 6.66994 6.1 6.45994 5.71C6.24994 5.32 5.99996 4.99998 5.81996 4.62998C5.61602 4.2337 5.50649 3.79561 5.49995 3.34998C5.50117 3.26429 5.51814 3.17955 5.54997 3.09998C5.54997 2.88998 5.68997 2.74999 5.98997 2.75999C6.47997 2.75999 6.62994 3.27 6.70994 3.59C6.78994 3.91 6.78997 4.26 6.85997 4.59L8.35997 4.43998C8.36478 4.40012 8.36478 4.35984 8.35997 4.31998C8.40405 3.8923 8.36122 3.46013 8.23405 3.04941C8.10688 2.6387 7.89799 2.25794 7.61994 1.93C7.13482 1.41744 6.49165 1.08264 5.79353 0.979285C5.0954 0.875926 4.3828 1.00999 3.76997 1.35999C3.38918 1.55993 3.07084 1.86095 2.84996 2.22999C2.62823 2.58282 2.49117 2.98219 2.44953 3.39683C2.4079 3.81146 2.46282 4.23012 2.60997 4.62C2.76125 5.00734 2.9558 5.37633 3.18995 5.71998C3.47995 6.11998 3.82995 6.49998 4.12995 6.90998C4.69622 7.65657 5.16969 8.4692 5.53996 9.32999C5.72036 9.77241 5.85766 10.2312 5.94996 10.7C6.08918 11.1566 6.11999 11.6394 6.03996 12.11C6.01276 12.3062 5.93215 12.4911 5.80693 12.6445C5.6817 12.7979 5.51671 12.914 5.32997 12.98C5.13175 13.0498 4.91712 13.0586 4.71388 13.0051C4.51064 12.9516 4.32813 12.8383 4.18995 12.68C3.86955 12.3887 3.64911 12.0038 3.55995 11.58C3.53246 11.4012 3.51578 11.2208 3.50996 11.04C2.50996 11.09 1.58996 11.12 0.639964 11.09C0.629962 11.2031 0.629962 11.3169 0.639964 11.43C0.620012 11.6562 0.620012 11.8838 0.639964 12.11C0.69859 12.5406 0.834067 12.9573 1.03996 13.34C1.42217 14.1306 2.01354 14.8015 2.74995 15.28C3.03268 15.4722 3.34286 15.6205 3.66996 15.72C4.6025 15.8395 5.54975 15.7612 6.44996 15.49C6.91351 15.2273 7.35201 14.9227 7.75996 14.58C8.17966 13.7811 8.49234 12.9305 8.68995 12.05C8.68995 11.99 8.68995 11.92 8.68995 11.86V11.62C8.69491 11.5768 8.69491 11.5332 8.68995 11.49C8.69169 10.8753 8.65829 10.2609 8.58995 9.65V9.65ZM7.09996 14.29C7.10186 14.2667 7.10186 14.2433 7.09996 14.22L7.16996 14.15C7.15151 14.199 7.12805 14.2459 7.09996 14.29Z" fill="#323E48"/>
</svg>
