<svg width="11" height="14" viewBox="0 0 11 14" fill="none" xmlns="http://www.w3.org/2000/svg">
<path d="M10.7803 12.9203C10.7803 12.3403 10.7803 11.7603 10.7303 11.1803C10.7303 10.0503 10.6403 8.9303 10.5703 7.8103C10.5003 6.6903 10.5003 5.46028 10.4303 4.29028C10.4303 3.98028 10.3803 3.66028 10.3503 3.35028C10.3203 3.04028 10.3503 2.73029 10.3503 2.42029C10.2903 1.77029 10.3503 1.1303 10.3503 0.490295C10.3484 0.330676 10.3108 0.173482 10.2403 0.0302734H9.82031C8.82031 0.0302734 7.76033 0.100287 6.74033 0.200287C6.83033 1.15029 6.8803 2.09028 6.9003 3.04028C6.9603 5.16028 7.04031 7.27028 7.10031 9.38028L6.9003 9.02029C6.3903 8.09029 5.9003 7.1603 5.3703 6.2403C5.1103 5.7903 4.89031 5.33028 4.63031 4.88028C4.37031 4.43028 4.10032 3.99028 3.86032 3.54028C3.62032 3.09028 3.31031 2.64029 3.10031 2.17029C3.00031 1.96029 2.9103 1.74027 2.8103 1.53027C2.7103 1.32027 2.66031 1.2203 2.60031 1.0603C2.61556 0.793854 2.61556 0.526733 2.60031 0.260284C1.75772 0.31039 0.912902 0.31039 0.0703125 0.260284C0.0703125 1.26028 0.0703125 2.17028 0.0703125 3.13028C0.210313 6.73028 0.400321 10.3403 0.610321 13.9303L2.77032 13.7203C2.77032 13.4603 2.77032 13.2103 2.77032 12.9503C2.77032 12.4003 2.77032 11.8503 2.70032 11.3003C2.64032 10.2003 2.70032 9.10027 2.70032 8.00027C2.70032 6.90027 2.70032 5.84029 2.70032 4.77029V3.70029C2.88032 4.03029 3.05033 4.37029 3.24033 4.70029C3.69033 5.53029 4.1303 6.36028 4.5903 7.19028C5.0503 8.02028 5.49032 8.83029 5.95032 9.64029C6.41032 10.4503 6.83032 11.1403 7.27032 11.8803C7.27032 12.5303 7.27031 13.1803 7.32031 13.8303C7.97031 13.7803 8.62031 13.6903 9.32031 13.6303C9.8021 13.5818 10.2861 13.5584 10.7703 13.5603H10.9903C10.936 13.3422 10.8657 13.1282 10.7803 12.9203V12.9203Z" fill="#323E48"/>
</svg>
