<svg width="6" height="16" viewBox="0 0 6 16" fill="none" xmlns="http://www.w3.org/2000/svg">
<path d="M4.84952 3.28046C5.15235 3.30502 5.45669 3.30502 5.75952 3.28046C5.75952 2.46046 5.75952 1.63049 5.75952 0.810491C5.56319 0.763644 5.36089 0.746768 5.15952 0.760473C4.69952 0.760473 4.20952 0.810479 3.75952 0.860479C3.30952 0.910479 2.61953 0.950484 2.04953 0.990484H1.16953C0.951785 0.987235 0.734213 1.00396 0.519531 1.04047C0.519531 1.81047 0.519531 2.59049 0.519531 3.37049C0.879531 3.37049 1.24953 3.26046 1.60953 3.25046H2.11951C2.11951 3.84046 2.11951 4.42047 2.11951 5.01047C2.11951 6.21047 2.11953 7.41048 2.04953 8.61048C1.99953 10.4505 2.10953 11.6105 2.04953 13.4205H1.84952C1.49952 13.4205 1.16952 13.4905 0.849518 13.4905C0.849518 13.7305 0.849506 13.9705 0.899506 14.2205C0.899506 14.2205 0.899506 14.2205 0.899506 14.2905V14.6205C0.904489 14.7104 0.904489 14.8005 0.899506 14.8905C0.899506 15.2305 0.899506 15.5705 0.899506 15.8905C1.18951 15.8905 1.50951 15.8205 1.71951 15.8105C1.92951 15.8005 2.26953 15.8105 2.54953 15.8105C2.82953 15.8105 3.19953 15.8105 3.54953 15.8105H5.12952C5.27805 15.8161 5.42568 15.7851 5.55951 15.7205C5.48479 14.9261 5.45475 14.1282 5.46951 13.3305C5.25951 13.3305 5.00953 13.3305 4.82953 13.3305H3.82953C3.82953 13.0705 3.82953 12.8205 3.82953 12.5605C3.82953 11.8805 3.82953 11.2105 3.82953 10.5605C3.82953 7.89049 3.76953 5.94047 3.76953 3.26047L4.84952 3.28046Z" fill="#323E48"/>
</svg>
