<svg width="4" height="14" viewBox="0 0 4 14" fill="none" xmlns="http://www.w3.org/2000/svg">
<path d="M0.70042 0.570796C0.680546 0.800367 0.680546 1.03123 0.70042 1.2608C0.70042 1.5508 0.700422 1.84079 0.640422 2.13079C0.580422 2.42079 0.640422 2.73079 0.640422 3.03079C0.640422 3.62079 0.590404 4.21081 0.590404 4.80081C0.590404 7.24081 0.460399 9.68079 0.460399 12.1308C0.460399 12.4508 0.460399 12.7708 0.460399 13.1308C0.445492 13.257 0.445492 13.3846 0.460399 13.5108C1.3004 13.5108 2.14042 13.4008 2.98042 13.3408C2.98042 12.8408 3.06041 12.3408 3.06041 11.8308C3.06041 11.3208 3.06041 10.8308 3.06041 10.3008C3.06041 9.25081 3.06041 8.21079 3.16041 7.16079C3.26041 5.16079 3.31042 3.2208 3.36042 1.2608C3.36042 1.0208 3.42041 0.770788 3.41041 0.530788C2.56041 0.480788 1.63042 0.520796 0.70042 0.570796Z" fill="#323E48"/>
</svg>
