<svg width="8" height="16" viewBox="0 0 8 16" fill="none" xmlns="http://www.w3.org/2000/svg">
<path d="M7.23965 10.7601C6.74181 9.8863 5.94153 9.22476 4.98965 8.90015C4.59448 8.74502 4.18114 8.64085 3.75964 8.59015C3.96397 8.48692 4.16108 8.36998 4.34964 8.24015C4.77519 7.96263 5.15906 7.62592 5.48965 7.24015C5.78221 6.88125 6.04632 6.50008 6.27963 6.10013C6.51864 5.65693 6.66815 5.17105 6.71964 4.67014C6.78326 4.19004 6.72481 3.70164 6.54965 3.25013C6.35664 2.79097 6.06479 2.38 5.69492 2.04642C5.32504 1.71285 4.88622 1.46487 4.40964 1.32014C4.00009 1.1739 3.58279 1.05039 3.15964 0.95014C2.23718 0.853202 1.30603 0.87674 0.389648 1.02015C0.389648 2.09015 0.389646 3.15015 0.449646 4.21015C0.569646 8.09015 0.819639 11.9602 0.879639 15.8402H1.35965C2.07602 15.7484 2.79744 15.7016 3.51965 15.7001L4.72964 15.4401C5.20772 15.3157 5.65423 15.092 6.04016 14.7836C6.42609 14.4752 6.74278 14.089 6.96964 13.6502C7.20478 13.203 7.36363 12.7196 7.43964 12.2201C7.5488 11.7252 7.47791 11.2075 7.23965 10.7601ZM3.33963 7.31016L3.22964 2.06016C3.41735 2.11005 3.60116 2.17353 3.77963 2.25013C4.11048 2.35171 4.41521 2.52425 4.67255 2.75568C4.92988 2.98711 5.13366 3.2719 5.26965 3.59015C5.39361 3.90802 5.43154 4.25295 5.37964 4.59015C5.34565 4.93983 5.24376 5.27951 5.07965 5.59015C4.92057 5.86957 4.73646 6.13396 4.52963 6.38013C4.30549 6.65707 4.03886 6.89674 3.73965 7.09015L3.33963 7.31016ZM5.98965 12.0001C5.95375 12.3535 5.84111 12.6948 5.65964 13.0001C5.48072 13.2663 5.28002 13.5171 5.05963 13.7501C4.80399 14.0163 4.51493 14.2483 4.19965 14.4401L3.75964 14.6701L3.63965 9.67014C3.95965 9.74014 3.92963 9.76013 4.24963 9.85013C4.59512 9.93639 4.91788 10.0963 5.19577 10.319C5.47366 10.5417 5.70014 10.8218 5.85965 11.1401C5.97682 11.4107 6.02163 11.707 5.98965 12.0001Z" fill="#323E48"/>
</svg>
