<svg width="7" height="15" viewBox="0 0 7 15" fill="none" xmlns="http://www.w3.org/2000/svg">
<path d="M0.940002 7.55046C0.940002 8.55046 1.04002 10.0905 1.05002 11.1105C1.05002 11.6505 1.05002 12.1905 1.05002 12.7305C1.01499 13.1965 1.01499 13.6644 1.05002 14.1304C1.04622 14.1637 1.04622 14.1972 1.05002 14.2305C2.77002 14.3605 4.48999 14.2304 6.20999 14.1604C6.39065 13.3702 6.42793 12.5539 6.32001 11.7504C5.87001 11.7504 5.08 11.7504 4.63 11.7504C4.18 11.7504 3.79999 11.8005 3.39999 11.8405C2.99999 11.8805 2.72999 11.8404 2.39999 11.9104C2.39999 11.6204 2.39999 11.3205 2.39999 11.0205C2.39999 10.5105 2.39999 9.51046 2.39999 9.02046V8.58046C2.76999 8.58046 3.14001 8.50046 3.51001 8.49046C3.88001 8.48046 4.29999 8.54046 4.67999 8.49046C4.67999 7.80046 4.68001 7.11045 4.57001 6.42045C4.23699 6.39988 3.90302 6.39988 3.57001 6.42045H2.39001C2.39001 5.78045 2.34 4.42046 2.31 3.80046C2.31498 3.73388 2.31498 3.66702 2.31 3.60045V3.60045C2.42 3.60045 2.53001 3.60045 2.64001 3.60045L3.28 3.55046L4.53 3.47044C5.41 3.40044 5.01 3.47045 5.88 3.39045H6.35001C6.21024 2.4169 6.18005 1.43074 6.26001 0.450451C5.89377 0.42537 5.52624 0.42537 5.16 0.450451C3.69 0.550451 2.16 0.530459 0.75 0.770459C0.75 1.83046 0.750018 2.88044 0.800018 3.94044C0.850018 5.00044 0.940002 6.59046 0.940002 7.55046Z" fill="#323E48"/>
</svg>
