<svg width="12" height="15" viewBox="0 0 12 15" fill="none" xmlns="http://www.w3.org/2000/svg">
<path d="M11.03 13.42C11.03 12.84 10.98 12.2601 10.98 11.6801C10.98 10.5601 10.89 9.44006 10.81 8.31006C10.73 7.18006 10.74 5.97005 10.67 4.80005C10.67 4.48005 10.62 4.17005 10.6 3.86005C10.58 3.55005 10.6001 3.23004 10.5501 2.92004C10.5001 2.28004 10.5501 1.64005 10.5501 0.990051C10.5522 0.83431 10.518 0.680204 10.45 0.540039H10.0201C9.02006 0.540039 8.02005 0.600052 6.95005 0.710052C7.04005 1.65005 7.08005 2.60005 7.11005 3.55005C7.17005 5.66338 7.2367 7.77671 7.31003 9.89005L7.11005 9.52005C6.60005 8.60005 6.11004 7.66005 5.57004 6.74005C5.31004 6.29005 5.09003 5.83004 4.84003 5.38004C4.59003 4.93004 4.31003 4.50004 4.06003 4.04004C3.81003 3.58004 3.52005 3.15005 3.30005 2.68005C3.20005 2.46005 3.11006 2.25003 3.02006 2.03003C2.93006 1.81003 2.86005 1.72006 2.80005 1.56006C2.81972 1.29375 2.81972 1.02634 2.80005 0.76004C1.96096 0.815081 1.11913 0.815081 0.280035 0.76004C0.230035 1.76004 0.280035 2.68005 0.280035 3.64005C0.420035 7.24005 0.5967 10.84 0.810034 14.44L2.97004 14.22C2.97004 13.97 2.97004 13.7101 2.97004 13.4601C2.97004 12.9001 2.97003 12.35 2.90003 11.8C2.85003 10.7 2.90003 9.60004 2.90003 8.51004C2.90003 7.42004 2.90003 6.35005 2.90003 5.27005V4.20004L3.43003 5.20004C3.89003 6.03004 4.33004 6.87003 4.79004 7.69003C5.25004 8.51003 5.68005 9.33005 6.14005 10.1501C6.60005 10.9701 7.02004 11.64 7.47004 12.38C7.47004 13.03 7.47004 13.69 7.47004 14.38C8.13004 14.32 8.78004 14.24 9.47004 14.17C9.96004 14.17 10.47 14.1 10.93 14.1H11.1401C11.1256 13.8703 11.0888 13.6426 11.03 13.42V13.42Z" fill="#323E48"/>
</svg>
