<svg width="8" height="15" viewBox="0 0 8 15" fill="none" xmlns="http://www.w3.org/2000/svg">
<path d="M7.08041 6.4707C7.05709 5.85242 6.98351 5.23706 6.86041 4.63071C6.7366 4.01617 6.54891 3.41626 6.30042 2.84073L6.1604 2.49072C5.7335 2.02916 5.26854 1.60431 4.77042 1.2207L3.9704 0.970703C3.43608 0.990736 2.91314 1.13088 2.4404 1.38071H2.33041C2.15041 1.53071 1.9804 1.68073 1.8204 1.84073C1.3402 2.33476 0.995743 2.94444 0.820404 3.61072C0.808061 3.65053 0.783581 3.6855 0.750397 3.71072C0.665252 4.04009 0.598501 4.37394 0.550415 4.71072C0.470249 5.28438 0.420156 5.86181 0.400391 6.4407V6.52072C0.513284 8.50168 0.831671 10.4655 1.3504 12.3807C1.69613 13.2246 2.19446 13.9975 2.8204 14.6607C3.06096 14.7745 3.3171 14.8521 3.58041 14.8907C3.88943 14.9256 4.20139 14.9256 4.51041 14.8907L4.80042 14.7907C5.17645 14.6343 5.5167 14.4029 5.80042 14.1107C6.08042 13.6307 6.34041 13.1107 6.58041 12.6507C6.58476 12.6075 6.58476 12.5639 6.58041 12.5207C6.96377 10.949 7.16506 9.33841 7.18039 7.7207C7.15039 7.3507 7.11041 6.9107 7.08041 6.4707ZM5.08041 6.2507C5.01041 7.2507 5.08042 8.2507 4.99042 9.2507C4.96404 9.77569 4.87678 10.2959 4.73041 10.8007C4.68452 10.9973 4.59512 11.1812 4.46878 11.3387C4.34244 11.4961 4.18238 11.6233 4.0004 11.7107C3.0004 12.0907 2.67039 10.4707 2.59039 9.95071C2.49345 8.85062 2.52703 7.74293 2.6904 6.65073C2.6904 6.13073 2.69039 5.65073 2.81039 5.09073C2.93039 4.53073 2.9704 3.92071 3.4704 3.63071C3.52495 3.57317 3.58928 3.52578 3.6604 3.49072C3.80194 3.42906 3.95585 3.401 4.11005 3.40875C4.26424 3.41651 4.41452 3.45985 4.54916 3.5354C4.6838 3.61095 4.79912 3.71667 4.88608 3.84424C4.97304 3.97181 5.0293 4.11778 5.05042 4.27072C5.18542 4.92221 5.20572 5.59224 5.11041 6.2507H5.08041Z" fill="#323E48"/>
</svg>
