<svg width="9" height="14" viewBox="0 0 9 14" fill="none" xmlns="http://www.w3.org/2000/svg">
<path d="M0.380219 7.11011C0.380219 8.11011 0.450205 9.16011 0.460205 10.1801C0.460205 10.7201 0.460205 11.2601 0.460205 11.8001C0.430205 12.2663 0.430205 12.7339 0.460205 13.2001V13.3001C2.18021 13.4301 3.90021 13.3001 5.62021 13.2301H7.12021C7.73021 13.1801 8.32021 13.1701 8.93021 13.1701C8.88021 12.4101 8.82022 11.6401 8.82022 10.8701H8.56021C8.40021 10.8701 8.24023 10.8701 8.08023 10.8701H6.75021C5.86021 10.8701 4.96022 10.8701 4.07022 10.8701C3.66022 10.8701 3.24023 10.8701 2.83023 10.9601C2.42023 11.0501 2.17023 10.9601 1.83023 11.0301C1.83023 10.7401 1.83023 10.4401 1.83023 10.1401C1.83023 9.63011 1.88022 9.1401 1.88022 8.6001V8.1601C2.25022 8.1601 2.62023 8.0801 2.99023 8.0701C3.36023 8.0601 3.78022 8.1201 4.16022 8.0701C4.16022 7.3801 4.16023 6.69009 4.05023 6.00009C3.71722 5.97952 3.38325 5.97952 3.05023 6.00009H1.86023C1.86023 5.35009 1.86021 4.71012 1.81021 4.06012C1.81021 4.00012 1.81021 3.93012 1.81021 3.87012C1.91021 3.87012 2.03022 3.8701 2.13022 3.8201H2.78021L4.03021 3.7301C4.91021 3.6601 5.79023 3.6501 6.67023 3.5701H7.13022C6.99554 2.59275 6.96537 1.60386 7.04022 0.620117C6.24022 0.620117 5.44021 0.670103 4.65021 0.730103C3.19021 0.830103 1.65023 0.8101 0.240234 1.0401C0.240234 2.0901 0.240234 3.1501 0.240234 4.2001C0.240234 5.2501 0.380219 6.15011 0.380219 7.11011Z" fill="#323E48"/>
</svg>
