<svg width="8" height="15" viewBox="0 0 8 15" fill="none" xmlns="http://www.w3.org/2000/svg">
<path d="M6.45969 14.8703C6.81969 14.7403 7.62971 14.4903 7.97971 14.3603C7.97971 14.1203 4.16971 8.16029 4.07971 7.89029C3.98971 7.62029 3.98971 7.64029 3.94971 7.51029C3.9193 7.43078 3.88249 7.35385 3.83969 7.28027C3.95396 7.26599 4.06743 7.24597 4.17969 7.22028C4.71312 7.11752 5.21396 6.88771 5.63971 6.55029C6.01737 6.26549 6.32232 5.89541 6.52969 5.47028C6.64117 5.25738 6.72839 5.03266 6.7897 4.80029C6.81942 4.55787 6.81942 4.31271 6.7897 4.07028C6.79132 3.08709 6.4196 2.13995 5.74969 1.42029C5.32972 1.06667 4.83862 0.807474 4.30969 0.660279L3.8797 0.530275C2.64953 0.405273 1.40985 0.405273 0.179688 0.530275C0.179688 0.660275 0.179688 0.7803 0.179688 0.9003C0.179688 1.4803 0.179688 2.05028 0.179688 2.63028C0.179688 2.98028 0.179688 3.32028 0.179688 3.63028C0.18467 3.69685 0.18467 3.76372 0.179688 3.83029C0.179688 4.90029 0.179694 5.98029 0.279694 7.05029C0.379694 8.12029 0.3297 9.10028 0.3797 10.1303C0.4297 11.1603 0.479686 12.2403 0.459686 13.3003C0.459686 13.6003 0.459686 13.8903 0.459686 14.1903C0.444778 14.3366 0.444778 14.484 0.459686 14.6303C0.959686 14.6903 2.88971 14.7203 3.38971 14.7303C3.38971 13.9903 3.38971 13.2503 3.38971 12.5103C3.38971 11.3903 3.38971 10.2603 3.38971 9.14029C3.38971 9.24029 3.44972 9.35029 3.48972 9.45029C3.65972 9.97029 6.0697 13.9903 6.1897 14.2203C6.25334 14.447 6.34398 14.6652 6.45969 14.8703V14.8703ZM3.38971 6.7103C3.38971 4.8403 3.3297 2.98029 3.2597 1.11029C3.51059 1.15139 3.75796 1.21156 3.99969 1.29028C4.40418 1.40186 4.78409 1.58845 5.11969 1.8403C5.6891 2.38993 6.02261 3.13936 6.04971 3.9303C6.10189 4.29646 6.06764 4.66974 5.94971 5.0203C5.8136 5.3744 5.59807 5.69255 5.3197 5.95029C5.03891 6.22935 4.69632 6.43834 4.3197 6.5603C4.09191 6.62946 3.85712 6.67304 3.61969 6.69028L3.38971 6.7103Z" fill="#323E48"/>
</svg>
