<svg width="9" height="16" viewBox="0 0 9 16" fill="none" xmlns="http://www.w3.org/2000/svg">
<path d="M6.1503 0.530701C6.14638 0.55387 6.14638 0.577539 6.1503 0.600708C6.11454 0.620278 6.08351 0.647419 6.05933 0.680237C6.03514 0.713054 6.01841 0.750759 6.01031 0.79071C5.93856 1.33089 5.91178 1.8761 5.9303 2.42072C5.9303 2.78072 5.9303 3.13072 5.9303 3.49072C5.5103 3.49072 5.08031 3.57072 4.66031 3.58072C4.24031 3.59072 3.7803 3.65071 3.3403 3.70071C3.3403 2.64071 3.34033 1.59071 3.24033 0.54071C3.18782 0.501418 3.12556 0.477206 3.0603 0.470703C2.3103 0.470703 1.57031 0.54072 0.820312 0.55072C0.890313 1.55072 0.950316 2.62073 0.980316 3.65073C1.09032 7.60073 0.920322 11.5407 0.830322 15.4907C1.60941 15.5033 2.38746 15.4295 3.1503 15.2707C3.1503 14.5807 3.1503 13.8807 3.1503 13.1907C3.1503 10.4007 3.31032 7.60072 3.33032 4.80072L3.8103 4.73071L4.61032 4.62073C5.03032 4.57073 5.45031 4.53071 5.88031 4.51071C5.83031 5.64071 5.8103 6.77073 5.8103 7.90073C5.8103 9.03073 5.8103 10.3507 5.8103 11.5807C5.8103 12.1807 5.81031 12.7907 5.75031 13.3907C5.75031 13.6707 5.7003 13.9507 5.6803 14.2307C5.6603 14.5107 5.6803 14.8207 5.6803 15.1207C5.67023 15.1803 5.67023 15.2411 5.6803 15.3007L6.07031 15.4007C6.63031 15.4007 7.19031 15.4007 7.76031 15.4007C7.76031 15.0607 7.76031 14.7307 7.76031 14.4007C7.86031 11.9207 7.98032 9.40071 7.98032 6.95071C7.98032 4.84071 7.9803 2.72072 8.1203 0.610718C7.46274 0.659485 6.80174 0.632625 6.1503 0.530701Z" fill="#323E48"/>
</svg>
