<svg width="1920" height="90" viewBox="0 0 1920 90" fill="none" xmlns="http://www.w3.org/2000/svg">
<rect width="1920" height="90" fill="white"/>
<g clip-path="url(#clip0_141_148)">
<path d="M388.24 46.7601C387.742 45.8863 386.942 45.2248 385.99 44.9002C385.594 44.745 385.181 44.6409 384.76 44.5902C384.964 44.4869 385.161 44.37 385.35 44.2401C385.775 43.9626 386.159 43.6259 386.49 43.2401C386.782 42.8813 387.046 42.5001 387.28 42.1001C387.519 41.6569 387.668 41.171 387.72 40.6701C387.783 40.19 387.725 39.7016 387.55 39.2501C387.357 38.791 387.065 38.38 386.695 38.0464C386.325 37.7128 385.886 37.4649 385.41 37.3201C385 37.1739 384.583 37.0504 384.16 36.9501C383.237 36.8532 382.306 36.8767 381.39 37.0201C381.39 38.0901 381.39 39.1501 381.45 40.2101C381.57 44.0901 381.82 47.9602 381.88 51.8402H382.36C383.076 51.7484 383.797 51.7016 384.52 51.7001L385.73 51.4401C386.208 51.3157 386.654 51.092 387.04 50.7836C387.426 50.4752 387.743 50.089 387.97 49.6502C388.205 49.203 388.364 48.7196 388.44 48.2201C388.549 47.7252 388.478 47.2075 388.24 46.7601ZM384.34 43.3102L384.23 38.0602C384.417 38.1101 384.601 38.1735 384.78 38.2501C385.11 38.3517 385.415 38.5243 385.673 38.7557C385.93 38.9871 386.134 39.2719 386.27 39.5902C386.394 39.908 386.432 40.2529 386.38 40.5902C386.346 40.9398 386.244 41.2795 386.08 41.5902C385.921 41.8696 385.736 42.134 385.53 42.3801C385.305 42.6571 385.039 42.8967 384.74 43.0902L384.34 43.3102ZM386.99 48.0001C386.954 48.3535 386.841 48.6948 386.66 49.0001C386.481 49.2663 386.28 49.5171 386.06 49.7501C385.804 50.0163 385.515 50.2483 385.2 50.4401L384.76 50.6701L384.64 45.6701C384.96 45.7401 384.93 45.7601 385.25 45.8501C385.595 45.9364 385.918 46.0963 386.196 46.319C386.474 46.5417 386.7 46.8218 386.86 47.1401C386.977 47.4107 387.022 47.707 386.99 48.0001Z" fill="#323E48"/>
<path d="M388.94 44.5505C388.94 45.5505 389.04 47.0905 389.05 48.1105C389.05 48.6505 389.05 49.1905 389.05 49.7305C389.015 50.1965 389.015 50.6644 389.05 51.1304C389.046 51.1637 389.046 51.1972 389.05 51.2305C390.77 51.3605 392.49 51.2304 394.21 51.1604C394.391 50.3702 394.428 49.5539 394.32 48.7504C393.87 48.7504 393.08 48.7504 392.63 48.7504C392.18 48.7504 391.8 48.8005 391.4 48.8405C391 48.8805 390.73 48.8404 390.4 48.9104C390.4 48.6204 390.4 48.3205 390.4 48.0205C390.4 47.5105 390.4 46.5105 390.4 46.0205V45.5805C390.77 45.5805 391.14 45.5005 391.51 45.4905C391.88 45.4805 392.3 45.5405 392.68 45.4905C392.68 44.8005 392.68 44.1105 392.57 43.4205C392.237 43.3999 391.903 43.3999 391.57 43.4205H390.39C390.39 42.7805 390.34 41.4205 390.31 40.8005C390.315 40.7339 390.315 40.667 390.31 40.6004V40.6004C390.42 40.6004 390.53 40.6004 390.64 40.6004L391.28 40.5505L392.53 40.4704C393.41 40.4004 393.01 40.4705 393.88 40.3905H394.35C394.21 39.4169 394.18 38.4307 394.26 37.4505C393.894 37.4254 393.526 37.4254 393.16 37.4505C391.69 37.5505 390.16 37.5305 388.75 37.7705C388.75 38.8305 388.75 39.8804 388.8 40.9404C388.85 42.0004 388.94 43.5905 388.94 44.5505Z" fill="#323E48"/>
<path d="M378.85 39.2805C379.152 39.305 379.457 39.305 379.76 39.2805C379.76 38.4605 379.76 37.6305 379.76 36.8105C379.563 36.7636 379.361 36.7468 379.16 36.7605C378.7 36.7605 378.21 36.8105 377.76 36.8605C377.31 36.9105 376.62 36.9505 376.05 36.9905H375.17C374.952 36.9872 374.734 37.004 374.52 37.0405C374.52 37.8105 374.52 38.5905 374.52 39.3705C374.88 39.3705 375.25 39.2605 375.61 39.2505H376.12C376.12 39.8405 376.12 40.4205 376.12 41.0105C376.12 42.2105 376.12 43.4105 376.05 44.6105C376 46.4505 376.11 47.6105 376.05 49.4205H375.85C375.5 49.4205 375.17 49.4905 374.85 49.4905C374.85 49.7305 374.85 49.9705 374.9 50.2205C374.9 50.2205 374.9 50.2205 374.9 50.2905V50.6205C374.904 50.7104 374.904 50.8005 374.9 50.8905C374.9 51.2305 374.9 51.5705 374.9 51.8905C375.19 51.8905 375.51 51.8205 375.72 51.8105C375.93 51.8005 376.27 51.8105 376.55 51.8105C376.83 51.8105 377.2 51.8105 377.55 51.8105H379.13C379.278 51.8161 379.426 51.7851 379.56 51.7205C379.485 50.9261 379.455 50.1282 379.47 49.3305C379.26 49.3305 379.01 49.3305 378.83 49.3305H377.83C377.83 49.0705 377.83 48.8205 377.83 48.5605C377.83 47.8805 377.83 47.2105 377.83 46.5605C377.83 43.8905 377.77 41.9405 377.77 39.2605L378.85 39.2805Z" fill="#323E48"/>
<path d="M373.59 45.65C373.59 45.56 373.52 45.48 373.48 45.39C373.094 44.5184 372.664 43.6672 372.19 42.84C371.96 42.46 371.67 42.1 371.46 41.71C371.25 41.32 371 41 370.82 40.63C370.616 40.2337 370.506 39.7956 370.5 39.35C370.501 39.2643 370.518 39.1796 370.55 39.1C370.55 38.89 370.69 38.75 370.99 38.76C371.48 38.76 371.63 39.27 371.71 39.59C371.79 39.91 371.79 40.26 371.86 40.59L373.36 40.44C373.365 40.4001 373.365 40.3598 373.36 40.32C373.404 39.8923 373.361 39.4601 373.234 39.0494C373.107 38.6387 372.898 38.2579 372.62 37.93C372.135 37.4174 371.492 37.0826 370.794 36.9793C370.095 36.8759 369.383 37.01 368.77 37.36C368.389 37.5599 368.071 37.8609 367.85 38.23C367.628 38.5828 367.491 38.9822 367.45 39.3968C367.408 39.8115 367.463 40.2301 367.61 40.62C367.761 41.0073 367.956 41.3763 368.19 41.72C368.48 42.12 368.83 42.5 369.13 42.91C369.696 43.6566 370.17 44.4692 370.54 45.33C370.72 45.7724 370.858 46.2312 370.95 46.7C371.089 47.1566 371.12 47.6394 371.04 48.11C371.013 48.3062 370.932 48.4911 370.807 48.6445C370.682 48.7979 370.517 48.914 370.33 48.98C370.132 49.0498 369.917 49.0586 369.714 49.0051C369.511 48.9516 369.328 48.8383 369.19 48.68C368.87 48.3887 368.649 48.0038 368.56 47.58C368.532 47.4012 368.516 47.2208 368.51 47.04C367.51 47.09 366.59 47.12 365.64 47.09C365.63 47.2031 365.63 47.3169 365.64 47.43C365.62 47.6562 365.62 47.8838 365.64 48.11C365.699 48.5406 365.834 48.9573 366.04 49.34C366.422 50.1306 367.014 50.8015 367.75 51.28C368.033 51.4722 368.343 51.6205 368.67 51.72C369.602 51.8395 370.55 51.7612 371.45 51.49C371.914 51.2273 372.352 50.9227 372.76 50.58C373.18 49.7811 373.492 48.9305 373.69 48.05C373.69 47.99 373.69 47.92 373.69 47.86V47.62C373.695 47.5768 373.695 47.5332 373.69 47.49C373.692 46.8753 373.658 46.2609 373.59 45.65V45.65ZM372.1 50.29C372.102 50.2667 372.102 50.2433 372.1 50.22L372.17 50.15C372.152 50.199 372.128 50.2459 372.1 50.29Z" fill="#323E48"/>
<path d="M384.85 65.8305C385.209 65.7294 385.573 65.6492 385.94 65.5905C385.85 65.1005 385.77 64.5905 385.68 64.1305C384.99 60.2705 384.18 56.4305 383.5 52.5705C382.746 52.5907 381.991 52.5606 381.24 52.4805C380.99 53.2605 380.75 54.0505 380.53 54.8505C379.53 58.4505 378.72 62.2005 377.82 65.8505C378.651 65.8619 379.475 65.9899 380.27 66.2305C380.27 66.1605 380.27 66.0905 380.32 66.0305C380.45 65.4505 380.59 64.8805 380.73 64.3005L382.02 58.9205C382.49 58.9205 382.95 58.9205 383.42 58.8405C383.894 61.1805 384.37 63.5105 384.85 65.8305ZM382.78 55.7805C382.94 56.5705 383.1 57.3505 383.27 58.1405H382.21L382.36 57.5505L382.78 55.7805Z" fill="#323E48"/>
<path d="M398.03 65.42C398.03 64.84 397.98 64.2601 397.98 63.6801C397.98 62.5601 397.89 61.4401 397.81 60.3101C397.73 59.1801 397.74 57.97 397.67 56.8C397.67 56.48 397.62 56.17 397.6 55.86C397.58 55.55 397.6 55.23 397.55 54.92C397.5 54.28 397.55 53.6401 397.55 52.9901C397.552 52.8343 397.518 52.6802 397.45 52.54H397.02C396.02 52.54 395.02 52.6001 393.95 52.7101C394.04 53.6501 394.08 54.6 394.11 55.55C394.17 57.6634 394.237 59.7767 394.31 61.89L394.11 61.5201C393.6 60.6001 393.11 59.6601 392.57 58.7401C392.31 58.2901 392.09 57.83 391.84 57.38C391.59 56.93 391.31 56.5 391.06 56.04C390.81 55.58 390.52 55.1501 390.3 54.6801C390.2 54.4601 390.11 54.25 390.02 54.03C389.93 53.81 389.86 53.7201 389.8 53.5601C389.82 53.2938 389.82 53.0263 389.8 52.76C388.961 52.8151 388.119 52.8151 387.28 52.76C387.23 53.76 387.28 54.68 387.28 55.64C387.42 59.24 387.597 62.84 387.81 66.44L389.97 66.22C389.97 65.97 389.97 65.7101 389.97 65.4601C389.97 64.9001 389.97 64.35 389.9 63.8C389.85 62.7 389.9 61.6 389.9 60.51C389.9 59.42 389.9 58.3501 389.9 57.2701V56.2L390.43 57.2C390.89 58.03 391.33 58.87 391.79 59.69C392.25 60.51 392.68 61.3301 393.14 62.1501C393.6 62.9701 394.02 63.64 394.47 64.38C394.47 65.03 394.47 65.69 394.47 66.38C395.13 66.32 395.78 66.24 396.47 66.17C396.96 66.17 397.47 66.1 397.93 66.1H398.14C398.126 65.8703 398.089 65.6426 398.03 65.42V65.42Z" fill="#323E48"/>
<path d="M370.46 66.8703C370.82 66.7403 371.63 66.4903 371.98 66.3603C371.98 66.1203 368.17 60.1603 368.08 59.8903C367.99 59.6203 367.99 59.6403 367.95 59.5103C367.919 59.4308 367.882 59.3539 367.84 59.2803C367.954 59.266 368.067 59.246 368.18 59.2203C368.713 59.1175 369.214 58.8877 369.64 58.5503C370.017 58.2655 370.322 57.8954 370.53 57.4703C370.641 57.2574 370.728 57.0327 370.79 56.8003C370.819 56.5579 370.819 56.3127 370.79 56.0703C370.791 55.0871 370.42 54.1399 369.75 53.4203C369.33 53.0667 368.839 52.8075 368.31 52.6603L367.88 52.5303C366.65 52.4053 365.41 52.4053 364.18 52.5303C364.18 52.6603 364.18 52.7803 364.18 52.9003C364.18 53.4803 364.18 54.0503 364.18 54.6303C364.18 54.9803 364.18 55.3203 364.18 55.6303C364.185 55.6969 364.185 55.7637 364.18 55.8303C364.18 56.9003 364.18 57.9803 364.28 59.0503C364.38 60.1203 364.33 61.1003 364.38 62.1303C364.43 63.1603 364.48 64.2403 364.46 65.3003C364.46 65.6003 364.46 65.8903 364.46 66.1903C364.445 66.3366 364.445 66.484 364.46 66.6303C364.96 66.6903 366.89 66.7203 367.39 66.7303C367.39 65.9903 367.39 65.2503 367.39 64.5103C367.39 63.3903 367.39 62.2603 367.39 61.1403C367.39 61.2403 367.45 61.3503 367.49 61.4503C367.66 61.9703 370.07 65.9903 370.19 66.2203C370.253 66.447 370.344 66.6652 370.46 66.8703V66.8703ZM367.39 58.7103C367.39 56.8403 367.33 54.9803 367.26 53.1103C367.511 53.1514 367.758 53.2116 368 53.2903C368.404 53.4019 368.784 53.5884 369.12 53.8403C369.689 54.3899 370.023 55.1394 370.05 55.9303C370.102 56.2965 370.068 56.6697 369.95 57.0203C369.814 57.3744 369.598 57.6926 369.32 57.9503C369.039 58.2293 368.696 58.4383 368.32 58.5603C368.092 58.6295 367.857 58.673 367.62 58.6903L367.39 58.7103Z" fill="#323E48"/>
<path d="M373.7 52.5708C373.681 52.8004 373.681 53.0312 373.7 53.2608C373.7 53.5508 373.7 53.8408 373.64 54.1308C373.58 54.4208 373.64 54.7308 373.64 55.0308C373.64 55.6208 373.59 56.2108 373.59 56.8008C373.59 59.2408 373.46 61.6808 373.46 64.1308C373.46 64.4508 373.46 64.7708 373.46 65.1308C373.445 65.257 373.445 65.3846 373.46 65.5108C374.3 65.5108 375.14 65.4008 375.98 65.3408C375.98 64.8408 376.06 64.3408 376.06 63.8308C376.06 63.3208 376.06 62.8308 376.06 62.3008C376.06 61.2508 376.06 60.2108 376.16 59.1608C376.26 57.1608 376.31 55.2208 376.36 53.2608C376.36 53.0208 376.42 52.7708 376.41 52.5308C375.56 52.4808 374.63 52.5208 373.7 52.5708Z" fill="#323E48"/>
<path d="M373.01 67.63C373.01 67.63 373.01 67.7 372.95 67.72C372.95 67.98 372.98 68.24 373.04 68.5C373.402 68.8679 373.834 69.1602 374.31 69.36C374.622 69.4195 374.944 69.3878 375.239 69.2687C375.533 69.1496 375.787 68.9481 375.969 68.6884C376.152 68.4287 376.256 68.1219 376.268 67.8046C376.281 67.4874 376.202 67.1733 376.04 66.9C375.971 66.804 375.89 66.7167 375.8 66.64C375.341 66.5171 374.865 66.4665 374.39 66.49C374.002 66.4886 373.621 66.596 373.29 66.8C373.182 67.0714 373.088 67.3484 373.01 67.63Z" fill="#323E48"/>
<path d="M360.38 29.1101C360.38 30.1101 360.45 31.1601 360.46 32.1801C360.46 32.7201 360.46 33.2601 360.46 33.8001C360.43 34.2663 360.43 34.7339 360.46 35.2001V35.3001C362.18 35.4301 363.9 35.3001 365.62 35.2301H367.12C367.73 35.1801 368.32 35.1701 368.93 35.1701C368.88 34.4101 368.82 33.6401 368.82 32.8701H368.56C368.4 32.8701 368.24 32.8701 368.08 32.8701H366.75C365.86 32.8701 364.96 32.8701 364.07 32.8701C363.66 32.8701 363.24 32.8701 362.83 32.9601C362.42 33.0501 362.17 32.9601 361.83 33.0301C361.83 32.7401 361.83 32.4401 361.83 32.1401C361.83 31.6301 361.88 31.1401 361.88 30.6001V30.1601C362.25 30.1601 362.62 30.0801 362.99 30.0701C363.36 30.0601 363.78 30.1201 364.16 30.0701C364.16 29.3801 364.16 28.6901 364.05 28.0001C363.717 27.9795 363.383 27.9795 363.05 28.0001H361.86C361.86 27.3501 361.86 26.7101 361.81 26.0601C361.81 26.0001 361.81 25.9301 361.81 25.8701C361.91 25.8701 362.03 25.8701 362.13 25.8201H362.78L364.03 25.7301C364.91 25.6601 365.79 25.6501 366.67 25.5701H367.13C366.996 24.5928 366.965 23.6039 367.04 22.6201C366.24 22.6201 365.44 22.6701 364.65 22.7301C363.19 22.8301 361.65 22.8101 360.24 23.0401C360.24 24.0901 360.24 25.1501 360.24 26.2001C360.24 27.2501 360.38 28.1501 360.38 29.1101Z" fill="#323E48"/>
<path d="M381.15 21.5307C381.146 21.5539 381.146 21.5775 381.15 21.6007C381.115 21.6203 381.084 21.6474 381.059 21.6802C381.035 21.7131 381.018 21.7508 381.01 21.7907C380.939 22.3309 380.912 22.8761 380.93 23.4207C380.93 23.7807 380.93 24.1307 380.93 24.4907C380.51 24.4907 380.08 24.5707 379.66 24.5807C379.24 24.5907 378.78 24.6507 378.34 24.7007C378.34 23.6407 378.34 22.5907 378.24 21.5407C378.188 21.5014 378.126 21.4772 378.06 21.4707C377.31 21.4707 376.57 21.5407 375.82 21.5507C375.89 22.5507 375.95 23.6207 375.98 24.6507C376.09 28.6007 375.92 32.5407 375.83 36.4907C376.609 36.5033 377.387 36.4295 378.15 36.2707C378.15 35.5807 378.15 34.8807 378.15 34.1907C378.15 31.4007 378.31 28.6007 378.33 25.8007L378.81 25.7307L379.61 25.6207C380.03 25.5707 380.45 25.5307 380.88 25.5107C380.83 26.6407 380.81 27.7707 380.81 28.9007C380.81 30.0307 380.81 31.3507 380.81 32.5807C380.81 33.1807 380.81 33.7907 380.75 34.3907C380.75 34.6707 380.7 34.9507 380.68 35.2307C380.66 35.5107 380.68 35.8207 380.68 36.1207C380.67 36.1803 380.67 36.2411 380.68 36.3007L381.07 36.4007C381.63 36.4007 382.19 36.4007 382.76 36.4007C382.76 36.0607 382.76 35.7307 382.76 35.4007C382.86 32.9207 382.98 30.4007 382.98 27.9507C382.98 25.8407 382.98 23.7207 383.12 21.6107C382.463 21.6595 381.802 21.6326 381.15 21.5307Z" fill="#323E48"/>
<path d="M394.78 34.9203C394.78 34.3403 394.78 33.7603 394.73 33.1803C394.73 32.0503 394.64 30.9303 394.57 29.8103C394.5 28.6903 394.5 27.4603 394.43 26.2903C394.43 25.9803 394.38 25.6603 394.35 25.3503C394.32 25.0403 394.35 24.7303 394.35 24.4203C394.29 23.7703 394.35 23.1303 394.35 22.4903C394.348 22.3307 394.311 22.1735 394.24 22.0303H393.82C392.82 22.0303 391.76 22.1003 390.74 22.2003C390.83 23.1503 390.88 24.0903 390.9 25.0403C390.96 27.1603 391.04 29.2703 391.1 31.3803L390.9 31.0203C390.39 30.0903 389.9 29.1603 389.37 28.2403C389.11 27.7903 388.89 27.3303 388.63 26.8803C388.37 26.4303 388.1 25.9903 387.86 25.5403C387.62 25.0903 387.31 24.6403 387.1 24.1703C387 23.9603 386.91 23.7403 386.81 23.5303C386.71 23.3203 386.66 23.2203 386.6 23.0603C386.616 22.7939 386.616 22.5267 386.6 22.2603C385.758 22.3104 384.913 22.3104 384.07 22.2603C384.07 23.2603 384.07 24.1703 384.07 25.1303C384.21 28.7303 384.4 32.3403 384.61 35.9303L386.77 35.7203C386.77 35.4603 386.77 35.2103 386.77 34.9503C386.77 34.4003 386.77 33.8503 386.7 33.3003C386.64 32.2003 386.7 31.1003 386.7 30.0003C386.7 28.9003 386.7 27.8403 386.7 26.7703V25.7003C386.88 26.0303 387.05 26.3703 387.24 26.7003C387.69 27.5303 388.13 28.3603 388.59 29.1903C389.05 30.0203 389.49 30.8303 389.95 31.6403C390.41 32.4503 390.83 33.1403 391.27 33.8803C391.27 34.5303 391.27 35.1803 391.32 35.8303C391.97 35.7803 392.62 35.6903 393.32 35.6303C393.802 35.5818 394.286 35.5584 394.77 35.5603H394.99C394.936 35.3422 394.866 35.1282 394.78 34.9203V34.9203Z" fill="#323E48"/>
<path d="M402.08 27.4707C402.057 26.8524 401.984 26.2371 401.86 25.6307C401.737 25.0162 401.549 24.4163 401.3 23.8407L401.16 23.4907C400.734 23.0292 400.269 22.6043 399.77 22.2207L398.97 21.9707C398.436 21.9907 397.913 22.1309 397.44 22.3807H397.33C397.15 22.5307 396.98 22.6807 396.82 22.8407C396.34 23.3348 395.996 23.9444 395.82 24.6107C395.808 24.6505 395.784 24.6855 395.75 24.7107C395.665 25.0401 395.599 25.3739 395.55 25.7107C395.47 26.2844 395.42 26.8618 395.4 27.4407V27.5207C395.513 29.5017 395.832 31.4655 396.35 33.3807C396.696 34.2246 397.194 34.9975 397.82 35.6607C398.061 35.7745 398.317 35.8521 398.58 35.8907C398.889 35.9256 399.201 35.9256 399.51 35.8907L399.8 35.7907C400.176 35.6343 400.517 35.4029 400.8 35.1107C401.08 34.6307 401.34 34.1107 401.58 33.6507C401.585 33.6075 401.585 33.5639 401.58 33.5207C401.964 31.949 402.165 30.3384 402.18 28.7207C402.15 28.3507 402.11 27.9107 402.08 27.4707ZM400.08 27.2507C400.01 28.2507 400.08 29.2507 399.99 30.2507C399.964 30.7757 399.877 31.2959 399.73 31.8007C399.685 31.9973 399.595 32.1812 399.469 32.3387C399.342 32.4961 399.182 32.6233 399 32.7107C398 33.0907 397.67 31.4707 397.59 30.9507C397.493 29.8506 397.527 28.7429 397.69 27.6507C397.69 27.1307 397.69 26.6507 397.81 26.0907C397.93 25.5307 397.97 24.9207 398.47 24.6307C398.525 24.5732 398.589 24.5258 398.66 24.4907C398.802 24.4291 398.956 24.401 399.11 24.4088C399.264 24.4165 399.415 24.4598 399.549 24.5354C399.684 24.611 399.799 24.7167 399.886 24.8442C399.973 24.9718 400.029 25.1178 400.05 25.2707C400.185 25.9222 400.206 26.5922 400.11 27.2507H400.08Z" fill="#323E48"/>
<path d="M374.77 22.3604C373.57 22.3604 372.36 22.4204 371.16 22.4604C370.21 22.4604 369.26 22.4604 368.31 22.4604C368.207 23.5379 368.207 24.6228 368.31 25.7003L369.15 25.6504L370.69 25.6003V25.6603C370.555 28.9639 370.605 32.2724 370.84 35.5703H371.53H372.23C372.23 35.0903 372.23 34.5704 372.23 34.1204C372.23 32.1204 372.23 30.0503 372.29 28.0103C372.29 27.2103 372.29 26.4003 372.37 25.6003H372.83C373.22 25.6003 374.42 25.6603 374.94 25.6003C374.946 24.518 374.889 23.4361 374.77 22.3604V22.3604Z" fill="#323E48"/>
<path d="M367.16 22.0207H365.94C365.09 22.0207 364.25 22.0207 363.41 22.0907C362.12 22.1407 361.34 22.0307 360.04 22.0907C360.04 21.8907 360.11 20.6807 360.11 20.6807C360.29 20.6807 360.47 20.6807 360.65 20.6807C361.12 20.6807 361.59 20.6807 362.07 20.6807L367.18 20.7407L367.16 22.0207Z" fill="#323E48"/>
</g>
<path d="M1028.97 49.692C1032.43 49.692 1034.94 47.084 1034.94 43.9C1034.94 40.684 1032.46 38.108 1029 38.108C1025.55 38.108 1023.04 40.716 1023.04 43.9C1023.04 47.116 1025.52 49.692 1028.97 49.692ZM1029 47.42C1027.02 47.42 1025.61 45.82 1025.61 43.9C1025.61 41.948 1026.99 40.38 1028.97 40.38C1030.96 40.38 1032.36 41.98 1032.36 43.9C1032.36 45.852 1030.99 47.42 1029 47.42ZM1045.94 47.596C1044.74 47.596 1043.84 46.604 1043.84 45.388C1043.84 44.14 1044.67 43.148 1045.91 43.148C1047.11 43.148 1048 44.156 1048 45.388C1048 46.62 1047.19 47.596 1045.94 47.596ZM1045.91 49.692C1048.51 49.692 1050.4 47.724 1050.4 45.356C1050.4 43.004 1048.51 41.244 1046.34 41.244C1044.58 41.244 1043.54 42.124 1043.22 42.684C1043.28 41.868 1043.71 40.988 1045.3 40.668L1050 39.74L1049.62 37.82L1045.03 38.668C1041.81 39.26 1041.43 41.996 1041.43 44.572C1041.43 47.868 1043.01 49.692 1045.91 49.692ZM1052.13 52.06H1054.57V48.38C1055.14 49.068 1055.94 49.66 1057.24 49.66C1059.27 49.66 1061.14 48.092 1061.14 45.228C1061.14 42.332 1059.24 40.764 1057.24 40.764C1055.97 40.764 1055.16 41.356 1054.57 42.156V40.924H1052.13V52.06ZM1056.61 47.596C1055.48 47.596 1054.53 46.652 1054.53 45.228C1054.53 43.772 1055.48 42.828 1056.61 42.828C1057.75 42.828 1058.71 43.772 1058.71 45.196C1058.71 46.668 1057.75 47.596 1056.61 47.596ZM1067 49.692C1068.55 49.692 1069.7 49.084 1070.5 48.092L1069.11 46.86C1068.44 47.484 1067.84 47.74 1067.03 47.74C1065.94 47.74 1065.17 47.164 1064.93 46.06H1070.9C1070.92 45.836 1070.93 45.612 1070.93 45.42C1070.93 42.988 1069.62 40.764 1066.76 40.764C1064.26 40.764 1062.52 42.78 1062.52 45.228C1062.52 47.884 1064.42 49.692 1067 49.692ZM1064.9 44.54C1065.09 43.436 1065.75 42.716 1066.76 42.716C1067.78 42.716 1068.42 43.452 1068.56 44.54H1064.9ZM1080.6 40.924H1078.17V44.22H1075.18V40.924H1072.74V49.5H1075.18V46.22H1078.17V49.5H1080.6V40.924ZM1085.24 47.42C1085.77 46.156 1085.86 44.652 1085.88 43.196V43.004H1088.17V47.42H1085.24ZM1089.43 49.5V51.516H1091.48L1091.77 47.42H1090.6V40.924H1083.59V41.66C1083.59 43.724 1083.48 45.884 1082.76 47.42H1081.83V51.516H1083.88L1084.06 49.5H1089.43ZM1097.15 49.692C1098.7 49.692 1099.86 49.084 1100.66 48.092L1099.26 46.86C1098.59 47.484 1098 47.74 1097.18 47.74C1096.1 47.74 1095.33 47.164 1095.09 46.06H1101.06C1101.07 45.836 1101.09 45.612 1101.09 45.42C1101.09 42.988 1099.78 40.764 1096.91 40.764C1094.42 40.764 1092.67 42.78 1092.67 45.228C1092.67 47.884 1094.58 49.692 1097.15 49.692ZM1095.06 44.54C1095.25 43.436 1095.9 42.716 1096.91 42.716C1097.94 42.716 1098.58 43.452 1098.72 44.54H1095.06Z" fill="#16231C"/>
<path d="M1139.16 49.692C1141.19 49.692 1142.47 48.972 1143.64 47.788L1142.81 46.908C1141.73 47.932 1140.73 48.524 1139.19 48.524C1136.73 48.524 1134.85 46.492 1134.85 43.9C1134.85 41.292 1136.71 39.276 1139.19 39.276C1140.71 39.276 1141.77 39.916 1142.71 40.812L1143.54 39.916C1142.42 38.86 1141.24 38.108 1139.21 38.108C1135.91 38.108 1133.54 40.732 1133.54 43.9C1133.54 47.148 1135.93 49.692 1139.16 49.692ZM1145.64 49.5H1146.83L1151.75 42.956V49.5H1152.99V41.228H1151.79L1146.87 47.772V41.228H1145.64V49.5ZM1159.62 49.692C1162.07 49.692 1163.86 47.74 1163.86 45.436C1163.86 43.164 1162.06 41.324 1159.9 41.324C1158.14 41.324 1157.05 42.14 1156.47 43.116C1156.6 41.532 1157.18 40.604 1158.89 40.172L1163.37 39.068L1163.13 38.028L1158.52 39.116C1155.64 39.804 1155.43 42.364 1155.43 45.036C1155.43 47.916 1157.11 49.692 1159.62 49.692ZM1159.66 48.588C1157.99 48.588 1156.7 47.196 1156.7 45.468C1156.7 43.74 1157.91 42.348 1159.62 42.348C1161.29 42.348 1162.58 43.74 1162.58 45.468C1162.58 47.196 1161.37 48.588 1159.66 48.588ZM1166.09 49.5H1167.28L1172.21 42.956V49.5H1173.44V41.228H1172.24L1167.33 47.772V41.228H1166.09V49.5ZM1176.19 52.06H1177.42V47.916C1178.06 48.844 1179.05 49.676 1180.59 49.676C1182.59 49.676 1184.54 48.076 1184.54 45.372C1184.54 42.62 1182.57 41.052 1180.59 41.052C1179.07 41.052 1178.09 41.9 1177.42 42.892V41.228H1176.19V52.06ZM1180.36 48.572C1178.83 48.572 1177.37 47.292 1177.37 45.372C1177.37 43.452 1178.83 42.156 1180.36 42.156C1181.93 42.156 1183.28 43.404 1183.28 45.356C1183.28 47.388 1181.96 48.572 1180.36 48.572ZM1190.54 49.692C1192.09 49.692 1193.09 49.02 1193.92 48.092L1193.1 47.34C1192.45 48.044 1191.66 48.588 1190.61 48.588C1188.88 48.588 1187.57 47.164 1187.57 45.372C1187.57 43.564 1188.85 42.14 1190.53 42.14C1191.65 42.14 1192.41 42.668 1193.07 43.356L1193.85 42.524C1193.09 41.708 1192.11 41.052 1190.54 41.052C1188.13 41.052 1186.3 43.036 1186.3 45.372C1186.3 47.724 1188.13 49.692 1190.54 49.692ZM1195.95 49.5H1197.19V47.5L1198.93 45.708L1201.87 49.5H1203.33L1199.78 44.812L1203.23 41.228H1201.71L1197.19 45.996V41.228H1195.95V49.5ZM1205.03 49.5H1206.22L1211.14 42.956V49.5H1212.38V41.228H1211.18L1206.26 47.772V41.228H1205.03V49.5ZM1218.74 49.692C1220.31 49.692 1221.32 49.068 1222.15 48.14L1221.38 47.452C1220.71 48.156 1219.91 48.62 1218.77 48.62C1217.32 48.62 1216.04 47.612 1215.86 45.868H1222.42C1222.44 45.676 1222.44 45.548 1222.44 45.436C1222.44 43.004 1221.03 41.052 1218.58 41.052C1216.29 41.052 1214.61 42.972 1214.61 45.372C1214.61 47.948 1216.47 49.692 1218.74 49.692ZM1215.86 44.876C1216.04 43.276 1217.13 42.092 1218.55 42.092C1220.18 42.092 1221.05 43.372 1221.19 44.876H1215.86ZM1229.39 49.5H1230.58L1235.5 42.956V49.5H1236.74V41.228H1235.54L1230.62 47.772V41.228H1229.39V49.5ZM1239.49 49.5H1240.72V45.884H1245.49V49.5H1246.72V41.228H1245.49V44.796H1240.72V41.228H1239.49V49.5ZM1249.47 49.5H1250.7V42.316H1255.09V41.228H1249.47V49.5ZM1256.88 52.06H1258.11V47.916C1258.75 48.844 1259.74 49.676 1261.28 49.676C1263.28 49.676 1265.23 48.076 1265.23 45.372C1265.23 42.62 1263.26 41.052 1261.28 41.052C1259.76 41.052 1258.78 41.9 1258.11 42.892V41.228H1256.88V52.06ZM1261.05 48.572C1259.52 48.572 1258.06 47.292 1258.06 45.372C1258.06 43.452 1259.52 42.156 1261.05 42.156C1262.62 42.156 1263.96 43.404 1263.96 45.356C1263.96 47.388 1262.65 48.572 1261.05 48.572ZM1267.5 49.5H1268.69L1273.61 42.956V49.5H1274.85V41.228H1273.65L1268.73 47.772V41.228H1267.5V49.5ZM1276.38 51.564H1277.39L1277.61 49.5H1284.3V51.564H1285.32L1285.51 48.412H1284.27V41.228H1278.38V42.668C1278.38 45.452 1277.95 47.18 1277.27 48.412H1276.38V51.564ZM1278.59 48.412C1279.16 47.34 1279.56 45.516 1279.56 43.468V42.316H1283.03V48.412H1278.59ZM1287.2 49.5H1288.39L1293.32 42.956V49.5H1294.55V41.228H1293.35L1288.44 47.772V41.228H1287.2V49.5ZM1300.91 49.692C1302.48 49.692 1303.49 49.068 1304.32 48.14L1303.55 47.452C1302.88 48.156 1302.08 48.62 1300.95 48.62C1299.49 48.62 1298.21 47.612 1298.03 45.868H1304.59C1304.61 45.676 1304.61 45.548 1304.61 45.436C1304.61 43.004 1303.2 41.052 1300.75 41.052C1298.47 41.052 1296.79 42.972 1296.79 45.372C1296.79 47.948 1298.64 49.692 1300.91 49.692ZM1298.03 44.876C1298.21 43.276 1299.3 42.092 1300.72 42.092C1302.35 42.092 1303.22 43.372 1303.36 44.876H1298.03ZM1306.77 49.5H1308V45.884H1312.77V49.5H1314V41.228H1312.77V44.796H1308V41.228H1306.77V49.5ZM1318.75 49.5H1320V42.316H1322.96V41.228H1315.79V42.316H1318.75V49.5ZM1324.75 49.5H1328.34C1330.22 49.5 1331.45 48.46 1331.45 46.812C1331.45 45.068 1329.98 44.332 1328.19 44.332H1325.98V41.228H1324.75V49.5ZM1325.98 48.412V45.388H1328.18C1329.44 45.388 1330.21 45.884 1330.21 46.844C1330.21 47.884 1329.46 48.412 1328.22 48.412H1325.98ZM1332.94 49.5H1334.18V41.228H1332.94V49.5Z" fill="#16231C"/>
<path d="M1367.8 49.5H1369.07V46.492L1371.45 44.076L1375.75 49.5H1377.34L1372.33 43.196L1377.13 38.3H1375.5L1369.07 44.988V38.3H1367.8V49.5ZM1381.56 49.676C1383.01 49.676 1383.96 49.004 1384.53 48.268V49.5H1385.75V44.444C1385.75 43.388 1385.46 42.588 1384.89 42.012C1384.29 41.42 1383.38 41.1 1382.21 41.1C1381 41.1 1380.12 41.388 1379.21 41.804L1379.57 42.812C1380.34 42.46 1381.11 42.22 1382.09 42.22C1383.64 42.22 1384.53 42.988 1384.53 44.46V44.716C1383.8 44.508 1383.06 44.364 1382.01 44.364C1379.91 44.364 1378.47 45.292 1378.47 47.068C1378.47 48.796 1380.01 49.676 1381.56 49.676ZM1381.8 48.684C1380.68 48.684 1379.72 48.076 1379.72 47.036C1379.72 46.012 1380.6 45.34 1382.13 45.34C1383.14 45.34 1383.94 45.516 1384.55 45.692V46.46C1384.55 47.772 1383.32 48.684 1381.8 48.684ZM1390.36 49.5H1391.61V42.316H1394.57V41.228H1387.4V42.316H1390.36V49.5ZM1398.82 49.676C1400.28 49.676 1401.22 49.004 1401.8 48.268V49.5H1403.02V44.444C1403.02 43.388 1402.73 42.588 1402.15 42.012C1401.56 41.42 1400.65 41.1 1399.48 41.1C1398.26 41.1 1397.38 41.388 1396.47 41.804L1396.84 42.812C1397.61 42.46 1398.38 42.22 1399.35 42.22C1400.9 42.22 1401.8 42.988 1401.8 44.46V44.716C1401.06 44.508 1400.33 44.364 1399.27 44.364C1397.18 44.364 1395.74 45.292 1395.74 47.068C1395.74 48.796 1397.27 49.676 1398.82 49.676ZM1399.06 48.684C1397.94 48.684 1396.98 48.076 1396.98 47.036C1396.98 46.012 1397.86 45.34 1399.4 45.34C1400.41 45.34 1401.21 45.516 1401.82 45.692V46.46C1401.82 47.772 1400.58 48.684 1399.06 48.684ZM1405.23 49.628C1406.79 49.628 1407.96 48.956 1407.96 42.508V42.316H1411.42V49.5H1412.65V41.228H1406.79V41.916C1406.79 48.124 1405.96 48.556 1404.97 48.556C1404.83 48.556 1404.54 48.492 1404.38 48.444L1404.23 49.5C1404.49 49.564 1404.95 49.628 1405.23 49.628ZM1419.18 49.692C1421.68 49.692 1423.52 47.708 1423.52 45.372C1423.52 43.004 1421.7 41.052 1419.22 41.052C1416.72 41.052 1414.9 43.036 1414.9 45.372C1414.9 47.74 1416.7 49.692 1419.18 49.692ZM1419.22 48.588C1417.47 48.588 1416.16 47.148 1416.16 45.372C1416.16 43.596 1417.39 42.14 1419.18 42.14C1420.93 42.14 1422.26 43.596 1422.26 45.372C1422.26 47.148 1421.01 48.588 1419.22 48.588ZM1425.75 49.5H1426.98V42.316H1431.37V41.228H1425.75V49.5Z" fill="#16231C"/>
<path d="M1464.06 49.5H1465.32V39.452H1471.21V38.3H1464.06V49.5ZM1472.06 51.564H1473.07L1473.29 49.5H1479.98V51.564H1481L1481.19 48.412H1479.95V41.228H1474.06V42.668C1474.06 45.452 1473.63 47.18 1472.95 48.412H1472.06V51.564ZM1474.27 48.412C1474.84 47.34 1475.24 45.516 1475.24 43.468V42.316H1478.71V48.412H1474.27ZM1486.5 49.692C1488.07 49.692 1489.08 49.068 1489.91 48.14L1489.14 47.452C1488.47 48.156 1487.67 48.62 1486.53 48.62C1485.08 48.62 1483.8 47.612 1483.62 45.868H1490.18C1490.2 45.676 1490.2 45.548 1490.2 45.436C1490.2 43.004 1488.79 41.052 1486.34 41.052C1484.05 41.052 1482.37 42.972 1482.37 45.372C1482.37 47.948 1484.23 49.692 1486.5 49.692ZM1483.62 44.876C1483.8 43.276 1484.88 42.092 1486.31 42.092C1487.94 42.092 1488.8 43.372 1488.95 44.876H1483.62ZM1497.15 49.5H1498.38V47.5L1500.13 45.708L1503.07 49.5H1504.53L1500.97 44.812L1504.43 41.228H1502.91L1498.38 45.996V41.228H1497.15V49.5ZM1507.51 52.108C1508.76 52.108 1509.56 51.484 1510.26 49.772L1513.73 41.228H1512.42L1509.76 48.124L1506.76 41.228H1505.4L1509.16 49.468C1508.66 50.636 1508.2 51.02 1507.46 51.02C1506.93 51.02 1506.56 50.924 1506.16 50.716L1505.75 51.692C1506.31 51.964 1506.82 52.108 1507.51 52.108ZM1515.68 49.5H1516.91V42.316H1521.62V49.5H1522.85V41.228H1515.68V49.5ZM1525.6 49.5H1526.79L1531.71 42.956V49.5H1532.95V41.228H1531.75L1526.83 47.772V41.228H1525.6V49.5ZM1537.7 49.5H1538.94V42.316H1541.9V41.228H1534.74V42.316H1537.7V49.5ZM1543.7 49.5H1547.28C1549.17 49.5 1550.4 48.46 1550.4 46.812C1550.4 45.068 1548.93 44.332 1547.14 44.332H1544.93V41.228H1543.7V49.5ZM1544.93 48.412V45.388H1547.12C1548.38 45.388 1549.15 45.884 1549.15 46.844C1549.15 47.884 1548.4 48.412 1547.17 48.412H1544.93ZM1554.45 46.332H1555.27L1555.43 44.604C1557.25 44.348 1558.75 43.356 1558.75 41.356C1558.75 39.5 1557.33 38.156 1555.17 38.156C1553.46 38.156 1552.32 38.908 1551.41 40.012L1552.23 40.796C1553.04 39.852 1553.95 39.292 1555.14 39.292C1556.58 39.292 1557.47 40.22 1557.47 41.372C1557.47 42.748 1556.37 43.612 1554.29 43.66L1554.21 43.74L1554.45 46.332ZM1554.11 49.5H1555.59V47.82H1554.11V49.5Z" fill="#16231C"/>
<defs>
<clipPath id="clip0_141_148">
<rect width="42.16" height="48.7" fill="white" transform="translate(360 20.6504)"/>
</clipPath>
</defs>
</svg>
